<?xml version="1.0" encoding="utf-8"?>
<!-- Generator: Adobe Illustrator 21.0.2, SVG Export Plug-In . SVG Version: 6.00 Build 0)  -->
<svg version="1.1" id="General" xmlns="http://www.w3.org/2000/svg" xmlns:xlink="http://www.w3.org/1999/xlink" x="0px" y="0px"
	 width="288px" height="216px" viewBox="0 0 288 216" style="enable-background:new 0 0 288 216;" xml:space="preserve">
<style type="text/css">
	.st0{fill:#FFFFFF;}
</style>
<g>
	<g>
		<path class="st0" d="M205.2,166.6c0,0,27-46.6,63.4-52.4C268.6,114.2,239.1,108.4,205.2,166.6"/>
		<path class="st0" d="M207.6,136.3c-8-11.4-29.2-14.8-52.9-15.4c-9-0.2-18.4-0.1-27.6,0.2c-27.4,0.8-53,2.5-61.6-2.5
			c7.9,5.2,17.9,7.9,28.8,9.1c7.9,0.9,16.3,1,24.8,0.8c46.3-1.1,96-11.6,85.8,38.8l0,0l1.8-3.6l1.3-2.7
			C212.4,150.1,211.7,142.1,207.6,136.3z"/>
		<path class="st0" d="M186.4,130.5c-37.9-5.6-110.4,14.5-126,7.6l0.1,0.1c36.5,15.3,124.2-23.6,142.2,4.8
			C199.5,136.5,193.8,132.7,186.4,130.5z"/>
		<path class="st0" d="M90.8,128.4c-22.7,4.4-38.8,6.7-48.3,3v0.1c21.4,7.4,43.9,3.9,70.9-1.9C104.9,129.8,98.4,129.3,90.8,128.4z"
			/>
		<path class="st0" d="M132.7,120.1c7.7-0.2,15.4-0.3,22.9-0.1c1.3,0,2.5,0.1,3.7,0.1c23.6-3.9,42-3.1,47.4,13.1
			c0.6,0.7,1.2,1.4,1.8,2.2c3.8,5.4,4.6,12.7,1.4,22.3l0.4-0.8C227.8,108.1,181.8,111.1,132.7,120.1z"/>
		<path class="st0" d="M22.8,161.8c0-6.8,5.2-11.6,11.6-11.6c4,0,7.1,1.5,9,4.4l-1.8,1.3c-1.5-2.2-3.9-3.6-7.2-3.6
			c-5.3,0-9.1,4-9.1,9.4s3.8,9.4,9.1,9.4c3.3,0,5.8-1.4,7.5-3.8l1.9,1.3c-2,2.9-5.3,4.7-9.3,4.7C28,173.4,22.8,168.6,22.8,161.8z"/>
		<path class="st0" d="M44.8,167v-7.7h2.3v7.6c0,2.9,1.1,4.4,3.8,4.4s3.8-1.6,3.8-4.4v-7.6H57v7.7c0,4-2.4,6.4-6.1,6.4
			C47.1,173.4,44.8,171,44.8,167z"/>
		<path class="st0" d="M60.7,149H63v24.1h-2.3V149z"/>
		<path class="st0" d="M67.6,168.9v-7.7h-2.1v-2h2.1V152h2.3v7.2h3.9v2h-3.9v7.7c0,1.8,0.6,2.4,1.6,2.4c0.9,0,1.4-0.4,1.9-0.8
			l1.3,1.5c-0.6,0.6-1.7,1.4-3.4,1.4C69.2,173.4,67.6,172.2,67.6,168.9z"/>
		<path class="st0" d="M75.9,167v-7.7h2.3v7.6c0,2.9,1.1,4.4,3.8,4.4c2.7,0,3.8-1.6,3.8-4.4v-7.6h2.3v7.7c0,4-2.4,6.4-6.1,6.4
			C78.1,173.4,75.9,171,75.9,167z"/>
		<path class="st0" d="M91.6,159.3h2.3l-0.1,2.7c0.9-2.1,2.4-3,4-3c1,0,1.8,0.2,2.4,0.7l-0.9,2c-0.4-0.3-1-0.5-1.9-0.5
			c-2,0-3.6,1.4-3.6,4.6v7.3h-2.3L91.6,159.3L91.6,159.3z"/>
		<path class="st0" d="M101.3,166.2c0-4.1,2.9-7.2,6.6-7.2c2.6,0,4.3,1.3,5.3,3.3l-0.1-3h2.3v13.8h-2.3l0.1-3
			c-0.9,1.8-2.8,3.2-5.3,3.2C104.2,173.4,101.3,170.3,101.3,166.2z M113.2,166.2c0-2.9-1.9-5.1-4.8-5.1s-4.7,2.1-4.7,5.1
			s1.8,5.2,4.7,5.2C111.3,171.3,113.2,169.2,113.2,166.2z"/>
		<path class="st0" d="M119.2,149h2.3v24.1h-2.3V149z"/>
		<path class="st0" d="M124.9,150.4h2.6l6.2,15.4c0.5,1.1,1,3.1,1,3.1s0.5-1.9,1-3.1l6.2-15.4h2.4l-9.4,22.9h-0.4L124.9,150.4z"/>
		<path class="st0" d="M144.3,159.3h2.3v13.8h-2.3V159.3z"/>
		<path class="st0" d="M148.7,170.2l1.8-1c0.8,1.3,2,2.3,4,2.3c1.9,0,2.9-0.8,2.9-2.1c0-1.5-1.2-1.8-3.6-2.5
			c-2.2-0.6-4.2-1.5-4.2-4.1c0-2.4,2-3.8,4.5-3.8c2.1,0,3.6,0.9,4.6,2.2l-1.6,1.2c-0.7-1-1.7-1.6-3-1.6c-1.5,0-2.4,0.7-2.4,1.8
			c0,1.3,0.8,1.7,3.3,2.4c2.3,0.6,4.6,1.6,4.6,4.2c0,2.3-1.6,4.1-5,4.1C151.6,173.4,149.6,171.9,148.7,170.2z"/>
		<path class="st0" d="M163.1,168.9v-7.7H161v-2h2.1V152h2.3v7.2h3.9v2h-3.9v7.7c0,1.8,0.6,2.4,1.6,2.4c0.9,0,1.4-0.4,1.9-0.8
			l1.3,1.5c-0.6,0.6-1.7,1.4-3.4,1.4C164.7,173.4,163.1,172.2,163.1,168.9z"/>
		<path class="st0" d="M171.3,166.2c0-4.1,2.9-7.2,6.6-7.2c2.6,0,4.3,1.3,5.3,3.3l-0.1-3h2.3v13.8h-2.3l0.1-3
			c-0.9,1.8-2.8,3.2-5.3,3.2C174.2,173.4,171.3,170.3,171.3,166.2z M183.2,166.2c0-2.9-1.9-5.1-4.8-5.1c-2.9,0-4.7,2.1-4.7,5.1
			s1.8,5.2,4.7,5.2C181.3,171.3,183.2,169.2,183.2,166.2z"/>
		<path class="st0" d="M187.2,170.2l1.8-1c0.8,1.3,2,2.3,4,2.3c1.9,0,2.9-0.8,2.9-2.1c0-1.5-1.2-1.8-3.6-2.5
			c-2.2-0.6-4.2-1.5-4.2-4.1c0-2.4,2-3.8,4.5-3.8c2.1,0,3.6,0.9,4.6,2.2l-1.6,1.2c-0.7-1-1.7-1.6-3-1.6c-1.5,0-2.4,0.7-2.4,1.8
			c0,1.3,0.8,1.7,3.3,2.4c2.3,0.6,4.6,1.6,4.6,4.2c0,2.3-1.6,4.1-5,4.1C190.1,173.4,188.1,171.9,187.2,170.2z"/>
		<g>
			<path class="st0" d="M208.7,170.9c0.1-0.3,0.3-0.5,0.5-0.7s0.4-0.3,0.7-0.4c0.3-0.1,0.5-0.1,0.8-0.1s0.6,0,0.8,0.1
				c0.3,0.1,0.5,0.2,0.7,0.4s0.4,0.4,0.5,0.7s0.2,0.5,0.2,0.9c0,0.3-0.1,0.6-0.2,0.9c-0.1,0.3-0.3,0.5-0.5,0.7s-0.4,0.3-0.7,0.4
				c-0.3,0.1-0.5,0.1-0.8,0.1s-0.6,0-0.8-0.1c-0.3-0.1-0.5-0.2-0.7-0.4s-0.4-0.4-0.5-0.7s-0.2-0.5-0.2-0.9
				C208.6,171.4,208.6,171.1,208.7,170.9z M209.3,172.4c0.1,0.2,0.2,0.4,0.3,0.5s0.3,0.3,0.5,0.3c0.2,0.1,0.4,0.1,0.6,0.1
				c0.2,0,0.4,0,0.6-0.1c0.2-0.1,0.4-0.2,0.5-0.3s0.3-0.3,0.3-0.5c0.1-0.2,0.1-0.4,0.1-0.7c0-0.2,0-0.5-0.1-0.7s-0.2-0.4-0.3-0.5
				s-0.3-0.3-0.5-0.3c-0.2-0.1-0.4-0.1-0.6-0.1c-0.2,0-0.4,0-0.6,0.1c-0.2,0.1-0.4,0.2-0.5,0.3s-0.3,0.3-0.3,0.5
				c-0.1,0.2-0.1,0.4-0.1,0.7C209.1,172,209.2,172.2,209.3,172.4z M210.8,170.6c0.3,0,0.5,0.1,0.7,0.2c0.2,0.1,0.2,0.3,0.2,0.5
				c0,0.1,0,0.2,0,0.3s-0.1,0.1-0.1,0.2c-0.1,0-0.1,0.1-0.2,0.1c-0.1,0-0.2,0-0.2,0l0.6,1h-0.5l-0.6-1h-0.3v1h-0.5v-2.3H210.8z
				 M210.7,171.5c0.1,0,0.2,0,0.3-0.1c0.1,0,0.1-0.1,0.1-0.3c0-0.1,0-0.1,0-0.2l-0.1-0.1c0,0-0.1,0-0.2,0c-0.1,0-0.1,0-0.2,0h-0.4
				v0.6h0.5L210.7,171.5L210.7,171.5z"/>
		</g>
	</g>
</g>
</svg>
