<?xml version="1.0" encoding="utf-8"?>
<!-- Generator: Adobe Illustrator 21.1.0, SVG Export Plug-In . SVG Version: 6.00 Build 0)  -->
<svg version="1.1" id="Layer_1" xmlns="http://www.w3.org/2000/svg" xmlns:xlink="http://www.w3.org/1999/xlink" x="0px" y="0px"
	 width="450px" height="221.5px" viewBox="0 0 450 221.5" style="enable-background:new 0 0 450 221.5;" xml:space="preserve">
<style type="text/css">
	.st0{fill:#00ADEE;}
	.st1{fill:#E65121;}
	.st2{fill:#FBB216;}
	.st3{fill:#80BC41;}
	.st4{fill:#EF5323;}
</style>
<g>
</g>
<g>
</g>
<g>
</g>
<g>
</g>
<g>
</g>
<g>
</g>
<g>
</g>
<text transform="matrix(1 0 0 1 178.9189 -35.6035)"><tspan x="0" y="0" class="st0" style="font-family:'ProximaNovaCond-Bold'; font-size:16px;">W</tspan><tspan x="12.1" y="0" class="st0" style="font-family:'ProximaNovaCond-Bold'; font-size:16px;">HE</tspan><tspan x="29.2" y="0" class="st0" style="font-family:'ProximaNovaCond-Bold'; font-size:16px;">R</tspan><tspan x="37.9" y="0" class="st0" style="font-family:'ProximaNovaCond-Bold'; font-size:16px;">E D</tspan><tspan x="58.1" y="0" class="st0" style="font-family:'ProximaNovaCond-Bold'; font-size:16px;">I</tspan><tspan x="62" y="0" class="st0" style="font-family:'ProximaNovaCond-Bold'; font-size:16px;">D </tspan><tspan x="74.6" y="0" class="st0" style="font-family:'ProximaNovaCond-Bold'; font-size:16px;">I</tspan><tspan x="78.4" y="0" class="st0" style="font-family:'ProximaNovaCond-Bold'; font-size:16px;">T </tspan><tspan x="89.1" y="0" class="st0" style="font-family:'ProximaNovaCond-Bold'; font-size:16px;">G</tspan><tspan x="98.3" y="0" class="st0" style="font-family:'ProximaNovaCond-Bold'; font-size:16px;">O</tspan><tspan x="107.9" y="0" class="st0" style="font-family:'ProximaNovaCond-Bold'; font-size:16px;">?</tspan></text>
<g>
</g>
<g>
	<g>
		<polygon class="st1" points="232.3,45.7 205.1,18.5 95.7,18.5 95.7,17.5 205.5,17.5 233,45 		"/>
	</g>
	<g>
		<polygon class="st0" points="299.4,72.4 298.7,71.7 326.3,44.3 436,44.3 436,45.3 326.7,45.3 		"/>
	</g>
	<g>
		<polygon class="st2" points="170.2,72.2 143,45 33.6,45 33.6,44 143.4,44 170.9,71.4 		"/>
	</g>
	<g>
		<polygon class="st3" points="123.7,185.7 14,185.7 14,184.7 123.3,184.7 150.6,157.5 151.3,158.2 		"/>
	</g>
	<g>
		<path class="st4" d="M234.7,86.8V44c-2,0-4.2,0.1-6.2,0.2l3,42.6c1-0.1,2-0.1,3-0.1C234.6,86.8,234.7,86.8,234.7,86.8"/>
	</g>
	<g>
		<path class="st2" d="M231.5,86.9l-3-42.6c-25.4,1.8-46.7,12.9-62.8,32.7l33.1,26.8C206.7,94.1,218.4,87.7,231.5,86.9"/>
	</g>
	<g>
		<path class="st3" d="M198.9,103.7l-33.1-26.8c-24.7,30.5-26.8,71.3-5.5,104.2l35.7-23.2c-4.7-7.2-7.5-15.9-7.5-25.1
			C188.5,121.8,192.4,111.7,198.9,103.7"/>
	</g>
	<g>
		<path class="st0" d="M323.5,132.8c0-49-39.7-88.7-88.8-88.7v42.7c25.3,0.1,45.9,20.7,45.9,46c0,25.4-20.6,46-46,46
			c-16.1,0-30.3-8.3-38.5-20.9l-35.7,23.2c17.1,26.3,43.1,40.4,74.4,40.4C283.7,221.5,323.5,181.8,323.5,132.8"/>
	</g>
	<g>
		<path class="st3" d="M14.8,176.2c4.1-3.1,5.8-4.5,5.8-6.1c0-1.1-1-1.6-1.9-1.6c-1.2,0-2.2,0.5-2.9,1.3l-1.1-1.2
			c0.9-1.1,2.4-1.7,3.9-1.7c2.1,0,3.9,1.2,3.9,3.3c0,2-1.8,3.7-4.7,5.9h4.7v1.6h-7.7V176.2z"/>
		<path class="st3" d="M28.3,166.8c3,0,4.3,2.8,4.3,5.5s-1.3,5.5-4.3,5.5s-4.3-2.8-4.3-5.5S25.3,166.8,28.3,166.8z M28.3,168.5
			c-1.7,0-2.4,1.8-2.4,3.8s0.6,3.9,2.4,3.9s2.4-1.8,2.4-3.9S30.1,168.5,28.3,168.5z"/>
		<path class="st3" d="M36.4,166.8c1.6,0,2.7,1.2,2.7,2.7c0,1.5-1.1,2.6-2.7,2.6c-1.6,0-2.6-1.1-2.6-2.6
			C33.7,168,34.8,166.8,36.4,166.8z M36.4,167.9c-0.8,0-1.4,0.6-1.4,1.6c0,0.9,0.6,1.6,1.4,1.6c0.8,0,1.4-0.7,1.4-1.6
			C37.8,168.5,37.2,167.9,36.4,167.9z M42.2,167h1.1l-6.8,10.7h-1.1L42.2,167z M42.1,172.6c1.6,0,2.7,1.2,2.7,2.7
			c0,1.5-1.1,2.6-2.7,2.6s-2.6-1.1-2.6-2.6C39.5,173.7,40.5,172.6,42.1,172.6z M42.1,173.6c-0.8,0-1.4,0.6-1.4,1.6
			c0,0.9,0.6,1.6,1.4,1.6c0.8,0,1.4-0.6,1.4-1.6C43.5,174.3,42.9,173.6,42.1,173.6z"/>
	</g>
	<g>
		<path class="st3" d="M18.5,191.5c2.4,0,4.1,1.8,4.1,4.1s-1.7,4.1-4.1,4.1c-2.4,0-4.1-1.8-4.1-4.1S16.1,191.5,18.5,191.5z
			 M18.5,192.8c-1.6,0-2.7,1.2-2.7,2.9c0,1.6,1,2.9,2.7,2.9c1.6,0,2.7-1.2,2.7-2.9C21.2,194,20.1,192.8,18.5,192.8z"/>
		<path class="st3" d="M28,198.9c-0.4,0.5-1.1,0.9-2.1,0.9c-1.2,0-1.9-0.6-1.9-1.8v-4.1h1.3v3.6c0,0.9,0.5,1.2,1.2,1.2
			c0.6,0,1.2-0.4,1.5-0.8v-4.1h1.3v5.8H28V198.9z"/>
		<path class="st3" d="M31.1,198.3V195h-1v-1.1h1v-1.6h1.3v1.6h1.2v1.1h-1.2v3c0,0.4,0.2,0.7,0.6,0.7c0.2,0,0.5-0.1,0.6-0.2l0.3,0.9
			c-0.2,0.2-0.6,0.4-1.2,0.4C31.7,199.8,31.1,199.3,31.1,198.3z"/>
		<path class="st3" d="M34.8,191.7H36v3c0.5-0.6,1.1-0.9,1.9-0.9c1.5,0,2.6,1.2,2.6,3c0,1.9-1.1,3-2.6,3c-0.8,0-1.4-0.4-1.9-0.9v0.8
			h-1.3V191.7z M37.5,198.7c1,0,1.6-0.8,1.6-1.9c0-1.1-0.6-1.9-1.6-1.9c-0.6,0-1.2,0.4-1.5,0.8v2.3
			C36.3,198.4,36.9,198.7,37.5,198.7z"/>
		<path class="st3" d="M41.5,196.8c0-1.7,1.1-3,3-3c1.9,0,3,1.4,3,3c0,1.7-1.1,3-3,3C42.6,199.8,41.5,198.4,41.5,196.8z M46.1,196.8
			c0-1-0.6-1.9-1.7-1.9c-1.1,0-1.7,0.9-1.7,1.9c0,1,0.6,1.9,1.7,1.9C45.5,198.7,46.1,197.8,46.1,196.8z"/>
		<path class="st3" d="M52.6,198.9c-0.4,0.5-1.1,0.9-2.1,0.9c-1.2,0-1.9-0.6-1.9-1.8v-4.1H50v3.6c0,0.9,0.5,1.2,1.2,1.2
			c0.6,0,1.2-0.4,1.5-0.8v-4.1h1.3v5.8h-1.3V198.9z"/>
		<path class="st3" d="M59.5,196c0-0.9-0.5-1.2-1.2-1.2c-0.6,0-1.2,0.4-1.5,0.8v4h-1.3v-5.8h1.3v0.8c0.4-0.5,1.1-0.9,2-0.9
			c1.2,0,1.9,0.7,1.9,1.9v4.1h-1.3V196z"/>
		<path class="st3" d="M66.5,198.9c-0.4,0.6-1.1,0.9-1.9,0.9c-1.5,0-2.6-1.1-2.6-3c0-1.9,1.1-3,2.6-3c0.7,0,1.4,0.3,1.9,0.9v-3h1.3
			v8h-1.3V198.9z M66.5,195.6c-0.3-0.4-0.9-0.8-1.5-0.8c-1,0-1.6,0.8-1.6,1.9c0,1.1,0.6,1.9,1.6,1.9c0.6,0,1.2-0.3,1.5-0.8V195.6z"
			/>
		<path class="st3" d="M75.2,198.5h-0.9V196h-2.2v-0.8h2.2v-2.4h0.9v2.4h2.2v0.8h-2.2V198.5z"/>
		<path class="st3" d="M84.6,196.7h-1.4v3h-1.4v-8h3.5c1.6,0,2.6,1,2.6,2.5c0,1.4-0.9,2.2-1.9,2.4l2,3.1h-1.6L84.6,196.7z
			 M85.1,192.9h-1.9v2.5h1.9c0.8,0,1.4-0.5,1.4-1.3S85.9,192.9,85.1,192.9z"/>
		<path class="st3" d="M91.8,193.7c1.7,0,2.9,1.3,2.9,3.2v0.3h-4.5c0.1,0.9,0.8,1.6,1.8,1.6c0.6,0,1.2-0.2,1.6-0.6l0.6,0.8
			c-0.6,0.6-1.4,0.8-2.3,0.8c-1.7,0-3-1.2-3-3C88.9,195.1,90.1,193.7,91.8,193.7z M90.2,196.3h3.3c0-0.7-0.5-1.5-1.6-1.5
			C90.7,194.8,90.2,195.6,90.2,196.3z"/>
		<path class="st3" d="M98.6,193.7c1.1,0,1.8,0.5,2.2,1l-0.8,0.8c-0.3-0.5-0.8-0.7-1.3-0.7c-1.1,0-1.8,0.8-1.8,1.9
			c0,1.1,0.7,1.9,1.8,1.9c0.6,0,1-0.2,1.3-0.7l0.8,0.8c-0.4,0.6-1.1,1-2.2,1c-1.8,0-3-1.3-3-3C95.6,195,96.9,193.7,98.6,193.7z"/>
		<path class="st3" d="M101.8,192.2c0-0.4,0.4-0.8,0.8-0.8c0.4,0,0.8,0.3,0.8,0.8s-0.3,0.8-0.8,0.8
			C102.1,193,101.8,192.6,101.8,192.2z M101.9,193.9h1.3v5.8h-1.3V193.9z"/>
		<path class="st3" d="M104.8,201.9v-8h1.3v0.8c0.4-0.6,1.1-0.9,1.9-0.9c1.5,0,2.6,1.1,2.6,3s-1.1,3-2.6,3c-0.7,0-1.4-0.3-1.9-0.9v3
			H104.8z M107.6,194.8c-0.6,0-1.2,0.3-1.5,0.8v2.3c0.3,0.4,0.9,0.8,1.5,0.8c1,0,1.6-0.8,1.6-1.9
			C109.2,195.6,108.6,194.8,107.6,194.8z"/>
		<path class="st3" d="M111.9,193.9h1.3v0.9c0.4-0.6,1.1-1,1.9-1v1.2c-0.1,0-0.2,0-0.4,0c-0.5,0-1.2,0.4-1.5,0.8v3.9h-1.3V193.9z"/>
		<path class="st3" d="M115.6,196.8c0-1.7,1.1-3,3-3c1.9,0,3,1.4,3,3c0,1.7-1.1,3-3,3C116.8,199.8,115.6,198.4,115.6,196.8z
			 M120.3,196.8c0-1-0.6-1.9-1.7-1.9c-1.1,0-1.7,0.9-1.7,1.9c0,1,0.6,1.9,1.7,1.9C119.7,198.7,120.3,197.8,120.3,196.8z"/>
		<path class="st3" d="M125.6,193.7c1.1,0,1.8,0.5,2.2,1l-0.8,0.8c-0.3-0.5-0.8-0.7-1.3-0.7c-1.1,0-1.8,0.8-1.8,1.9
			c0,1.1,0.7,1.9,1.8,1.9c0.6,0,1-0.2,1.3-0.7l0.8,0.8c-0.4,0.6-1.1,1-2.2,1c-1.8,0-3-1.3-3-3C122.6,195,123.8,193.7,125.6,193.7z"
			/>
		<path class="st3" d="M132.5,199c-0.4,0.5-1.1,0.8-1.9,0.8c-0.9,0-2-0.6-2-1.9c0-1.3,1.1-1.9,2-1.9c0.8,0,1.5,0.3,1.9,0.7v-0.9
			c0-0.7-0.6-1.1-1.4-1.1c-0.6,0-1.2,0.2-1.7,0.7l-0.5-0.9c0.7-0.6,1.5-0.9,2.4-0.9c1.3,0,2.4,0.5,2.4,2.1v3.8h-1.3V199z
			 M132.5,197.5c-0.3-0.4-0.8-0.6-1.4-0.6c-0.7,0-1.2,0.4-1.2,1c0,0.6,0.5,1,1.2,1c0.6,0,1.1-0.2,1.4-0.6V197.5z"/>
		<path class="st3" d="M135.4,191.7h1.3v8h-1.3V191.7z"/>
	</g>
	<g>
		<path class="st3" d="M14.8,204.7h5.5v1.2h-4.1v2.1h4v1.2h-4v2.2h4.1v1.2h-5.5V204.7z"/>
		<path class="st3" d="M24.1,210.5l-1.5,2.1h-1.4l2.1-3l-2-2.8h1.4l1.4,2l1.4-2h1.4l-2,2.8l2.1,3h-1.4L24.1,210.5z"/>
		<path class="st3" d="M30.3,206.7c1.1,0,1.8,0.5,2.2,1l-0.8,0.8c-0.3-0.5-0.8-0.7-1.3-0.7c-1.1,0-1.8,0.8-1.8,1.9
			c0,1.1,0.7,1.9,1.8,1.9c0.6,0,1-0.2,1.3-0.7l0.8,0.8c-0.4,0.6-1.1,1-2.2,1c-1.8,0-3-1.3-3-3C27.3,208,28.6,206.7,30.3,206.7z"/>
		<path class="st3" d="M37.6,209c0-0.9-0.5-1.2-1.2-1.2c-0.6,0-1.2,0.4-1.5,0.8v4h-1.3v-8h1.3v3c0.4-0.5,1.1-0.9,2.1-0.9
			c1.2,0,1.9,0.6,1.9,1.8v4.1h-1.3V209z"/>
		<path class="st3" d="M44,212c-0.4,0.5-1.1,0.8-1.9,0.8c-0.9,0-2-0.6-2-1.9c0-1.3,1.1-1.9,2-1.9c0.8,0,1.5,0.3,1.9,0.7v-0.9
			c0-0.7-0.6-1.1-1.4-1.1c-0.6,0-1.2,0.2-1.7,0.7l-0.5-0.9c0.7-0.6,1.5-0.9,2.4-0.9c1.3,0,2.4,0.5,2.4,2.1v3.8H44V212z M44,210.5
			c-0.3-0.4-0.8-0.6-1.4-0.6c-0.7,0-1.2,0.4-1.2,1c0,0.6,0.5,1,1.2,1c0.6,0,1.1-0.2,1.4-0.6V210.5z"/>
		<path class="st3" d="M50.8,209c0-0.9-0.5-1.2-1.2-1.2c-0.6,0-1.2,0.4-1.5,0.8v4h-1.3v-5.8h1.3v0.8c0.4-0.5,1.1-0.9,2-0.9
			c1.2,0,1.9,0.7,1.9,1.9v4.1h-1.3V209z"/>
		<path class="st3" d="M54.3,213.2c0.5,0.5,1.1,0.7,1.8,0.7c0.8,0,1.7-0.4,1.7-1.6v-0.7c-0.4,0.6-1.1,1-1.9,1c-1.5,0-2.6-1.1-2.6-3
			c0-1.9,1.1-3,2.6-3c0.7,0,1.4,0.3,1.9,0.9v-0.8h1.3v5.5c0,2.1-1.5,2.7-3,2.7c-1,0-1.7-0.2-2.4-0.9L54.3,213.2z M57.8,208.6
			c-0.3-0.4-0.9-0.8-1.5-0.8c-1,0-1.6,0.7-1.6,1.9c0,1.1,0.6,1.9,1.6,1.9c0.6,0,1.2-0.3,1.5-0.8V208.6z"/>
		<path class="st3" d="M63.3,206.7c1.7,0,2.9,1.3,2.9,3.2v0.3h-4.5c0.1,0.9,0.8,1.6,1.8,1.6c0.6,0,1.2-0.2,1.6-0.6l0.6,0.8
			c-0.6,0.6-1.4,0.8-2.4,0.8c-1.7,0-3-1.2-3-3C60.4,208.1,61.6,206.7,63.3,206.7z M61.7,209.3H65c0-0.7-0.5-1.5-1.6-1.5
			C62.2,207.8,61.8,208.6,61.7,209.3z"/>
		<path class="st3" d="M70.7,204.7h3.5c1.7,0,2.6,1.2,2.6,2.5s-0.9,2.5-2.6,2.5h-2.1v3h-1.4V204.7z M74,205.9h-1.9v2.5H74
			c0.8,0,1.4-0.5,1.4-1.3S74.8,205.9,74,205.9z"/>
		<path class="st3" d="M77.9,206.9h1.3v0.9c0.4-0.6,1.1-1,1.9-1v1.2c-0.1,0-0.2,0-0.4,0c-0.5,0-1.2,0.4-1.5,0.8v3.9h-1.3V206.9z"/>
		<path class="st3" d="M81.7,209.8c0-1.7,1.1-3,3-3c1.9,0,3,1.4,3,3c0,1.7-1.1,3-3,3C82.8,212.8,81.7,211.4,81.7,209.8z M86.3,209.8
			c0-1-0.6-1.9-1.7-1.9c-1.1,0-1.7,0.9-1.7,1.9c0,1,0.6,1.9,1.7,1.9C85.7,211.7,86.3,210.8,86.3,209.8z"/>
		<path class="st3" d="M89.5,213.2c0.5,0.5,1.1,0.7,1.8,0.7c0.8,0,1.7-0.4,1.7-1.6v-0.7c-0.4,0.6-1.1,1-1.9,1c-1.5,0-2.6-1.1-2.6-3
			c0-1.9,1.1-3,2.6-3c0.7,0,1.4,0.3,1.9,0.9v-0.8h1.3v5.5c0,2.1-1.5,2.7-3,2.7c-1,0-1.7-0.2-2.4-0.9L89.5,213.2z M93.1,208.6
			c-0.3-0.4-0.9-0.8-1.5-0.8c-1,0-1.6,0.7-1.6,1.9c0,1.1,0.6,1.9,1.6,1.9c0.6,0,1.2-0.3,1.5-0.8V208.6z"/>
		<path class="st3" d="M96,206.9h1.3v0.9c0.4-0.6,1.1-1,1.9-1v1.2c-0.1,0-0.2,0-0.4,0c-0.5,0-1.2,0.4-1.5,0.8v3.9H96V206.9z"/>
		<path class="st3" d="M103.7,212c-0.4,0.5-1.1,0.8-1.9,0.8c-0.9,0-2-0.6-2-1.9c0-1.3,1.1-1.9,2-1.9c0.8,0,1.5,0.3,1.9,0.7v-0.9
			c0-0.7-0.6-1.1-1.4-1.1c-0.6,0-1.2,0.2-1.7,0.7l-0.5-0.9c0.7-0.6,1.5-0.9,2.4-0.9c1.3,0,2.4,0.5,2.4,2.1v3.8h-1.3V212z
			 M103.7,210.5c-0.3-0.4-0.8-0.6-1.4-0.6c-0.7,0-1.2,0.4-1.2,1c0,0.6,0.5,1,1.2,1c0.6,0,1.1-0.2,1.4-0.6V210.5z"/>
		<path class="st3" d="M113.7,208.9c0-0.6-0.3-1-0.9-1c-0.6,0-1.1,0.4-1.3,0.8v4.1h-1.3v-3.8c0-0.6-0.3-1-1-1
			c-0.6,0-1.1,0.4-1.3,0.8v4h-1.3v-5.8h1.3v0.8c0.2-0.4,1-0.9,1.9-0.9c0.9,0,1.4,0.4,1.6,1.1c0.3-0.5,1.1-1.1,2-1.1
			c1.1,0,1.7,0.6,1.7,1.8v4.2h-1.3V208.9z"/>
		<path class="st3" d="M116.7,211c0.4,0.4,1.2,0.8,2,0.8s1.1-0.3,1.1-0.7c0-0.5-0.6-0.7-1.3-0.8c-1-0.2-2.2-0.5-2.2-1.8
			c0-0.9,0.8-1.8,2.3-1.8c1,0,1.7,0.3,2.3,0.8l-0.5,0.9c-0.3-0.4-1-0.7-1.7-0.7c-0.7,0-1.1,0.2-1.1,0.6c0,0.4,0.6,0.6,1.3,0.8
			c1,0.2,2.2,0.5,2.2,1.9c0,1-0.9,1.8-2.4,1.8c-1,0-1.9-0.3-2.5-0.9L116.7,211z"/>
	</g>
	<g>
		<path class="st2" d="M36.6,28.7l-1.7,1.8l-1.1-1.1l3.1-3.1h1.6v10.7h-1.9V28.7z"/>
		<path class="st2" d="M41,34.2c0.7,0.8,1.8,1.3,3,1.3c1.4,0,2.2-0.6,2.2-1.6c0-1.1-0.8-1.5-2.4-1.5c-0.4,0-1.1,0-1.2,0v-1.7
			c0.2,0,0.8,0,1.2,0c1.2,0,2.2-0.4,2.2-1.4c0-1-1-1.5-2.2-1.5c-1.1,0-2,0.4-2.8,1.2l-1-1.2c0.8-1,2.1-1.7,3.9-1.7
			c2.3,0,3.9,1.1,3.9,2.9c0,1.4-1.2,2.3-2.3,2.4c1,0.1,2.5,0.9,2.5,2.6c0,1.8-1.6,3.1-4,3.1c-1.9,0-3.3-0.8-4-1.7L41,34.2z"/>
		<path class="st2" d="M51.9,26.1c1.6,0,2.7,1.2,2.7,2.7c0,1.5-1.1,2.6-2.7,2.6c-1.6,0-2.6-1.1-2.6-2.6
			C49.3,27.3,50.3,26.1,51.9,26.1z M51.9,27.2c-0.8,0-1.4,0.6-1.4,1.6c0,0.9,0.6,1.6,1.4,1.6c0.8,0,1.4-0.7,1.4-1.6
			C53.3,27.8,52.8,27.2,51.9,27.2z M57.7,26.3h1.1L52,36.9h-1.1L57.7,26.3z M57.7,31.8c1.6,0,2.7,1.2,2.7,2.7c0,1.5-1.1,2.6-2.7,2.6
			c-1.6,0-2.6-1.1-2.6-2.6C55,33,56.1,31.8,57.7,31.8z M57.7,32.9c-0.8,0-1.4,0.6-1.4,1.6c0,0.9,0.6,1.6,1.4,1.6s1.4-0.6,1.4-1.6
			C59.1,33.6,58.5,32.9,57.7,32.9z"/>
	</g>
	<g>
		<path class="st2" d="M41.3,52.9l-2.5,6.1h-0.6l-2.4-6.1v6.1h-1.4v-8h2l2.2,5.4l2.2-5.4h2v8h-1.4V52.9z"/>
		<path class="st2" d="M48,58.3c-0.4,0.5-1.1,0.8-1.9,0.8c-0.9,0-2-0.6-2-1.9c0-1.3,1.1-1.9,2-1.9c0.8,0,1.5,0.3,1.9,0.7v-0.9
			c0-0.7-0.6-1.1-1.4-1.1c-0.6,0-1.2,0.2-1.7,0.7l-0.5-0.9c0.7-0.6,1.5-0.9,2.4-0.9c1.3,0,2.4,0.5,2.4,2.1v3.8H48V58.3z M48,56.8
			c-0.3-0.4-0.8-0.6-1.4-0.6c-0.7,0-1.2,0.4-1.2,1c0,0.6,0.5,1,1.2,1c0.6,0,1.1-0.2,1.4-0.6V56.8z"/>
		<path class="st2" d="M54.8,55.3c0-0.9-0.5-1.2-1.2-1.2c-0.6,0-1.2,0.4-1.5,0.8v4h-1.3v-5.8h1.3v0.8c0.4-0.5,1.1-0.9,2-0.9
			c1.2,0,1.9,0.7,1.9,1.9v4.1h-1.3V55.3z"/>
		<path class="st2" d="M61.2,58.3c-0.4,0.5-1.1,0.8-1.9,0.8c-0.9,0-2-0.6-2-1.9c0-1.3,1.1-1.9,2-1.9c0.8,0,1.5,0.3,1.9,0.7v-0.9
			c0-0.7-0.6-1.1-1.4-1.1c-0.6,0-1.2,0.2-1.7,0.7l-0.5-0.9c0.7-0.6,1.5-0.9,2.4-0.9c1.3,0,2.4,0.5,2.4,2.1v3.8h-1.3V58.3z
			 M61.2,56.8c-0.3-0.4-0.8-0.6-1.4-0.6c-0.7,0-1.2,0.4-1.2,1c0,0.6,0.5,1,1.2,1c0.6,0,1.1-0.2,1.4-0.6V56.8z"/>
		<path class="st2" d="M64.7,59.5c0.5,0.5,1.1,0.7,1.8,0.7c0.8,0,1.7-0.4,1.7-1.6V58c-0.4,0.6-1.1,1-1.9,1c-1.5,0-2.6-1.1-2.6-3
			c0-1.9,1.1-3,2.6-3c0.7,0,1.4,0.3,1.9,0.9v-0.8h1.3v5.5c0,2.1-1.5,2.7-3,2.7c-1,0-1.7-0.2-2.4-0.9L64.7,59.5z M68.2,54.9
			c-0.3-0.4-0.9-0.8-1.5-0.8c-1,0-1.6,0.7-1.6,1.9c0,1.1,0.6,1.9,1.6,1.9c0.6,0,1.2-0.3,1.5-0.8V54.9z"/>
		<path class="st2" d="M73.7,53c1.7,0,2.9,1.3,2.9,3.2v0.3h-4.5c0.1,0.9,0.8,1.6,1.8,1.6c0.6,0,1.2-0.2,1.6-0.6l0.6,0.8
			c-0.6,0.6-1.4,0.8-2.4,0.8c-1.7,0-3-1.2-3-3C70.8,54.4,72,53,73.7,53z M72.1,55.6h3.3c0-0.7-0.5-1.5-1.6-1.5
			C72.7,54,72.2,54.9,72.1,55.6z"/>
		<path class="st2" d="M85,55.2c0-0.6-0.3-1-0.9-1c-0.6,0-1.1,0.4-1.3,0.8v4.1h-1.3v-3.8c0-0.6-0.3-1-1-1c-0.6,0-1.1,0.4-1.3,0.8v4
			h-1.3v-5.8h1.3v0.8c0.2-0.4,1-0.9,1.9-0.9c0.9,0,1.4,0.4,1.6,1.1c0.3-0.5,1.1-1.1,2-1.1c1.1,0,1.7,0.6,1.7,1.8v4.2H85V55.2z"/>
		<path class="st2" d="M90.5,53c1.7,0,2.9,1.3,2.9,3.2v0.3h-4.5c0.1,0.9,0.8,1.6,1.8,1.6c0.6,0,1.2-0.2,1.6-0.6l0.6,0.8
			c-0.6,0.6-1.4,0.8-2.4,0.8c-1.7,0-3-1.2-3-3C87.5,54.4,88.8,53,90.5,53z M88.9,55.6h3.3c0-0.7-0.5-1.5-1.6-1.5
			C89.4,54,88.9,54.9,88.9,55.6z"/>
		<path class="st2" d="M98.5,55.3c0-0.9-0.5-1.2-1.2-1.2c-0.6,0-1.2,0.4-1.5,0.8v4h-1.3v-5.8h1.3v0.8c0.4-0.5,1.1-0.9,2-0.9
			c1.2,0,1.9,0.7,1.9,1.9v4.1h-1.3V55.3z"/>
		<path class="st2" d="M101.7,57.6v-3.3h-1v-1.1h1v-1.6h1.3v1.6h1.2v1.1H103v3c0,0.4,0.2,0.7,0.6,0.7c0.2,0,0.5-0.1,0.6-0.2l0.3,0.9
			c-0.2,0.2-0.6,0.4-1.2,0.4C102.2,59.1,101.7,58.6,101.7,57.6z"/>
	</g>
	<g>
		<path class="st2" d="M37,70.8h-0.9v-2.5h-2.2v-0.8h2.2v-2.4H37v2.4h2.2v0.8H37V70.8z"/>
		<path class="st2" d="M47.4,63.8c1.6,0,2.6,0.7,3.2,1.7l-1.2,0.6c-0.4-0.6-1.2-1.1-2.1-1.1c-1.6,0-2.8,1.2-2.8,2.9
			c0,1.7,1.2,2.9,2.8,2.9c0.8,0,1.5-0.4,1.9-0.7v-1.2h-2.4v-1.2h3.8v3c-0.8,0.9-1.9,1.5-3.3,1.5c-2.3,0-4.2-1.6-4.2-4.2
			C43.2,65.4,45.1,63.8,47.4,63.8z"/>
		<path class="st2" d="M54.9,66c1.7,0,2.9,1.3,2.9,3.2v0.3h-4.5c0.1,0.9,0.8,1.6,1.8,1.6c0.6,0,1.2-0.2,1.6-0.6l0.6,0.8
			c-0.6,0.6-1.4,0.8-2.3,0.8c-1.7,0-3-1.2-3-3C51.9,67.4,53.2,66,54.9,66z M53.2,68.6h3.3c0-0.7-0.5-1.5-1.6-1.5
			C53.8,67,53.3,67.9,53.2,68.6z"/>
		<path class="st2" d="M62.9,68.3c0-0.9-0.5-1.2-1.2-1.2c-0.6,0-1.2,0.4-1.5,0.8v4H59v-5.8h1.3v0.8c0.4-0.5,1.1-0.9,2-0.9
			c1.2,0,1.9,0.7,1.9,1.9v4.1h-1.3V68.3z"/>
		<path class="st2" d="M68.4,66c1.7,0,2.9,1.3,2.9,3.2v0.3h-4.5c0.1,0.9,0.8,1.6,1.8,1.6c0.6,0,1.2-0.2,1.6-0.6l0.6,0.8
			c-0.6,0.6-1.4,0.8-2.4,0.8c-1.7,0-3-1.2-3-3C65.5,67.4,66.7,66,68.4,66z M66.8,68.6h3.3c0-0.7-0.5-1.5-1.6-1.5
			C67.3,67,66.8,67.9,66.8,68.6z"/>
		<path class="st2" d="M72.6,66.2h1.3V67c0.4-0.6,1.1-1,1.9-1v1.2c-0.1,0-0.2,0-0.4,0c-0.5,0-1.2,0.4-1.5,0.8v3.9h-1.3V66.2z"/>
		<path class="st2" d="M80.3,71.3c-0.4,0.5-1.1,0.8-1.9,0.8c-0.9,0-2-0.6-2-1.9c0-1.3,1.1-1.9,2-1.9c0.8,0,1.5,0.3,1.9,0.7v-0.9
			c0-0.7-0.6-1.1-1.4-1.1c-0.6,0-1.2,0.2-1.7,0.7l-0.5-0.9c0.7-0.6,1.5-0.9,2.4-0.9c1.3,0,2.4,0.5,2.4,2.1v3.8h-1.3V71.3z
			 M80.3,69.8c-0.3-0.4-0.8-0.6-1.4-0.6c-0.7,0-1.2,0.4-1.2,1c0,0.6,0.5,1,1.2,1c0.6,0,1.1-0.2,1.4-0.6V69.8z"/>
		<path class="st2" d="M83.2,63.9h1.3v8h-1.3V63.9z"/>
	</g>
	<g>
		<path class="st1" d="M98.8,2.6L97,4.4l-1.1-1.1L99,0.2h1.6v10.7h-1.9V2.6z"/>
		<path class="st1" d="M104.9,0c1.6,0,2.7,1.2,2.7,2.7c0,1.5-1.1,2.6-2.7,2.6c-1.6,0-2.6-1.1-2.6-2.6C102.2,1.2,103.3,0,104.9,0z
			 M104.9,1.1c-0.8,0-1.4,0.6-1.4,1.6c0,0.9,0.6,1.6,1.4,1.6c0.8,0,1.4-0.7,1.4-1.6C106.3,1.7,105.7,1.1,104.9,1.1z M110.7,0.2h1.1
			l-6.8,10.7h-1.1L110.7,0.2z M110.6,5.7c1.6,0,2.7,1.2,2.7,2.7c0,1.5-1.1,2.6-2.7,2.6c-1.6,0-2.6-1.1-2.6-2.6
			C108,6.9,109,5.7,110.6,5.7z M110.6,6.8c-0.8,0-1.4,0.6-1.4,1.6c0,0.9,0.6,1.6,1.4,1.6c0.8,0,1.4-0.6,1.4-1.6
			C112,7.4,111.5,6.8,110.6,6.8z"/>
	</g>
	<g>
		<path class="st1" d="M96.6,24.8h5.5v1.2H98v2.1h4v1.2h-4v3.5h-1.4V24.8z"/>
		<path class="st1" d="M107.1,32.1c-0.4,0.5-1.1,0.9-2.1,0.9c-1.2,0-1.9-0.6-1.9-1.8V27h1.3v3.6c0,0.9,0.5,1.2,1.2,1.2
			c0.6,0,1.2-0.4,1.5-0.8V27h1.3v5.8h-1.3V32.1z"/>
		<path class="st1" d="M113.9,29.2c0-0.9-0.5-1.2-1.2-1.2c-0.6,0-1.2,0.4-1.5,0.8v4H110V27h1.3v0.8c0.4-0.5,1.1-0.9,2-0.9
			c1.2,0,1.9,0.7,1.9,1.9v4.1h-1.3V29.2z"/>
		<path class="st1" d="M120.9,32c-0.4,0.6-1.1,0.9-1.9,0.9c-1.5,0-2.6-1.1-2.6-3c0-1.9,1.1-3,2.6-3c0.7,0,1.4,0.3,1.9,0.9v-3h1.3v8
			h-1.3V32z M120.9,28.8c-0.3-0.4-0.9-0.8-1.5-0.8c-1,0-1.6,0.8-1.6,1.9c0,1.1,0.6,1.9,1.6,1.9c0.6,0,1.2-0.3,1.5-0.8V28.8z"/>
		<path class="st1" d="M123.8,27h1.3v0.9c0.4-0.6,1.1-1,1.9-1v1.2c-0.1,0-0.2,0-0.4,0c-0.5,0-1.2,0.4-1.5,0.8v3.9h-1.3V27z"/>
		<path class="st1" d="M131.5,32.2c-0.4,0.5-1.1,0.8-1.9,0.8c-0.9,0-2-0.6-2-1.9c0-1.3,1.1-1.9,2-1.9c0.8,0,1.5,0.3,1.9,0.7v-0.9
			c0-0.7-0.6-1.1-1.4-1.1c-0.6,0-1.2,0.2-1.7,0.7l-0.5-0.9c0.7-0.6,1.5-0.9,2.4-0.9c1.3,0,2.4,0.5,2.4,2.1v3.8h-1.3V32.2z
			 M131.5,30.6c-0.3-0.4-0.8-0.6-1.4-0.6c-0.7,0-1.2,0.4-1.2,1c0,0.6,0.5,1,1.2,1c0.6,0,1.1-0.2,1.4-0.6V30.6z"/>
		<path class="st1" d="M134.2,25.4c0-0.4,0.4-0.8,0.8-0.8c0.4,0,0.8,0.3,0.8,0.8s-0.3,0.8-0.8,0.8C134.6,26.2,134.2,25.8,134.2,25.4
			z M134.4,27h1.3v5.8h-1.3V27z"/>
		<path class="st1" d="M137.4,31.2c0.4,0.4,1.2,0.8,2,0.8c0.8,0,1.1-0.3,1.1-0.7c0-0.5-0.6-0.7-1.3-0.8c-1-0.2-2.2-0.5-2.2-1.8
			c0-0.9,0.8-1.8,2.3-1.8c1,0,1.7,0.3,2.3,0.8l-0.5,0.9c-0.3-0.4-1-0.7-1.7-0.7c-0.7,0-1.1,0.2-1.1,0.6c0,0.4,0.6,0.6,1.3,0.8
			c1,0.2,2.2,0.5,2.2,1.9c0,1-0.9,1.8-2.4,1.8c-1,0-1.9-0.3-2.5-0.9L137.4,31.2z"/>
		<path class="st1" d="M142.8,25.4c0-0.4,0.4-0.8,0.8-0.8c0.4,0,0.8,0.3,0.8,0.8s-0.3,0.8-0.8,0.8C143.2,26.2,142.8,25.8,142.8,25.4
			z M143,27h1.3v5.8H143V27z"/>
		<path class="st1" d="M149.8,29.2c0-0.9-0.5-1.2-1.2-1.2c-0.6,0-1.2,0.4-1.5,0.8v4h-1.3V27h1.3v0.8c0.4-0.5,1.1-0.9,2-0.9
			c1.2,0,1.9,0.7,1.9,1.9v4.1h-1.3V29.2z"/>
		<path class="st1" d="M153.3,33.4c0.5,0.5,1.1,0.7,1.8,0.7c0.8,0,1.7-0.4,1.7-1.6v-0.7c-0.4,0.6-1.1,1-1.9,1c-1.5,0-2.6-1.1-2.6-3
			c0-1.9,1.1-3,2.6-3c0.7,0,1.4,0.3,1.9,0.9V27h1.3v5.5c0,2.1-1.5,2.7-3,2.7c-1,0-1.7-0.2-2.4-0.9L153.3,33.4z M156.8,28.8
			c-0.3-0.4-0.9-0.8-1.5-0.8c-1,0-1.6,0.7-1.6,1.9c0,1.1,0.6,1.9,1.6,1.9c0.6,0,1.2-0.3,1.5-0.8V28.8z"/>
	</g>
	<g>
		<path class="st0" d="M410.4,27.1c1.3,0,2.4,0.5,3.1,1.2l-0.9,1.4c-0.6-0.6-1.2-0.9-2.2-0.9c-1.8,0-2.8,1.6-2.8,3.5
			c0,0.1,0,0.2,0,0.3c0.5-0.7,1.6-1.5,2.9-1.5c1.9,0,3.6,1.2,3.6,3.4c0,2-1.6,3.6-3.9,3.6c-3.1,0-4.4-2.5-4.4-5.5
			C405.7,29.5,407.3,27.1,410.4,27.1z M410,32.7c-0.9,0-1.8,0.5-2.3,1.3c0.1,1.2,0.7,2.5,2.4,2.5c1.4,0,2.1-1,2.1-1.9
			C412.2,33.3,411.1,32.7,410,32.7z"/>
		<path class="st0" d="M420.1,27.1c1.3,0,2.4,0.5,3.1,1.2l-0.9,1.4c-0.6-0.6-1.2-0.9-2.2-0.9c-1.8,0-2.8,1.6-2.8,3.5
			c0,0.1,0,0.2,0,0.3c0.5-0.7,1.6-1.5,2.9-1.5c1.9,0,3.6,1.2,3.6,3.4c0,2-1.6,3.6-3.9,3.6c-3.1,0-4.4-2.5-4.4-5.5
			C415.4,29.5,417,27.1,420.1,27.1z M419.6,32.7c-0.9,0-1.8,0.5-2.3,1.3c0.1,1.2,0.7,2.5,2.4,2.5c1.4,0,2.1-1,2.1-1.9
			C421.8,33.3,420.8,32.7,419.6,32.7z"/>
		<path class="st0" d="M427.2,27.1c1.6,0,2.7,1.2,2.7,2.7c0,1.5-1.1,2.6-2.7,2.6c-1.6,0-2.6-1.1-2.6-2.6
			C424.6,28.2,425.6,27.1,427.2,27.1z M427.2,28.1c-0.8,0-1.4,0.6-1.4,1.6c0,0.9,0.6,1.6,1.4,1.6c0.8,0,1.4-0.7,1.4-1.6
			C428.6,28.8,428,28.1,427.2,28.1z M433,27.2h1.1l-6.8,10.7h-1.1L433,27.2z M433,32.8c1.6,0,2.7,1.2,2.7,2.7c0,1.5-1.1,2.6-2.7,2.6
			s-2.6-1.1-2.6-2.6C430.3,34,431.4,32.8,433,32.8z M433,33.9c-0.8,0-1.4,0.6-1.4,1.6c0,0.9,0.6,1.6,1.4,1.6c0.8,0,1.4-0.6,1.4-1.6
			C434.4,34.5,433.8,33.9,433,33.9z"/>
	</g>
	<g>
		<path class="st0" d="M370.9,51.9h3.5c1.7,0,2.6,1.2,2.6,2.5s-0.9,2.5-2.6,2.5h-2.1v3h-1.4V51.9z M374.2,53.1h-1.9v2.5h1.9
			c0.8,0,1.4-0.5,1.4-1.3S375,53.1,374.2,53.1z"/>
		<path class="st0" d="M378.1,54.1h1.3V55c0.4-0.6,1.1-1,1.9-1v1.2c-0.1,0-0.2,0-0.4,0c-0.5,0-1.2,0.4-1.5,0.8v3.9h-1.3V54.1z"/>
		<path class="st0" d="M381.9,57c0-1.7,1.1-3,3-3c1.9,0,3,1.4,3,3c0,1.7-1.1,3-3,3C383,60.1,381.9,58.7,381.9,57z M386.5,57
			c0-1-0.6-1.9-1.7-1.9c-1.1,0-1.7,0.9-1.7,1.9c0,1,0.6,1.9,1.7,1.9C385.9,58.9,386.5,58,386.5,57z"/>
		<path class="st0" d="M389.4,55.2h-1v-1.1h1v-0.3c0-1.3,0.8-2,1.8-2c0.4,0,0.8,0.1,1,0.2l-0.3,0.9c-0.1-0.1-0.3-0.1-0.5-0.1
			c-0.5,0-0.8,0.3-0.8,1v0.3h1.2v1.1h-1.2v4.7h-1.3V55.2z"/>
		<path class="st0" d="M395.4,54c1.7,0,2.9,1.3,2.9,3.2v0.3h-4.5c0.1,0.9,0.8,1.6,1.8,1.6c0.6,0,1.2-0.2,1.6-0.6l0.6,0.8
			c-0.6,0.6-1.4,0.8-2.4,0.8c-1.7,0-3-1.2-3-3C392.5,55.3,393.7,54,395.4,54z M393.8,56.5h3.3c0-0.7-0.5-1.5-1.6-1.5
			C394.3,55,393.8,55.8,393.8,56.5z"/>
		<path class="st0" d="M399.6,58.2c0.4,0.4,1.2,0.8,2,0.8s1.1-0.3,1.1-0.7c0-0.5-0.6-0.7-1.3-0.8c-1-0.2-2.2-0.5-2.2-1.8
			c0-0.9,0.8-1.8,2.3-1.8c1,0,1.7,0.3,2.3,0.8l-0.5,0.9c-0.3-0.4-1-0.7-1.7-0.7c-0.7,0-1.1,0.2-1.1,0.6c0,0.4,0.6,0.6,1.3,0.8
			c1,0.2,2.2,0.5,2.2,1.9c0,1-0.9,1.8-2.4,1.8c-1,0-1.9-0.3-2.5-0.9L399.6,58.2z"/>
		<path class="st0" d="M405.3,58.2c0.4,0.4,1.2,0.8,2,0.8c0.8,0,1.1-0.3,1.1-0.7c0-0.5-0.6-0.7-1.3-0.8c-1-0.2-2.2-0.5-2.2-1.8
			c0-0.9,0.8-1.8,2.3-1.8c1,0,1.7,0.3,2.3,0.8l-0.5,0.9c-0.3-0.4-1-0.7-1.7-0.7c-0.7,0-1.1,0.2-1.1,0.6c0,0.4,0.6,0.6,1.3,0.8
			c1,0.2,2.2,0.5,2.2,1.9c0,1-0.9,1.8-2.4,1.8c-1,0-1.9-0.3-2.5-0.9L405.3,58.2z"/>
		<path class="st0" d="M410.7,52.5c0-0.4,0.4-0.8,0.8-0.8c0.4,0,0.8,0.3,0.8,0.8s-0.3,0.8-0.8,0.8C411.1,53.2,410.7,52.9,410.7,52.5
			z M410.9,54.1h1.3v5.8h-1.3V54.1z"/>
		<path class="st0" d="M413.4,57c0-1.7,1.1-3,3-3c1.9,0,3,1.4,3,3c0,1.7-1.1,3-3,3C414.6,60.1,413.4,58.7,413.4,57z M418.1,57
			c0-1-0.6-1.9-1.7-1.9c-1.1,0-1.7,0.9-1.7,1.9c0,1,0.6,1.9,1.7,1.9C417.5,58.9,418.1,58,418.1,57z"/>
		<path class="st0" d="M424.6,56.3c0-0.9-0.5-1.2-1.2-1.2c-0.6,0-1.2,0.4-1.5,0.8v4h-1.3v-5.8h1.3v0.8c0.4-0.5,1.1-0.9,2-0.9
			c1.2,0,1.9,0.7,1.9,1.9v4.1h-1.3V56.3z"/>
		<path class="st0" d="M431,59.3c-0.4,0.5-1.1,0.8-1.9,0.8c-0.9,0-2-0.6-2-1.9c0-1.3,1.1-1.9,2-1.9c0.8,0,1.5,0.3,1.9,0.7v-0.9
			c0-0.7-0.6-1.1-1.4-1.1c-0.6,0-1.2,0.2-1.7,0.7l-0.5-0.9c0.7-0.6,1.5-0.9,2.4-0.9c1.3,0,2.4,0.5,2.4,2.1v3.8H431V59.3z M431,57.7
			c-0.3-0.4-0.8-0.6-1.4-0.6c-0.7,0-1.2,0.4-1.2,1c0,0.6,0.5,1,1.2,1c0.6,0,1.1-0.2,1.4-0.6V57.7z"/>
		<path class="st0" d="M433.9,51.9h1.3v8h-1.3V51.9z"/>
	</g>
	<g>
		<path class="st0" d="M329.3,64.9h5.5v1.2h-4.1v2.1h4v1.2h-4v2.2h4.1v1.2h-5.5V64.9z"/>
		<path class="st0" d="M338.6,70.8l-1.5,2.1h-1.4l2.1-3l-2-2.8h1.4l1.4,2l1.4-2h1.4l-2,2.8l2.1,3h-1.4L338.6,70.8z"/>
		<path class="st0" d="M344.8,67c1.1,0,1.8,0.5,2.2,1l-0.8,0.8c-0.3-0.5-0.8-0.7-1.3-0.7c-1.1,0-1.8,0.8-1.8,1.9
			c0,1.1,0.7,1.9,1.8,1.9c0.6,0,1-0.2,1.3-0.7l0.8,0.8c-0.4,0.6-1.1,1-2.2,1c-1.8,0-3-1.3-3-3C341.8,68.3,343.1,67,344.8,67z"/>
		<path class="st0" d="M352.1,69.3c0-0.9-0.5-1.2-1.2-1.2c-0.6,0-1.2,0.4-1.5,0.8v4h-1.3v-8h1.3v3c0.4-0.5,1.1-0.9,2.1-0.9
			c1.2,0,1.9,0.6,1.9,1.8v4.1h-1.3V69.3z"/>
		<path class="st0" d="M358.5,72.3c-0.4,0.5-1.1,0.8-1.9,0.8c-0.9,0-2-0.6-2-1.9c0-1.3,1.1-1.9,2-1.9c0.8,0,1.5,0.3,1.9,0.7v-0.9
			c0-0.7-0.6-1.1-1.4-1.1c-0.6,0-1.2,0.2-1.7,0.7l-0.5-0.9c0.7-0.6,1.5-0.9,2.4-0.9c1.3,0,2.4,0.5,2.4,2.1v3.8h-1.3V72.3z
			 M358.5,70.7c-0.3-0.4-0.8-0.6-1.4-0.6c-0.7,0-1.2,0.4-1.2,1c0,0.6,0.5,1,1.2,1c0.6,0,1.1-0.2,1.4-0.6V70.7z"/>
		<path class="st0" d="M365.3,69.3c0-0.9-0.5-1.2-1.2-1.2c-0.6,0-1.2,0.4-1.5,0.8v4h-1.3v-5.8h1.3v0.8c0.4-0.5,1.1-0.9,2-0.9
			c1.2,0,1.9,0.7,1.9,1.9v4.1h-1.3V69.3z"/>
		<path class="st0" d="M368.8,73.5c0.5,0.5,1.1,0.7,1.8,0.7c0.8,0,1.7-0.4,1.7-1.6V72c-0.4,0.6-1.1,1-1.9,1c-1.5,0-2.6-1.1-2.6-3
			c0-1.9,1.1-3,2.6-3c0.7,0,1.4,0.3,1.9,0.9v-0.8h1.3v5.5c0,2.1-1.5,2.7-3,2.7c-1,0-1.7-0.2-2.4-0.9L368.8,73.5z M372.3,68.9
			c-0.3-0.4-0.9-0.8-1.5-0.8c-1,0-1.6,0.7-1.6,1.9c0,1.1,0.6,1.9,1.6,1.9c0.6,0,1.2-0.3,1.5-0.8V68.9z"/>
		<path class="st0" d="M377.8,67c1.7,0,2.9,1.3,2.9,3.2v0.3h-4.5c0.1,0.9,0.8,1.6,1.8,1.6c0.6,0,1.2-0.2,1.6-0.6l0.6,0.8
			c-0.6,0.6-1.4,0.8-2.4,0.8c-1.7,0-3-1.2-3-3C374.9,68.3,376.1,67,377.8,67z M376.2,69.5h3.3c0-0.7-0.5-1.5-1.6-1.5
			C376.8,68,376.3,68.8,376.2,69.5z"/>
		<path class="st0" d="M385.2,64.9h3.5c1.7,0,2.6,1.2,2.6,2.5s-0.9,2.5-2.6,2.5h-2.1v3h-1.4V64.9z M388.5,66.1h-1.9v2.5h1.9
			c0.8,0,1.4-0.5,1.4-1.3S389.3,66.1,388.5,66.1z"/>
		<path class="st0" d="M392.4,67.1h1.3V68c0.4-0.6,1.1-1,1.9-1v1.2c-0.1,0-0.2,0-0.4,0c-0.5,0-1.2,0.4-1.5,0.8v3.9h-1.3V67.1z"/>
		<path class="st0" d="M396.2,70c0-1.7,1.1-3,3-3c1.9,0,3,1.4,3,3c0,1.7-1.1,3-3,3C397.3,73.1,396.2,71.7,396.2,70z M400.8,70
			c0-1-0.6-1.9-1.7-1.9c-1.1,0-1.7,0.9-1.7,1.9c0,1,0.6,1.9,1.7,1.9C400.2,71.9,400.8,71,400.8,70z"/>
		<path class="st0" d="M404,73.5c0.5,0.5,1.1,0.7,1.8,0.7c0.8,0,1.7-0.4,1.7-1.6V72c-0.4,0.6-1.1,1-1.9,1c-1.5,0-2.6-1.1-2.6-3
			c0-1.9,1.1-3,2.6-3c0.7,0,1.4,0.3,1.9,0.9v-0.8h1.3v5.5c0,2.1-1.5,2.7-3,2.7c-1,0-1.7-0.2-2.4-0.9L404,73.5z M407.6,68.9
			c-0.3-0.4-0.9-0.8-1.5-0.8c-1,0-1.6,0.7-1.6,1.9c0,1.1,0.6,1.9,1.6,1.9c0.6,0,1.2-0.3,1.5-0.8V68.9z"/>
		<path class="st0" d="M410.5,67.1h1.3V68c0.4-0.6,1.1-1,1.9-1v1.2c-0.1,0-0.2,0-0.4,0c-0.5,0-1.2,0.4-1.5,0.8v3.9h-1.3V67.1z"/>
		<path class="st0" d="M418.2,72.3c-0.4,0.5-1.1,0.8-1.9,0.8c-0.9,0-2-0.6-2-1.9c0-1.3,1.1-1.9,2-1.9c0.8,0,1.5,0.3,1.9,0.7v-0.9
			c0-0.7-0.6-1.1-1.4-1.1c-0.6,0-1.2,0.2-1.7,0.7l-0.5-0.9c0.7-0.6,1.5-0.9,2.4-0.9c1.3,0,2.4,0.5,2.4,2.1v3.8h-1.3V72.3z
			 M418.2,70.7c-0.3-0.4-0.8-0.6-1.4-0.6c-0.7,0-1.2,0.4-1.2,1c0,0.6,0.5,1,1.2,1c0.6,0,1.1-0.2,1.4-0.6V70.7z"/>
		<path class="st0" d="M428.2,69.1c0-0.6-0.3-1-0.9-1c-0.6,0-1.1,0.4-1.3,0.8v4.1h-1.3v-3.8c0-0.6-0.3-1-1-1c-0.6,0-1.1,0.4-1.3,0.8
			v4h-1.3v-5.8h1.3v0.8c0.2-0.4,1-0.9,1.9-0.9c0.9,0,1.4,0.4,1.6,1.1c0.3-0.5,1.1-1.1,2-1.1c1.1,0,1.7,0.6,1.7,1.8v4.2h-1.3V69.1z"
			/>
		<path class="st0" d="M431.2,71.2c0.4,0.4,1.2,0.8,2,0.8s1.1-0.3,1.1-0.7c0-0.5-0.6-0.7-1.3-0.8c-1-0.2-2.2-0.5-2.2-1.8
			c0-0.9,0.8-1.8,2.3-1.8c1,0,1.7,0.3,2.3,0.8l-0.5,0.9c-0.3-0.4-1-0.7-1.7-0.7c-0.7,0-1.1,0.2-1.1,0.6c0,0.4,0.6,0.6,1.3,0.8
			c1,0.2,2.2,0.5,2.2,1.9c0,1-0.9,1.8-2.4,1.8c-1,0-1.9-0.3-2.5-0.9L431.2,71.2z"/>
	</g>
	<g>
		<path class="st0" d="M330.1,84.6v-3.3h-1v-1.1h1v-1.6h1.3v1.6h1.2v1.1h-1.2v3c0,0.4,0.2,0.7,0.6,0.7c0.2,0,0.5-0.1,0.6-0.2
			l0.3,0.9c-0.2,0.2-0.6,0.4-1.2,0.4C330.6,86,330.1,85.5,330.1,84.6z"/>
		<path class="st0" d="M333.2,83c0-1.7,1.1-3,3-3c1.9,0,3,1.4,3,3c0,1.7-1.1,3-3,3C334.4,86,333.2,84.7,333.2,83z M337.9,83
			c0-1-0.6-1.9-1.7-1.9c-1.1,0-1.7,0.9-1.7,1.9c0,1,0.6,1.9,1.7,1.9C337.3,84.9,337.9,84,337.9,83z"/>
		<path class="st0" d="M343.9,84.6v-3.3h-1v-1.1h1v-1.6h1.3v1.6h1.2v1.1h-1.2v3c0,0.4,0.2,0.7,0.6,0.7c0.2,0,0.5-0.1,0.6-0.2
			l0.3,0.9c-0.2,0.2-0.6,0.4-1.2,0.4C344.4,86,343.9,85.5,343.9,84.6z"/>
		<path class="st0" d="M351.5,82.3c0-0.9-0.5-1.2-1.2-1.2c-0.6,0-1.2,0.4-1.5,0.8v4h-1.3v-8h1.3v3c0.4-0.5,1.1-0.9,2.1-0.9
			c1.2,0,1.9,0.6,1.9,1.8v4.1h-1.3V82.3z"/>
		<path class="st0" d="M357,80c1.7,0,2.9,1.3,2.9,3.2v0.3h-4.5c0.1,0.9,0.8,1.6,1.8,1.6c0.6,0,1.2-0.2,1.6-0.6l0.6,0.8
			c-0.6,0.6-1.4,0.8-2.4,0.8c-1.7,0-3-1.2-3-3C354,81.3,355.2,80,357,80z M355.3,82.5h3.3c0-0.7-0.5-1.5-1.6-1.5
			C355.9,81,355.4,81.8,355.3,82.5z"/>
		<path class="st0" d="M364.3,77.9h1.4v4.8c0,1.3,0.7,2.1,2.1,2.1c1.3,0,2-0.8,2-2.1v-4.8h1.4v4.8c0,2-1.1,3.3-3.5,3.3
			c-2.3,0-3.5-1.3-3.5-3.3V77.9z"/>
		<path class="st0" d="M376.8,82.3c0-0.9-0.5-1.2-1.2-1.2c-0.6,0-1.2,0.4-1.5,0.8v4h-1.3v-5.8h1.3v0.8c0.4-0.5,1.1-0.9,2-0.9
			c1.2,0,1.9,0.7,1.9,1.9v4.1h-1.3V82.3z"/>
		<path class="st0" d="M379.6,78.4c0-0.4,0.4-0.8,0.8-0.8c0.4,0,0.8,0.3,0.8,0.8s-0.3,0.8-0.8,0.8C379.9,79.2,379.6,78.9,379.6,78.4
			z M379.7,80.1h1.3v5.8h-1.3V80.1z"/>
		<path class="st0" d="M382.9,84.6v-3.3h-1v-1.1h1v-1.6h1.3v1.6h1.2v1.1h-1.2v3c0,0.4,0.2,0.7,0.6,0.7c0.2,0,0.5-0.1,0.6-0.2
			l0.3,0.9c-0.2,0.2-0.6,0.4-1.2,0.4C383.4,86,382.9,85.5,382.9,84.6z"/>
		<path class="st0" d="M389,80c1.7,0,2.9,1.3,2.9,3.2v0.3h-4.5c0.1,0.9,0.8,1.6,1.8,1.6c0.6,0,1.2-0.2,1.6-0.6l0.6,0.8
			c-0.6,0.6-1.4,0.8-2.4,0.8c-1.7,0-3-1.2-3-3C386,81.3,387.3,80,389,80z M387.3,82.5h3.3c0-0.7-0.5-1.5-1.6-1.5
			C387.9,81,387.4,81.8,387.3,82.5z"/>
		<path class="st0" d="M397.2,85.1c-0.4,0.6-1.1,0.9-1.9,0.9c-1.5,0-2.6-1.1-2.6-3c0-1.9,1.1-3,2.6-3c0.7,0,1.4,0.3,1.9,0.9v-3h1.3
			v8h-1.3V85.1z M397.2,81.9c-0.3-0.4-0.9-0.8-1.5-0.8c-1,0-1.6,0.8-1.6,1.9c0,1.1,0.6,1.9,1.6,1.9c0.6,0,1.2-0.3,1.5-0.8V81.9z"/>
		<path class="st0" d="M403.6,83.7c0.6,0.6,1.4,1.1,2.5,1.1c1.2,0,1.6-0.6,1.6-1.1c0-0.7-0.9-0.9-1.8-1.2c-1.3-0.3-2.8-0.7-2.8-2.4
			c0-1.3,1.2-2.3,2.9-2.3c1.2,0,2.3,0.4,3,1.1l-0.8,1c-0.6-0.6-1.5-0.9-2.3-0.9c-0.8,0-1.4,0.4-1.4,1c0,0.6,0.8,0.8,1.8,1.1
			c1.3,0.3,2.9,0.7,2.9,2.5c0,1.3-0.9,2.5-3.1,2.5c-1.5,0-2.5-0.5-3.2-1.3L403.6,83.7z"/>
		<path class="st0" d="M410.7,84.6v-3.3h-1v-1.1h1v-1.6h1.3v1.6h1.2v1.1h-1.2v3c0,0.4,0.2,0.7,0.6,0.7c0.2,0,0.5-0.1,0.6-0.2
			l0.3,0.9c-0.2,0.2-0.6,0.4-1.2,0.4C411.2,86,410.7,85.5,410.7,84.6z"/>
		<path class="st0" d="M417.8,85.3c-0.4,0.5-1.1,0.8-1.9,0.8c-0.9,0-2-0.6-2-1.9c0-1.3,1.1-1.9,2-1.9c0.8,0,1.5,0.3,1.9,0.7v-0.9
			c0-0.7-0.6-1.1-1.4-1.1c-0.6,0-1.2,0.2-1.7,0.7l-0.5-0.9c0.7-0.6,1.5-0.9,2.4-0.9c1.3,0,2.4,0.5,2.4,2.1v3.8h-1.3V85.3z
			 M417.8,83.7c-0.3-0.4-0.8-0.6-1.4-0.6c-0.7,0-1.2,0.4-1.2,1c0,0.6,0.5,1,1.2,1c0.6,0,1.1-0.2,1.4-0.6V83.7z"/>
		<path class="st0" d="M421,84.6v-3.3h-1v-1.1h1v-1.6h1.3v1.6h1.2v1.1h-1.2v3c0,0.4,0.2,0.7,0.6,0.7c0.2,0,0.5-0.1,0.6-0.2l0.3,0.9
			c-0.2,0.2-0.6,0.4-1.2,0.4C421.5,86,421,85.5,421,84.6z"/>
		<path class="st0" d="M427.1,80c1.7,0,2.9,1.3,2.9,3.2v0.3h-4.5c0.1,0.9,0.8,1.6,1.8,1.6c0.6,0,1.2-0.2,1.6-0.6l0.6,0.8
			c-0.6,0.6-1.4,0.8-2.4,0.8c-1.7,0-3-1.2-3-3C424.1,81.3,425.3,80,427.1,80z M425.4,82.5h3.3c0-0.7-0.5-1.5-1.6-1.5
			C426,81,425.5,81.8,425.4,82.5z"/>
		<path class="st0" d="M431.2,84.2c0.4,0.4,1.2,0.8,2,0.8s1.1-0.3,1.1-0.7c0-0.5-0.6-0.7-1.3-0.8c-1-0.2-2.2-0.5-2.2-1.8
			c0-0.9,0.8-1.8,2.3-1.8c1,0,1.7,0.3,2.3,0.8l-0.5,0.9c-0.3-0.4-1-0.7-1.7-0.7c-0.7,0-1.1,0.2-1.1,0.6c0,0.4,0.6,0.6,1.3,0.8
			c1,0.2,2.2,0.5,2.2,1.9c0,1-0.9,1.8-2.4,1.8c-1,0-1.9-0.3-2.5-0.9L431.2,84.2z"/>
	</g>
	<g>
		<path class="st0" d="M224.2,115.5h-2.4v-1.2h6.2v1.2h-2.4v6.8h-1.4V115.5z"/>
		<path class="st0" d="M228,119.4c0-1.7,1.1-3,3-3c1.9,0,3,1.4,3,3c0,1.7-1.1,3-3,3C229.1,122.4,228,121,228,119.4z M232.6,119.4
			c0-1-0.6-1.9-1.7-1.9c-1.1,0-1.7,0.9-1.7,1.9c0,1,0.6,1.9,1.7,1.9C232,121.3,232.6,120.4,232.6,119.4z"/>
		<path class="st0" d="M235.5,120.9v-3.3h-1v-1.1h1v-1.6h1.3v1.6h1.2v1.1h-1.2v3c0,0.4,0.2,0.7,0.6,0.7c0.2,0,0.5-0.1,0.6-0.2
			l0.3,0.9c-0.2,0.2-0.6,0.4-1.2,0.4C236,122.4,235.5,121.9,235.5,120.9z"/>
		<path class="st0" d="M242.6,121.7c-0.4,0.5-1.1,0.8-1.9,0.8c-0.9,0-2-0.6-2-1.9c0-1.3,1.1-1.9,2-1.9c0.8,0,1.5,0.3,1.9,0.7v-0.9
			c0-0.7-0.6-1.1-1.4-1.1c-0.6,0-1.2,0.2-1.7,0.7l-0.5-0.9c0.7-0.6,1.5-0.9,2.4-0.9c1.3,0,2.4,0.5,2.4,2.1v3.8h-1.3V121.7z
			 M242.6,120.1c-0.3-0.4-0.8-0.6-1.4-0.6c-0.7,0-1.2,0.4-1.2,1c0,0.6,0.5,1,1.2,1c0.6,0,1.1-0.2,1.4-0.6V120.1z"/>
		<path class="st0" d="M245.5,114.3h1.3v8h-1.3V114.3z"/>
	</g>
	<g>
		<path class="st0" d="M209.5,127.3h5.5v1.2h-4.1v2.1h4v1.2h-4v2.2h4.1v1.2h-5.5V127.3z"/>
		<path class="st0" d="M218.7,133.1l-1.5,2.1h-1.4l2.1-3l-2-2.8h1.4l1.4,2l1.4-2h1.4l-2,2.8l2.1,3h-1.4L218.7,133.1z"/>
		<path class="st0" d="M222.6,137.5v-8h1.3v0.8c0.4-0.6,1.1-0.9,1.9-0.9c1.5,0,2.6,1.1,2.6,3s-1.1,3-2.6,3c-0.7,0-1.4-0.3-1.9-0.9v3
			H222.6z M225.3,130.5c-0.6,0-1.2,0.3-1.5,0.8v2.3c0.3,0.4,0.9,0.8,1.5,0.8c1,0,1.6-0.8,1.6-1.9C227,131.3,226.3,130.5,225.3,130.5
			z"/>
		<path class="st0" d="M232.2,129.3c1.7,0,2.9,1.3,2.9,3.2v0.3h-4.5c0.1,0.9,0.8,1.6,1.8,1.6c0.6,0,1.2-0.2,1.6-0.6l0.6,0.8
			c-0.6,0.6-1.4,0.8-2.4,0.8c-1.7,0-3-1.2-3-3C229.3,130.7,230.5,129.3,232.2,129.3z M230.6,131.9h3.3c0-0.7-0.5-1.5-1.6-1.5
			C231.1,130.4,230.7,131.2,230.6,131.9z"/>
		<path class="st0" d="M240.3,131.7c0-0.9-0.5-1.2-1.2-1.2c-0.6,0-1.2,0.4-1.5,0.8v4h-1.3v-5.8h1.3v0.8c0.4-0.5,1.1-0.9,2-0.9
			c1.2,0,1.9,0.7,1.9,1.9v4.1h-1.3V131.7z"/>
		<path class="st0" d="M243.3,133.6c0.4,0.4,1.2,0.8,2,0.8c0.8,0,1.1-0.3,1.1-0.7c0-0.5-0.6-0.7-1.3-0.8c-1-0.2-2.2-0.5-2.2-1.8
			c0-0.9,0.8-1.8,2.3-1.8c1,0,1.7,0.3,2.3,0.8l-0.5,0.9c-0.3-0.4-1-0.7-1.7-0.7c-0.7,0-1.1,0.2-1.1,0.6c0,0.4,0.6,0.6,1.3,0.8
			c1,0.2,2.2,0.5,2.2,1.9c0,1-0.9,1.8-2.4,1.8c-1,0-1.9-0.3-2.5-0.9L243.3,133.6z"/>
		<path class="st0" d="M251.5,129.3c1.7,0,2.9,1.3,2.9,3.2v0.3h-4.5c0.1,0.9,0.8,1.6,1.8,1.6c0.6,0,1.2-0.2,1.6-0.6l0.6,0.8
			c-0.6,0.6-1.4,0.8-2.4,0.8c-1.7,0-3-1.2-3-3C248.5,130.7,249.8,129.3,251.5,129.3z M249.8,131.9h3.3c0-0.7-0.5-1.5-1.6-1.5
			C250.4,130.4,249.9,131.2,249.8,131.9z"/>
		<path class="st0" d="M255.7,133.6c0.4,0.4,1.2,0.8,2,0.8s1.1-0.3,1.1-0.7c0-0.5-0.6-0.7-1.3-0.8c-1-0.2-2.2-0.5-2.2-1.8
			c0-0.9,0.8-1.8,2.3-1.8c1,0,1.7,0.3,2.3,0.8l-0.5,0.9c-0.3-0.4-1-0.7-1.7-0.7c-0.7,0-1.1,0.2-1.1,0.6c0,0.4,0.6,0.6,1.3,0.8
			c1,0.2,2.2,0.5,2.2,1.9c0,1-0.9,1.8-2.4,1.8c-1,0-1.9-0.3-2.5-0.9L255.7,133.6z"/>
	</g>
	<g>
		<path class="st0" d="M207.4,152.9v1.1h-1v-1.1c-1.2-0.1-2.2-0.6-2.8-1.3l0.8-1.1c0.5,0.5,1.2,0.9,2,1.1v-2.3
			c-1.2-0.3-2.5-0.8-2.5-2.3c0-1.2,1-2.2,2.5-2.3v-1.1h1v1.1c1,0.1,1.8,0.5,2.4,1.1l-0.8,1c-0.4-0.4-1-0.7-1.6-0.8v2.1
			c1.2,0.3,2.6,0.8,2.6,2.4C210,151.7,209.2,152.7,207.4,152.9z M206.4,147.8v-1.9c-0.7,0.1-1.1,0.4-1.1,1
			C205.3,147.4,205.8,147.6,206.4,147.8z M208.6,150.6c0-0.6-0.5-0.8-1.2-1v2.1C208.2,151.5,208.6,151,208.6,150.6z"/>
		<path class="st0" d="M212.5,146.6l-1.3,1.4l-0.8-0.9l2.3-2.3h1.2v8h-1.4V146.6z"/>
		<path class="st0" d="M219.2,146H215v-1.2h5.8v1l-3.1,7h-1.5L219.2,146z"/>
		<path class="st0" d="M220.9,153.9c0.4-0.2,0.8-0.7,0.9-1.1c0,0-0.1,0-0.2,0c-0.4,0-0.7-0.3-0.7-0.8c0-0.5,0.4-0.8,0.8-0.8
			c0.5,0,0.9,0.4,0.9,1.1c0,0.8-0.5,1.6-1.1,2.1L220.9,153.9z"/>
		<path class="st0" d="M224.8,150.7c0.5,0.6,1.3,0.9,2.2,0.9c1,0,1.6-0.6,1.6-1.4c0-0.9-0.6-1.4-1.6-1.4c-0.7,0-1.2,0.2-1.8,0.7
			l-1-0.3v-4.5h5.2v1.2h-3.8v2.3c0.4-0.4,1-0.7,1.8-0.7c1.3,0,2.6,0.9,2.6,2.6c0,1.7-1.3,2.7-3,2.7c-1.4,0-2.3-0.5-3-1.2
			L224.8,150.7z"/>
		<path class="st0" d="M232,151c0.4,0.4,0.9,0.7,1.6,0.7c1.5,0,2.1-1.3,2.1-2.6v-0.2c-0.4,0.5-1.2,1.1-2.1,1.1
			c-1.4,0-2.7-0.9-2.7-2.6c0-1.5,1.2-2.7,3-2.7c2.4,0,3.3,1.9,3.3,4.1c0,2.3-1.2,4.1-3.5,4.1c-1,0-1.8-0.3-2.3-0.9L232,151z
			 M233.9,145.9c-1,0-1.6,0.8-1.6,1.4c0,1,0.8,1.4,1.6,1.4c0.7,0,1.4-0.4,1.8-0.9C235.6,146.9,235.2,145.9,233.9,145.9z"/>
		<path class="st0" d="M238.6,150.7c0.5,0.6,1.4,1,2.2,1c1.1,0,1.7-0.5,1.7-1.2c0-0.8-0.6-1.1-1.8-1.1c-0.3,0-0.8,0-0.9,0v-1.3
			c0.1,0,0.6,0,0.9,0c0.9,0,1.6-0.3,1.6-1.1c0-0.7-0.7-1.1-1.6-1.1c-0.8,0-1.5,0.3-2.1,0.9l-0.7-0.9c0.6-0.7,1.6-1.3,2.9-1.3
			c1.7,0,2.9,0.8,2.9,2.2c0,1.1-0.9,1.7-1.7,1.8c0.8,0.1,1.9,0.7,1.9,1.9c0,1.4-1.2,2.3-3,2.3c-1.4,0-2.5-0.6-3-1.3L238.6,150.7z"/>
		<path class="st0" d="M245.3,153.9c0.4-0.2,0.8-0.7,0.9-1.1c0,0-0.1,0-0.2,0c-0.4,0-0.7-0.3-0.7-0.8c0-0.5,0.4-0.8,0.8-0.8
			c0.5,0,0.9,0.4,0.9,1.1c0,0.8-0.5,1.6-1.1,2.1L245.3,153.9z"/>
		<path class="st0" d="M249.4,146.6l-1.3,1.4l-0.8-0.9l2.3-2.3h1.2v8h-1.4V146.6z"/>
		<path class="st0" d="M255.8,144.7c1,0,1.8,0.4,2.3,0.9l-0.7,1.1c-0.4-0.4-0.9-0.7-1.6-0.7c-1.3,0-2.1,1.2-2.1,2.6
			c0,0.1,0,0.2,0,0.2c0.4-0.5,1.2-1.1,2.1-1.1c1.4,0,2.7,0.9,2.7,2.6c0,1.5-1.2,2.7-3,2.7c-2.4,0-3.3-1.9-3.3-4.1
			C252.3,146.5,253.5,144.7,255.8,144.7z M255.5,148.9c-0.7,0-1.3,0.4-1.8,0.9c0.1,0.9,0.6,1.9,1.8,1.9c1.1,0,1.6-0.7,1.6-1.4
			C257.1,149.3,256.3,148.9,255.5,148.9z"/>
		<path class="st0" d="M260.1,150.7c0.5,0.6,1.4,1,2.2,1c1.1,0,1.7-0.5,1.7-1.2c0-0.8-0.6-1.1-1.8-1.1c-0.3,0-0.8,0-0.9,0v-1.3
			c0.1,0,0.6,0,0.9,0c0.9,0,1.6-0.3,1.6-1.1c0-0.7-0.7-1.1-1.6-1.1c-0.8,0-1.5,0.3-2.1,0.9l-0.7-0.9c0.6-0.7,1.6-1.3,2.9-1.3
			c1.7,0,2.9,0.8,2.9,2.2c0,1.1-0.9,1.7-1.7,1.8c0.8,0.1,1.9,0.7,1.9,1.9c0,1.4-1.2,2.3-3,2.3c-1.4,0-2.5-0.6-3-1.3L260.1,150.7z"/>
	</g>
</g>
</svg>
