<?xml version="1.0" encoding="utf-8"?>
<!-- Generator: Adobe Illustrator 21.1.0, SVG Export Plug-In . SVG Version: 6.00 Build 0)  -->
<svg version="1.1" id="Layer_1" xmlns="http://www.w3.org/2000/svg" xmlns:xlink="http://www.w3.org/1999/xlink" x="0px" y="0px"
	 width="450px" height="231.9px" viewBox="0 0 450 231.9" style="enable-background:new 0 0 450 231.9;" xml:space="preserve">
<style type="text/css">
	.st0{fill:#00ADEE;}
	.st1{fill:#FBB216;}
	.st2{fill:#E65121;}
	.st3{fill:#80BC41;}
	.st4{fill:#EF5323;}
</style>
<text transform="matrix(1 0 0 1 149.1194 -40.6045)"><tspan x="0" y="0" class="st0" style="font-family:'ProximaNovaCond-Bold'; font-size:16px;">W</tspan><tspan x="12.1" y="0" class="st0" style="font-family:'ProximaNovaCond-Bold'; font-size:16px;">HE</tspan><tspan x="29.2" y="0" class="st0" style="font-family:'ProximaNovaCond-Bold'; font-size:16px;">R</tspan><tspan x="37.9" y="0" class="st0" style="font-family:'ProximaNovaCond-Bold'; font-size:16px;">E D</tspan><tspan x="58.1" y="0" class="st0" style="font-family:'ProximaNovaCond-Bold'; font-size:16px;">I</tspan><tspan x="62" y="0" class="st0" style="font-family:'ProximaNovaCond-Bold'; font-size:16px;">D </tspan><tspan x="74.6" y="0" class="st0" style="font-family:'ProximaNovaCond-Bold'; font-size:16px;">I</tspan><tspan x="78.4" y="0" class="st0" style="font-family:'ProximaNovaCond-Bold'; font-size:16px;">T </tspan><tspan x="89.1" y="0" class="st0" style="font-family:'ProximaNovaCond-Bold'; font-size:16px;">CO</tspan><tspan x="107.6" y="0" class="st0" style="font-family:'ProximaNovaCond-Bold'; font-size:16px;">ME F</tspan><tspan x="137.5" y="0" class="st0" style="font-family:'ProximaNovaCond-Bold'; font-size:16px;">RO</tspan><tspan x="155.9" y="0" class="st0" style="font-family:'ProximaNovaCond-Bold'; font-size:16px;">M</tspan><tspan x="167.5" y="0" class="st0" style="font-family:'ProximaNovaCond-Bold'; font-size:16px;">?</tspan></text>
<g>
</g>
<g>
</g>
<g>
</g>
<g>
</g>
<g>
	<g>
		<polygon class="st0" points="298.1,71.4 297.4,70.7 325,43.3 434.8,43.3 434.8,44.3 325.4,44.3 		"/>
	</g>
	<g>
		<polygon class="st1" points="151.9,100.2 124.6,73 15.2,73 15.2,72 125,72 152.6,99.4 		"/>
	</g>
	<g>
		<polygon class="st2" points="220.7,44.7 193.5,17.5 84.1,17.5 84.1,16.5 193.9,16.5 221.4,44 		"/>
	</g>
	<g>
		<polygon class="st3" points="131.6,204.1 21.8,204.1 21.8,203.1 131.2,203.1 158.4,175.9 159.1,176.6 		"/>
	</g>
	<g>
		<path class="st4" d="M235.1,85.9V43c-6.1,0-11.7,0.5-17.3,1.6c-3.3,0.7-6.7,1.6-10.2,2.7l10.2,31.3l3.1,9.5
			C225.3,86.7,230.1,85.9,235.1,85.9C235.1,85.9,235.1,85.9,235.1,85.9"/>
	</g>
	<g>
		<path class="st1" d="M220.9,88.1l-13.2-40.7c-39.2,12.7-64,49.6-61.2,90.7l42.7-3c-0.1-1.1-0.1-2.1-0.1-3.2
			C189.1,111.4,202.4,94.1,220.9,88.1"/>
	</g>
	<g>
		<path class="st3" d="M189.2,135.1l-42.7,3c0.5,7.8,1.7,13.8,4.1,21.3c15.2,46.7,65.3,72.2,111.9,57l-13.2-40.7
			c-4.5,1.5-9.3,2.3-14.2,2.3C210.7,177.9,190.8,159,189.2,135.1"/>
	</g>
	<g>
		<path class="st0" d="M323.9,131.9c0-49.1-39.8-88.8-88.8-88.8v42.8c25.4,0,46,20.6,46,46c0,20.4-13.3,37.8-31.8,43.8l13.2,40.7
			C299.9,204.2,323.9,171.1,323.9,131.9"/>
	</g>
	<g>
		<path class="st3" d="M22.6,195.3c4.1-3.1,5.8-4.5,5.8-6.1c0-1.1-1-1.6-1.9-1.6c-1.2,0-2.2,0.5-2.9,1.3l-1.1-1.2
			c0.9-1.1,2.4-1.7,3.9-1.7c2.1,0,3.9,1.2,3.9,3.3c0,2-1.8,3.7-4.7,5.9h4.7v1.6h-7.7V195.3z"/>
		<path class="st3" d="M33.3,194.3c0.6,0.6,1.2,0.9,2.2,0.9c1.9,0,2.8-1.8,2.8-3.5v-0.3c-0.5,0.7-1.6,1.5-2.9,1.5
			c-1.9,0-3.6-1.2-3.6-3.5c0-2,1.6-3.6,3.9-3.6c3.1,0,4.4,2.5,4.4,5.5c0,3.1-1.6,5.5-4.7,5.5c-1.3,0-2.3-0.5-3.1-1.2L33.3,194.3z
			 M35.9,187.5c-1.4,0-2.1,1-2.1,1.9c0,1.3,1,1.9,2.2,1.9c0.9,0,1.8-0.5,2.3-1.2C38.2,188.9,37.6,187.5,35.9,187.5z"/>
		<path class="st3" d="M44,185.9c1.6,0,2.7,1.2,2.7,2.7c0,1.5-1.1,2.6-2.7,2.6c-1.6,0-2.6-1.1-2.6-2.6
			C41.4,187.1,42.4,185.9,44,185.9z M44,187c-0.8,0-1.4,0.6-1.4,1.6c0,0.9,0.6,1.6,1.4,1.6c0.8,0,1.4-0.7,1.4-1.6
			C45.4,187.6,44.9,187,44,187z M49.8,186h1.1l-6.8,10.7H43L49.8,186z M49.8,191.6c1.6,0,2.7,1.2,2.7,2.7c0,1.5-1.1,2.6-2.7,2.6
			c-1.6,0-2.6-1.1-2.6-2.6C47.1,192.8,48.2,191.6,49.8,191.6z M49.8,192.7c-0.8,0-1.4,0.6-1.4,1.6c0,0.9,0.6,1.6,1.4,1.6
			c0.8,0,1.4-0.6,1.4-1.6C51.2,193.3,50.6,192.7,49.8,192.7z"/>
	</g>
	<g>
		<path class="st3" d="M22.7,210.7h1.4v4.8c0,1.3,0.7,2.1,2.1,2.1c1.3,0,2-0.8,2-2.1v-4.8h1.4v4.8c0,2-1.1,3.3-3.5,3.3
			c-2.3,0-3.5-1.3-3.5-3.3V210.7z"/>
		<path class="st3" d="M31.7,217.2c0.5,0,0.8,0.4,0.8,0.8c0,0.5-0.4,0.8-0.8,0.8c-0.5,0-0.8-0.4-0.8-0.8
			C30.9,217.6,31.3,217.2,31.7,217.2z"/>
		<path class="st3" d="M34.6,216.5c0.6,0.6,1.4,1.1,2.5,1.1c1.2,0,1.6-0.6,1.6-1.1c0-0.7-0.9-0.9-1.8-1.2c-1.3-0.3-2.8-0.7-2.8-2.4
			c0-1.3,1.2-2.3,2.9-2.3c1.2,0,2.3,0.4,3,1.1l-0.8,1c-0.6-0.6-1.5-0.9-2.3-0.9c-0.8,0-1.4,0.4-1.4,1c0,0.6,0.8,0.8,1.8,1.1
			c1.3,0.3,2.9,0.7,2.9,2.5c0,1.3-0.9,2.5-3.1,2.5c-1.5,0-2.5-0.5-3.2-1.3L34.6,216.5z"/>
		<path class="st3" d="M42.2,217.2c0.5,0,0.8,0.4,0.8,0.8c0,0.5-0.4,0.8-0.8,0.8c-0.5,0-0.8-0.4-0.8-0.8
			C41.4,217.6,41.8,217.2,42.2,217.2z"/>
		<path class="st3" d="M51.6,210.6c1.6,0,2.6,0.7,3.2,1.7l-1.2,0.6c-0.4-0.6-1.2-1.1-2.1-1.1c-1.6,0-2.8,1.2-2.8,2.9
			c0,1.7,1.2,2.9,2.8,2.9c0.8,0,1.5-0.4,1.9-0.7v-1.2h-2.4v-1.2h3.8v3c-0.8,0.9-1.9,1.5-3.3,1.5c-2.3,0-4.2-1.6-4.2-4.2
			C47.4,212.2,49.3,210.6,51.6,210.6z"/>
		<path class="st3" d="M56.1,215.8c0-1.7,1.1-3,3-3c1.9,0,3,1.4,3,3c0,1.7-1.1,3-3,3C57.2,218.9,56.1,217.5,56.1,215.8z M60.8,215.8
			c0-1-0.6-1.9-1.7-1.9c-1.1,0-1.7,0.9-1.7,1.9c0,1,0.6,1.9,1.7,1.9C60.2,217.8,60.8,216.9,60.8,215.8z"/>
		<path class="st3" d="M62.4,212.9h1.3l1.7,4.3l1.7-4.3h1.4l-2.4,5.8h-1.4L62.4,212.9z"/>
		<path class="st3" d="M71.8,212.8c1.7,0,2.9,1.3,2.9,3.2v0.3h-4.5c0.1,0.9,0.8,1.6,1.8,1.6c0.6,0,1.2-0.2,1.6-0.6l0.6,0.8
			c-0.6,0.6-1.4,0.8-2.4,0.8c-1.7,0-3-1.2-3-3C68.8,214.1,70,212.8,71.8,212.8z M70.1,215.4h3.3c0-0.7-0.5-1.5-1.6-1.5
			C70.7,213.8,70.2,214.6,70.1,215.4z"/>
		<path class="st3" d="M75.9,212.9h1.3v0.9c0.4-0.6,1.1-1,1.9-1v1.2c-0.1,0-0.2,0-0.4,0c-0.5,0-1.2,0.4-1.5,0.8v3.9h-1.3V212.9z"/>
		<path class="st3" d="M84,215.1c0-0.9-0.5-1.2-1.2-1.2c-0.6,0-1.2,0.4-1.5,0.8v4h-1.3v-5.8h1.3v0.8c0.4-0.5,1.1-0.9,2-0.9
			c1.2,0,1.9,0.7,1.9,1.9v4.1H84V215.1z"/>
		<path class="st3" d="M94,214.9c0-0.6-0.3-1-0.9-1c-0.6,0-1.1,0.4-1.3,0.8v4.1h-1.3v-3.8c0-0.6-0.3-1-1-1c-0.6,0-1.1,0.4-1.3,0.8v4
			h-1.3v-5.8h1.3v0.8c0.2-0.4,1-0.9,1.9-0.9c0.9,0,1.4,0.4,1.6,1.1c0.3-0.5,1.1-1.1,2-1.1c1.1,0,1.7,0.6,1.7,1.8v4.2H94V214.9z"/>
		<path class="st3" d="M99.5,212.8c1.7,0,2.9,1.3,2.9,3.2v0.3h-4.5c0.1,0.9,0.8,1.6,1.8,1.6c0.6,0,1.2-0.2,1.6-0.6l0.6,0.8
			c-0.6,0.6-1.4,0.8-2.4,0.8c-1.7,0-3-1.2-3-3C96.5,214.1,97.8,212.8,99.5,212.8z M97.9,215.4h3.3c0-0.7-0.5-1.5-1.6-1.5
			C98.4,213.8,97.9,214.6,97.9,215.4z"/>
		<path class="st3" d="M107.5,215.1c0-0.9-0.5-1.2-1.2-1.2c-0.6,0-1.2,0.4-1.5,0.8v4h-1.3v-5.8h1.3v0.8c0.4-0.5,1.1-0.9,2-0.9
			c1.2,0,1.9,0.7,1.9,1.9v4.1h-1.3V215.1z"/>
		<path class="st3" d="M110.7,217.4V214h-1v-1.1h1v-1.6h1.3v1.6h1.2v1.1H112v3c0,0.4,0.2,0.7,0.6,0.7c0.2,0,0.5-0.1,0.6-0.2l0.3,0.9
			c-0.2,0.2-0.6,0.4-1.2,0.4C111.2,218.9,110.7,218.3,110.7,217.4z"/>
	</g>
	<g>
		<path class="st3" d="M26.5,223.6c1.6,0,2.6,0.7,3.2,1.7l-1.2,0.6c-0.4-0.6-1.2-1.1-2.1-1.1c-1.6,0-2.8,1.2-2.8,2.9
			c0,1.7,1.2,2.9,2.8,2.9c0.8,0,1.5-0.4,1.9-0.7v-1.2H26v-1.2h3.8v3c-0.8,0.9-1.9,1.5-3.3,1.5c-2.3,0-4.2-1.6-4.2-4.2
			C22.3,225.2,24.2,223.6,26.5,223.6z"/>
		<path class="st3" d="M31.4,225.9h1.3v0.9c0.4-0.6,1.1-1,1.9-1v1.2c-0.1,0-0.2,0-0.4,0c-0.5,0-1.2,0.4-1.5,0.8v3.9h-1.3V225.9z"/>
		<path class="st3" d="M39.1,231.1c-0.4,0.5-1.1,0.8-1.9,0.8c-0.9,0-2-0.6-2-1.9c0-1.3,1.1-1.9,2-1.9c0.8,0,1.5,0.3,1.9,0.7v-0.9
			c0-0.7-0.6-1.1-1.4-1.1c-0.6,0-1.2,0.2-1.7,0.7l-0.5-0.9c0.7-0.6,1.5-0.9,2.4-0.9c1.3,0,2.4,0.5,2.4,2.1v3.8h-1.3V231.1z
			 M39.1,229.5c-0.3-0.4-0.8-0.6-1.4-0.6c-0.7,0-1.2,0.4-1.2,1c0,0.6,0.5,1,1.2,1c0.6,0,1.1-0.2,1.4-0.6V229.5z"/>
		<path class="st3" d="M45.9,228.1c0-0.9-0.5-1.2-1.2-1.2c-0.6,0-1.2,0.4-1.5,0.8v4H42v-5.8h1.3v0.8c0.4-0.5,1.1-0.9,2-0.9
			c1.2,0,1.9,0.7,1.9,1.9v4.1h-1.3V228.1z"/>
		<path class="st3" d="M49.1,230.4V227h-1v-1.1h1v-1.6h1.3v1.6h1.2v1.1h-1.2v3c0,0.4,0.2,0.7,0.6,0.7c0.2,0,0.5-0.1,0.6-0.2l0.3,0.9
			c-0.2,0.2-0.6,0.4-1.2,0.4C49.6,231.9,49.1,231.3,49.1,230.4z"/>
		<path class="st3" d="M53,230.1c0.4,0.4,1.2,0.8,2,0.8c0.8,0,1.1-0.3,1.1-0.7c0-0.5-0.6-0.7-1.3-0.8c-1-0.2-2.2-0.5-2.2-1.8
			c0-0.9,0.8-1.8,2.3-1.8c1,0,1.7,0.3,2.3,0.8l-0.5,0.9c-0.3-0.4-1-0.7-1.7-0.7c-0.7,0-1.1,0.2-1.1,0.6c0,0.4,0.6,0.6,1.3,0.8
			c1,0.2,2.2,0.5,2.2,1.9c0,1-0.9,1.8-2.4,1.8c-1,0-1.9-0.3-2.5-0.9L53,230.1z"/>
	</g>
	<g>
		<path class="st1" d="M16,63.5c4.1-3.1,5.8-4.5,5.8-6.1c0-1.1-1-1.6-1.9-1.6c-1.2,0-2.2,0.5-2.9,1.3l-1.1-1.2
			c0.9-1.1,2.4-1.7,3.9-1.7c2.1,0,3.9,1.2,3.9,3.3c0,2-1.8,3.7-4.7,5.9h4.7V65H16V63.5z"/>
		<path class="st1" d="M27.9,56.7l-1.7,1.8L25,57.4l3.1-3.1h1.6V65h-1.9V56.7z"/>
		<path class="st1" d="M34,54.1c1.6,0,2.7,1.2,2.7,2.7c0,1.5-1.1,2.6-2.7,2.6c-1.6,0-2.6-1.1-2.6-2.6C31.3,55.3,32.4,54.1,34,54.1z
			 M34,55.2c-0.8,0-1.4,0.6-1.4,1.6c0,0.9,0.6,1.6,1.4,1.6c0.8,0,1.4-0.7,1.4-1.6C35.4,55.9,34.8,55.2,34,55.2z M39.8,54.3h1.1
			L34,65H33L39.8,54.3z M39.7,59.9c1.6,0,2.7,1.2,2.7,2.7c0,1.5-1.1,2.6-2.7,2.6c-1.6,0-2.6-1.1-2.6-2.6
			C37.1,61,38.1,59.9,39.7,59.9z M39.7,60.9c-0.8,0-1.4,0.6-1.4,1.6c0,0.9,0.6,1.6,1.4,1.6c0.8,0,1.4-0.6,1.4-1.6
			C41.1,61.6,40.6,60.9,39.7,60.9z"/>
	</g>
	<g>
		<path class="st1" d="M16.1,79h5.5v1.2h-4.1v2.1h4v1.2h-4V87h-1.4V79z"/>
		<path class="st1" d="M22.5,84.1c0-1.7,1.1-3,3-3c1.9,0,3,1.4,3,3c0,1.7-1.1,3-3,3C23.6,87.1,22.5,85.7,22.5,84.1z M27.1,84.1
			c0-1-0.6-1.9-1.7-1.9c-1.1,0-1.7,0.9-1.7,1.9c0,1,0.6,1.9,1.7,1.9C26.5,86,27.1,85.1,27.1,84.1z"/>
		<path class="st1" d="M33.7,86.2c-0.4,0.5-1.1,0.9-2.1,0.9c-1.2,0-1.9-0.6-1.9-1.8v-4.1H31v3.6c0,0.9,0.5,1.2,1.2,1.2
			c0.6,0,1.2-0.4,1.5-0.8v-4.1h1.3V87h-1.3V86.2z"/>
		<path class="st1" d="M40.5,83.4c0-0.9-0.5-1.2-1.2-1.2c-0.6,0-1.2,0.4-1.5,0.8v4h-1.3v-5.8h1.3V82c0.4-0.5,1.1-0.9,2-0.9
			c1.2,0,1.9,0.7,1.9,1.9V87h-1.3V83.4z"/>
		<path class="st1" d="M47.5,86.2c-0.4,0.6-1.1,0.9-1.9,0.9c-1.5,0-2.6-1.1-2.6-3c0-1.9,1.1-3,2.6-3c0.7,0,1.4,0.3,1.9,0.9v-3h1.3v8
			h-1.3V86.2z M47.5,82.9c-0.3-0.4-0.9-0.8-1.5-0.8c-1,0-1.6,0.8-1.6,1.9c0,1.1,0.6,1.9,1.6,1.9c0.6,0,1.2-0.3,1.5-0.8V82.9z"/>
		<path class="st1" d="M54,86.4c-0.4,0.5-1.1,0.8-1.9,0.8c-0.9,0-2-0.6-2-1.9c0-1.3,1.1-1.9,2-1.9c0.8,0,1.5,0.3,1.9,0.7v-0.9
			c0-0.7-0.6-1.1-1.4-1.1c-0.6,0-1.2,0.2-1.7,0.7L50.4,82c0.7-0.6,1.5-0.9,2.4-0.9c1.3,0,2.4,0.5,2.4,2.1V87H54V86.4z M54,84.8
			c-0.3-0.4-0.8-0.6-1.4-0.6c-0.7,0-1.2,0.4-1.2,1c0,0.6,0.5,1,1.2,1c0.6,0,1.1-0.2,1.4-0.6V84.8z"/>
		<path class="st1" d="M57.1,85.6v-3.3h-1v-1.1h1v-1.6h1.3v1.6h1.2v1.1h-1.2v3c0,0.4,0.2,0.7,0.6,0.7c0.2,0,0.5-0.1,0.6-0.2l0.3,0.9
			c-0.2,0.2-0.6,0.4-1.2,0.4C57.6,87.1,57.1,86.6,57.1,85.6z"/>
		<path class="st1" d="M60.6,79.5c0-0.4,0.4-0.8,0.8-0.8c0.4,0,0.8,0.3,0.8,0.8s-0.3,0.8-0.8,0.8C60.9,80.3,60.6,80,60.6,79.5z
			 M60.7,81.2H62V87h-1.3V81.2z"/>
		<path class="st1" d="M63.3,84.1c0-1.7,1.1-3,3-3c1.9,0,3,1.4,3,3c0,1.7-1.1,3-3,3C64.4,87.1,63.3,85.7,63.3,84.1z M67.9,84.1
			c0-1-0.6-1.9-1.7-1.9c-1.1,0-1.7,0.9-1.7,1.9c0,1,0.6,1.9,1.7,1.9C67.3,86,67.9,85.1,67.9,84.1z"/>
		<path class="st1" d="M74.5,83.4c0-0.9-0.5-1.2-1.2-1.2c-0.6,0-1.2,0.4-1.5,0.8v4h-1.3v-5.8h1.3V82c0.4-0.5,1.1-0.9,2-0.9
			c1.2,0,1.9,0.7,1.9,1.9V87h-1.3V83.4z"/>
		<path class="st1" d="M83.2,85.8h-0.9v-2.5h-2.2v-0.8h2.2v-2.4h0.9v2.4h2.2v0.8h-2.2V85.8z"/>
	</g>
	<g>
		<path class="st1" d="M16.1,92h1.4v8h-1.4V92z"/>
		<path class="st1" d="M23.1,96.4c0-0.9-0.5-1.2-1.2-1.2c-0.6,0-1.2,0.4-1.5,0.8v4h-1.3v-5.8h1.3V95c0.4-0.5,1.1-0.9,2-0.9
			c1.2,0,1.9,0.7,1.9,1.9v4.1h-1.3V96.4z"/>
		<path class="st1" d="M30.2,99.2c-0.4,0.6-1.1,0.9-1.9,0.9c-1.5,0-2.6-1.1-2.6-3c0-1.9,1.1-3,2.6-3c0.7,0,1.4,0.3,1.9,0.9v-3h1.3v8
			h-1.3V99.2z M30.2,95.9c-0.3-0.4-0.9-0.8-1.5-0.8c-1,0-1.6,0.8-1.6,1.9c0,1.1,0.6,1.9,1.6,1.9c0.6,0,1.2-0.3,1.5-0.8V95.9z"/>
		<path class="st1" d="M32.9,92.5c0-0.4,0.4-0.8,0.8-0.8c0.4,0,0.8,0.3,0.8,0.8s-0.3,0.8-0.8,0.8C33.3,93.3,32.9,92.9,32.9,92.5z
			 M33.1,94.2h1.3v5.8h-1.3V94.2z"/>
		<path class="st1" d="M35.2,94.2h1.3l1.7,4.3l1.7-4.3h1.4l-2.4,5.8h-1.4L35.2,94.2z"/>
		<path class="st1" d="M42.1,92.5c0-0.4,0.4-0.8,0.8-0.8c0.4,0,0.8,0.3,0.8,0.8s-0.3,0.8-0.8,0.8C42.4,93.3,42.1,92.9,42.1,92.5z
			 M42.2,94.2h1.3v5.8h-1.3V94.2z"/>
		<path class="st1" d="M49.2,99.2c-0.4,0.6-1.1,0.9-1.9,0.9c-1.5,0-2.6-1.1-2.6-3c0-1.9,1.1-3,2.6-3c0.7,0,1.4,0.3,1.9,0.9v-3h1.3v8
			h-1.3V99.2z M49.2,95.9c-0.3-0.4-0.9-0.8-1.5-0.8c-1,0-1.6,0.8-1.6,1.9c0,1.1,0.6,1.9,1.6,1.9c0.6,0,1.2-0.3,1.5-0.8V95.9z"/>
		<path class="st1" d="M56,99.2c-0.4,0.5-1.1,0.9-2.1,0.9c-1.2,0-1.9-0.6-1.9-1.8v-4.1h1.3v3.6c0,0.9,0.5,1.2,1.2,1.2
			c0.6,0,1.2-0.4,1.5-0.8v-4.1h1.3v5.8H56V99.2z"/>
		<path class="st1" d="M62.5,99.4c-0.4,0.5-1.1,0.8-1.9,0.8c-0.9,0-2-0.6-2-1.9c0-1.3,1.1-1.9,2-1.9c0.8,0,1.5,0.3,1.9,0.7v-0.9
			c0-0.7-0.6-1.1-1.4-1.1c-0.6,0-1.2,0.2-1.7,0.7L58.9,95c0.7-0.6,1.5-0.9,2.4-0.9c1.3,0,2.4,0.5,2.4,2.1v3.8h-1.3V99.4z M62.5,97.8
			c-0.3-0.4-0.8-0.6-1.4-0.6c-0.7,0-1.2,0.4-1.2,1c0,0.6,0.5,1,1.2,1c0.6,0,1.1-0.2,1.4-0.6V97.8z"/>
		<path class="st1" d="M65.4,92h1.3v8h-1.3V92z"/>
		<path class="st1" d="M71.8,97.8c0.6,0.6,1.4,1.1,2.5,1.1c1.2,0,1.6-0.6,1.6-1.1c0-0.7-0.9-0.9-1.8-1.2c-1.3-0.3-2.8-0.7-2.8-2.4
			c0-1.3,1.2-2.3,2.9-2.3c1.2,0,2.3,0.4,3,1.1l-0.8,1c-0.6-0.6-1.5-0.9-2.3-0.9c-0.8,0-1.4,0.4-1.4,1c0,0.6,0.8,0.8,1.8,1.1
			c1.3,0.3,2.9,0.7,2.9,2.5c0,1.3-0.9,2.5-3.1,2.5c-1.5,0-2.5-0.5-3.2-1.3L71.8,97.8z"/>
		<path class="st1" d="M82.6,99.2c-0.4,0.5-1.1,0.9-2.1,0.9c-1.2,0-1.9-0.6-1.9-1.8v-4.1h1.3v3.6c0,0.9,0.5,1.2,1.2,1.2
			c0.6,0,1.2-0.4,1.5-0.8v-4.1h1.3v5.8h-1.3V99.2z"/>
		<path class="st1" d="M85.5,102.2v-8h1.3V95c0.4-0.6,1.1-0.9,1.9-0.9c1.5,0,2.6,1.1,2.6,3s-1.1,3-2.6,3c-0.7,0-1.4-0.3-1.9-0.9v3
			H85.5z M88.2,95.2c-0.6,0-1.2,0.3-1.5,0.8v2.3c0.3,0.4,0.9,0.8,1.5,0.8c1,0,1.6-0.8,1.6-1.9C89.9,96,89.2,95.2,88.2,95.2z"/>
		<path class="st1" d="M92.5,102.2v-8h1.3V95c0.4-0.6,1.1-0.9,1.9-0.9c1.5,0,2.6,1.1,2.6,3s-1.1,3-2.6,3c-0.7,0-1.4-0.3-1.9-0.9v3
			H92.5z M95.3,95.2c-0.6,0-1.2,0.3-1.5,0.8v2.3c0.3,0.4,0.9,0.8,1.5,0.8c1,0,1.6-0.8,1.6-1.9C96.9,96,96.3,95.2,95.3,95.2z"/>
		<path class="st1" d="M99.2,97.1c0-1.7,1.1-3,3-3c1.9,0,3,1.4,3,3c0,1.7-1.1,3-3,3C100.3,100.1,99.2,98.7,99.2,97.1z M103.9,97.1
			c0-1-0.6-1.9-1.7-1.9c-1.1,0-1.7,0.9-1.7,1.9c0,1,0.6,1.9,1.7,1.9C103.3,99,103.9,98.1,103.9,97.1z"/>
		<path class="st1" d="M106.5,94.2h1.3V95c0.4-0.6,1.1-1,1.9-1v1.2c-0.1,0-0.2,0-0.4,0c-0.5,0-1.2,0.4-1.5,0.8v3.9h-1.3V94.2z"/>
		<path class="st1" d="M111.2,98.6v-3.3h-1v-1.1h1v-1.6h1.3v1.6h1.2v1.1h-1.2v3c0,0.4,0.2,0.7,0.6,0.7c0.2,0,0.5-0.1,0.6-0.2
			l0.3,0.9c-0.2,0.2-0.6,0.4-1.2,0.4C111.8,100.1,111.2,99.6,111.2,98.6z"/>
		<path class="st1" d="M117.7,97.1c0-1.7,1.1-3,3-3c1.9,0,3,1.4,3,3c0,1.7-1.1,3-3,3C118.8,100.1,117.7,98.7,117.7,97.1z
			 M122.3,97.1c0-1-0.6-1.9-1.7-1.9c-1.1,0-1.7,0.9-1.7,1.9c0,1,0.6,1.9,1.7,1.9C121.7,99,122.3,98.1,122.3,97.1z"/>
		<path class="st1" d="M125.2,95.3h-1v-1.1h1v-0.3c0-1.3,0.8-2,1.8-2c0.4,0,0.8,0.1,1,0.2l-0.3,0.9c-0.1-0.1-0.3-0.1-0.5-0.1
			c-0.5,0-0.8,0.3-0.8,1v0.3h1.2v1.1h-1.2v4.7h-1.3V95.3z"/>
	</g>
	<g>
		<path class="st1" d="M16.1,105h3.5c1.7,0,2.6,1.2,2.6,2.5s-0.9,2.5-2.6,2.5h-2.1v3h-1.4V105z M19.4,106.2h-1.9v2.5h1.9
			c0.8,0,1.4-0.5,1.4-1.3S20.2,106.2,19.4,106.2z"/>
		<path class="st1" d="M23.3,107.2h1.3v0.9c0.4-0.6,1.1-1,1.9-1v1.2c-0.1,0-0.2,0-0.4,0c-0.5,0-1.2,0.4-1.5,0.8v3.9h-1.3V107.2z"/>
		<path class="st1" d="M27.1,110.1c0-1.7,1.1-3,3-3c1.9,0,3,1.4,3,3c0,1.7-1.1,3-3,3C28.2,113.1,27.1,111.7,27.1,110.1z M31.8,110.1
			c0-1-0.6-1.9-1.7-1.9c-1.1,0-1.7,0.9-1.7,1.9c0,1,0.6,1.9,1.7,1.9C31.2,112,31.8,111.1,31.8,110.1z"/>
		<path class="st1" d="M34.9,113.5c0.5,0.5,1.1,0.7,1.8,0.7c0.8,0,1.7-0.4,1.7-1.6V112c-0.4,0.6-1.1,1-1.9,1c-1.5,0-2.6-1.1-2.6-3
			c0-1.9,1.1-3,2.6-3c0.7,0,1.4,0.3,1.9,0.9v-0.8h1.3v5.5c0,2.1-1.5,2.7-3,2.7c-1,0-1.7-0.2-2.4-0.9L34.9,113.5z M38.5,108.9
			c-0.3-0.4-0.9-0.8-1.5-0.8c-1,0-1.6,0.7-1.6,1.9c0,1.1,0.6,1.9,1.6,1.9c0.6,0,1.2-0.3,1.5-0.8V108.9z"/>
		<path class="st1" d="M41.4,107.2h1.3v0.9c0.4-0.6,1.1-1,1.9-1v1.2c-0.1,0-0.2,0-0.4,0c-0.5,0-1.2,0.4-1.5,0.8v3.9h-1.3V107.2z"/>
		<path class="st1" d="M49.1,112.3c-0.4,0.5-1.1,0.8-1.9,0.8c-0.9,0-2-0.6-2-1.9c0-1.3,1.1-1.9,2-1.9c0.8,0,1.5,0.3,1.9,0.7v-0.9
			c0-0.7-0.6-1.1-1.4-1.1c-0.6,0-1.2,0.2-1.7,0.7l-0.5-0.9c0.7-0.6,1.5-0.9,2.4-0.9c1.3,0,2.4,0.5,2.4,2.1v3.8h-1.3V112.3z
			 M49.1,110.8c-0.3-0.4-0.8-0.6-1.4-0.6c-0.7,0-1.2,0.4-1.2,1c0,0.6,0.5,1,1.2,1c0.6,0,1.1-0.2,1.4-0.6V110.8z"/>
		<path class="st1" d="M59.1,109.2c0-0.6-0.3-1-0.9-1c-0.6,0-1.1,0.4-1.3,0.8v4.1h-1.3v-3.8c0-0.6-0.3-1-1-1c-0.6,0-1.1,0.4-1.3,0.8
			v4H52v-5.8h1.3v0.8c0.2-0.4,1-0.9,1.9-0.9c0.9,0,1.4,0.4,1.6,1.1c0.3-0.5,1.1-1.1,2-1.1c1.1,0,1.7,0.6,1.7,1.8v4.2h-1.3V109.2z"/>
		<path class="st1" d="M69.1,109.2c0-0.6-0.3-1-0.9-1c-0.6,0-1.1,0.4-1.3,0.8v4.1h-1.3v-3.8c0-0.6-0.3-1-1-1c-0.6,0-1.1,0.4-1.3,0.8
			v4H62v-5.8h1.3v0.8c0.2-0.4,1-0.9,1.9-0.9c0.9,0,1.4,0.4,1.6,1.1c0.3-0.5,1.1-1.1,2-1.1c1.1,0,1.7,0.6,1.7,1.8v4.2h-1.3V109.2z"/>
		<path class="st1" d="M71.9,105.5c0-0.4,0.4-0.8,0.8-0.8c0.4,0,0.8,0.3,0.8,0.8s-0.3,0.8-0.8,0.8C72.2,106.3,71.9,105.9,71.9,105.5
			z M72,107.2h1.3v5.8H72V107.2z"/>
		<path class="st1" d="M78.9,109.3c0-0.9-0.5-1.2-1.2-1.2c-0.6,0-1.2,0.4-1.5,0.8v4h-1.3v-5.8h1.3v0.8c0.4-0.5,1.1-0.9,2-0.9
			c1.2,0,1.9,0.7,1.9,1.9v4.1h-1.3V109.3z"/>
		<path class="st1" d="M82.3,113.5c0.5,0.5,1.1,0.7,1.8,0.7c0.8,0,1.7-0.4,1.7-1.6V112c-0.4,0.6-1.1,1-1.9,1c-1.5,0-2.6-1.1-2.6-3
			c0-1.9,1.1-3,2.6-3c0.7,0,1.4,0.3,1.9,0.9v-0.8h1.3v5.5c0,2.1-1.5,2.7-3,2.7c-1,0-1.7-0.2-2.4-0.9L82.3,113.5z M85.9,108.9
			c-0.3-0.4-0.9-0.8-1.5-0.8c-1,0-1.6,0.7-1.6,1.9c0,1.1,0.6,1.9,1.6,1.9c0.6,0,1.2-0.3,1.5-0.8V108.9z"/>
	</g>
	<g>
		<path class="st2" d="M86.1,8.1c0.7,0.8,1.7,1.3,2.9,1.3c1.3,0,2.2-0.8,2.2-1.9c0-1.2-0.8-1.9-2.1-1.9c-0.9,0-1.7,0.3-2.3,0.9
			l-1.3-0.4v-6h7v1.6h-5.1v3.1C87.7,4.4,88.6,4,89.6,4C91.4,4,93,5.2,93,7.4C93,9.6,91.4,11,89,11c-1.8,0-3.1-0.6-4-1.6L86.1,8.1z"
			/>
		<path class="st2" d="M96.6,0c1.6,0,2.7,1.2,2.7,2.7c0,1.5-1.1,2.6-2.7,2.6c-1.6,0-2.6-1.1-2.6-2.6C93.9,1.2,95,0,96.6,0z
			 M96.6,1.1c-0.8,0-1.4,0.6-1.4,1.6c0,0.9,0.6,1.6,1.4,1.6c0.8,0,1.4-0.7,1.4-1.6C98,1.7,97.4,1.1,96.6,1.1z M102.4,0.2h1.1
			l-6.8,10.7h-1.1L102.4,0.2z M102.3,5.7c1.6,0,2.7,1.2,2.7,2.7c0,1.5-1.1,2.6-2.7,2.6c-1.6,0-2.6-1.1-2.6-2.6
			C99.7,6.9,100.7,5.7,102.3,5.7z M102.3,6.8c-0.8,0-1.4,0.6-1.4,1.6c0,0.9,0.6,1.6,1.4,1.6c0.8,0,1.4-0.6,1.4-1.6
			C103.8,7.4,103.2,6.8,102.3,6.8z"/>
	</g>
	<g>
		<path class="st2" d="M84.6,28.8c0-2.5,1.8-4.1,4.1-4.1c1.7,0,2.7,0.8,3.3,1.8l-1.2,0.6c-0.4-0.7-1.2-1.2-2.1-1.2
			c-1.5,0-2.7,1.2-2.7,2.9c0,1.7,1.2,2.9,2.7,2.9c0.9,0,1.7-0.5,2.1-1.2l1.2,0.6c-0.6,1-1.6,1.8-3.3,1.8
			C86.4,33,84.6,31.3,84.6,28.8z"/>
		<path class="st2" d="M92.8,29.9c0-1.7,1.1-3,3-3c1.9,0,3,1.4,3,3c0,1.7-1.1,3-3,3C94,33,92.8,31.6,92.8,29.9z M97.5,29.9
			c0-1-0.6-1.9-1.7-1.9c-1.1,0-1.7,0.9-1.7,1.9c0,1,0.6,1.9,1.7,1.9C96.9,31.9,97.5,31,97.5,29.9z"/>
		<path class="st2" d="M104,29.2c0-0.9-0.5-1.2-1.2-1.2c-0.6,0-1.2,0.4-1.5,0.8v4h-1.3V27h1.3v0.8c0.4-0.5,1.1-0.9,2-0.9
			c1.2,0,1.9,0.7,1.9,1.9v4.1H104V29.2z"/>
		<path class="st2" d="M107.2,31.5v-3.3h-1V27h1v-1.6h1.3V27h1.2v1.1h-1.2v3c0,0.4,0.2,0.7,0.6,0.7c0.2,0,0.5-0.1,0.6-0.2l0.3,0.9
			c-0.2,0.2-0.6,0.4-1.2,0.4C107.7,33,107.2,32.5,107.2,31.5z"/>
		<path class="st2" d="M110.8,27h1.3v0.9c0.4-0.6,1.1-1,1.9-1v1.2c-0.1,0-0.2,0-0.4,0c-0.5,0-1.2,0.4-1.5,0.8v3.9h-1.3V27z"/>
		<path class="st2" d="M114.8,25.4c0-0.4,0.4-0.8,0.8-0.8c0.4,0,0.8,0.3,0.8,0.8s-0.3,0.8-0.8,0.8C115.2,26.2,114.8,25.8,114.8,25.4
			z M115,27h1.3v5.8H115V27z"/>
		<path class="st2" d="M117.9,24.8h1.3v3c0.5-0.6,1.1-0.9,1.9-0.9c1.5,0,2.6,1.2,2.6,3c0,1.9-1.1,3-2.6,3c-0.8,0-1.4-0.4-1.9-0.9
			v0.8h-1.3V24.8z M120.6,31.9c1,0,1.6-0.8,1.6-1.9c0-1.1-0.6-1.9-1.6-1.9c-0.6,0-1.2,0.4-1.5,0.8v2.3
			C119.4,31.5,120,31.9,120.6,31.9z"/>
		<path class="st2" d="M128.8,32.1c-0.4,0.5-1.1,0.9-2.1,0.9c-1.2,0-1.9-0.6-1.9-1.8V27h1.3v3.6c0,0.9,0.5,1.2,1.2,1.2
			c0.6,0,1.2-0.4,1.5-0.8V27h1.3v5.8h-1.3V32.1z"/>
		<path class="st2" d="M132,31.5v-3.3h-1V27h1v-1.6h1.3V27h1.2v1.1h-1.2v3c0,0.4,0.2,0.7,0.6,0.7c0.2,0,0.5-0.1,0.6-0.2l0.3,0.9
			c-0.2,0.2-0.6,0.4-1.2,0.4C132.5,33,132,32.5,132,31.5z"/>
		<path class="st2" d="M135.5,25.4c0-0.4,0.4-0.8,0.8-0.8c0.4,0,0.8,0.3,0.8,0.8s-0.3,0.8-0.8,0.8C135.8,26.2,135.5,25.8,135.5,25.4
			z M135.6,27h1.3v5.8h-1.3V27z"/>
		<path class="st2" d="M138.2,29.9c0-1.7,1.1-3,3-3c1.9,0,3,1.4,3,3c0,1.7-1.1,3-3,3C139.3,33,138.2,31.6,138.2,29.9z M142.8,29.9
			c0-1-0.6-1.9-1.7-1.9c-1.1,0-1.7,0.9-1.7,1.9c0,1,0.6,1.9,1.7,1.9C142.2,31.9,142.8,31,142.8,29.9z"/>
		<path class="st2" d="M149.4,29.2c0-0.9-0.5-1.2-1.2-1.2c-0.6,0-1.2,0.4-1.5,0.8v4h-1.3V27h1.3v0.8c0.4-0.5,1.1-0.9,2-0.9
			c1.2,0,1.9,0.7,1.9,1.9v4.1h-1.3V29.2z"/>
		<path class="st2" d="M152.4,31.2c0.4,0.4,1.2,0.8,2,0.8c0.8,0,1.1-0.3,1.1-0.7c0-0.5-0.6-0.7-1.3-0.8c-1-0.2-2.2-0.5-2.2-1.8
			c0-0.9,0.8-1.8,2.3-1.8c1,0,1.7,0.3,2.3,0.8l-0.5,0.9c-0.3-0.4-1-0.7-1.7-0.7c-0.7,0-1.1,0.2-1.1,0.6c0,0.4,0.6,0.6,1.3,0.8
			c1,0.2,2.2,0.5,2.2,1.9c0,1-0.9,1.8-2.4,1.8c-1,0-1.9-0.3-2.5-0.9L152.4,31.2z"/>
		<path class="st2" d="M157.9,34c0.4-0.2,0.8-0.7,0.9-1.1c0,0-0.1,0-0.2,0c-0.4,0-0.7-0.3-0.7-0.8c0-0.5,0.4-0.8,0.8-0.8
			c0.5,0,0.9,0.4,0.9,1.1c0,0.8-0.5,1.6-1.1,2.1L157.9,34z"/>
	</g>
	<g>
		<path class="st2" d="M85,37.8h1.4v8H85V37.8z"/>
		<path class="st2" d="M92,42.2c0-0.9-0.5-1.2-1.2-1.2c-0.6,0-1.2,0.4-1.5,0.8v4h-1.3V40h1.3v0.8c0.4-0.5,1.1-0.9,2-0.9
			c1.2,0,1.9,0.7,1.9,1.9v4.1H92V42.2z"/>
		<path class="st2" d="M94,40h1.3l1.7,4.3l1.7-4.3h1.4l-2.4,5.8h-1.4L94,40z"/>
		<path class="st2" d="M103.3,39.9c1.7,0,2.9,1.3,2.9,3.2v0.3h-4.5c0.1,0.9,0.8,1.6,1.8,1.6c0.6,0,1.2-0.2,1.6-0.6l0.6,0.8
			c-0.6,0.6-1.4,0.8-2.4,0.8c-1.7,0-3-1.2-3-3C100.4,41.3,101.6,39.9,103.3,39.9z M101.7,42.5h3.3c0-0.7-0.5-1.5-1.6-1.5
			C102.3,40.9,101.8,41.8,101.7,42.5z"/>
		<path class="st2" d="M107.5,44.2c0.4,0.4,1.2,0.8,2,0.8c0.8,0,1.1-0.3,1.1-0.7c0-0.5-0.6-0.7-1.3-0.8c-1-0.2-2.2-0.5-2.2-1.8
			c0-0.9,0.8-1.8,2.3-1.8c1,0,1.7,0.3,2.3,0.8l-0.5,0.9c-0.3-0.4-1-0.7-1.7-0.7c-0.7,0-1.1,0.2-1.1,0.6c0,0.4,0.6,0.6,1.3,0.8
			c1,0.2,2.2,0.5,2.2,1.9c0,1-0.9,1.8-2.4,1.8c-1,0-1.9-0.3-2.5-0.9L107.5,44.2z"/>
		<path class="st2" d="M113.5,44.5v-3.3h-1V40h1v-1.6h1.3V40h1.2v1.1h-1.2v3c0,0.4,0.2,0.7,0.6,0.7c0.2,0,0.5-0.1,0.6-0.2l0.3,0.9
			c-0.2,0.2-0.6,0.4-1.2,0.4C114,46,113.5,45.4,113.5,44.5z"/>
		<path class="st2" d="M124.2,42.1c0-0.6-0.3-1-0.9-1c-0.6,0-1.1,0.4-1.3,0.8v4.1h-1.3v-3.8c0-0.6-0.3-1-1-1c-0.6,0-1.1,0.4-1.3,0.8
			v4h-1.3V40h1.3v0.8c0.2-0.4,1-0.9,1.9-0.9c0.9,0,1.4,0.4,1.6,1.1c0.3-0.5,1.1-1.1,2-1.1c1.1,0,1.7,0.6,1.7,1.8v4.2h-1.3V42.1z"/>
		<path class="st2" d="M129.8,39.9c1.7,0,2.9,1.3,2.9,3.2v0.3h-4.5c0.1,0.9,0.8,1.6,1.8,1.6c0.6,0,1.2-0.2,1.6-0.6l0.6,0.8
			c-0.6,0.6-1.4,0.8-2.4,0.8c-1.7,0-3-1.2-3-3C126.8,41.3,128,39.9,129.8,39.9z M128.1,42.5h3.3c0-0.7-0.5-1.5-1.6-1.5
			C128.7,40.9,128.2,41.8,128.1,42.5z"/>
		<path class="st2" d="M137.8,42.2c0-0.9-0.5-1.2-1.2-1.2c-0.6,0-1.2,0.4-1.5,0.8v4h-1.3V40h1.3v0.8c0.4-0.5,1.1-0.9,2-0.9
			c1.2,0,1.9,0.7,1.9,1.9v4.1h-1.3V42.2z"/>
		<path class="st2" d="M141,44.5v-3.3h-1V40h1v-1.6h1.3V40h1.2v1.1h-1.2v3c0,0.4,0.2,0.7,0.6,0.7c0.2,0,0.5-0.1,0.6-0.2l0.3,0.9
			c-0.2,0.2-0.6,0.4-1.2,0.4C141.5,46,141,45.4,141,44.5z"/>
		<path class="st2" d="M150.6,42.8h-1.4v3h-1.4v-8h3.5c1.6,0,2.6,1,2.6,2.5c0,1.4-0.9,2.2-1.9,2.4l2,3.1h-1.6L150.6,42.8z
			 M151.1,39.1h-1.9v2.5h1.9c0.8,0,1.4-0.5,1.4-1.3S151.9,39.1,151.1,39.1z"/>
		<path class="st2" d="M157.8,39.9c1.7,0,2.9,1.3,2.9,3.2v0.3h-4.5c0.1,0.9,0.8,1.6,1.8,1.6c0.6,0,1.2-0.2,1.6-0.6l0.6,0.8
			c-0.6,0.6-1.4,0.8-2.4,0.8c-1.7,0-3-1.2-3-3C154.9,41.3,156.1,39.9,157.8,39.9z M156.2,42.5h3.3c0-0.7-0.5-1.5-1.6-1.5
			C156.7,40.9,156.2,41.8,156.2,42.5z"/>
		<path class="st2" d="M162.2,44.5v-3.3h-1V40h1v-1.6h1.3V40h1.2v1.1h-1.2v3c0,0.4,0.2,0.7,0.6,0.7c0.2,0,0.5-0.1,0.6-0.2l0.3,0.9
			c-0.2,0.2-0.6,0.4-1.2,0.4C162.7,46,162.2,45.4,162.2,44.5z"/>
		<path class="st2" d="M169.7,45.1c-0.4,0.5-1.1,0.9-2.1,0.9c-1.2,0-1.9-0.6-1.9-1.8V40h1.3v3.6c0,0.9,0.5,1.2,1.2,1.2
			c0.6,0,1.2-0.4,1.5-0.8V40h1.3v5.8h-1.3V45.1z"/>
		<path class="st2" d="M172.6,40h1.3v0.9c0.4-0.6,1.1-1,1.9-1v1.2c-0.1,0-0.2,0-0.4,0c-0.5,0-1.2,0.4-1.5,0.8v3.9h-1.3V40z"/>
		<path class="st2" d="M180.6,42.2c0-0.9-0.5-1.2-1.2-1.2c-0.6,0-1.2,0.4-1.5,0.8v4h-1.3V40h1.3v0.8c0.4-0.5,1.1-0.9,2-0.9
			c1.2,0,1.9,0.7,1.9,1.9v4.1h-1.3V42.2z"/>
		<path class="st2" d="M183.6,44.2c0.4,0.4,1.2,0.8,2,0.8c0.8,0,1.1-0.3,1.1-0.7c0-0.5-0.6-0.7-1.3-0.8c-1-0.2-2.2-0.5-2.2-1.8
			c0-0.9,0.8-1.8,2.3-1.8c1,0,1.7,0.3,2.3,0.8l-0.5,0.9c-0.3-0.4-1-0.7-1.7-0.7c-0.7,0-1.1,0.2-1.1,0.6c0,0.4,0.6,0.6,1.3,0.8
			c1,0.2,2.2,0.5,2.2,1.9c0,1-0.9,1.8-2.4,1.8c-1,0-1.9-0.3-2.5-0.9L183.6,44.2z"/>
		<path class="st2" d="M189.2,47c0.4-0.2,0.8-0.7,0.9-1.1c0,0-0.1,0-0.2,0c-0.4,0-0.7-0.3-0.7-0.8c0-0.5,0.4-0.8,0.8-0.8
			c0.5,0,0.9,0.4,0.9,1.1c0,0.8-0.5,1.6-1.1,2.1L189.2,47z"/>
	</g>
	<g>
		<path class="st2" d="M87.6,57.7h-0.9v-2.5h-2.2v-0.8h2.2V52h0.9v2.4h2.2v0.8h-2.2V57.7z"/>
		<path class="st2" d="M97.9,50.7c2.4,0,4.1,1.8,4.1,4.1s-1.7,4.1-4.1,4.1c-2.4,0-4.1-1.8-4.1-4.1S95.5,50.7,97.9,50.7z M97.9,51.9
			c-1.6,0-2.7,1.2-2.7,2.9c0,1.6,1,2.9,2.7,2.9c1.6,0,2.7-1.2,2.7-2.9C100.5,53.2,99.5,51.9,97.9,51.9z"/>
		<path class="st2" d="M103.8,57.5v-3.3h-1V53h1v-1.6h1.3V53h1.2v1.1H105v3c0,0.4,0.2,0.7,0.6,0.7c0.2,0,0.5-0.1,0.6-0.2l0.3,0.9
			c-0.2,0.2-0.6,0.4-1.2,0.4C104.3,59,103.8,58.4,103.8,57.5z"/>
		<path class="st2" d="M111.3,55.2c0-0.9-0.5-1.2-1.2-1.2c-0.6,0-1.2,0.4-1.5,0.8v4h-1.3v-8h1.3v3c0.4-0.5,1.1-0.9,2.1-0.9
			c1.2,0,1.9,0.6,1.9,1.8v4.1h-1.3V55.2z"/>
		<path class="st2" d="M116.8,52.9c1.7,0,2.9,1.3,2.9,3.2v0.3h-4.5c0.1,0.9,0.8,1.6,1.8,1.6c0.6,0,1.2-0.2,1.6-0.6l0.6,0.8
			c-0.6,0.6-1.4,0.8-2.4,0.8c-1.7,0-3-1.2-3-3C113.9,54.2,115.1,52.9,116.8,52.9z M115.2,55.5h3.3c0-0.7-0.5-1.5-1.6-1.5
			C115.7,53.9,115.2,54.7,115.2,55.5z"/>
		<path class="st2" d="M121,53h1.3v0.9c0.4-0.6,1.1-1,1.9-1v1.2c-0.1,0-0.2,0-0.4,0c-0.5,0-1.2,0.4-1.5,0.8v3.9H121V53z"/>
	</g>
	<g>
		<path class="st0" d="M409.8,34.5h-5.1V33l4.4-6.8h2.6v6.6h1.4v1.6h-1.4v2.4h-1.9V34.5z M406.5,32.8h3.2v-4.9L406.5,32.8z"/>
		<path class="st0" d="M415.4,34.2c0.7,0.8,1.7,1.3,2.9,1.3c1.3,0,2.2-0.8,2.2-1.9c0-1.2-0.8-1.9-2.1-1.9c-0.9,0-1.7,0.3-2.3,0.9
			l-1.3-0.4v-6h7v1.6h-5.1V31c0.5-0.5,1.4-0.9,2.4-0.9c1.8,0,3.4,1.3,3.4,3.4c0,2.2-1.7,3.6-4.1,3.6c-1.8,0-3.1-0.6-4-1.6
			L415.4,34.2z"/>
		<path class="st0" d="M425.9,26.1c1.6,0,2.7,1.2,2.7,2.7c0,1.5-1.1,2.6-2.7,2.6c-1.6,0-2.6-1.1-2.6-2.6
			C423.3,27.2,424.4,26.1,425.9,26.1z M425.9,27.1c-0.8,0-1.4,0.6-1.4,1.6c0,0.9,0.6,1.6,1.4,1.6c0.8,0,1.4-0.7,1.4-1.6
			C427.4,27.8,426.8,27.1,425.9,27.1z M431.7,26.2h1.1L426,36.9h-1.1L431.7,26.2z M431.7,31.8c1.6,0,2.7,1.2,2.7,2.7
			c0,1.5-1.1,2.6-2.7,2.6c-1.6,0-2.6-1.1-2.6-2.6C429.1,33,430.1,31.8,431.7,31.8z M431.7,32.9c-0.8,0-1.4,0.6-1.4,1.6
			c0,0.9,0.6,1.6,1.4,1.6s1.4-0.6,1.4-1.6C433.1,33.5,432.5,32.9,431.7,32.9z"/>
	</g>
	<g>
		<path class="st0" d="M389.6,50.9h3.5c1.7,0,2.6,1.2,2.6,2.5s-0.9,2.5-2.6,2.5H391v3h-1.4V50.9z M393,52.1H391v2.5h1.9
			c0.8,0,1.4-0.5,1.4-1.3S393.8,52.1,393,52.1z"/>
		<path class="st0" d="M396.9,53.1h1.3V54c0.4-0.6,1.1-1,1.9-1v1.2c-0.1,0-0.2,0-0.4,0c-0.5,0-1.2,0.4-1.5,0.8v3.9h-1.3V53.1z"/>
		<path class="st0" d="M400.7,56c0-1.7,1.1-3,3-3c1.9,0,3,1.4,3,3c0,1.7-1.1,3-3,3C401.8,59.1,400.7,57.7,400.7,56z M405.3,56
			c0-1-0.6-1.9-1.7-1.9c-1.1,0-1.7,0.9-1.7,1.9c0,1,0.6,1.9,1.7,1.9C404.7,57.9,405.3,57,405.3,56z"/>
		<path class="st0" d="M408.5,59.5c0.5,0.5,1.1,0.7,1.8,0.7c0.8,0,1.7-0.4,1.7-1.6V58c-0.4,0.6-1.1,1-1.9,1c-1.5,0-2.6-1.1-2.6-3
			c0-1.9,1.1-3,2.6-3c0.7,0,1.4,0.3,1.9,0.9v-0.8h1.3v5.5c0,2.1-1.5,2.7-3,2.7c-1,0-1.7-0.2-2.4-0.9L408.5,59.5z M412.1,54.9
			c-0.3-0.4-0.9-0.8-1.5-0.8c-1,0-1.6,0.7-1.6,1.9c0,1.1,0.6,1.9,1.6,1.9c0.6,0,1.2-0.3,1.5-0.8V54.9z"/>
		<path class="st0" d="M415,53.1h1.3V54c0.4-0.6,1.1-1,1.9-1v1.2c-0.1,0-0.2,0-0.4,0c-0.5,0-1.2,0.4-1.5,0.8v3.9H415V53.1z"/>
		<path class="st0" d="M422.7,58.3c-0.4,0.5-1.1,0.8-1.9,0.8c-0.9,0-2-0.6-2-1.9c0-1.3,1.1-1.9,2-1.9c0.8,0,1.5,0.3,1.9,0.7v-0.9
			c0-0.7-0.6-1.1-1.4-1.1c-0.6,0-1.2,0.2-1.7,0.7l-0.5-0.9c0.7-0.6,1.5-0.9,2.4-0.9c1.3,0,2.4,0.5,2.4,2.1v3.8h-1.3V58.3z
			 M422.7,56.7c-0.3-0.4-0.8-0.6-1.4-0.6c-0.7,0-1.2,0.4-1.2,1c0,0.6,0.5,1,1.2,1c0.6,0,1.1-0.2,1.4-0.6V56.7z"/>
		<path class="st0" d="M432.7,55.1c0-0.6-0.3-1-0.9-1c-0.6,0-1.1,0.4-1.3,0.8v4.1h-1.3v-3.8c0-0.6-0.3-1-1-1c-0.6,0-1.1,0.4-1.3,0.8
			v4h-1.3v-5.8h1.3v0.8c0.2-0.4,1-0.9,1.9-0.9c0.9,0,1.4,0.4,1.6,1.1c0.3-0.5,1.1-1.1,2-1.1c1.1,0,1.7,0.6,1.7,1.8v4.2h-1.3V55.1z"
			/>
	</g>
	<g>
		<path class="st0" d="M366.7,69.7c0.6,0.6,1.4,1.1,2.5,1.1c1.2,0,1.6-0.6,1.6-1.1c0-0.7-0.9-0.9-1.8-1.2c-1.3-0.3-2.8-0.7-2.8-2.4
			c0-1.3,1.2-2.3,2.9-2.3c1.2,0,2.3,0.4,3,1.1l-0.8,1c-0.6-0.6-1.5-0.9-2.3-0.9c-0.8,0-1.4,0.4-1.4,1c0,0.6,0.8,0.8,1.8,1.1
			c1.3,0.3,2.9,0.7,2.9,2.5c0,1.3-0.9,2.5-3.1,2.5c-1.5,0-2.5-0.5-3.2-1.3L366.7,69.7z"/>
		<path class="st0" d="M376.1,66c1.7,0,2.9,1.3,2.9,3.2v0.3h-4.5c0.1,0.9,0.8,1.6,1.8,1.6c0.6,0,1.2-0.2,1.6-0.6l0.6,0.8
			c-0.6,0.6-1.4,0.8-2.4,0.8c-1.7,0-3-1.2-3-3C373.2,67.3,374.4,66,376.1,66z M374.5,68.5h3.3c0-0.7-0.5-1.5-1.6-1.5
			C375.1,67,374.6,67.8,374.5,68.5z"/>
		<path class="st0" d="M380.3,66.1h1.3V67c0.4-0.6,1.1-1,1.9-1v1.2c-0.1,0-0.2,0-0.4,0c-0.5,0-1.2,0.4-1.5,0.8v3.9h-1.3V66.1z"/>
		<path class="st0" d="M384,66.1h1.3l1.7,4.3l1.7-4.3h1.4l-2.4,5.8h-1.4L384,66.1z"/>
		<path class="st0" d="M390.9,64.5c0-0.4,0.4-0.8,0.8-0.8c0.4,0,0.8,0.3,0.8,0.8s-0.3,0.8-0.8,0.8C391.2,65.2,390.9,64.9,390.9,64.5
			z M391,66.1h1.3v5.8H391V66.1z"/>
		<path class="st0" d="M396.6,66c1.1,0,1.8,0.5,2.2,1l-0.8,0.8c-0.3-0.5-0.8-0.7-1.3-0.7c-1.1,0-1.8,0.8-1.8,1.9
			c0,1.1,0.7,1.9,1.8,1.9c0.6,0,1-0.2,1.3-0.7l0.8,0.8c-0.4,0.6-1.1,1-2.2,1c-1.8,0-3-1.3-3-3C393.6,67.3,394.8,66,396.6,66z"/>
		<path class="st0" d="M402.4,66c1.7,0,2.9,1.3,2.9,3.2v0.3h-4.5c0.1,0.9,0.8,1.6,1.8,1.6c0.6,0,1.2-0.2,1.6-0.6l0.6,0.8
			c-0.6,0.6-1.4,0.8-2.4,0.8c-1.7,0-3-1.2-3-3C399.4,67.3,400.6,66,402.4,66z M400.7,68.5h3.3c0-0.7-0.5-1.5-1.6-1.5
			C401.3,67,400.8,67.8,400.7,68.5z"/>
		<path class="st0" d="M409.7,63.9h5.5v1.2h-4.1v2.1h4v1.2h-4v3.5h-1.4V63.9z"/>
		<path class="st0" d="M419,66c1.7,0,2.9,1.3,2.9,3.2v0.3h-4.5c0.1,0.9,0.8,1.6,1.8,1.6c0.6,0,1.2-0.2,1.6-0.6l0.6,0.8
			c-0.6,0.6-1.4,0.8-2.4,0.8c-1.7,0-3-1.2-3-3C416.1,67.3,417.3,66,419,66z M417.4,68.5h3.3c0-0.7-0.5-1.5-1.6-1.5
			C417.9,67,417.4,67.8,417.4,68.5z"/>
		<path class="st0" d="M425.8,66c1.7,0,2.9,1.3,2.9,3.2v0.3h-4.5c0.1,0.9,0.8,1.6,1.8,1.6c0.6,0,1.2-0.2,1.6-0.6l0.6,0.8
			c-0.6,0.6-1.4,0.8-2.4,0.8c-1.7,0-3-1.2-3-3C422.8,67.3,424.1,66,425.8,66z M424.1,68.5h3.3c0-0.7-0.5-1.5-1.6-1.5
			C424.7,67,424.2,67.8,424.1,68.5z"/>
		<path class="st0" d="M430,70.2c0.4,0.4,1.2,0.8,2,0.8s1.1-0.3,1.1-0.7c0-0.5-0.6-0.7-1.3-0.8c-1-0.2-2.2-0.5-2.2-1.8
			c0-0.9,0.8-1.8,2.3-1.8c1,0,1.7,0.3,2.3,0.8l-0.5,0.9c-0.3-0.4-1-0.7-1.7-0.7c-0.7,0-1.1,0.2-1.1,0.6c0,0.4,0.6,0.6,1.3,0.8
			c1,0.2,2.2,0.5,2.2,1.9c0,1-0.9,1.8-2.4,1.8c-1,0-1.9-0.3-2.5-0.9L430,70.2z"/>
	</g>
	<g>
		<path class="st0" d="M201.5,114.6h-2.4v-1.2h6.2v1.2h-2.4v6.8h-1.4V114.6z"/>
		<path class="st0" d="M205.2,118.5c0-1.7,1.1-3,3-3c1.9,0,3,1.4,3,3c0,1.7-1.1,3-3,3C206.3,121.5,205.2,120.2,205.2,118.5z
			 M209.8,118.5c0-1-0.6-1.9-1.7-1.9c-1.1,0-1.7,0.9-1.7,1.9c0,1,0.6,1.9,1.7,1.9C209.2,120.4,209.8,119.5,209.8,118.5z"/>
		<path class="st0" d="M212.7,120v-3.3h-1v-1.1h1V114h1.3v1.6h1.2v1.1H214v3c0,0.4,0.2,0.7,0.6,0.7c0.2,0,0.5-0.1,0.6-0.2l0.3,0.9
			c-0.2,0.2-0.6,0.4-1.2,0.4C213.2,121.5,212.7,121,212.7,120z"/>
		<path class="st0" d="M219.9,120.8c-0.4,0.5-1.1,0.8-1.9,0.8c-0.9,0-2-0.6-2-1.9c0-1.3,1.1-1.9,2-1.9c0.8,0,1.5,0.3,1.9,0.7v-0.9
			c0-0.7-0.6-1.1-1.4-1.1c-0.6,0-1.2,0.2-1.7,0.7l-0.5-0.9c0.7-0.6,1.5-0.9,2.4-0.9c1.3,0,2.4,0.5,2.4,2.1v3.8h-1.3V120.8z
			 M219.9,119.2c-0.3-0.4-0.8-0.6-1.4-0.6c-0.7,0-1.2,0.4-1.2,1c0,0.6,0.5,1,1.2,1c0.6,0,1.1-0.2,1.4-0.6V119.2z"/>
		<path class="st0" d="M222.8,113.4h1.3v8h-1.3V113.4z"/>
		<path class="st0" d="M229.2,119.2c0.6,0.6,1.4,1.1,2.5,1.1c1.2,0,1.6-0.6,1.6-1.1c0-0.7-0.9-0.9-1.8-1.2c-1.3-0.3-2.8-0.7-2.8-2.4
			c0-1.3,1.2-2.3,2.9-2.3c1.2,0,2.3,0.4,3,1.1l-0.8,1c-0.6-0.6-1.5-0.9-2.3-0.9c-0.8,0-1.4,0.4-1.4,1c0,0.6,0.8,0.8,1.8,1.1
			c1.3,0.3,2.9,0.7,2.9,2.5c0,1.3-0.9,2.5-3.1,2.5c-1.5,0-2.5-0.5-3.2-1.3L229.2,119.2z"/>
		<path class="st0" d="M240,120.6c-0.4,0.5-1.1,0.9-2.1,0.9c-1.2,0-1.9-0.6-1.9-1.8v-4.1h1.3v3.6c0,0.9,0.5,1.2,1.2,1.2
			c0.6,0,1.2-0.4,1.5-0.8v-4.1h1.3v5.8H240V120.6z"/>
		<path class="st0" d="M242.9,123.6v-8h1.3v0.8c0.4-0.6,1.1-0.9,1.9-0.9c1.5,0,2.6,1.1,2.6,3s-1.1,3-2.6,3c-0.7,0-1.4-0.3-1.9-0.9v3
			H242.9z M245.6,116.6c-0.6,0-1.2,0.3-1.5,0.8v2.3c0.3,0.4,0.9,0.8,1.5,0.8c1,0,1.6-0.8,1.6-1.9
			C247.3,117.4,246.6,116.6,245.6,116.6z"/>
		<path class="st0" d="M249.9,123.6v-8h1.3v0.8c0.4-0.6,1.1-0.9,1.9-0.9c1.5,0,2.6,1.1,2.6,3s-1.1,3-2.6,3c-0.7,0-1.4-0.3-1.9-0.9v3
			H249.9z M252.7,116.6c-0.6,0-1.2,0.3-1.5,0.8v2.3c0.3,0.4,0.9,0.8,1.5,0.8c1,0,1.6-0.8,1.6-1.9
			C254.3,117.4,253.7,116.6,252.7,116.6z"/>
		<path class="st0" d="M256.6,118.5c0-1.7,1.1-3,3-3c1.9,0,3,1.4,3,3c0,1.7-1.1,3-3,3C257.7,121.5,256.6,120.2,256.6,118.5z
			 M261.3,118.5c0-1-0.6-1.9-1.7-1.9c-1.1,0-1.7,0.9-1.7,1.9c0,1,0.6,1.9,1.7,1.9C260.7,120.4,261.3,119.5,261.3,118.5z"/>
		<path class="st0" d="M263.9,115.6h1.3v0.9c0.4-0.6,1.1-1,1.9-1v1.2c-0.1,0-0.2,0-0.4,0c-0.5,0-1.2,0.4-1.5,0.8v3.9h-1.3V115.6z"/>
		<path class="st0" d="M268.6,120v-3.3h-1v-1.1h1V114h1.3v1.6h1.2v1.1h-1.2v3c0,0.4,0.2,0.7,0.6,0.7c0.2,0,0.5-0.1,0.6-0.2l0.3,0.9
			c-0.2,0.2-0.6,0.4-1.2,0.4C269.2,121.5,268.6,121,268.6,120z"/>
	</g>
	<g>
		<path class="st0" d="M210.4,133.2h-0.9v-2.5h-2.2v-0.8h2.2v-2.4h0.9v2.4h2.2v0.8h-2.2V133.2z"/>
		<path class="st0" d="M219.8,131.4h-1.4v3H217v-8h3.5c1.6,0,2.6,1,2.6,2.5c0,1.4-0.9,2.2-1.9,2.4l2,3.1h-1.6L219.8,131.4z
			 M220.4,127.6h-1.9v2.5h1.9c0.8,0,1.4-0.5,1.4-1.3S221.2,127.6,220.4,127.6z"/>
		<path class="st0" d="M227,128.4c1.7,0,2.9,1.3,2.9,3.2v0.3h-4.5c0.1,0.9,0.8,1.6,1.8,1.6c0.6,0,1.2-0.2,1.6-0.6l0.6,0.8
			c-0.6,0.6-1.4,0.8-2.4,0.8c-1.7,0-3-1.2-3-3C224.1,129.8,225.3,128.4,227,128.4z M225.4,131h3.3c0-0.7-0.5-1.5-1.6-1.5
			C226,129.5,225.5,130.3,225.4,131z"/>
		<path class="st0" d="M230.2,128.6h1.3l1.7,4.3l1.7-4.3h1.4l-2.4,5.8h-1.4L230.2,128.6z"/>
		<path class="st0" d="M239.6,128.4c1.7,0,2.9,1.3,2.9,3.2v0.3H238c0.1,0.9,0.8,1.6,1.8,1.6c0.6,0,1.2-0.2,1.6-0.6l0.6,0.8
			c-0.6,0.6-1.4,0.8-2.4,0.8c-1.7,0-3-1.2-3-3C236.6,129.8,237.9,128.4,239.6,128.4z M238,131h3.3c0-0.7-0.5-1.5-1.6-1.5
			C238.5,129.5,238,130.3,238,131z"/>
		<path class="st0" d="M247.6,130.8c0-0.9-0.5-1.2-1.2-1.2c-0.6,0-1.2,0.4-1.5,0.8v4h-1.3v-5.8h1.3v0.8c0.4-0.5,1.1-0.9,2-0.9
			c1.2,0,1.9,0.7,1.9,1.9v4.1h-1.3V130.8z"/>
		<path class="st0" d="M254.4,133.6c-0.4,0.5-1.1,0.9-2.1,0.9c-1.2,0-1.9-0.6-1.9-1.8v-4.1h1.3v3.6c0,0.9,0.5,1.2,1.2,1.2
			c0.6,0,1.2-0.4,1.5-0.8v-4.1h1.3v5.8h-1.3V133.6z"/>
		<path class="st0" d="M259.9,128.4c1.7,0,2.9,1.3,2.9,3.2v0.3h-4.5c0.1,0.9,0.8,1.6,1.8,1.6c0.6,0,1.2-0.2,1.6-0.6l0.6,0.8
			c-0.6,0.6-1.4,0.8-2.4,0.8c-1.7,0-3-1.2-3-3C257,129.8,258.2,128.4,259.9,128.4z M258.3,131h3.3c0-0.7-0.5-1.5-1.6-1.5
			C258.9,129.5,258.4,130.3,258.3,131z"/>
	</g>
	<g>
		<path class="st0" d="M206.5,152v1.1h-1V152c-1.2-0.1-2.2-0.6-2.8-1.3l0.8-1.1c0.5,0.5,1.2,0.9,2,1.1v-2.3
			c-1.2-0.3-2.5-0.8-2.5-2.3c0-1.2,1-2.2,2.5-2.3v-1.1h1v1.1c1,0.1,1.8,0.5,2.4,1.1l-0.8,1c-0.4-0.4-1-0.7-1.6-0.8v2.1
			c1.2,0.3,2.6,0.8,2.6,2.4C209.1,150.8,208.3,151.8,206.5,152z M205.6,146.9V145c-0.7,0.1-1.1,0.4-1.1,1
			C204.4,146.5,204.9,146.7,205.6,146.9z M207.7,149.7c0-0.6-0.5-0.8-1.2-1v2.1C207.3,150.6,207.7,150.1,207.7,149.7z"/>
		<path class="st0" d="M211.6,145.7l-1.3,1.4l-0.8-0.9l2.3-2.3h1.2v8h-1.4V145.7z"/>
		<path class="st0" d="M218.3,145.1h-4.1v-1.2h5.8v1l-3.1,7h-1.5L218.3,145.1z"/>
		<path class="st0" d="M220,153c0.4-0.2,0.8-0.7,0.9-1.1c0,0-0.1,0-0.2,0c-0.4,0-0.7-0.3-0.7-0.8c0-0.5,0.4-0.8,0.8-0.8
			c0.5,0,0.9,0.4,0.9,1.1c0,0.8-0.5,1.6-1.1,2.1L220,153z"/>
		<path class="st0" d="M226.2,143.8c1,0,1.8,0.4,2.3,0.9l-0.7,1.1c-0.4-0.4-0.9-0.7-1.6-0.7c-1.3,0-2.1,1.2-2.1,2.6
			c0,0.1,0,0.2,0,0.2c0.4-0.5,1.2-1.1,2.1-1.1c1.4,0,2.7,0.9,2.7,2.6c0,1.5-1.2,2.7-3,2.7c-2.4,0-3.3-1.9-3.3-4.1
			C222.7,145.6,223.9,143.8,226.2,143.8z M225.9,148c-0.7,0-1.3,0.4-1.8,0.9c0.1,0.9,0.6,1.9,1.8,1.9c1.1,0,1.6-0.7,1.6-1.4
			C227.5,148.4,226.8,148,225.9,148z"/>
		<path class="st0" d="M230.5,149.8c0.5,0.6,1.4,1,2.2,1c1.1,0,1.7-0.5,1.7-1.2c0-0.8-0.6-1.1-1.8-1.1c-0.3,0-0.8,0-0.9,0v-1.3
			c0.1,0,0.6,0,0.9,0c0.9,0,1.6-0.3,1.6-1.1c0-0.7-0.7-1.1-1.6-1.1c-0.8,0-1.5,0.3-2.1,0.9l-0.7-0.9c0.6-0.7,1.6-1.3,2.9-1.3
			c1.7,0,2.9,0.8,2.9,2.2c0,1.1-0.9,1.7-1.7,1.8c0.8,0.1,1.9,0.7,1.9,1.9c0,1.4-1.2,2.3-3,2.3c-1.4,0-2.5-0.6-3-1.3L230.5,149.8z"/>
		<path class="st0" d="M238.8,147.8c-0.9-0.3-1.7-0.9-1.7-1.9c0-1.5,1.5-2.1,2.9-2.1c1.4,0,2.9,0.6,2.9,2.1c0,1-0.8,1.6-1.7,1.9
			c1,0.3,1.8,1.1,1.8,2.1c0,1.4-1.4,2.2-3.1,2.2c-1.6,0-3.1-0.8-3.1-2.2C237,148.8,237.8,148.1,238.8,147.8z M240.1,148.4
			c-0.5,0.1-1.7,0.4-1.7,1.3c0,0.7,0.7,1.1,1.7,1.1c0.9,0,1.6-0.4,1.6-1.1C241.7,148.8,240.6,148.5,240.1,148.4z M240.1,145
			c-0.9,0-1.5,0.4-1.5,1.1c0,0.8,1,1,1.5,1.1c0.5-0.1,1.5-0.4,1.5-1.1C241.6,145.4,240.9,145,240.1,145z"/>
		<path class="st0" d="M244.5,153c0.4-0.2,0.8-0.7,0.9-1.1c0,0-0.1,0-0.2,0c-0.4,0-0.7-0.3-0.7-0.8c0-0.5,0.4-0.8,0.8-0.8
			c0.5,0,0.9,0.4,0.9,1.1c0,0.8-0.5,1.6-1.1,2.1L244.5,153z"/>
		<path class="st0" d="M251,150.1h-3.8v-1.1l3.3-5.1h1.9v5h1.1v1.2h-1.1v1.8H251V150.1z M248.5,148.8h2.4v-3.7L248.5,148.8z"/>
		<path class="st0" d="M254.2,150.8c3.1-2.4,4.3-3.4,4.3-4.5c0-0.8-0.7-1.2-1.5-1.2c-0.9,0-1.7,0.4-2.2,1l-0.8-0.9
			c0.7-0.9,1.8-1.3,3-1.3c1.5,0,2.9,0.9,2.9,2.5c0,1.5-1.4,2.8-3.5,4.4h3.6v1.2h-5.8V150.8z"/>
		<path class="st0" d="M262.2,149.8c0.5,0.6,1.3,0.9,2.2,0.9c1,0,1.6-0.6,1.6-1.4c0-0.9-0.6-1.4-1.6-1.4c-0.7,0-1.2,0.2-1.8,0.7
			l-1-0.3v-4.5h5.2v1.2H263v2.3c0.4-0.4,1-0.7,1.8-0.7c1.3,0,2.6,0.9,2.6,2.6c0,1.7-1.3,2.7-3,2.7c-1.4,0-2.3-0.5-3-1.2L262.2,149.8
			z"/>
	</g>
</g>
<g>
</g>
<g>
</g>
<g>
</g>
<g>
</g>
</svg>
