<?xml version="1.0" encoding="utf-8"?>
<!-- Generator: Adobe Illustrator 21.1.0, SVG Export Plug-In . SVG Version: 6.00 Build 0)  -->
<svg version="1.1" id="Layer_1" xmlns="http://www.w3.org/2000/svg" xmlns:xlink="http://www.w3.org/1999/xlink" x="0px" y="0px"
	 width="30px" height="30px" viewBox="0 0 50 50" style="enable-background:new 0 0 50 50;" xml:space="preserve">
<style type="text/css">
	.st0{fill:#82786F;}
</style>
<path class="st0" d="M42.1,16.2c0,0.4,0,0.8,0,1.1c0,11.7-8.9,25.1-25.1,25.1c-5,0-9.6-1.5-13.5-4c0.7,0.1,1.4,0.1,2.1,0.1
	c4.1,0,7.9-1.4,11-3.8c-3.9-0.1-7.1-2.6-8.3-6.1c0.5,0.1,1.1,0.2,1.7,0.2c0.8,0,1.4-0.1,2.1-0.3c-4-0.8-7.3-4.4-7.3-8.7v-0.1
	c0,0.7,2.7,1.1,4.2,1.1c-2.4-1.6-3.8-4.3-3.8-7.4c0-1.6,0.5-3.1,1.2-4.4c4.4,5.3,10.9,8.9,18.2,9.2c-0.2-0.6-0.2-1.3-0.2-2
	c0-4.9,4-8.8,8.8-8.8c2.5,0,4.8,1.1,6.5,2.8c2-0.4,3.9-1.1,5.6-2.2c-0.7,2.1-2.1,3.8-3.9,4.9c1.8-0.2,3.5-0.7,5.1-1.4
	C45.3,13.4,43.8,15,42.1,16.2"/>
</svg>
