<?xml version="1.0" encoding="utf-8"?>
<!-- Generator: Adobe Illustrator 21.1.0, SVG Export Plug-In . SVG Version: 6.00 Build 0)  -->
<svg version="1.1" id="Layer_1" xmlns="http://www.w3.org/2000/svg" xmlns:xlink="http://www.w3.org/1999/xlink" x="0px" y="0px"
	 width="30px" height="30px" viewBox="0 0 50 50" style="enable-background:new 0 0 50 50;" xml:space="preserve">
<style type="text/css">
	.st0{fill:#82786F;}
</style>
<g>
	<path class="st0" d="M43.5,43.5h-7.7v-12c0-2.9,0-6.6-4-6.6s-4.6,3.1-4.6,6.4v12.2h-7.7V18.8h7.4v3.4H27c1-1.9,3.5-4,7.3-4
		c7.8,0,9.2,5.1,9.2,11.8V43.5z"/>
	<path class="st0" d="M10.9,15.4c-2.5,0-4.5-2-4.5-4.5s2-4.5,4.5-4.5s4.5,2,4.5,4.5S13.4,15.4,10.9,15.4"/>
	<rect x="7.1" y="18.8" class="st0" width="7.7" height="24.7"/>
</g>
</svg>
