<?xml version="1.0" encoding="utf-8"?>
<!-- Generator: Adobe Illustrator 21.1.0, SVG Export Plug-In . SVG Version: 6.00 Build 0)  -->
<svg version="1.1" id="Layer_1" xmlns="http://www.w3.org/2000/svg" xmlns:xlink="http://www.w3.org/1999/xlink" x="0px" y="0px"
	 width="30px" height="30px" viewBox="0 0 50 50" style="enable-background:new 0 0 50 50;" xml:space="preserve">
<style type="text/css">
	.st0{fill:#82786F;}
</style>
<path class="st0" d="M50,26.9c0,4-0.5,8.1-0.5,8.1s-0.5,3.4-2,5c-1.9,2-4,2-5,2.1c-7,0.5-17.5,0.5-17.5,0.5s-13-0.1-17-0.5
	C6.9,41.9,4.4,42,2.5,40c-1.5-1.5-2-5-2-5S0,30.9,0,26.9v-3.8C0,19,0.5,15,0.5,15s0.5-3.4,2-5c1.9-2,4-2,5-2.1
	C14.5,7.4,25,7.4,25,7.4l0,0c0,0,10.5,0,17.5,0.5c1,0.1,3.1,0.1,5,2.1c1.5,1.5,2,5,2,5s0.5,4,0.5,8.1V26.9z M19.8,31.5l13.5-7
	l-13.5-7.1V31.5z"/>
</svg>
