<?xml version="1.0" encoding="utf-8"?>
<!-- Generator: Adobe Illustrator 21.1.0, SVG Export Plug-In . SVG Version: 6.00 Build 0)  -->
<svg version="1.1" id="Layer_1" xmlns="http://www.w3.org/2000/svg" xmlns:xlink="http://www.w3.org/1999/xlink" x="0px" y="0px"
	 width="50px" height="50px" viewBox="0 0 50 50" style="enable-background:new 0 0 50 50;" xml:space="preserve">
<style type="text/css">
	.st0{fill:#FFFFFF;}
</style>
<g>
	<path class="st0" d="M34.3,17.8c-1.2,0-2.1-0.9-2.1-2.1s0.9-2.1,2.1-2.1c1.2,0,2.1,0.9,2.1,2.1C36.4,16.8,35.5,17.8,34.3,17.8"/>
	<path class="st0" d="M25,19.2c3.2,0,5.8,2.6,5.8,5.8s-2.6,5.8-5.8,5.8s-5.8-2.6-5.8-5.8S21.8,19.2,25,19.2 M25,34c5,0,9-4,9-9
		s-4-9-9-9s-9,4-9,9S20,34,25,34"/>
	<path class="st0" d="M38.6,14.7c-0.3-0.8-0.7-1.4-1.3-2s-1.2-1-2-1.3c-0.6-0.2-1.5-0.5-3.2-0.6c-1.8-0.1-2.4-0.1-7.1-0.1
		s-5.2,0-7.1,0.1c-1.7,0.1-2.6,0.4-3.2,0.6c-0.8,0.3-1.4,0.7-2,1.3s-1,1.2-1.3,2c-0.2,0.6-0.5,1.5-0.6,3.2c-0.1,1.8-0.1,2.4-0.1,7.1
		s0,5.2,0.1,7.1c0.1,1.7,0.4,2.6,0.6,3.3c0.3,0.8,0.7,1.4,1.3,2s1.2,1,2,1.3c0.6,0.2,1.5,0.5,3.2,0.6c1.8,0.1,2.4,0.1,7.1,0.1
		s5.2,0,7.1-0.1c1.7-0.1,2.6-0.4,3.2-0.6c0.8-0.3,1.4-0.7,2-1.3s1-1.2,1.3-2c0.2-0.6,0.5-1.5,0.6-3.3s0.1-2.4,0.1-7.1s0-5.2-0.1-7.1
		C39.2,16.2,38.9,15.3,38.6,14.7 M42.4,32.2c-0.1,1.9-0.4,3.1-0.8,4.2c-0.5,1.1-1,2.1-2,3.1s-1.9,1.6-3.1,2
		c-1.1,0.4-2.4,0.7-4.2,0.8c-1.9,0.1-2.5,0.1-7.2,0.1c-4.8,0-5.3,0-7.2-0.1c-1.9-0.1-3.1-0.4-4.2-0.8c-1.2-0.5-2.1-1-3.1-2
		s-1.6-1.9-2-3.1c-0.4-1.1-0.7-2.4-0.8-4.2c-0.1-1.9-0.1-2.5-0.1-7.2c0-4.8,0-5.4,0.1-7.2c0.1-1.9,0.4-3.1,0.8-4.3
		c0.5-1.1,1-2.1,2-3.1s1.9-1.6,3.1-2c1.1-0.4,2.4-0.7,4.2-0.8c1.9-0.1,2.5-0.1,7.2-0.1c4.8,0,5.3,0,7.2,0.1s3.1,0.4,4.2,0.8
		c1.2,0.4,2.1,1,3.1,2s1.6,1.9,2,3.1c0.4,1.1,0.7,2.4,0.8,4.3s0.1,2.5,0.1,7.2C42.5,29.8,42.5,30.4,42.4,32.2"/>
</g>
</svg>
