<?xml version="1.0" encoding="utf-8"?>
<!-- Generator: Adobe Illustrator 21.1.0, SVG Export Plug-In . SVG Version: 6.00 Build 0)  -->
<svg version="1.1" id="Layer_1" xmlns="http://www.w3.org/2000/svg" xmlns:xlink="http://www.w3.org/1999/xlink" x="0px" y="0px"
	 viewBox="0 0 430 199.2" style="enable-background:new 0 0 430 199.2;" xml:space="preserve">
<style type="text/css">
	.st0{fill:#00ADEF;}
	.st1{fill:#F5F5F5;}
	.st2{fill:none;}
	.st3{enable-background:new    ;}
	.st4{fill:#FFFFFF;}
	.st5{fill:#86786F;}
</style>
<g>
	<g>
		<g>
			<g>
				<g>
					<path class="st0" d="M219,29.6C203.3,11.9,180.5,0.5,155.2,0v88.3l0,0l-0.3,0.3l-8,7.4l-56.6,52c15.9,16.6,38.3,27,63.2,27
						c48.3,0,87.5-39.2,87.5-87.5C240.8,65.3,232.5,45.1,219,29.6z"/>
				</g>
			</g>
			<g>
				<g>
					<g>
						<path class="st1" d="M116.4,8.2c-7,3.3-13.5,7.5-19.3,12.4l53.8,62.2L116.4,8.2z"/>
					</g>
				</g>
				<g>
					<g>
						<path class="st1" d="M95.7,21.7c-4,3.6-7.8,7.6-11.2,11.8l63.3,48.6L95.7,21.7z"/>
					</g>
				</g>
				<g>
					<g>
						<path class="st1" d="M153.3,0L153.3,0C153.4,0,153.3,0,153.3,0c-12.5,0-24.5,2.6-35.3,7.5l35.3,76.3V0z"/>
					</g>
				</g>
				<g>
					<g>
						<path class="st1" d="M89,146.7l63.2-58.1L68.4,66.3c-1.7,6.8-2.6,13.9-2.6,21.2C65.8,110.3,74.6,131.2,89,146.7L89,146.7
							L89,146.7z"/>
					</g>
				</g>
				<g>
					<g>
						<path class="st1" d="M83.4,35c-3,4-5.7,8.3-8,12.8l70.8,35.4L83.4,35z"/>
					</g>
				</g>
				<g>
					<g>
						<path class="st1" d="M74.6,49.4c-2.4,4.8-4.2,9.9-5.7,15.2l77,20.5L74.6,49.4z"/>
					</g>
				</g>
			</g>
			<g>
				<g>
					<polygon class="st2" points="155.2,88.3 146.9,95.9 154.9,88.6 					"/>
				</g>
			</g>
		</g>
		<g class="st3">
			<g>
				<path class="st4" d="M175.8,50.3c0-3.8,1.3-7.3,4.7-7.3c1.5,0,2.6,0.7,3.3,1.8l-1,1.1c-0.5-0.9-1.1-1.4-2.4-1.4
					c-2.2,0-3.1,3-3.1,5.6c0,0.2,0,0.3,0,0.4c0.5-1,1.7-2.1,3.1-2.1c2,0,3.7,1.5,3.7,4.5c0,2.4-1.5,4.6-4,4.6
					C177,57.6,175.8,54.1,175.8,50.3z M182.7,53.1c0-2.2-1.1-3.1-2.4-3.1c-1.1,0-2.1,1.1-2.6,2.1c0.1,1.6,0.6,4,2.6,4
					C182,56.1,182.7,54.6,182.7,53.1z"/>
			</g>
			<g>
				<path class="st4" d="M185.8,55.3l1.1-1c0.6,1.1,1.7,1.8,3,1.8c1.7,0,2.5-1.1,2.5-2.6c0-1.9-1.2-2.5-2.6-2.5c-0.4,0-1,0-1.1,0
					v-1.5c0.2,0,0.7,0,1.1,0c1.4,0,2.5-0.8,2.5-2.4c0-1.7-1.1-2.5-2.5-2.5c-1.2,0-2.1,0.6-2.8,1.7l-1.1-1c0.9-1.3,2.3-2.2,4-2.2
					c2.3,0,4,1.2,4,3.7c0,1.8-1.2,3-2.5,3.3c1.2,0.2,2.7,1.5,2.7,3.5c0,2.4-1.5,4-4.2,4C188,57.6,186.5,56.6,185.8,55.3z"/>
			</g>
			<g>
				<path class="st4" d="M196,46.6c0-2,1.1-3.5,3-3.5c1.8,0,3,1.5,3,3.5c0,1.9-1.1,3.4-3,3.4C197,50.1,196,48.6,196,46.6z
					 M200.7,46.6c0-1.4-0.7-2.5-1.8-2.5s-1.8,1.1-1.8,2.5c0,1.3,0.7,2.5,1.8,2.5S200.7,48,200.7,46.6z M198,57.4l7.4-14.1h1.1
					l-7.4,14.1H198z M202.5,54.2c0-2,1.1-3.5,3-3.5c1.8,0,3,1.5,3,3.5c0,1.9-1.2,3.4-3,3.4C203.5,57.6,202.5,56.1,202.5,54.2z
					 M207.1,54.2c0-1.4-0.7-2.5-1.8-2.5s-1.8,1.1-1.8,2.5c0,1.3,0.7,2.4,1.8,2.4S207.1,55.5,207.1,54.2z"/>
			</g>
		</g>
	</g>
	<g class="st3">
		<g>
			<path class="st5" d="M86.1,98.5c0-2.8,1.3-5,3.6-5c2.3,0,3.6,2.2,3.6,5s-1.3,5-3.6,5S86.1,101.3,86.1,98.5z M92.2,98.5
				c0-2.2-0.9-3.9-2.5-3.9s-2.4,1.7-2.4,3.9c0,2.2,0.9,3.9,2.4,3.9C91.3,102.4,92.2,100.7,92.2,98.5z"/>
		</g>
		<g>
			<path class="st5" d="M95.2,101.9v-4.7h-0.9v-0.9h0.9v-1.9h1v1.9h1.2v0.9h-1.2v4.5c0,0.5,0.2,0.8,0.6,0.8c0.3,0,0.5-0.1,0.6-0.3
				l0.3,0.8c-0.2,0.2-0.6,0.4-1.1,0.4C95.7,103.5,95.2,102.9,95.2,101.9z"/>
		</g>
		<g>
			<path class="st5" d="M102.6,103.3v-5c0-0.9-0.4-1.2-1.1-1.2s-1.3,0.5-1.6,1.1v5.1h-1v-9.6h1v3.6c0.4-0.6,1.2-1.2,2-1.2
				c1.2,0,1.7,0.6,1.7,1.9v5.3C103.6,103.3,102.6,103.3,102.6,103.3z"/>
		</g>
		<g>
			<path class="st5" d="M105.2,99.8c0-2,1.1-3.6,2.8-3.6c1.8,0,2.8,1.6,2.8,3.7v0.3h-4.6c0,1.4,0.8,2.4,2,2.4c0.6,0,1.2-0.3,1.7-0.8
				l0.5,0.6c-0.6,0.7-1.4,1.1-2.3,1.1C106.3,103.5,105.2,101.9,105.2,99.8z M108,97c-1.2,0-1.7,1.3-1.7,2.4h3.5
				C109.7,98.3,109.2,97,108,97z"/>
		</g>
		<g>
			<path class="st5" d="M112.2,103.3v-7h1v1.1c0.4-0.7,1.1-1.3,2-1.3v1.1c-0.1,0-0.2,0-0.3,0c-0.6,0-1.3,0.6-1.6,1.1v4.9h-1.1V103.3
				z"/>
		</g>
		<g>
			<path class="st5" d="M115.9,102.5l0.5-0.7c0.4,0.5,1.1,0.9,1.8,0.9c0.8,0,1.3-0.5,1.3-1.1c0-0.7-0.7-1-1.5-1.3
				c-1-0.4-2-0.8-2-2.1c0-1,0.8-1.9,2.2-1.9c0.9,0,1.6,0.4,2.1,0.9l-0.5,0.7c-0.3-0.5-0.9-0.8-1.6-0.8c-0.8,0-1.2,0.4-1.2,1
				s0.6,0.9,1.4,1.2c1,0.4,2.1,0.8,2.1,2.2c0,1.2-0.9,2-2.3,2C117.2,103.5,116.4,103.1,115.9,102.5z"/>
		</g>
	</g>
	<g class="st3">
		<g>
			<path class="st5" d="M139.8,15.2v-0.7c-0.4,0.6-1.1,0.9-1.8,0.9c-1.1,0-2.1-0.9-2.1-2.3s1-2.3,2.1-2.3c0.7,0,1.4,0.3,1.8,0.9
				v-1.2c0-1-0.5-1.5-1.4-1.5c-0.6,0-1.2,0.2-1.7,0.8l-0.5-0.7c0.7-0.7,1.5-1,2.4-1c1.4,0,2.3,0.7,2.3,2.3v4.9L139.8,15.2
				C139.8,15.3,139.8,15.2,139.8,15.2z M139.8,13.8v-1.3c-0.3-0.6-0.9-0.9-1.5-0.9c-0.9,0-1.4,0.7-1.4,1.5c0,0.9,0.5,1.6,1.4,1.6
				C138.9,14.6,139.5,14.3,139.8,13.8z"/>
		</g>
	</g>
	<g class="st3">
		<g>
			<path class="st5" d="M110.5,27.5v-9.6h1v3.7c0.4-0.8,1.1-1.2,1.8-1.2c1.6,0,2.5,1.5,2.5,3.7s-0.9,3.6-2.5,3.6
				c-0.7,0-1.4-0.5-1.8-1.2v1H110.5z M113.1,26.7c1.1,0,1.7-1.2,1.7-2.7s-0.5-2.7-1.7-2.7c-0.6,0-1.3,0.5-1.6,1.2v3.2
				C111.8,26.2,112.4,26.7,113.1,26.7z"/>
		</g>
	</g>
	<g class="st3">
		<g>
			<path class="st5" d="M95.6,34.9c0-2.1,1.1-3.6,2.9-3.6c1,0,1.6,0.4,2,0.9l-0.6,0.7c-0.4-0.5-0.8-0.7-1.3-0.7
				c-1.2,0-1.9,1.2-1.9,2.7s0.6,2.7,1.9,2.7c0.5,0,1-0.2,1.3-0.7l0.6,0.7c-0.4,0.5-1,0.9-2,0.9C96.6,38.6,95.6,37,95.6,34.9z"/>
		</g>
	</g>
	<g class="st3">
		<g>
			<path class="st5" d="M91,51.1v-1c-0.4,0.7-1.1,1.2-1.8,1.2c-1.6,0-2.5-1.5-2.5-3.6c0-2.2,0.9-3.7,2.5-3.7c0.7,0,1.4,0.4,1.8,1.2
				v-3.7h1v9.6H91z M91,49.3v-3.2c-0.3-0.6-0.9-1.1-1.6-1.1c-1.1,0-1.7,1.2-1.7,2.7s0.5,2.7,1.7,2.7C90.1,50.4,90.8,49.9,91,49.3z"
				/>
		</g>
	</g>
	<g class="st3">
		<g>
			<path class="st5" d="M80.9,61.5c0-2,1.1-3.6,2.8-3.6c1.8,0,2.8,1.6,2.8,3.7v0.3H82c0,1.4,0.8,2.4,2,2.4c0.6,0,1.2-0.3,1.7-0.9
				l0.5,0.6c-0.6,0.7-1.4,1.1-2.3,1.1C82.1,65.1,80.9,63.6,80.9,61.5z M83.8,58.7c-1.2,0-1.7,1.3-1.7,2.4h3.5
				C85.5,60,85,58.7,83.8,58.7z"/>
		</g>
	</g>
	<g class="st3">
		<path class="st5" d="M260.1,98.5v-0.9c-0.5,0.7-1.3,1.1-2.2,1.1c-1.3,0-2.5-1-2.5-2.7s1.1-2.7,2.5-2.7c0.8,0,1.6,0.3,2.2,1.1V93
			c0-1.1-0.6-1.8-1.7-1.8c-0.8,0-1.4,0.3-2.1,1l-0.5-0.9c0.8-0.8,1.8-1.2,2.8-1.2c1.6,0,2.7,0.8,2.7,2.7v5.7
			C261.3,98.5,260.1,98.5,260.1,98.5z M260.1,96.8v-1.6c-0.4-0.7-1.1-1.1-1.8-1.1c-1,0-1.6,0.8-1.6,1.8s0.6,1.8,1.6,1.8
			C259.1,97.8,259.9,97.5,260.1,96.8z"/>
		<path class="st5" d="M263.6,97.8c0-0.5,0.4-0.9,0.9-0.9s0.9,0.4,0.9,0.9s-0.4,0.9-0.9,0.9C264,98.7,263.6,98.3,263.6,97.8z"/>
		<path class="st5" d="M271.8,98.5l3.6-10.1h-4.8v-1.2h6.3v0.9l-3.6,10.4C273.3,98.5,271.8,98.5,271.8,98.5z"/>
		<path class="st5" d="M277.8,89.8c0-1.6,1-2.8,2.4-2.8s2.4,1.2,2.4,2.8c0,1.6-1,2.8-2.4,2.8C278.7,92.6,277.8,91.4,277.8,89.8z
			 M281.6,89.8c0-1.1-0.6-2-1.4-2c-0.9,0-1.4,0.8-1.4,2c0,1.1,0.6,2,1.4,2S281.6,90.9,281.6,89.8z M279.4,98.5l5.9-11.3h0.8l-6,11.3
			H279.4z M283,95.9c0-1.6,1-2.8,2.4-2.8s2.4,1.2,2.4,2.8c0,1.6-1,2.8-2.4,2.8C284,98.7,283,97.5,283,95.9z M286.9,95.9
			c0-1.1-0.6-2-1.4-2s-1.4,0.9-1.4,2s0.6,1.9,1.4,1.9S286.9,97,286.9,95.9z"/>
		<path class="st5" d="M292.5,97.3l0.7-1c0.6,0.7,1.5,1.3,2.6,1.3c1.4,0,2.1-0.9,2.1-1.9c0-1.3-1.1-1.8-2.2-2.4
			c-1.4-0.6-2.9-1.3-2.9-3.3c0-1.7,1.4-3,3.2-3c1.3,0,2.3,0.4,3,1.2l-0.7,1c-0.6-0.7-1.4-1-2.3-1c-1,0-1.8,0.7-1.8,1.7
			c0,1.1,1,1.6,2.1,2.1c1.4,0.7,3,1.4,3,3.6c0,1.7-1.1,3.1-3.5,3.1C294.4,98.7,293.3,98.1,292.5,97.3z"/>
		<path class="st5" d="M307.1,98.5l-1.8-6.6l-1.8,6.6h-1.2l-2.2-8.2h1.3l1.6,6.6l1.7-6.6h1.2l1.8,6.6l1.6-6.6h1.3l-2.2,8.2H307.1z"
			/>
		<path class="st5" d="M311.7,88.3c0-0.5,0.4-0.8,0.8-0.8c0.5,0,0.8,0.4,0.8,0.8s-0.4,0.8-0.8,0.8C312,89.1,311.7,88.7,311.7,88.3z
			 M312,98.5v-8.2h1.2v8.2H312z"/>
		<path class="st5" d="M315.5,96.9v-5.5h-1.1v-1.1h1.1V88h1.2v2.2h1.4v1.1h-1.4v5.3c0,0.6,0.2,1,0.7,1c0.3,0,0.6-0.1,0.7-0.3
			l0.4,0.9c-0.3,0.3-0.7,0.5-1.3,0.5C316.1,98.7,315.5,98.1,315.5,96.9z"/>
		<path class="st5" d="M319.5,98.5v-1l3.6-6.2h-3.6v-1.1h5v0.9l-3.6,6.2h3.6v1.1L319.5,98.5L319.5,98.5z"/>
		<path class="st5" d="M326,94.4c0-2.4,1.3-4.3,3.3-4.3c2.2,0,3.2,1.9,3.2,4.3v0.4h-5.2c0.1,1.6,0.9,2.9,2.4,2.9c0.7,0,1.4-0.4,2-1
			l0.6,0.7c-0.7,0.8-1.6,1.3-2.7,1.3C327.4,98.7,326,96.9,326,94.4z M329.4,91.1c-1.4,0-2,1.6-2.1,2.8h4.1
			C331.4,92.6,330.9,91.1,329.4,91.1z"/>
		<path class="st5" d="M334.4,98.5v-8.2h1.2v1.3c0.5-0.9,1.3-1.5,2.3-1.5v1.3c-0.1,0-0.3-0.1-0.4-0.1c-0.7,0-1.6,0.7-1.9,1.3v5.8
			L334.4,98.5L334.4,98.5z"/>
		<path class="st5" d="M339.4,98.5V87.2h1.2v11.3H339.4z"/>
		<path class="st5" d="M347,98.5v-0.9c-0.5,0.7-1.3,1.1-2.2,1.1c-1.3,0-2.5-1-2.5-2.7s1.1-2.7,2.5-2.7c0.8,0,1.6,0.3,2.2,1.1V93
			c0-1.1-0.6-1.8-1.7-1.8c-0.8,0-1.4,0.3-2.1,1l-0.5-0.9c0.8-0.8,1.8-1.2,2.8-1.2c1.6,0,2.7,0.8,2.7,2.7v5.7
			C348.1,98.5,347,98.5,347,98.5z M347,96.8v-1.6c-0.4-0.7-1.1-1.1-1.8-1.1c-1,0-1.6,0.8-1.6,1.8s0.6,1.8,1.6,1.8
			C346,97.8,346.5,97.5,347,96.8z"/>
		<path class="st5" d="M354.9,98.5v-5.8c0-1.1-0.5-1.5-1.3-1.5s-1.5,0.6-1.9,1.3v6h-1.2v-8.2h1.2v1.2c0.5-0.7,1.4-1.4,2.4-1.4
			c1.4,0,2.1,0.7,2.1,2.2v6.2C356.2,98.5,354.9,98.5,354.9,98.5z"/>
		<path class="st5" d="M363,98.5v-1.2c-0.5,0.8-1.3,1.4-2.2,1.4c-1.8,0-2.9-1.7-2.9-4.3c0-2.5,1.1-4.3,2.9-4.3
			c0.8,0,1.7,0.5,2.2,1.4v-4.3h1.2v11.3H363z M363,96.3v-3.8c-0.3-0.7-1.1-1.3-1.9-1.3c-1.3,0-2,1.4-2,3.2c0,1.8,0.6,3.2,2,3.2
			C362,97.6,362.8,97,363,96.3z"/>
		<path class="st5" d="M256,118.9v-11.3h1.2v4.3c0.5-0.9,1.3-1.4,2.2-1.4c1.9,0,2.9,1.8,2.9,4.3c0,2.6-1.1,4.3-2.9,4.3
			c-0.9,0-1.7-0.5-2.2-1.4v1.2H256z M259.1,118c1.3,0,2-1.4,2-3.2c0-1.8-0.6-3.2-2-3.2c-0.8,0-1.5,0.6-1.9,1.4v3.8
			C257.6,117.4,258.3,118,259.1,118z"/>
		<path class="st5" d="M264,118.2c0-0.5,0.4-0.9,0.9-0.9s0.9,0.4,0.9,0.9s-0.4,0.9-0.9,0.9S264,118.7,264,118.2z"/>
		<path class="st5" d="M271.4,117.3l0.9-0.8c0.5,0.9,1.3,1.5,2.4,1.5c1.2,0,2-1.1,2-2.5c0-1.6-0.8-2.5-1.9-2.5
			c-0.8,0-1.4,0.3-2.1,1.1l-1-0.3v-6.1h5.8v1.2h-4.4v4c0.4-0.5,1.2-1,2.1-1c1.6,0,2.9,1.3,2.9,3.7c0,2.1-1.4,3.7-3.4,3.7
			C273,119.1,272.1,118.4,271.4,117.3z"/>
		<path class="st5" d="M279.3,110.2c0-1.6,1-2.8,2.4-2.8s2.4,1.2,2.4,2.8c0,1.6-1,2.8-2.4,2.8S279.3,111.8,279.3,110.2z
			 M283.1,110.2c0-1.1-0.6-2-1.4-2c-0.9,0-1.4,0.8-1.4,2c0,1.1,0.6,2,1.4,2C282.6,112.2,283.1,111.3,283.1,110.2z M281,118.9
			l5.9-11.3h0.8l-6,11.3H281z M284.6,116.3c0-1.6,1-2.8,2.4-2.8s2.4,1.2,2.4,2.8c0,1.6-1,2.8-2.4,2.8
			C285.5,119.1,284.6,117.9,284.6,116.3z M288.4,116.3c0-1.1-0.6-2-1.4-2s-1.4,0.9-1.4,2s0.6,1.9,1.4,1.9S288.4,117.4,288.4,116.3z"
			/>
		<path class="st5" d="M294,117.7l0.7-1c0.6,0.7,1.5,1.3,2.6,1.3c1.4,0,2.1-0.9,2.1-1.9c0-1.3-1.1-1.8-2.2-2.4
			c-1.4-0.6-2.9-1.3-2.9-3.3c0-1.7,1.4-3,3.2-3c1.3,0,2.3,0.4,3,1.2l-0.7,1c-0.6-0.7-1.4-1-2.3-1c-1,0-1.8,0.7-1.8,1.7
			c0,1.1,1,1.6,2.1,2.1c1.4,0.7,3,1.4,3,3.6c0,1.7-1.1,3.1-3.5,3.1C295.9,119.1,294.8,118.5,294,117.7z"/>
		<path class="st5" d="M303.9,117.7v4.3h-1.2v-11.3h1.2v1.2c0.5-0.8,1.3-1.4,2.2-1.4c1.9,0,2.9,1.7,2.9,4.3c0,2.6-1.1,4.3-2.9,4.3
			C305.1,119.1,304.4,118.6,303.9,117.7z M307.7,114.8c0-1.8-0.6-3.2-2-3.2c-0.8,0-1.5,0.6-1.9,1.3v3.8c0.3,0.7,1.1,1.4,1.9,1.4
			C307,118,307.7,116.6,307.7,114.8z"/>
		<path class="st5" d="M315,118.9V118c-0.5,0.7-1.3,1.1-2.2,1.1c-1.3,0-2.5-1-2.5-2.7s1.1-2.7,2.5-2.7c0.8,0,1.6,0.3,2.2,1.1v-1.4
			c0-1.1-0.6-1.8-1.7-1.8c-0.8,0-1.4,0.3-2.1,1l-0.5-0.9c0.8-0.8,1.8-1.2,2.8-1.2c1.6,0,2.7,0.8,2.7,2.7v5.7
			C316.1,118.9,315,118.9,315,118.9z M315,117.2v-1.6c-0.4-0.7-1.1-1.1-1.8-1.1c-1,0-1.6,0.8-1.6,1.8s0.6,1.8,1.6,1.8
			C313.9,118.2,314.5,117.9,315,117.2z"/>
		<path class="st5" d="M318.1,108.7c0-0.5,0.4-0.8,0.8-0.8c0.5,0,0.8,0.4,0.8,0.8s-0.4,0.8-0.8,0.8S318.1,109.1,318.1,108.7z
			 M318.4,118.9v-8.2h1.2v8.2H318.4z"/>
		<path class="st5" d="M326.3,118.9v-5.8c0-1.1-0.5-1.5-1.3-1.5s-1.5,0.6-1.9,1.3v6h-1.2v-8.2h1.2v1.2c0.5-0.7,1.4-1.4,2.4-1.4
			c1.4,0,2.1,0.7,2.1,2.2v6.2C327.6,118.9,326.3,118.9,326.3,118.9z"/>
		<path class="st5" d="M255.6,135.2c0-2.4,1.3-4.3,3.4-4.3c1.1,0,1.8,0.5,2.3,1.1l-0.7,0.8c-0.4-0.6-1-0.8-1.6-0.8
			c-1.5,0-2.2,1.5-2.2,3.2s0.8,3.2,2.2,3.2c0.6,0,1.1-0.3,1.6-0.8l0.7,0.8c-0.5,0.6-1.2,1.1-2.3,1.1
			C256.9,139.5,255.6,137.6,255.6,135.2z"/>
		<path class="st5" d="M262.8,138.6c0-0.5,0.4-0.9,0.9-0.9s0.9,0.4,0.9,0.9s-0.4,0.9-0.9,0.9S262.8,139.1,262.8,138.6z"/>
		<path class="st5" d="M269.8,137.6l0.9-0.8c0.5,0.8,1.4,1.5,2.4,1.5c1.4,0,2.1-0.8,2.1-2.2c0-1.5-1-2.1-2.2-2.1c-0.4,0-0.7,0-0.9,0
			v-1.2c0.2,0,0.6,0,0.9,0c1.1,0,2.1-0.6,2.1-1.9c0-1.3-0.8-2-2-2c-1,0-1.7,0.5-2.3,1.3l-0.9-0.8c0.7-1.1,1.8-1.8,3.2-1.8
			c1.8,0,3.2,1,3.2,3c0,1.4-1,2.4-2,2.6c1,0.2,2.2,1.2,2.2,2.8c0,1.9-1.2,3.3-3.4,3.3C271.6,139.5,270.4,138.7,269.8,137.6z"/>
		<path class="st5" d="M277.9,130.6c0-1.6,1-2.8,2.4-2.8s2.4,1.2,2.4,2.8s-1,2.8-2.4,2.8C278.8,133.4,277.9,132.2,277.9,130.6z
			 M281.7,130.6c0-1.1-0.6-2-1.4-2c-0.9,0-1.4,0.8-1.4,2c0,1.1,0.6,2,1.4,2S281.7,131.7,281.7,130.6z M279.5,139.3l5.9-11.3h0.8
			l-6,11.3H279.5z M283.1,136.7c0-1.6,1-2.8,2.4-2.8s2.4,1.2,2.4,2.8s-1,2.8-2.4,2.8S283.1,138.3,283.1,136.7z M287,136.7
			c0-1.1-0.6-2-1.4-2s-1.4,0.9-1.4,2s0.6,1.9,1.4,1.9S287,137.8,287,136.7z"/>
		<path class="st5" d="M299.1,139.3l-0.7-2.6h-4l-0.7,2.6h-1.5l3.4-11.3h1.6l3.4,11.3H299.1z M296.4,129.5l-1.7,6.1h3.5L296.4,129.5
			z"/>
		<path class="st5" d="M301.9,139.3v-8.2h1.2v1.3c0.5-0.9,1.3-1.5,2.3-1.5v1.3c-0.1,0-0.3-0.1-0.4-0.1c-0.7,0-1.6,0.7-1.9,1.3v5.8
			L301.9,139.3L301.9,139.3z"/>
		<path class="st5" d="M306.8,141.6l0.6-1c0.5,0.6,1.2,1,2.1,1c1.1,0,2.1-0.6,2.1-2.2V138c-0.5,0.8-1.3,1.4-2.2,1.4
			c-1.8,0-2.9-1.7-2.9-4.2s1.1-4.3,2.9-4.3c0.8,0,1.6,0.5,2.2,1.4v-1.2h1.2v8.2c0,2.5-1.5,3.3-3.2,3.3
			C308.4,142.6,307.5,142.4,306.8,141.6z M311.5,137v-3.6c-0.3-0.7-1.1-1.3-1.9-1.3c-1.3,0-2,1.4-2,3.2s0.6,3.2,2,3.2
			C310.5,138.3,311.1,137.7,311.5,137z"/>
		<path class="st5" d="M314.5,135.2c0-2.4,1.3-4.3,3.3-4.3c2.2,0,3.2,1.9,3.2,4.3v0.4h-5.3c0.1,1.6,0.9,2.9,2.4,2.9
			c0.7,0,1.4-0.4,2-1l0.6,0.7c-0.7,0.8-1.6,1.3-2.7,1.3C315.9,139.5,314.5,137.7,314.5,135.2z M317.9,131.9c-1.4,0-2,1.6-2.1,2.8
			h4.1C319.9,133.4,319.4,131.9,317.9,131.9z"/>
		<path class="st5" d="M327.4,139.3v-5.8c0-1.1-0.5-1.5-1.3-1.5s-1.5,0.6-1.9,1.3v6H323v-8.2h1.2v1.2c0.5-0.7,1.4-1.4,2.4-1.4
			c1.4,0,2.1,0.7,2.1,2.2v6.2H327.4z"/>
		<path class="st5" d="M331,137.7v-5.5h-1.1v-1.1h1.1v-2.2h1.2v2.2h1.4v1.1h-1.4v5.3c0,0.6,0.2,1,0.7,1c0.3,0,0.6-0.1,0.7-0.3
			l0.4,0.9c-0.3,0.3-0.7,0.5-1.3,0.5C331.5,139.5,331,138.9,331,137.7z"/>
		<path class="st5" d="M335,129.1c0-0.5,0.4-0.8,0.8-0.8c0.5,0,0.8,0.4,0.8,0.8s-0.4,0.8-0.8,0.8C335.5,129.9,335,129.5,335,129.1z
			 M335.3,139.3v-8.2h1.2v8.2H335.3z"/>
		<path class="st5" d="M343.1,139.3v-5.8c0-1.1-0.5-1.5-1.3-1.5s-1.5,0.6-1.9,1.3v6h-1.2v-8.2h1.2v1.2c0.5-0.7,1.4-1.4,2.4-1.4
			c1.4,0,2.1,0.7,2.1,2.2v6.2H343.1z"/>
		<path class="st5" d="M350.9,139.3v-0.9c-0.5,0.7-1.3,1.1-2.2,1.1c-1.3,0-2.5-1-2.5-2.7s1.1-2.7,2.5-2.7c0.8,0,1.6,0.3,2.2,1.1
			v-1.4c0-1.1-0.6-1.8-1.7-1.8c-0.8,0-1.4,0.3-2.1,1l-0.5-0.9c0.8-0.8,1.8-1.2,2.8-1.2c1.6,0,2.7,0.8,2.7,2.7v5.7L350.9,139.3
			L350.9,139.3z M350.9,137.6V136c-0.4-0.7-1.1-1.1-1.8-1.1c-1,0-1.6,0.8-1.6,1.8s0.6,1.8,1.6,1.8
			C349.8,138.6,350.5,138.3,350.9,137.6z"/>
		<path class="st5" d="M260.7,159.7v-1.2c-0.5,0.8-1.3,1.4-2.2,1.4c-1.8,0-2.9-1.7-2.9-4.3c0-2.5,1.1-4.3,2.9-4.3
			c0.8,0,1.7,0.5,2.2,1.4v-4.3h1.2v11.3L260.7,159.7L260.7,159.7z M260.7,157.5v-3.8c-0.3-0.7-1.1-1.3-1.9-1.3c-1.3,0-2,1.4-2,3.2
			s0.6,3.2,2,3.2C259.6,158.8,260.4,158.2,260.7,157.5z"/>
		<path class="st5" d="M264.1,159c0-0.5,0.4-0.9,0.9-0.9s0.9,0.4,0.9,0.9s-0.4,0.9-0.9,0.9S264.1,159.5,264.1,159z"/>
		<path class="st5" d="M271.1,158l0.9-0.8c0.5,0.8,1.4,1.5,2.4,1.5c1.4,0,2.1-0.8,2.1-2.2c0-1.5-1-2.1-2.2-2.1c-0.4,0-0.7,0-0.9,0
			v-1.2c0.2,0,0.6,0,0.9,0c1.1,0,2.1-0.6,2.1-1.9c0-1.3-0.8-2-2-2c-1,0-1.7,0.5-2.3,1.3l-0.8-0.8c0.7-1.1,1.8-1.8,3.2-1.8
			c1.8,0,3.2,1,3.2,3c0,1.4-1,2.4-2,2.6c1,0.2,2.2,1.2,2.2,2.8c0,1.9-1.2,3.3-3.4,3.3C272.8,159.9,271.7,159.1,271.1,158z"/>
		<path class="st5" d="M279.1,151c0-1.6,1-2.8,2.4-2.8s2.4,1.2,2.4,2.8s-1,2.8-2.4,2.8S279.1,152.6,279.1,151z M283,151
			c0-1.1-0.6-2-1.4-2c-0.9,0-1.4,0.8-1.4,2c0,1.1,0.6,2,1.4,2S283,152.1,283,151z M280.8,159.7l5.9-11.3h0.8l-6,11.3H280.8z
			 M284.4,157.1c0-1.6,1-2.8,2.4-2.8s2.4,1.2,2.4,2.8s-1,2.8-2.4,2.8C285.3,159.9,284.4,158.7,284.4,157.1z M288.1,157.1
			c0-1.1-0.6-2-1.4-2s-1.4,0.9-1.4,2s0.6,1.9,1.4,1.9S288.1,158.2,288.1,157.1z"/>
		<path class="st5" d="M294.5,159.7v-11.3h3.8c1.8,0,2.8,1.2,2.8,2.9c0,1.4-0.7,2.3-1.7,2.6c1.1,0.2,1.9,1.4,1.9,2.8
			c0,1.8-1,3.1-2.9,3.1h-3.9L294.5,159.7L294.5,159.7z M299.7,151.4c0-1.1-0.5-1.9-1.7-1.9h-2.1v3.8h2.1
			C299.1,153.3,299.7,152.5,299.7,151.4z M299.9,156.5c0-1.1-0.6-2-1.8-2h-2.2v4h2.2C299.3,158.5,299.9,157.7,299.9,156.5z"/>
		<path class="st5" d="M303.1,159.7v-8.2h1.2v1.3c0.5-0.9,1.3-1.5,2.3-1.5v1.3c-0.1,0-0.3-0.1-0.4-0.1c-0.7,0-1.6,0.7-1.9,1.3v5.8
			L303.1,159.7L303.1,159.7z"/>
		<path class="st5" d="M312.4,159.7v-0.9c-0.5,0.7-1.3,1.1-2.2,1.1c-1.3,0-2.5-1-2.5-2.7s1.1-2.7,2.5-2.7c0.8,0,1.6,0.3,2.2,1.1
			v-1.4c0-1.1-0.6-1.8-1.7-1.8c-0.8,0-1.4,0.3-2.1,1l-0.5-0.9c0.8-0.8,1.8-1.2,2.8-1.2c1.6,0,2.7,0.8,2.7,2.7v5.7L312.4,159.7
			L312.4,159.7z M312.4,158v-1.6c-0.4-0.7-1.1-1.1-1.8-1.1c-1,0-1.6,0.8-1.6,1.8s0.6,1.8,1.6,1.8C311.4,159,312,158.7,312.4,158z"/>
		<path class="st5" d="M315.5,159.7v-1l3.6-6.2h-3.6v-1.1h5v0.9l-3.6,6.2h3.6v1.1h-5V159.7z"/>
		<path class="st5" d="M322.1,149.5c0-0.5,0.4-0.8,0.8-0.8c0.5,0,0.8,0.4,0.8,0.8s-0.4,0.8-0.8,0.8S322.1,149.9,322.1,149.5z
			 M322.4,159.7v-8.2h1.2v8.2H322.4z"/>
		<path class="st5" d="M325.9,159.7v-11.3h1.2v11.3H325.9z"/>
		<path class="st5" d="M255.6,176c0-2.4,1.3-4.3,3.3-4.3c2.2,0,3.2,1.9,3.2,4.3v0.4h-5.3c0.1,1.6,0.9,2.9,2.4,2.9c0.7,0,1.4-0.4,2-1
			l0.6,0.7c-0.7,0.8-1.6,1.3-2.7,1.3C256.9,180.3,255.6,178.5,255.6,176z M258.9,172.7c-1.4,0-2,1.6-2.1,2.8h4.1
			C261,174.2,260.4,172.7,258.9,172.7z"/>
		<path class="st5" d="M263.8,179.4c0-0.5,0.4-0.9,0.9-0.9s0.9,0.4,0.9,0.9s-0.4,0.9-0.9,0.9C264.1,180.3,263.8,179.9,263.8,179.4z"
			/>
		<path class="st5" d="M270.8,178.4l0.9-0.8c0.5,0.8,1.4,1.5,2.4,1.5c1.4,0,2.1-0.8,2.1-2.2c0-1.5-1-2.1-2.2-2.1c-0.4,0-0.7,0-0.9,0
			v-1.2c0.2,0,0.6,0,0.9,0c1.1,0,2.1-0.6,2.1-1.9c0-1.3-0.8-2-2-2c-1,0-1.7,0.5-2.3,1.3l-0.9-0.8c0.7-1.1,1.8-1.8,3.2-1.8
			c1.8,0,3.2,1,3.2,3c0,1.4-1,2.4-2,2.6c1,0.2,2.2,1.2,2.2,2.8c0,1.9-1.2,3.3-3.4,3.3C272.6,180.3,271.4,179.5,270.8,178.4z"/>
		<path class="st5" d="M278.9,171.4c0-1.6,1-2.8,2.4-2.8s2.4,1.2,2.4,2.8s-1,2.8-2.4,2.8C279.8,174.2,278.9,173,278.9,171.4z
			 M282.7,171.4c0-1.1-0.6-2-1.4-2c-0.9,0-1.4,0.8-1.4,2c0,1.1,0.6,2,1.4,2S282.7,172.5,282.7,171.4z M280.5,180.1l5.9-11.3h0.8
			l-6,11.3H280.5z M284.1,177.5c0-1.6,1-2.8,2.4-2.8s2.4,1.2,2.4,2.8s-1,2.8-2.4,2.8S284.1,179.1,284.1,177.5z M288,177.5
			c0-1.1-0.6-2-1.4-2s-1.4,0.9-1.4,2s0.6,1.9,1.4,1.9S288,178.6,288,177.5z"/>
		<path class="st5" d="M294.3,180.1v-11.3h1.4v11.3H294.3z"/>
		<path class="st5" d="M302.4,180.1v-5.8c0-1.1-0.5-1.5-1.3-1.5s-1.5,0.6-1.9,1.3v6H298v-8.2h1.2v1.2c0.5-0.7,1.4-1.4,2.4-1.4
			c1.4,0,2.1,0.7,2.1,2.2v6.2H302.4z"/>
		<path class="st5" d="M310.5,180.1v-1.2c-0.5,0.8-1.3,1.4-2.2,1.4c-1.8,0-2.9-1.7-2.9-4.3c0-2.5,1.1-4.3,2.9-4.3
			c0.8,0,1.7,0.5,2.2,1.4v-4.3h1.2v11.3L310.5,180.1L310.5,180.1z M310.5,177.9v-3.8c-0.3-0.7-1.1-1.3-1.9-1.3c-1.3,0-2,1.4-2,3.2
			s0.6,3.2,2,3.2C309.5,179.2,310.1,178.6,310.5,177.9z"/>
		<path class="st5" d="M313.8,169.9c0-0.5,0.4-0.8,0.8-0.8c0.5,0,0.8,0.4,0.8,0.8s-0.4,0.8-0.8,0.8S313.8,170.3,313.8,169.9z
			 M314,180.1v-8.2h1.2v8.2H314z"/>
		<path class="st5" d="M321.7,180.1v-0.9c-0.5,0.7-1.3,1.1-2.2,1.1c-1.3,0-2.5-1-2.5-2.7s1.1-2.7,2.5-2.7c0.8,0,1.6,0.3,2.2,1.1
			v-1.4c0-1.1-0.6-1.8-1.7-1.8c-0.8,0-1.4,0.3-2.1,1l-0.5-0.9c0.8-0.8,1.8-1.2,2.8-1.2c1.6,0,2.7,0.8,2.7,2.7v5.7L321.7,180.1
			L321.7,180.1z M321.7,178.4v-1.6c-0.4-0.7-1.1-1.1-1.8-1.1c-1,0-1.6,0.8-1.6,1.8s0.6,1.8,1.6,1.8
			C320.5,179.4,321.3,179.1,321.7,178.4z"/>
	</g>
	<g>
		<polygon class="st0" points="269.2,23.7 269.2,46.6 255.5,57.5 356.2,57.5 356.2,23.7 		"/>
		<g class="st3">
			<g>
				<path class="st4" d="M279.1,41c0-4.3,2.2-7.3,5.4-7.3c2.1,0,3.3,1.1,4.2,2.6l-1.3,0.7c-0.6-1.1-1.6-1.8-2.8-1.8
					c-2.3,0-3.7,2.4-3.7,5.8s1.5,5.8,3.7,5.8c1.1,0,2.1-0.5,2.6-1.1v-3.3h-3.3v-1.5h4.9v5.4c-1.1,1.3-2.5,2.1-4.2,2.1
					C281.3,48.3,279.1,45.4,279.1,41z"/>
			</g>
			<g>
				<path class="st4" d="M290.9,43c0-3,1.6-5.4,4.1-5.4c2.6,0,4,2.4,4,5.4v0.4h-6.6c0.1,2,1.1,3.6,2.9,3.6c0.9,0,1.8-0.4,2.5-1.2
					l0.8,0.9c-0.8,1.1-2,1.6-3.3,1.6C292.5,48.3,290.9,46.1,290.9,43z M294.9,38.9c-1.8,0-2.5,1.9-2.5,3.4h5.1
					C297.5,40.8,296.8,38.9,294.9,38.9z"/>
			</g>
			<g>
				<path class="st4" d="M301.2,48.1V37.9h1.5v1.6c0.6-1.1,1.7-1.8,2.9-1.8v1.6c-0.2,0-0.4-0.1-0.5-0.1c-1,0-1.9,0.8-2.4,1.7v7.2
					H301.2L301.2,48.1z"/>
			</g>
			<g>
				<path class="st4" d="M317.7,48.1v-7.4c0-1.1-0.4-1.7-1.4-1.7c-0.9,0-1.8,0.8-2.2,1.6v7.5h-1.5v-7.4c0-1.1-0.4-1.7-1.4-1.7
					c-0.9,0-1.8,0.8-2.2,1.6v7.5h-1.5V37.9h1.5v1.5c0.4-0.8,1.6-1.7,2.8-1.7c1.3,0,2.1,0.7,2.3,1.8c0.5-1,1.7-1.8,2.9-1.8
					c1.5,0,2.4,0.8,2.4,2.6v7.8H317.7L317.7,48.1z"/>
			</g>
			<g>
				<path class="st4" d="M327.2,48.1V47c-0.6,1-1.7,1.3-2.6,1.3c-1.7,0-3.1-1.2-3.1-3.4c0-2.1,1.4-3.3,3.1-3.3c1.1,0,2,0.4,2.6,1.3
					v-1.8c0-1.4-0.8-2.2-2.1-2.2c-1,0-1.8,0.4-2.5,1.2l-0.7-1.1c1-1.1,2.2-1.5,3.4-1.5c2,0,3.3,1,3.3,3.3v7.1h-1.4L327.2,48.1
					L327.2,48.1z M327.2,46v-1.9c-0.4-0.9-1.3-1.3-2.2-1.3c-1.2,0-2,1-2,2.3c0,1.2,0.8,2.3,2,2.3C325.8,47.3,326.7,46.7,327.2,46z"
					/>
			</g>
			<g>
				<path class="st4" d="M337,48.1v-7.3c0-1.3-0.6-1.8-1.6-1.8s-1.9,0.8-2.4,1.6v7.5h-1.5V37.9h1.5v1.5c0.6-0.9,1.8-1.7,3-1.7
					c1.8,0,2.5,1,2.5,2.7V48C338.7,48.1,337,48.1,337,48.1z"/>
			</g>
			<g>
				<path class="st4" d="M340.9,50.7c0.2,0.1,0.5,0.2,0.7,0.2c0.6,0,1-0.3,1.2-1.1l0.5-1.6l-3.4-10.4h1.7l2.5,8.3l2.5-8.3h1.6
					l-4,12.3c-0.5,1.5-1.3,2-2.5,2c-0.4,0-0.8-0.1-1.1-0.2L340.9,50.7z"/>
			</g>
		</g>
	</g>
</g>
</svg>
