<?xml version="1.0" encoding="utf-8"?>
<!-- Generator: Adobe Illustrator 21.1.0, SVG Export Plug-In . SVG Version: 6.00 Build 0)  -->
<svg version="1.1" id="Layer_1" xmlns="http://www.w3.org/2000/svg" xmlns:xlink="http://www.w3.org/1999/xlink" x="0px" y="0px"
	 viewBox="0 0 430 213.4" style="enable-background:new 0 0 430 213.4;" xml:space="preserve">
<style type="text/css">
	.st0{fill:#82786F;}
	.st1{fill:#F5F5F5;}
	.st2{fill:#00ADEF;}
</style>
<g>
	<path class="st0" d="M240.9,162.4c-5.8-7.9-15.2-13.1-25.8-13.1s-20,5.2-25.8,13.1c-2.7-1-5.2-2.1-7.7-3.4v29.1
		c0,8.9,3,12.7,10.1,15.4c0.2,0.1,0.4,0.1,0.6,0.2c5.8,5.9,13.9,9.6,22.9,9.6s17.1-3.7,22.9-9.6c0.2-0.1,0.4-0.2,0.6-0.2
		c7-2.7,10.1-6.5,10.1-15.4V159C246.1,160.3,243.4,161.4,240.9,162.4z"/>
	<path class="st1" d="M289.2,74.2c0-41-33.2-74.2-74.2-74.2s-74.3,33.2-74.3,74.2c0,20.5,8.3,39,21.7,52.5l0,0l0,0l0,0
		c9.3,9.3,15.6,20.5,18.9,32.3c10.1,5.1,21.5,8,33.6,8s23.5-2.9,33.6-8c3.3-11.8,9.6-23,18.9-32.3c0,0,0,0,0.1-0.1l0,0
		C281,113.3,289.2,94.7,289.2,74.2"/>
	<path class="st2" d="M289.2,74.3c0-12.1-2.9-23.5-8.1-33.6c-2.1-3-5.2-5.9-7.8-6.8c-5.1-1.9-10.3-0.3-14.6,2.8
		c-6.3,4.6-5.1,7.8-8.9,14.3c-5.4,9.3-13.7,7.4-28,8c-10.6,0.4-28,4.4-33.9,13.4c-5,7.7-5.1,19,1.5,24.7
		c12.8,10.9,18.1-1.9,30.8,0.1c13.8,2.1,17,8.5,11.2,21.7c-4.1,9.3-0.6,20.3,0.8,27.7c2,10.6,13.3,12.5,16.7,11.3
		c4.4-13.1,9.4-20.8,15.2-27.4c4.8-5.5,8.3-7.5,14.4-17.8C285.4,101.4,289.2,88.3,289.2,74.3"/>
	<path class="st2" d="M161.1,75.1c7.4-3.6,14.6-10.4,15.6-19.2c1.4-11.6-9.8-16.9-11-27.5c-0.3-2.7-0.1-6.7,1-10.4
		c-15.9,13.6-25.9,33.7-25.9,56.3c0,1.8,0.1,3.6,0.2,5.3C148.4,79.8,158.4,76.3,161.1,75.1"/>
</g>
</svg>
