<?xml version="1.0" encoding="utf-8"?>
<!-- Generator: Adobe Illustrator 21.1.0, SVG Export Plug-In . SVG Version: 6.00 Build 0)  -->
<svg version="1.1" id="Layer_1" xmlns="http://www.w3.org/2000/svg" xmlns:xlink="http://www.w3.org/1999/xlink" x="0px" y="0px"
	 viewBox="0 0 920 320" style="enable-background:new 0 0 920 320;" xml:space="preserve">
<style type="text/css">
	.st0{fill:#F5F5F5;}
	.st1{fill:#DCD2C9;}
	.st2{enable-background:new    ;}
	.st3{fill:#86786F;}
	.st4{fill:#00ADEF;}
	.st5{fill:#82786F;}
</style>
<g>
	<g>
		<rect x="120" class="st0" width="680" height="290.3"/>
	</g>
</g>
<g>
	<rect x="120" y="72.2" class="st1" width="680" height="1"/>
</g>
<g>
	<rect x="120" y="144.6" class="st1" width="680" height="1"/>
</g>
<g>
	<rect x="120" y="217" class="st1" width="680" height="1"/>
</g>
<g class="st2">
	<g>
		<path class="st3" d="M720.9,318.3l5-14.3h-6.8v-1.7h8.9v1.3l-5.1,14.7H720.9z"/>
	</g>
	<g>
		<path class="st3" d="M729.8,310.3c0-3.9,1.3-8.3,5-8.3s5,4.4,5,8.3c0,3.8-1.3,8.3-5,8.3S729.8,314.1,729.8,310.3z M737.9,310.3
			c0-3.2-0.6-6.6-3.1-6.6c-2.4,0-3,3.4-3,6.6c0,3.1,0.6,6.6,3,6.6C737.3,316.9,737.9,313.4,737.9,310.3z"/>
	</g>
</g>
<g>
	<g>
		<rect x="281.5" y="87.5" class="st4" width="5.8" height="202.8"/>
	</g>
</g>
<g>
	<g>
		<rect x="371.7" y="256.1" class="st4" width="5.8" height="34.3"/>
	</g>
</g>
<g>
	<g>
		<rect x="461.9" y="283.4" class="st4" width="5.8" height="7"/>
	</g>
</g>
<g>
	<g>
		<rect x="551.9" y="288.2" class="st4" width="5.8" height="1.9"/>
	</g>
</g>
<g>
	<g>
		<rect x="642.1" y="289.5" class="st4" width="5.8" height="0.8"/>
	</g>
</g>
<g>
	<g>
		<rect x="732.7" y="289.5" class="st4" width="4.8" height="0.8"/>
	</g>
</g>
<g>
	<g>
		<rect x="326.6" y="194.3" class="st4" width="5.8" height="96"/>
	</g>
</g>
<g>
	<g>
		<rect x="416.8" y="275.2" class="st4" width="5.8" height="15.1"/>
	</g>
</g>
<g>
	<g>
		<rect x="507" y="284.9" class="st4" width="5.8" height="5.4"/>
	</g>
</g>
<g>
	<g>
		<rect x="597" y="289.5" class="st4" width="5.8" height="0.8"/>
	</g>
</g>
<g>
	<g>
		<rect x="687.2" y="289.5" class="st4" width="5.8" height="0.8"/>
	</g>
</g>
<g>
	<g>
		<rect x="290.6" y="6.6" class="st4" width="5.8" height="283.7"/>
	</g>
</g>
<g>
	<g>
		<rect x="380.8" y="260.1" class="st4" width="5.8" height="30.2"/>
	</g>
</g>
<g>
	<g>
		<rect x="470.8" y="284.9" class="st4" width="5.8" height="5.4"/>
	</g>
</g>
<g>
	<g>
		<rect x="561" y="289.4" class="st4" width="5.8" height="1"/>
	</g>
</g>
<g>
	<g>
		<rect x="651.2" y="288.8" class="st4" width="5.8" height="1.5"/>
	</g>
</g>
<g>
	<g>
		<rect x="335.7" y="211.9" class="st4" width="5.8" height="78.4"/>
	</g>
</g>
<g>
	<g>
		<rect x="425.9" y="273.1" class="st4" width="5.8" height="17.2"/>
	</g>
</g>
<g>
	<g>
		<rect x="515.9" y="286.8" class="st4" width="5.8" height="3.5"/>
	</g>
</g>
<g>
	<g>
		<rect x="606.1" y="288.8" class="st4" width="5.8" height="1.5"/>
	</g>
</g>
<g>
	<g>
		<rect x="299.7" y="66.6" class="st4" width="5.8" height="223.7"/>
	</g>
</g>
<g>
	<g>
		<rect x="389.7" y="261.9" class="st4" width="5.8" height="28.5"/>
	</g>
</g>
<g>
	<g>
		<rect x="479.9" y="286.3" class="st4" width="5.8" height="4.1"/>
	</g>
</g>
<g>
	<g>
		<rect x="570.1" y="288.2" class="st4" width="5.8" height="1.9"/>
	</g>
</g>
<g>
	<g>
		<rect x="660.1" y="289.9" class="st4" width="5.8" height="0.4"/>
	</g>
</g>
<g>
	<g>
		<rect x="254.6" y="289.5" class="st4" width="5.8" height="0.8"/>
	</g>
</g>
<g>
	<g>
		<rect x="344.6" y="230.1" class="st4" width="5.8" height="60.2"/>
	</g>
</g>
<g>
	<g>
		<rect x="434.8" y="279.5" class="st4" width="5.8" height="10.8"/>
	</g>
</g>
<g>
	<g>
		<rect x="525" y="288.6" class="st4" width="5.8" height="1.7"/>
	</g>
</g>
<g>
	<g>
		<rect x="615" y="288.8" class="st4" width="5.8" height="1.5"/>
	</g>
</g>
<g>
	<g>
		<rect x="705.2" y="289.7" class="st4" width="5.8" height="0.6"/>
	</g>
</g>
<g>
	<g>
		<rect x="308.6" y="126.4" class="st4" width="5.8" height="163.9"/>
	</g>
</g>
<g>
	<g>
		<rect x="398.8" y="268.6" class="st4" width="5.8" height="21.7"/>
	</g>
</g>
<g>
	<g>
		<rect x="489" y="284.9" class="st4" width="5.8" height="5.4"/>
	</g>
</g>
<g>
	<g>
		<rect x="579" y="289.4" class="st4" width="5.8" height="1"/>
	</g>
</g>
<g>
	<g>
		<rect x="669.2" y="289.9" class="st4" width="5.8" height="0.4"/>
	</g>
</g>
<g>
	<g>
		<rect x="263.5" y="272.9" class="st4" width="5.8" height="17.4"/>
	</g>
</g>
<g>
	<g>
		<rect x="353.7" y="242.3" class="st4" width="5.8" height="48"/>
	</g>
</g>
<g>
	<g>
		<rect x="443.9" y="282.8" class="st4" width="5.8" height="7.5"/>
	</g>
</g>
<g>
	<g>
		<rect x="533.9" y="286.8" class="st4" width="5.8" height="3.5"/>
	</g>
</g>
<g>
	<g>
		<rect x="624.1" y="289.5" class="st4" width="5.8" height="0.8"/>
	</g>
</g>
<g>
	<g>
		<rect x="317.7" y="174.8" class="st4" width="5.8" height="115.5"/>
	</g>
</g>
<g>
	<g>
		<rect x="407.7" y="272.9" class="st4" width="5.8" height="17.4"/>
	</g>
</g>
<g>
	<g>
		<rect x="498.3" y="286.3" class="st4" width="4.8" height="4.1"/>
	</g>
</g>
<g>
	<g>
		<rect x="588.1" y="289.5" class="st4" width="5.8" height="0.8"/>
	</g>
</g>
<g>
	<g>
		<rect x="272.6" y="211.9" class="st4" width="5.8" height="78.4"/>
	</g>
</g>
<g>
	<g>
		<rect x="362.8" y="251.2" class="st4" width="5.8" height="39.1"/>
	</g>
</g>
<g>
	<g>
		<rect x="452.8" y="283.4" class="st4" width="5.8" height="7"/>
	</g>
</g>
<g>
	<g>
		<rect x="543" y="286.3" class="st4" width="5.8" height="4.1"/>
	</g>
</g>
<g>
	<g>
		<rect x="633.2" y="289.5" class="st4" width="5.8" height="0.8"/>
	</g>
</g>
<g>
	<g>
		<rect x="723.2" y="289.5" class="st4" width="5.8" height="0.8"/>
	</g>
</g>
<g>
	<g>
		<g>
			<polygon class="st5" points="734,279.2 739.5,273.7 728.5,273.7 			"/>
		</g>
	</g>
	<g class="st2">
		<g>
			<path class="st5" d="M680.3,232.4c0-4.7,2.5-8.1,6.6-8.1s6.6,3.5,6.6,8.1c0,4.7-2.5,8.1-6.6,8.1
				C682.7,240.5,680.3,237.1,680.3,232.4z M690.2,232.4c0-3-1.2-5.3-3.4-5.3c-2.1,0-3.3,2.3-3.3,5.3s1.2,5.3,3.3,5.3
				C689,237.7,690.2,235.4,690.2,232.4z"/>
		</g>
		<g>
			<path class="st5" d="M695.5,240.2v-15.7h2.8v15.7H695.5z"/>
		</g>
		<g>
			<path class="st5" d="M707.4,240.2v-1.4c-0.7,1.1-1.8,1.7-2.9,1.7c-2.5,0-4.2-2.2-4.2-6c0-3.7,1.7-6,4.2-6c1.1,0,2.2,0.5,2.9,1.7
				v-5.8h2.8v15.7h-2.8V240.2z M707.4,236.7v-4.3c-0.4-0.8-1.2-1.3-2-1.3c-1.4,0-2.2,1.5-2.2,3.5s0.8,3.5,2.2,3.5
				C706.2,238,707,237.4,707.4,236.7z"/>
		</g>
		<g>
			<path class="st5" d="M712.2,234.5c0-3.3,1.9-6,5.1-6c3.1,0,4.9,2.6,4.9,6.1v0.8H715c0.1,1.6,1,2.8,2.8,2.8c0.8,0,1.8-0.4,2.5-1.1
				l1.3,1.7c-1,1.1-2.5,1.7-4.1,1.7C714.3,240.5,712.2,238.1,712.2,234.5z M717.2,230.8c-1.6,0-2.1,1.5-2.2,2.7h4.4
				C719.4,232.3,718.9,230.8,717.2,230.8z"/>
		</g>
		<g>
			<path class="st5" d="M723.2,238.9l1.2-2c0.7,0.8,2,1.4,3.1,1.4s1.7-0.5,1.7-1.2c0-0.8-0.9-1.1-2-1.4c-1.6-0.5-3.7-1.2-3.7-3.7
				c0-1.8,1.5-3.4,4.2-3.4c1.6,0,3,0.6,4,1.5l-1.1,1.9c-0.6-0.6-1.6-1.2-2.8-1.2c-0.9,0-1.5,0.5-1.5,1.1c0,0.7,0.8,1,1.8,1.3
				c1.7,0.5,3.8,1.2,3.8,3.8c0,2.1-1.7,3.5-4.3,3.5C725.7,240.5,724.1,239.9,723.2,238.9z"/>
		</g>
		<g>
			<path class="st5" d="M734.3,237.5v-6.2h-1.5v-2.5h1.5v-3.1h2.8v3.1h1.9v2.5h-1.9v5.5c0,0.7,0.3,1.2,0.8,1.2
				c0.4,0,0.7-0.1,0.9-0.3l0.6,2.2c-0.4,0.4-1.2,0.7-2.2,0.7C735.2,240.5,734.3,239.5,734.3,237.5z"/>
		</g>
	</g>
	<g class="st2">
		<g>
			<path class="st5" d="M661.3,265.1l4.9-14.1h-6.7v-1.7h8.8v1.3l-5,14.4h-2V265.1z"/>
		</g>
		<g>
			<path class="st5" d="M672.8,265.1v-13.3l-2.4,2.6l-1.1-1.2l3.8-3.9h1.7V265L672.8,265.1L672.8,265.1z"/>
		</g>
		<g>
			<path class="st5" d="M682.6,268.1c0.2,0.1,0.6,0.2,0.8,0.2c0.7,0,1-0.3,1.3-1.1l0.6-1.7l-3.8-11.6h1.8l2.8,9.3l2.9-9.3h1.8
				l-4.6,13.8c-0.6,1.7-1.5,2.2-2.8,2.2c-0.4,0-0.9-0.1-1.1-0.2L682.6,268.1z"/>
		</g>
		<g>
			<path class="st5" d="M692.6,265.1v-11.4h1.7v1.8c0.7-1.2,1.8-2.1,3.2-2.1v1.7c-0.2,0-0.4-0.1-0.6-0.1c-1,0-2.2,0.9-2.7,1.9v8.1
				h-1.6L692.6,265.1L692.6,265.1z"/>
		</g>
		<g>
			<path class="st5" d="M698.5,263.8l0.9-1.2c0.7,0.8,1.7,1.4,3,1.4s2.2-0.8,2.2-1.8c0-1.2-1.1-1.7-2.4-2.2
				c-1.6-0.6-3.3-1.3-3.3-3.5c0-1.7,1.4-3.1,3.6-3.1c1.5,0,2.7,0.6,3.5,1.5l-0.8,1.2c-0.6-0.8-1.5-1.3-2.6-1.3c-1.3,0-2,0.7-2,1.7
				c0,1.1,1.1,1.5,2.3,2c1.6,0.6,3.4,1.3,3.4,3.7c0,1.9-1.5,3.3-3.8,3.3C700.8,265.4,699.5,264.9,698.5,263.8z"/>
		</g>
		<g>
			<path class="st5" d="M713.1,259.4c0-3.2,1.6-6,4.6-6c3.1,0,4.7,2.8,4.7,6s-1.6,6-4.7,6C714.7,265.4,713.1,262.6,713.1,259.4z
				 M720.6,259.4c0-2.3-0.9-4.5-2.9-4.5s-2.9,2.2-2.9,4.5s0.9,4.5,2.9,4.5C719.7,263.9,720.6,261.7,720.6,259.4z"/>
		</g>
		<g>
			<path class="st5" d="M724.9,265.1v-15.7h1.7v15.7H724.9z"/>
		</g>
		<g>
			<path class="st5" d="M736.2,265.1v-1.6c-0.7,1.2-1.8,1.9-3,1.9c-2.5,0-4.1-2.4-4.1-6c0-3.5,1.5-6,4.1-6c1.2,0,2.3,0.7,3,1.9v-6
				h1.7V265h-1.7V265.1z M736.2,262.1v-5.2c-0.4-1-1.5-1.9-2.6-1.9c-1.9,0-2.7,2-2.7,4.5s0.9,4.5,2.7,4.5
				C734.7,263.9,735.8,263.1,736.2,262.1z"/>
		</g>
	</g>
</g>
<g class="st2">
	<g>
		<path class="st3" d="M266.9,318.3v-1.6c5.2-6,7-8,7-10.3c0-1.7-1.2-2.7-2.6-2.7c-1.5,0-2.6,0.7-3.4,2l-1.2-1.2
			c1.1-1.6,2.6-2.6,4.7-2.6c2.4,0,4.5,1.6,4.5,4.4c0,2.7-2,5.1-6.3,10.2h6.3v1.7h-9V318.3z"/>
	</g>
	<g>
		<path class="st3" d="M278.5,310.3c0-3.9,1.3-8.3,5-8.3s5,4.4,5,8.3c0,3.8-1.3,8.3-5,8.3S278.5,314.1,278.5,310.3z M286.6,310.3
			c0-3.2-0.6-6.6-3.1-6.6c-2.4,0-3,3.4-3,6.6c0,3.1,0.6,6.6,3,6.6S286.6,313.4,286.6,310.3z"/>
	</g>
</g>
<g class="st2">
	<g>
		<path class="st3" d="M357.3,315.9l1.2-1.1c0.7,1.2,1.9,2.1,3.4,2.1c1.9,0,2.9-1.2,2.9-3c0-2.2-1.4-2.9-3-2.9c-0.5,0-1.1,0-1.3,0
			v-1.7c0.2,0,0.8,0,1.2,0c1.6,0,2.9-0.9,2.9-2.7c0-1.9-1.2-2.8-2.8-2.8c-1.4,0-2.4,0.7-3.2,1.9l-1.2-1.1c1-1.5,2.6-2.5,4.6-2.5
			c2.6,0,4.5,1.4,4.5,4.2c0,2-1.4,3.4-2.9,3.7c1.4,0.2,3.1,1.7,3.1,4c0,2.7-1.7,4.6-4.8,4.6C359.8,318.6,358.1,317.4,357.3,315.9z"
			/>
	</g>
	<g>
		<path class="st3" d="M369.1,310.3c0-3.9,1.3-8.3,5-8.3s5,4.4,5,8.3c0,3.8-1.3,8.3-5,8.3S369.1,314.1,369.1,310.3z M377.2,310.3
			c0-3.2-0.6-6.6-3.1-6.6c-2.4,0-3,3.4-3,6.6c0,3.1,0.6,6.6,3,6.6S377.2,313.4,377.2,310.3z"/>
	</g>
</g>
<g class="st2">
	<g>
		<path class="st3" d="M454.1,318.3v-4.1h-6.3v-1.7l5.8-10.2h2.4v10.2h1.8v1.7H456v4.1H454.1z M454.1,304.3l-4.6,8.2h4.6V304.3z"/>
	</g>
	<g>
		<path class="st3" d="M459.5,310.3c0-3.9,1.3-8.3,5-8.3s5,4.4,5,8.3c0,3.8-1.3,8.3-5,8.3S459.5,314.1,459.5,310.3z M467.6,310.3
			c0-3.2-0.6-6.6-3.1-6.6c-2.4,0-3,3.4-3,6.6c0,3.1,0.6,6.6,3,6.6S467.6,313.4,467.6,310.3z"/>
	</g>
</g>
<g class="st2">
	<g>
		<path class="st3" d="M538.2,316l1.3-1.2c0.8,1.3,1.8,2.1,3.4,2.1c1.8,0,2.9-1.6,2.9-3.5c0-2.3-1.1-3.5-2.7-3.5
			c-1.1,0-2,0.4-2.9,1.5l-1.4-0.5v-8.6h8.2v1.7h-6.3v5.6c0.6-0.8,1.7-1.4,3-1.4c2.3,0,4.2,1.8,4.2,5.2c0,3-2,5.2-4.8,5.2
			C540.6,318.6,539.2,317.6,538.2,316z"/>
	</g>
	<g>
		<path class="st3" d="M549.9,310.3c0-3.9,1.3-8.3,5-8.3s5,4.4,5,8.3c0,3.8-1.3,8.3-5,8.3S549.9,314.1,549.9,310.3z M558,310.3
			c0-3.2-0.6-6.6-3.1-6.6c-2.4,0-3,3.4-3,6.6c0,3.1,0.6,6.6,3,6.6S558,313.4,558,310.3z"/>
	</g>
</g>
<g class="st2">
	<g>
		<path class="st3" d="M628.6,310.3c0-4.3,1.5-8.3,5.4-8.3c1.7,0,3,0.8,3.7,2l-1.1,1.3c-0.6-1-1.3-1.6-2.7-1.6
			c-2.5,0-3.5,3.4-3.5,6.4c0,0.2,0,0.3,0,0.5c0.6-1.1,1.9-2.4,3.5-2.4c2.3,0,4.2,1.7,4.2,5.1c0,2.7-1.7,5.2-4.6,5.2
			C629.9,318.6,628.6,314.6,628.6,310.3z M636.4,313.4c0-2.5-1.2-3.5-2.7-3.5c-1.3,0-2.4,1.2-3,2.4c0.1,1.8,0.7,4.5,3,4.5
			C635.5,316.9,636.4,315.1,636.4,313.4z"/>
	</g>
	<g>
		<path class="st3" d="M640.4,310.3c0-3.9,1.3-8.3,5-8.3s5,4.4,5,8.3c0,3.8-1.3,8.3-5,8.3S640.4,314.1,640.4,310.3z M648.5,310.3
			c0-3.2-0.6-6.6-3.1-6.6c-2.4,0-3,3.4-3,6.6c0,3.1,0.6,6.6,3,6.6S648.5,313.4,648.5,310.3z"/>
	</g>
</g>
<g>
	<g>
		<path class="st3" d="M183.3,318.3v-13.5l-2.5,2.6l-1.2-1.2l3.8-4h1.7v16h-1.8V318.3z"/>
	</g>
	<g>
		<path class="st3" d="M188,310.3c0-3.9,1.3-8.3,5-8.3s5,4.4,5,8.3c0,3.8-1.3,8.3-5,8.3S188,314.1,188,310.3z M196.1,310.3
			c0-3.2-0.6-6.6-3.1-6.6c-2.4,0-3,3.4-3,6.6c0,3.1,0.6,6.6,3,6.6S196.1,313.4,196.1,310.3z"/>
	</g>
</g>
<g>
	<g class="st2">
		<g>
			<path class="st5" d="M180.6,240.4v-6.5l-4.9-9.3h3.5l3,6.4l3-6.4h3.5l-4.9,9.3v6.5H180.6z"/>
		</g>
		<g>
			<path class="st5" d="M187,234.6c0-3.2,1.8-6,5.2-6s5.2,2.8,5.2,6s-1.8,6-5.2,6C188.8,240.7,187,237.9,187,234.6z M194.4,234.6
				c0-1.9-0.7-3.5-2.3-3.5c-1.5,0-2.2,1.6-2.2,3.5s0.7,3.5,2.2,3.5C193.7,238.1,194.4,236.5,194.4,234.6z"/>
		</g>
		<g>
			<path class="st5" d="M205.7,240.4V239c-0.6,0.9-1.9,1.7-3.4,1.7c-2.1,0-3.1-1.2-3.1-3.1v-8.7h2.8v7.6c0,1.2,0.6,1.7,1.5,1.7
				s1.7-0.7,2.1-1.4V229h2.8v11.5h-2.7L205.7,240.4L205.7,240.4z"/>
		</g>
		<g>
			<path class="st5" d="M217.6,240.4v-7.5c0-1.2-0.5-1.7-1.5-1.7c-0.9,0-1.7,0.7-2.1,1.4v7.8h-2.8v-11.5h2.8v1.5
				c0.6-0.9,1.9-1.8,3.4-1.8c2.1,0,3.1,1.2,3.1,3.1v8.6L217.6,240.4L217.6,240.4z"/>
		</g>
		<g>
			<path class="st5" d="M222.9,243.5l1.1-2.2c0.8,0.9,1.8,1.3,2.9,1.3c1.3,0,2.6-0.7,2.6-2.7v-1.4c-0.7,1.1-1.8,1.8-2.9,1.8
				c-2.5,0-4.2-2.1-4.2-5.8s1.7-5.8,4.2-5.8c1.1,0,2.2,0.5,2.9,1.7V229h2.8v10.9c0,4.2-2.7,5.2-5.3,5.2
				C225.4,245,224,244.6,222.9,243.5z M229.5,236.4v-3.9c-0.4-0.8-1.2-1.4-2-1.4c-1.4,0-2.2,1.3-2.2,3.3s0.8,3.3,2.2,3.3
				C228.3,237.8,229.1,237.2,229.5,236.4z"/>
		</g>
		<g>
			<path class="st5" d="M234.3,234.6c0-3.3,1.9-6,5.1-6c3.2,0,4.9,2.6,4.9,6.1v0.8h-7.2c0.1,1.6,1,2.8,2.8,2.8
				c0.8,0,1.9-0.4,2.5-1.1l1.3,1.7c-1,1.1-2.6,1.7-4.1,1.7C236.5,240.7,234.3,238.2,234.3,234.6z M239.4,230.9
				c-1.6,0-2.2,1.5-2.2,2.7h4.4C241.6,232.4,241.1,230.9,239.4,230.9z"/>
		</g>
		<g>
			<path class="st5" d="M245.4,239l1.2-2c0.7,0.8,2,1.4,3.2,1.4c1.1,0,1.7-0.5,1.7-1.2c0-0.8-0.9-1.1-2-1.4
				c-1.6-0.5-3.7-1.2-3.7-3.7c0-1.9,1.5-3.4,4.2-3.4c1.6,0,3,0.6,4,1.5l-1.1,1.9c-0.6-0.6-1.6-1.2-2.8-1.2c-0.9,0-1.5,0.5-1.5,1.1
				c0,0.7,0.8,1,1.9,1.3c1.7,0.5,3.8,1.2,3.8,3.8c0,2.1-1.7,3.6-4.4,3.6C248,240.7,246.4,240,245.4,239z"/>
		</g>
		<g>
			<path class="st5" d="M256.6,237.6v-6.2h-1.5v-2.5h1.5v-3.1h2.8v3.1h1.9v2.5h-1.9v5.6c0,0.7,0.3,1.2,0.8,1.2
				c0.4,0,0.7-0.1,0.9-0.3l0.6,2.2c-0.4,0.4-1.2,0.7-2.2,0.7C257.5,240.7,256.6,239.6,256.6,237.6z"/>
		</g>
	</g>
	<g class="st2">
		<g>
			<path class="st5" d="M183.3,265.4v-13.3l-2.4,2.6l-1.1-1.2l3.8-3.9h1.7v15.8H183.3z"/>
		</g>
		<g>
			<path class="st5" d="M187.9,261.5c0-2.1,1.6-3.7,3.2-4.3c-1.4-0.5-2.9-1.9-2.9-3.9c0-2.8,2.2-4,4.5-4s4.5,1.3,4.5,4
				c0,2-1.5,3.3-2.9,3.9c1.5,0.6,3.1,2.2,3.1,4.2c0,2.6-1.9,4.2-4.7,4.2C189.9,265.7,187.9,264.1,187.9,261.5z M195.4,261.3
				c0-2.1-2.1-3.2-2.8-3.3c-0.7,0.1-2.8,1.2-2.8,3.3c0,1.7,1.2,2.7,2.8,2.7C194.1,264,195.4,263,195.4,261.3z M195.2,253.6
				c0-1.6-1-2.6-2.6-2.6c-1.5,0-2.6,1-2.6,2.6c0,1.9,2,2.8,2.6,2.9C193.2,256.4,195.2,255.6,195.2,253.6z"/>
		</g>
		<g>
			<path class="st5" d="M204.7,268.4c0.2,0.1,0.6,0.2,0.8,0.2c0.7,0,1-0.3,1.4-1.1l0.6-1.8l-3.8-11.7h1.9l2.8,9.4l2.9-9.4h1.8
				l-4.6,13.9c-0.6,1.7-1.5,2.2-2.8,2.2c-0.4,0-0.9-0.1-1.1-0.2L204.7,268.4z"/>
		</g>
		<g>
			<path class="st5" d="M214.7,265.4v-11.5h1.7v1.8c0.7-1.2,1.9-2.1,3.3-2.1v1.8c-0.2,0-0.4-0.1-0.6-0.1c-1,0-2.2,0.9-2.7,1.9v8.1
				h-1.7V265.4z"/>
		</g>
		<g>
			<path class="st5" d="M220.7,264.1l0.9-1.2c0.7,0.8,1.8,1.4,3,1.4c1.3,0,2.2-0.8,2.2-1.9c0-1.2-1.1-1.7-2.4-2.2
				c-1.6-0.6-3.3-1.3-3.3-3.5c0-1.7,1.4-3.1,3.7-3.1c1.5,0,2.7,0.6,3.5,1.5l-0.8,1.2c-0.6-0.8-1.5-1.3-2.7-1.3c-1.3,0-2,0.7-2,1.7
				c0,1.1,1.1,1.5,2.3,2c1.6,0.6,3.4,1.4,3.4,3.7c0,1.9-1.5,3.3-3.8,3.3C223,265.7,221.7,265.2,220.7,264.1z"/>
		</g>
		<g>
			<path class="st5" d="M235.3,259.7c0-3.2,1.6-6,4.6-6c3.1,0,4.7,2.8,4.7,6s-1.6,6-4.7,6C236.9,265.7,235.3,262.9,235.3,259.7z
				 M242.9,259.7c0-2.3-0.9-4.5-2.9-4.5s-2.9,2.2-2.9,4.5s0.9,4.5,2.9,4.5S242.9,262,242.9,259.7z"/>
		</g>
		<g>
			<path class="st5" d="M247.2,265.4v-15.8h1.7v15.8H247.2z"/>
		</g>
		<g>
			<path class="st5" d="M258.6,265.4v-1.6c-0.7,1.2-1.8,1.9-3,1.9c-2.6,0-4.1-2.4-4.1-6s1.5-6,4.1-6c1.2,0,2.3,0.7,3,1.9v-6h1.7
				v15.8L258.6,265.4L258.6,265.4z M258.6,262.3V257c-0.4-1-1.5-1.9-2.6-1.9c-1.9,0-2.8,2-2.8,4.5s0.9,4.5,2.8,4.5
				C257.1,264.2,258.2,263.3,258.6,262.3z"/>
		</g>
	</g>
	<g>
		<g>
			<polygon class="st5" points="256.3,279.5 261.8,274 250.7,274 			"/>
		</g>
	</g>
</g>
</svg>
