<?xml version="1.0" encoding="utf-8"?>
<!-- Generator: Adobe Illustrator 21.1.0, SVG Export Plug-In . SVG Version: 6.00 Build 0)  -->
<svg version="1.1" id="Layer_1" xmlns="http://www.w3.org/2000/svg" xmlns:xlink="http://www.w3.org/1999/xlink" x="0px" y="0px"
	 viewBox="0 0 280 210" style="enable-background:new 0 0 280 210;" xml:space="preserve">
<style type="text/css">
	.st0{fill:#00ADEF;}
	.st1{fill:#FFFFFF;}
</style>
<g>
	<rect x="40" y="30" class="st0" width="200" height="150"/>
	<g>
		<g>
			<path class="st1" d="M182.5,145.7c0,0,18.8-32.4,44-36.4C226.5,109.3,206,105.3,182.5,145.7"/>
			<path class="st1" d="M184.2,124.7c-5.6-7.9-20.3-10.3-36.7-10.7c-6.2-0.1-12.8-0.1-19.2,0.1c-19,0.6-36.8,1.7-42.8-1.7
				c5.5,3.6,12.4,5.5,20,6.3c5.5,0.6,11.3,0.7,17.2,0.6c32.2-0.8,66.7-8.1,59.6,26.9l0,0l1.2-2.5l0.9-1.9
				C187.5,134.2,187,128.7,184.2,124.7z"/>
			<path class="st1" d="M169.4,120.6c-26.3-3.9-76.7,10.1-87.5,5.3L82,126c25.3,10.6,86.2-16.4,98.7,3.3
				C178.5,124.8,174.6,122.2,169.4,120.6z"/>
			<path class="st1" d="M103.1,119.2c-15.8,3.1-26.9,4.7-33.5,2.1v0.1c14.8,5.1,30.4,2.6,49.2-1.4
				C112.8,120.1,108.3,119.8,103.1,119.2z"/>
			<path class="st1" d="M132.2,113.4c5.3-0.1,10.7-0.2,15.9-0.1c0.9,0,1.7,0.1,2.6,0.1c16.4-2.7,29.2-2.2,32.9,9.1
				c0.4,0.5,0.8,1,1.2,1.5c2.6,3.8,3.2,8.8,1,15.5l0.3-0.6C198.2,105.1,166.2,107.2,132.2,113.4z"/>
			<path class="st1" d="M55.8,142.4c0-4.7,3.6-8.1,8.1-8.1c2.8,0,4.9,1,6.2,3.1l-1.2,0.9c-1-1.5-2.7-2.5-5-2.5
				c-3.7,0-6.3,2.8-6.3,6.5s2.6,6.5,6.3,6.5c2.3,0,4-1,5.2-2.6l1.3,0.9c-1.4,2-3.7,3.3-6.5,3.3C59.4,150.4,55.8,147.1,55.8,142.4z"
				/>
			<path class="st1" d="M71.1,146v-5.3h1.6v5.3c0,2,0.8,3.1,2.6,3.1c1.8,0,2.6-1.1,2.6-3.1v-5.3h1.6v5.3c0,2.8-1.7,4.4-4.2,4.4
				C72.7,150.4,71.1,148.8,71.1,146z"/>
			<path class="st1" d="M82.2,133.5h1.6v16.7h-1.6V133.5z"/>
			<path class="st1" d="M86.9,147.3V142h-1.5v-1.4h1.5v-5h1.6v5h2.7v1.4h-2.7v5.3c0,1.2,0.4,1.7,1.1,1.7c0.6,0,1-0.3,1.3-0.6l0.9,1
				c-0.4,0.4-1.2,1-2.4,1C88.1,150.4,86.9,149.6,86.9,147.3z"/>
			<path class="st1" d="M92.7,146v-5.3h1.6v5.3c0,2,0.8,3.1,2.6,3.1c1.9,0,2.6-1.1,2.6-3.1v-5.3h1.6v5.3c0,2.8-1.7,4.4-4.2,4.4
				C94.2,150.4,92.7,148.8,92.7,146z"/>
			<path class="st1" d="M103.6,140.6h1.6l-0.1,1.9c0.6-1.5,1.7-2.1,2.8-2.1c0.7,0,1.2,0.1,1.7,0.5l-0.6,1.4
				c-0.3-0.2-0.7-0.3-1.3-0.3c-1.4,0-2.5,1-2.5,3.2v5.1h-1.6V140.6L103.6,140.6z"/>
			<path class="st1" d="M110.3,145.4c0-2.8,2-5,4.6-5c1.8,0,3,0.9,3.7,2.3l-0.1-2.1h1.6v9.6h-1.6l0.1-2.1c-0.6,1.2-1.9,2.2-3.7,2.2
				C112.4,150.4,110.3,148.3,110.3,145.4z M118.6,145.4c0-2-1.3-3.5-3.3-3.5s-3.3,1.5-3.3,3.5s1.2,3.6,3.3,3.6
				C117.3,149,118.6,147.5,118.6,145.4z"/>
			<path class="st1" d="M122.8,133.5h1.6v16.7h-1.6V133.5z"/>
			<path class="st1" d="M126.7,134.4h1.8l4.3,10.7c0.3,0.8,0.7,2.2,0.7,2.2s0.3-1.3,0.7-2.2l4.3-10.7h1.7l-6.5,15.9h-0.3
				L126.7,134.4z"/>
			<path class="st1" d="M140.2,140.6h1.6v9.6h-1.6V140.6z"/>
			<path class="st1" d="M143.3,148.2l1.2-0.7c0.6,0.9,1.4,1.6,2.8,1.6c1.3,0,2-0.6,2-1.5c0-1-0.8-1.2-2.5-1.7
				c-1.5-0.4-2.9-1-2.9-2.8c0-1.7,1.4-2.6,3.1-2.6c1.5,0,2.5,0.6,3.2,1.5l-1.1,0.8c-0.5-0.7-1.2-1.1-2.1-1.1c-1,0-1.7,0.5-1.7,1.2
				c0,0.9,0.6,1.2,2.3,1.7c1.6,0.4,3.2,1.1,3.2,2.9c0,1.6-1.1,2.8-3.5,2.8C145.3,150.4,143.9,149.4,143.3,148.2z"/>
			<path class="st1" d="M153.3,147.3V142h-1.5v-1.4h1.5v-5h1.6v5h2.7v1.4h-2.7v5.3c0,1.2,0.4,1.7,1.1,1.7c0.6,0,1-0.3,1.3-0.6l0.9,1
				c-0.4,0.4-1.2,1-2.4,1C154.4,150.4,153.3,149.6,153.3,147.3z"/>
			<path class="st1" d="M159,145.4c0-2.8,2-5,4.6-5c1.8,0,3,0.9,3.7,2.3l-0.1-2.1h1.6v9.6h-1.6l0.1-2.1c-0.6,1.2-1.9,2.2-3.7,2.2
				C161,150.4,159,148.3,159,145.4z M167.2,145.4c0-2-1.3-3.5-3.3-3.5s-3.3,1.5-3.3,3.5s1.2,3.6,3.3,3.6
				C165.9,149,167.2,147.5,167.2,145.4z"/>
			<path class="st1" d="M170,148.2l1.2-0.7c0.6,0.9,1.4,1.6,2.8,1.6c1.3,0,2-0.6,2-1.5c0-1-0.8-1.2-2.5-1.7c-1.5-0.4-2.9-1-2.9-2.8
				c0-1.7,1.4-2.6,3.1-2.6c1.5,0,2.5,0.6,3.2,1.5l-1.1,0.8c-0.5-0.7-1.2-1.1-2.1-1.1c-1,0-1.7,0.5-1.7,1.2c0,0.9,0.6,1.2,2.3,1.7
				c1.6,0.4,3.2,1.1,3.2,2.9c0,1.6-1.1,2.8-3.5,2.8C172,150.4,170.6,149.4,170,148.2z"/>
			<g>
				<path class="st1" d="M184.9,148.7c0.1-0.2,0.2-0.3,0.3-0.5s0.3-0.2,0.5-0.3s0.3-0.1,0.6-0.1s0.4,0,0.6,0.1
					c0.2,0.1,0.3,0.1,0.5,0.3s0.3,0.3,0.3,0.5c0.1,0.2,0.1,0.3,0.1,0.6c0,0.2-0.1,0.4-0.1,0.6c-0.1,0.2-0.2,0.3-0.3,0.5
					c-0.1,0.1-0.3,0.2-0.5,0.3s-0.3,0.1-0.6,0.1s-0.4,0-0.6-0.1c-0.2-0.1-0.3-0.1-0.5-0.3c-0.1-0.1-0.3-0.3-0.3-0.5
					c-0.1-0.2-0.1-0.3-0.1-0.6C184.9,149,184.9,148.8,184.9,148.7z M185.3,149.7c0.1,0.1,0.1,0.3,0.2,0.3c0.1,0.1,0.2,0.2,0.3,0.2
					c0.1,0.1,0.3,0.1,0.4,0.1c0.1,0,0.3,0,0.4-0.1c0.1-0.1,0.3-0.1,0.3-0.2c0.1-0.1,0.2-0.2,0.2-0.3c0.1-0.1,0.1-0.3,0.1-0.5
					c0-0.1,0-0.3-0.1-0.5c-0.1-0.1-0.1-0.3-0.2-0.3c-0.1-0.1-0.2-0.2-0.3-0.2c-0.1-0.1-0.3-0.1-0.4-0.1s-0.3,0-0.4,0.1
					c-0.1,0.1-0.3,0.1-0.3,0.2c-0.1,0.1-0.2,0.2-0.2,0.3c-0.1,0.1-0.1,0.3-0.1,0.5S185.3,149.6,185.3,149.7z M186.4,148.5
					c0.2,0,0.3,0.1,0.5,0.1c0.1,0.1,0.1,0.2,0.1,0.3s0,0.1,0,0.2c0,0.1-0.1,0.1-0.1,0.1c-0.1,0-0.1,0.1-0.1,0.1c-0.1,0-0.1,0-0.1,0
					l0.4,0.7h-0.3l-0.4-0.7h-0.2v0.7h-0.3v-1.6L186.4,148.5L186.4,148.5L186.4,148.5z M186.3,149.1c0.1,0,0.1,0,0.2-0.1
					c0.1,0,0.1-0.1,0.1-0.2s0-0.1,0-0.1l-0.1-0.1h-0.1h-0.1H186v0.4L186.3,149.1L186.3,149.1L186.3,149.1z"/>
			</g>
		</g>
	</g>
</g>
</svg>
