<?xml version="1.0" encoding="utf-8"?>
<!-- Generator: Adobe Illustrator 21.1.0, SVG Export Plug-In . SVG Version: 6.00 Build 0)  -->
<svg version="1.1" id="Layer_1" xmlns="http://www.w3.org/2000/svg" xmlns:xlink="http://www.w3.org/1999/xlink" x="0px" y="0px"
	 viewBox="0 0 430 199.2" style="enable-background:new 0 0 430 199.2;" xml:space="preserve">
<style type="text/css">
	.st0{fill:#00ADEF;}
	.st1{fill:#F5F5F5;}
	.st2{enable-background:new    ;}
	.st3{fill:#FFFFFF;}
	.st4{fill:#86786F;}
</style>
<g>
	<g>
		<g>
			<g>
				<g>
					<path class="st0" d="M151.4,0v87.5l85.9-16.4C229.7,30.7,194.1,0,151.4,0L151.4,0L151.4,0z"/>
				</g>
			</g>
			<g>
				<g>
					<g>
						<path class="st1" d="M64.1,93.3c0.5,7.9,2.1,15.5,4.6,22.7l76.2-26.9L64.1,93.3z"/>
					</g>
				</g>
				<g>
					<g>
						<path class="st1" d="M149.6,86V0.1c-25.7,0.5-48.5,12-64.2,30L149.6,86z"/>
					</g>
				</g>
				<g>
					<g>
						<path class="st1" d="M144.4,91.2l-75.2,26.5c2.2,6,5,11.7,8.4,17L144.4,91.2z"/>
					</g>
				</g>
				<g>
					<g>
						<path class="st1" d="M144.2,87.3L67.5,62.6c-2.4,7.9-3.6,16.3-3.6,24.9c0,1.3,0,2.6,0.1,4L144.2,87.3z"/>
					</g>
				</g>
				<g>
					<g>
						<path class="st1" d="M147.3,86.4l-63.1-55C77,40.1,71.5,50,68,60.9L147.3,86.4z"/>
					</g>
				</g>
				<g>
					<g>
						<path class="st1" d="M237.7,72.9L150,89.6l-71.4,46.5C94.3,159.6,121,175,151.4,175c48.3,0,87.5-39.2,87.5-87.5
							C238.9,82.5,238.5,77.7,237.7,72.9z"/>
					</g>
				</g>
			</g>
		</g>
		<g class="st2">
			<g>
				<path class="st3" d="M172.2,57.4V56c4.6-5.3,6.2-7,6.2-9.1c0-1.5-1.1-2.3-2.3-2.3c-1.3,0-2.3,0.7-3,1.8l-1.1-1
					c0.9-1.4,2.3-2.3,4.1-2.3c2.2,0,3.9,1.4,3.9,3.8c0,2.4-1.8,4.5-5.5,8.9h5.6v1.5L172.2,57.4L172.2,57.4z"/>
			</g>
			<g>
				<path class="st3" d="M182.3,53.9c0-1.9,1.4-3.3,2.8-3.8c-1.3-0.5-2.6-1.6-2.6-3.4c0-2.4,1.9-3.6,4-3.6c2,0,4,1.1,4,3.6
					c0,1.8-1.3,3-2.6,3.4c1.4,0.5,2.8,1.9,2.8,3.8c0,2.3-1.7,3.7-4.2,3.7C184,57.6,182.3,56.2,182.3,53.9z M189,53.7
					c0-1.9-1.9-2.8-2.5-2.9c-0.6,0.1-2.5,1-2.5,2.9c0,1.5,1.1,2.4,2.5,2.4C187.8,56.1,189,55.2,189,53.7z M188.8,46.9
					c0-1.4-0.9-2.3-2.3-2.3c-1.4,0-2.3,0.9-2.3,2.3c0,1.7,1.8,2.4,2.3,2.6C187,49.3,188.8,48.6,188.8,46.9z"/>
			</g>
			<g>
				<path class="st3" d="M192.2,46.6c0-2,1.2-3.5,3-3.5s3,1.5,3,3.5s-1.2,3.5-3,3.5C193.4,50,192.2,48.5,192.2,46.6z M197,46.6
					c0-1.4-0.7-2.4-1.8-2.4s-1.8,1.1-1.8,2.4c0,1.3,0.7,2.4,1.8,2.4S197,47.9,197,46.6z M194.3,57.4l7.4-14.1h1l-7.4,14.1H194.3z
					 M198.8,54.2c0-2,1.2-3.5,3-3.5s3,1.5,3,3.5s-1.2,3.4-3,3.4C199.9,57.6,198.8,56.2,198.8,54.2z M203.5,54.2
					c0-1.4-0.7-2.5-1.8-2.5s-1.8,1.1-1.8,2.5c0,1.3,0.7,2.4,1.8,2.4S203.5,55.5,203.5,54.2z"/>
			</g>
		</g>
	</g>
	<g class="st2">
		<g>
			<path class="st4" d="M120.2,23.8v-0.7c-0.4,0.6-1.1,0.9-1.8,0.9c-1.1,0-2.1-0.9-2.1-2.3c0-1.5,1-2.3,2.1-2.3
				c0.7,0,1.4,0.3,1.8,0.9v-1.2c0-1-0.5-1.5-1.4-1.5c-0.6,0-1.2,0.2-1.7,0.8l-0.5-0.7c0.7-0.7,1.5-1,2.4-1c1.4,0,2.3,0.7,2.3,2.3
				v4.9L120.2,23.8L120.2,23.8z M120.2,22.4V21c-0.3-0.6-0.9-0.9-1.5-0.9c-0.9,0-1.4,0.7-1.4,1.5c0,0.9,0.5,1.6,1.4,1.6
				C119.3,23.2,119.9,22.9,120.2,22.4z"/>
		</g>
	</g>
	<g class="st2">
		<g>
			<path class="st4" d="M85.8,57.2v-9.6h1v3.7c0.4-0.8,1.1-1.2,1.8-1.2c1.6,0,2.5,1.5,2.5,3.7s-0.9,3.6-2.5,3.6
				c-0.7,0-1.4-0.5-1.8-1.2v1C86.8,57.2,85.8,57.2,85.8,57.2z M88.4,56.5c1.1,0,1.7-1.2,1.7-2.7s-0.5-2.7-1.7-2.7
				c-0.6,0-1.3,0.5-1.6,1.2v3.2C87.1,56,87.7,56.5,88.4,56.5z"/>
		</g>
	</g>
	<g class="st2">
		<g>
			<path class="st4" d="M76.9,79.2c0-2.1,1.1-3.6,2.9-3.6c1,0,1.6,0.4,2,0.9l-0.6,0.7c-0.4-0.5-0.8-0.7-1.3-0.7
				c-1.2,0-1.9,1.2-1.9,2.7s0.6,2.7,1.9,2.7c0.5,0,1-0.2,1.3-0.7l0.6,0.7c-0.4,0.5-1,0.9-2,0.9C78,82.9,76.9,81.3,76.9,79.2z"/>
		</g>
	</g>
	<g class="st2">
		<g>
			<path class="st4" d="M81.5,105.3v-1c-0.4,0.7-1.1,1.2-1.8,1.2c-1.6,0-2.5-1.5-2.5-3.6c0-2.2,0.9-3.7,2.5-3.7
				c0.7,0,1.4,0.4,1.8,1.2v-3.7h1v9.6H81.5z M81.5,103.4v-3.2c-0.3-0.6-0.9-1.1-1.6-1.1c-1.1,0-1.7,1.2-1.7,2.7s0.5,2.7,1.7,2.7
				C80.6,104.6,81.2,104.1,81.5,103.4z"/>
		</g>
	</g>
	<g class="st2">
		<g>
			<path class="st4" d="M84,119.4c0-2,1.1-3.6,2.8-3.6c1.8,0,2.8,1.6,2.8,3.7v0.3h-4.5c0,1.4,0.8,2.4,2,2.4c0.6,0,1.2-0.3,1.7-0.8
				l0.5,0.6c-0.6,0.7-1.4,1.1-2.3,1.1C85.2,123.1,84,121.5,84,119.4z M86.8,116.6c-1.2,0-1.7,1.3-1.7,2.4h3.5
				C88.6,117.9,88.1,116.6,86.8,116.6z"/>
		</g>
	</g>
	<g class="st2">
		<g>
			<path class="st4" d="M152.7,124c0-2.8,1.3-5,3.6-5c2.3,0,3.6,2.2,3.6,5s-1.3,5-3.6,5C154,128.9,152.7,126.7,152.7,124z
				 M158.8,124c0-2.2-0.9-3.9-2.5-3.9s-2.4,1.7-2.4,3.9c0,2.2,0.9,3.9,2.4,3.9C157.9,127.9,158.8,126.1,158.8,124z"/>
		</g>
		<g>
			<path class="st4" d="M161.8,127.4v-4.7h-0.9v-0.9h0.9v-1.9h1v1.9h1.2v0.9h-1.2v4.5c0,0.5,0.2,0.8,0.6,0.8c0.3,0,0.5-0.1,0.6-0.3
				l0.3,0.8c-0.2,0.2-0.6,0.4-1.1,0.4C162.2,128.9,161.8,128.4,161.8,127.4z"/>
		</g>
		<g>
			<path class="st4" d="M169.1,128.8v-5c0-0.9-0.4-1.2-1.1-1.2c-0.7,0-1.3,0.5-1.6,1.1v5.1h-1v-9.6h1v3.6c0.4-0.6,1.2-1.2,2-1.2
				c1.2,0,1.7,0.6,1.7,1.9v5.3H169.1z"/>
		</g>
		<g>
			<path class="st4" d="M171.7,125.3c0-2,1.1-3.6,2.8-3.6c1.8,0,2.8,1.6,2.8,3.7v0.3h-4.5c0,1.4,0.8,2.4,2,2.4
				c0.6,0,1.2-0.3,1.7-0.8l0.5,0.6c-0.6,0.7-1.4,1.1-2.3,1.1C172.8,128.9,171.7,127.4,171.7,125.3z M174.5,122.5
				c-1.2,0-1.7,1.3-1.7,2.4h3.5C176.2,123.8,175.8,122.5,174.5,122.5z"/>
		</g>
		<g>
			<path class="st4" d="M178.8,128.8v-7h1v1.1c0.4-0.7,1.1-1.3,2-1.3v1.1c-0.1,0-0.2,0-0.3,0c-0.6,0-1.3,0.6-1.6,1.1v4.9h-1.1
				L178.8,128.8L178.8,128.8z"/>
		</g>
		<g>
			<path class="st4" d="M182.4,127.9l0.5-0.7c0.4,0.5,1.1,0.9,1.8,0.9c0.8,0,1.3-0.5,1.3-1.1c0-0.7-0.7-1-1.5-1.3
				c-1-0.4-2-0.8-2-2.1c0-1,0.8-1.9,2.2-1.9c0.9,0,1.6,0.4,2.1,0.9l-0.5,0.7c-0.3-0.5-0.9-0.8-1.6-0.8c-0.8,0-1.2,0.4-1.2,1
				s0.6,0.9,1.4,1.2c1,0.4,2.1,0.8,2.1,2.2c0,1.2-0.9,2-2.3,2C183.8,128.9,183,128.6,182.4,127.9z"/>
		</g>
	</g>
	<g class="st2">
		<path class="st4" d="M257.7,98.5v-0.9c-0.5,0.7-1.3,1.1-2.2,1.1c-1.3,0-2.5-1-2.5-2.7s1.1-2.7,2.5-2.7c0.8,0,1.6,0.3,2.2,1.1V93
			c0-1.1-0.6-1.8-1.7-1.8c-0.8,0-1.4,0.3-2.1,1l-0.5-0.9c0.8-0.8,1.8-1.2,2.8-1.2c1.6,0,2.7,0.8,2.7,2.7v5.7
			C258.9,98.5,257.7,98.5,257.7,98.5z M257.7,96.8v-1.6c-0.4-0.7-1.1-1.1-1.8-1.1c-1,0-1.6,0.8-1.6,1.8s0.6,1.8,1.6,1.8
			C256.7,97.8,257.4,97.5,257.7,96.8z"/>
		<path class="st4" d="M261.1,97.8c0-0.5,0.4-0.9,0.9-0.9s0.9,0.4,0.9,0.9s-0.4,0.9-0.9,0.9S261.1,98.3,261.1,97.8z"/>
		<path class="st4" d="M270.4,98.5v-9.6l-1.8,1.9l-0.8-0.8l2.7-2.8h1.2v11.3H270.4z"/>
		<path class="st4" d="M277.8,98.5v-2.9h-4.5v-1.2l4.1-7.3h1.7v7.2h1.2v1.2h-1.2v2.9h-1.3V98.5L277.8,98.5z M277.8,88.6l-3.2,5.8
			h3.2V88.6z"/>
		<path class="st4" d="M281.3,89.8c0-1.6,1-2.8,2.4-2.8c1.4,0,2.4,1.2,2.4,2.8c0,1.6-1,2.8-2.4,2.8
			C282.3,92.6,281.3,91.4,281.3,89.8z M285.1,89.8c0-1.1-0.6-2-1.4-2c-0.9,0-1.4,0.8-1.4,2c0,1.1,0.6,2,1.4,2
			C284.6,91.8,285.1,90.9,285.1,89.8z M283,98.5l5.9-11.3h0.8l-6,11.3H283z M286.6,95.9c0-1.6,1-2.8,2.4-2.8s2.4,1.2,2.4,2.8
			c0,1.6-1,2.8-2.4,2.8C287.5,98.7,286.6,97.5,286.6,95.9z M290.4,95.9c0-1.1-0.6-2-1.4-2s-1.4,0.9-1.4,2s0.6,1.9,1.4,1.9
			S290.4,97,290.4,95.9z"/>
		<path class="st4" d="M296.3,92.8c0-3.5,1.8-5.9,4.4-5.9c1.7,0,2.7,0.9,3.4,2.1l-1.1,0.6c-0.5-0.9-1.2-1.5-2.3-1.5
			c-1.8,0-3,1.9-3,4.7c0,2.8,1.2,4.7,3,4.7c1,0,1.7-0.5,2.1-1v-2.7h-2.7v-1.2h4V97c-0.8,1-2,1.7-3.4,1.7
			C298.1,98.7,296.3,96.3,296.3,92.8z"/>
		<path class="st4" d="M305.8,94.4c0-2.4,1.3-4.3,3.3-4.3c2.2,0,3.2,1.9,3.2,4.3v0.4H307c0.1,1.6,0.9,2.9,2.4,2.9c0.7,0,1.4-0.4,2-1
			l0.6,0.7c-0.7,0.8-1.6,1.3-2.7,1.3C307.1,98.7,305.8,96.9,305.8,94.4z M309.1,91.1c-1.4,0-2,1.6-2.1,2.8h4.1
			C311.1,92.6,310.6,91.1,309.1,91.1z"/>
		<path class="st4" d="M314.2,98.5v-8.2h1.2v1.3c0.5-0.9,1.3-1.5,2.3-1.5v1.3c-0.1,0-0.3-0.1-0.4-0.1c-0.7,0-1.6,0.7-1.9,1.3v5.8
			L314.2,98.5L314.2,98.5z"/>
		<path class="st4" d="M327.4,98.5v-5.9c0-0.9-0.4-1.4-1.1-1.4s-1.5,0.6-1.8,1.3v6h-1.2v-5.9c0-0.9-0.4-1.4-1.2-1.4
			c-0.7,0-1.4,0.6-1.8,1.3v6h-1.2v-8.2h1.2v1.2c0.3-0.6,1.3-1.4,2.2-1.4c1.1,0,1.7,0.6,1.9,1.5c0.4-0.7,1.3-1.5,2.3-1.5
			c1.2,0,1.9,0.7,1.9,2.1v6.3H327.4z"/>
		<path class="st4" d="M335.1,98.5v-0.9c-0.5,0.7-1.3,1.1-2.2,1.1c-1.3,0-2.5-1-2.5-2.7s1.1-2.7,2.5-2.7c0.8,0,1.6,0.3,2.2,1.1V93
			c0-1.1-0.6-1.8-1.7-1.8c-0.8,0-1.4,0.3-2.1,1l-0.5-0.9c0.8-0.8,1.8-1.2,2.8-1.2c1.6,0,2.7,0.8,2.7,2.7v5.7
			C336.3,98.5,335.1,98.5,335.1,98.5z M335.1,96.8v-1.6c-0.4-0.7-1.1-1.1-1.8-1.1c-1,0-1.6,0.8-1.6,1.8s0.6,1.8,1.6,1.8
			C334,97.8,334.7,97.5,335.1,96.8z"/>
		<path class="st4" d="M343,98.5v-5.8c0-1.1-0.5-1.5-1.3-1.5s-1.5,0.6-1.9,1.3v6h-1.2v-8.2h1.2v1.2c0.5-0.7,1.4-1.4,2.4-1.4
			c1.4,0,2.1,0.7,2.1,2.2v6.2C344.3,98.5,343,98.5,343,98.5z"/>
		<path class="st4" d="M346.2,100.6c0.2,0.1,0.4,0.1,0.5,0.1c0.5,0,0.7-0.2,1-0.8l0.4-1.3l-2.7-8.4h1.3l2,6.7l2.1-6.7h1.3l-3.3,9.9
			c-0.4,1.2-1.1,1.6-2,1.6c-0.3,0-0.6-0.1-0.8-0.1L346.2,100.6z"/>
		<path class="st4" d="M253.5,118.9v-11.3h1.2v4.3c0.5-0.9,1.3-1.4,2.2-1.4c1.9,0,2.9,1.8,2.9,4.3c0,2.6-1.1,4.3-2.9,4.3
			c-0.9,0-1.7-0.5-2.2-1.4v1.2H253.5z M256.6,118c1.3,0,2-1.4,2-3.2c0-1.8-0.6-3.2-2-3.2c-0.8,0-1.5,0.6-1.9,1.4v3.8
			C255,117.4,255.8,118,256.6,118z"/>
		<path class="st4" d="M261.5,118.2c0-0.5,0.4-0.9,0.9-0.9s0.9,0.4,0.9,0.9s-0.4,0.9-0.9,0.9S261.5,118.7,261.5,118.2z"/>
		<path class="st4" d="M269.6,118.9l3.6-10.1h-4.8v-1.2h6.3v0.9l-3.6,10.4C271.1,118.9,269.6,118.9,269.6,118.9z"/>
		<path class="st4" d="M275.6,110.2c0-1.6,1-2.8,2.4-2.8s2.4,1.2,2.4,2.8c0,1.6-1,2.8-2.4,2.8S275.6,111.8,275.6,110.2z
			 M279.5,110.2c0-1.1-0.6-2-1.4-2c-0.9,0-1.4,0.8-1.4,2c0,1.1,0.6,2,1.4,2S279.5,111.3,279.5,110.2z M277.3,118.9l5.9-11.3h0.8
			l-6,11.3H277.3z M280.9,116.3c0-1.6,1-2.8,2.4-2.8s2.4,1.2,2.4,2.8c0,1.6-1,2.8-2.4,2.8C281.9,119.1,280.9,117.9,280.9,116.3z
			 M284.7,116.3c0-1.1-0.6-2-1.4-2s-1.4,0.9-1.4,2s0.6,1.9,1.4,1.9S284.7,117.4,284.7,116.3z"/>
		<path class="st4" d="M290,118.1l0.6-1.1c0.4,0.5,1,0.9,1.7,0.9c1.1,0,1.8-0.7,1.8-1.9v-8.4h1.3v8.4c0,2.1-1.3,3.1-3,3.1
			C291.5,119.1,290.7,118.8,290,118.1z"/>
		<path class="st4" d="M302,118.9V118c-0.5,0.7-1.3,1.1-2.2,1.1c-1.3,0-2.5-1-2.5-2.7s1.1-2.7,2.5-2.7c0.8,0,1.6,0.3,2.2,1.1v-1.4
			c0-1.1-0.6-1.8-1.7-1.8c-0.8,0-1.4,0.3-2.1,1l-0.5-0.9c0.8-0.8,1.8-1.2,2.8-1.2c1.6,0,2.7,0.8,2.7,2.7v5.7
			C303.2,118.9,302,118.9,302,118.9z M302,117.2v-1.6c-0.4-0.7-1.1-1.1-1.8-1.1c-1,0-1.6,0.8-1.6,1.8s0.6,1.8,1.6,1.8
			C300.9,118.2,301.6,117.9,302,117.2z"/>
		<path class="st4" d="M306.6,117.7v4.3h-1.2v-11.3h1.2v1.2c0.5-0.8,1.3-1.4,2.2-1.4c1.9,0,2.9,1.7,2.9,4.3c0,2.6-1.1,4.3-2.9,4.3
			C307.9,119.1,307.1,118.6,306.6,117.7z M310.4,114.8c0-1.8-0.6-3.2-2-3.2c-0.8,0-1.5,0.6-1.9,1.3v3.8c0.3,0.7,1.1,1.4,1.9,1.4
			C309.8,118,310.4,116.6,310.4,114.8z"/>
		<path class="st4" d="M317.8,118.9V118c-0.5,0.7-1.3,1.1-2.2,1.1c-1.3,0-2.5-1-2.5-2.7s1.1-2.7,2.5-2.7c0.8,0,1.6,0.3,2.2,1.1v-1.4
			c0-1.1-0.6-1.8-1.7-1.8c-0.8,0-1.4,0.3-2.1,1l-0.5-0.9c0.8-0.8,1.8-1.2,2.8-1.2c1.6,0,2.7,0.8,2.7,2.7v5.7
			C319,118.9,317.8,118.9,317.8,118.9z M317.8,117.2v-1.6c-0.4-0.7-1.1-1.1-1.8-1.1c-1,0-1.6,0.8-1.6,1.8s0.6,1.8,1.6,1.8
			C316.7,118.2,317.4,117.9,317.8,117.2z"/>
		<path class="st4" d="M325.6,118.9v-5.8c0-1.1-0.5-1.5-1.3-1.5s-1.5,0.6-1.9,1.3v6h-1.2v-8.2h1.2v1.2c0.5-0.7,1.4-1.4,2.4-1.4
			c1.4,0,2.1,0.7,2.1,2.2v6.2C326.9,118.9,325.6,118.9,325.6,118.9z"/>
		<path class="st4" d="M253.1,135.2c0-2.4,1.3-4.3,3.4-4.3c1.1,0,1.8,0.5,2.3,1.1l-0.7,0.8c-0.4-0.6-1-0.8-1.6-0.8
			c-1.5,0-2.2,1.5-2.2,3.2s0.8,3.2,2.2,3.2c0.6,0,1.1-0.3,1.6-0.8l0.7,0.8c-0.5,0.6-1.2,1.1-2.3,1.1
			C254.4,139.5,253.1,137.6,253.1,135.2z"/>
		<path class="st4" d="M260.3,138.6c0-0.5,0.4-0.9,0.9-0.9s0.9,0.4,0.9,0.9s-0.4,0.9-0.9,0.9S260.3,139.1,260.3,138.6z"/>
		<path class="st4" d="M267.6,133.6c0-3,1.1-5.8,3.8-5.8c1.2,0,2.1,0.6,2.7,1.4l-0.7,1c-0.4-0.7-1-1.2-1.9-1.2
			c-1.8,0-2.5,2.4-2.5,4.5c0,0.2,0,0.2,0,0.3c0.4-0.8,1.3-1.7,2.5-1.7c1.6,0,3,1.2,3,3.6c0,1.9-1.2,3.7-3.3,3.7
			C268.5,139.5,267.6,136.7,267.6,133.6z M273.1,135.8c0-1.8-0.9-2.5-1.9-2.5s-1.7,0.8-2.1,1.7c0.1,1.3,0.5,3.2,2.1,3.2
			C272.5,138.3,273.1,137,273.1,135.8z"/>
		<path class="st4" d="M275.7,130.6c0-1.6,1-2.8,2.4-2.8c1.4,0,2.4,1.2,2.4,2.8s-1,2.8-2.4,2.8C276.7,133.4,275.7,132.2,275.7,130.6
			z M279.5,130.6c0-1.1-0.6-2-1.4-2c-0.9,0-1.4,0.8-1.4,2c0,1.1,0.6,2,1.4,2C279,132.6,279.5,131.7,279.5,130.6z M277.4,139.3
			l5.9-11.3h0.8l-6,11.3H277.4z M281,136.7c0-1.6,1-2.8,2.4-2.8s2.4,1.2,2.4,2.8s-1,2.8-2.4,2.8C281.9,139.5,281,138.3,281,136.7z
			 M284.8,136.7c0-1.1-0.6-2-1.4-2s-1.4,0.9-1.4,2s0.6,1.9,1.4,1.9S284.8,137.8,284.8,136.7z"/>
		<path class="st4" d="M290.7,133.6c0-3.4,1.7-5.9,4.4-5.9c1.7,0,2.7,1,3.3,2.2l-1.1,0.5c-0.5-0.9-1.2-1.5-2.2-1.5c-1.8,0-3,2-3,4.7
			s1.2,4.7,3,4.7c1,0,1.8-0.7,2.2-1.7l1.1,0.5c-0.6,1.3-1.6,2.4-3.3,2.4C292.4,139.5,290.7,137,290.7,133.6z"/>
		<path class="st4" d="M304.5,139.3v-5.9c0-1.1-0.5-1.5-1.3-1.5s-1.5,0.6-1.9,1.3v6h-1.2V128h1.2v4.3c0.5-0.7,1.4-1.4,2.4-1.4
			c1.4,0,2.1,0.7,2.1,2.2v6.2H304.5z"/>
		<path class="st4" d="M307.8,129.1c0-0.5,0.4-0.8,0.8-0.8c0.5,0,0.8,0.4,0.8,0.8s-0.4,0.8-0.8,0.8
			C308.2,129.9,307.8,129.5,307.8,129.1z M308,139.3v-8.2h1.2v8.2H308z"/>
		<path class="st4" d="M315.9,139.3v-5.8c0-1.1-0.5-1.5-1.3-1.5s-1.5,0.6-1.9,1.3v6h-1.2v-8.2h1.2v1.2c0.5-0.7,1.4-1.4,2.4-1.4
			c1.4,0,2.1,0.7,2.1,2.2v6.2H315.9z"/>
		<path class="st4" d="M323.6,139.3v-0.9c-0.5,0.7-1.3,1.1-2.2,1.1c-1.3,0-2.5-1-2.5-2.7s1.1-2.7,2.5-2.7c0.8,0,1.6,0.3,2.2,1.1
			v-1.4c0-1.1-0.6-1.8-1.7-1.8c-0.8,0-1.4,0.3-2.1,1l-0.5-0.9c0.8-0.8,1.8-1.2,2.8-1.2c1.6,0,2.7,0.8,2.7,2.7v5.7L323.6,139.3
			L323.6,139.3z M323.6,137.6V136c-0.4-0.7-1.1-1.1-1.8-1.1c-1,0-1.6,0.8-1.6,1.8s0.6,1.8,1.6,1.8
			C322.5,138.6,323.2,138.3,323.6,137.6z"/>
		<path class="st4" d="M258.2,159.7v-1.2c-0.5,0.8-1.3,1.4-2.2,1.4c-1.8,0-2.9-1.7-2.9-4.3c0-2.5,1.1-4.3,2.9-4.3
			c0.8,0,1.7,0.5,2.2,1.4v-4.3h1.2v11.3L258.2,159.7L258.2,159.7z M258.2,157.5v-3.8c-0.3-0.7-1.1-1.3-1.9-1.3c-1.3,0-2,1.4-2,3.2
			s0.6,3.2,2,3.2C257.1,158.8,257.9,158.2,258.2,157.5z"/>
		<path class="st4" d="M261.6,159c0-0.5,0.4-0.9,0.9-0.9s0.9,0.4,0.9,0.9s-0.4,0.9-0.9,0.9S261.6,159.5,261.6,159z"/>
		<path class="st4" d="M269,158.1l0.9-0.8c0.5,0.9,1.3,1.5,2.4,1.5c1.2,0,2-1.1,2-2.5c0-1.6-0.8-2.5-1.9-2.5c-0.8,0-1.4,0.3-2.1,1.1
			l-1-0.3v-6.1h5.8v1.2h-4.5v4c0.4-0.5,1.2-1,2.1-1c1.6,0,2.9,1.3,2.9,3.7c0,2.1-1.4,3.7-3.4,3.7C270.6,159.9,269.7,159.2,269,158.1
			z"/>
		<path class="st4" d="M276.9,151c0-1.6,1-2.8,2.4-2.8s2.4,1.2,2.4,2.8s-1,2.8-2.4,2.8S276.9,152.6,276.9,151z M280.8,151
			c0-1.1-0.6-2-1.4-2c-0.9,0-1.4,0.8-1.4,2c0,1.1,0.6,2,1.4,2S280.8,152.1,280.8,151z M278.6,159.7l5.9-11.3h0.8l-6,11.3H278.6z
			 M282.2,157.1c0-1.6,1-2.8,2.4-2.8c1.4,0,2.4,1.2,2.4,2.8s-1,2.8-2.4,2.8C283.1,159.9,282.2,158.7,282.2,157.1z M286,157.1
			c0-1.1-0.6-2-1.4-2s-1.4,0.9-1.4,2s0.6,1.9,1.4,1.9S286,158.2,286,157.1z"/>
		<path class="st4" d="M292.3,159.7v-11.3h5.8v1.2h-4.5v3.8h4.4v1.2h-4.4v5.2L292.3,159.7L292.3,159.7z"/>
		<path class="st4" d="M299.9,159.7v-8.2h1.2v1.3c0.5-0.9,1.3-1.5,2.3-1.5v1.3c-0.1,0-0.3-0.1-0.4-0.1c-0.7,0-1.6,0.7-1.9,1.3v5.8
			L299.9,159.7L299.9,159.7z"/>
		<path class="st4" d="M309.1,159.7v-0.9c-0.5,0.7-1.3,1.1-2.2,1.1c-1.3,0-2.5-1-2.5-2.7s1.1-2.7,2.5-2.7c0.8,0,1.6,0.3,2.2,1.1
			v-1.4c0-1.1-0.6-1.8-1.7-1.8c-0.8,0-1.4,0.3-2.1,1l-0.5-0.9c0.8-0.8,1.8-1.2,2.8-1.2c1.6,0,2.7,0.8,2.7,2.7v5.7L309.1,159.7
			L309.1,159.7z M309.1,158v-1.6c-0.4-0.7-1.1-1.1-1.8-1.1c-1,0-1.6,0.8-1.6,1.8s0.6,1.8,1.6,1.8C308.1,159,308.7,158.7,309.1,158z"
			/>
		<path class="st4" d="M317,159.7v-5.8c0-1.1-0.5-1.5-1.3-1.5s-1.5,0.6-1.9,1.3v6h-1.2v-8.2h1.2v1.2c0.5-0.7,1.4-1.4,2.4-1.4
			c1.4,0,2.1,0.7,2.1,2.2v6.2H317z"/>
		<path class="st4" d="M320.1,155.6c0-2.4,1.3-4.3,3.4-4.3c1.1,0,1.8,0.5,2.3,1.1l-0.7,0.8c-0.4-0.6-1-0.8-1.6-0.8
			c-1.5,0-2.2,1.5-2.2,3.2s0.8,3.2,2.2,3.2c0.6,0,1.1-0.3,1.6-0.8l0.7,0.8c-0.5,0.6-1.2,1.1-2.3,1.1
			C321.3,159.9,320.1,158,320.1,155.6z"/>
		<path class="st4" d="M327,155.6c0-2.4,1.3-4.3,3.3-4.3c2.2,0,3.2,1.9,3.2,4.3v0.4h-5.3c0.1,1.6,0.9,2.9,2.4,2.9c0.7,0,1.4-0.4,2-1
			l0.6,0.7c-0.7,0.8-1.6,1.3-2.7,1.3C328.3,159.9,327,158.1,327,155.6z M330.3,152.3c-1.4,0-2,1.6-2.1,2.8h4.1
			C332.3,153.8,331.8,152.3,330.3,152.3z"/>
		<path class="st4" d="M253.1,176c0-2.4,1.3-4.3,3.3-4.3c2.2,0,3.2,1.9,3.2,4.3v0.4h-5.3c0.1,1.6,0.9,2.9,2.4,2.9c0.7,0,1.4-0.4,2-1
			l0.6,0.7c-0.7,0.8-1.6,1.3-2.7,1.3C254.4,180.3,253.1,178.5,253.1,176z M256.4,172.7c-1.4,0-2,1.6-2.1,2.8h4.1
			C258.5,174.2,257.9,172.7,256.4,172.7z"/>
		<path class="st4" d="M261.3,179.4c0-0.5,0.4-0.9,0.9-0.9s0.9,0.4,0.9,0.9s-0.4,0.9-0.9,0.9S261.3,179.9,261.3,179.4z"/>
		<path class="st4" d="M272.7,180.1v-2.9h-4.5V176l4.1-7.3h1.7v7.2h1.2v1.2H274v2.9h-1.3V180.1z M272.7,170.2l-3.2,5.8h3.2V170.2z"
			/>
		<path class="st4" d="M276.2,171.4c0-1.6,1-2.8,2.4-2.8c1.4,0,2.4,1.2,2.4,2.8s-1,2.8-2.4,2.8C277.1,174.2,276.2,173,276.2,171.4z
			 M280,171.4c0-1.1-0.6-2-1.4-2c-0.9,0-1.4,0.8-1.4,2c0,1.1,0.6,2,1.4,2S280,172.5,280,171.4z M277.8,180.1l5.9-11.3h0.8l-6,11.3
			H277.8z M281.4,177.5c0-1.6,1-2.8,2.4-2.8s2.4,1.2,2.4,2.8s-1,2.8-2.4,2.8S281.4,179.1,281.4,177.5z M285.3,177.5
			c0-1.1-0.6-2-1.4-2s-1.4,0.9-1.4,2s0.6,1.9,1.4,1.9S285.3,178.6,285.3,177.5z"/>
		<path class="st4" d="M290.9,178.9l0.7-1c0.6,0.7,1.5,1.3,2.6,1.3c1.4,0,2.1-0.9,2.1-1.9c0-1.3-1.1-1.8-2.2-2.4
			c-1.4-0.6-2.9-1.3-2.9-3.3c0-1.7,1.4-3,3.2-3c1.3,0,2.3,0.4,3,1.2l-0.7,1c-0.6-0.7-1.4-1-2.3-1c-1,0-1.8,0.7-1.8,1.7
			c0,1.1,1,1.6,2.1,2.1c1.4,0.7,3,1.4,3,3.6c0,1.7-1.1,3.1-3.5,3.1C292.8,180.3,291.6,179.7,290.9,178.9z"/>
		<path class="st4" d="M299.1,176c0-2.3,1.2-4.3,3.3-4.3c2.2,0,3.3,2,3.3,4.3s-1.1,4.3-3.3,4.3S299.1,178.3,299.1,176z M304.5,176
			c0-1.6-0.6-3.2-2.1-3.2c-1.4,0-2.1,1.6-2.1,3.2c0,1.7,0.6,3.2,2.1,3.2S304.5,177.7,304.5,176z"/>
		<path class="st4" d="M312,180.1V179c-0.5,0.7-1.4,1.3-2.4,1.3c-1.4,0-2.1-0.7-2.1-2.2v-6.2h1.2v5.9c0,1.1,0.5,1.5,1.3,1.5
			s1.6-0.6,1.9-1.3v-6.1h1.2v8.2L312,180.1L312,180.1z"/>
		<path class="st4" d="M315.8,178.5V173h-1.1v-1.1h1.1v-2.2h1.2v2.2h1.4v1.1H317v5.3c0,0.6,0.2,1,0.7,1c0.3,0,0.6-0.1,0.7-0.3
			l0.4,0.9c-0.3,0.3-0.7,0.5-1.3,0.5C316.3,180.3,315.8,179.7,315.8,178.5z"/>
		<path class="st4" d="M324.4,180.1v-5.9c0-1.1-0.5-1.5-1.3-1.5s-1.5,0.6-1.9,1.3v6H320v-11.3h1.2v4.3c0.5-0.7,1.4-1.4,2.4-1.4
			c1.4,0,2.1,0.7,2.1,2.2v6.2L324.4,180.1L324.4,180.1z"/>
		<path class="st4" d="M337.2,180.1l-3.3-5l-0.9,1.4v3.6h-1.4v-11.3h1.4v5.9l4-5.9h1.6l-3.8,5.4l4.1,5.9L337.2,180.1L337.2,180.1z"
			/>
		<path class="st4" d="M339.2,176c0-2.3,1.2-4.3,3.3-4.3c2.2,0,3.3,2,3.3,4.3s-1.1,4.3-3.3,4.3C340.4,180.3,339.2,178.3,339.2,176z
			 M344.7,176c0-1.6-0.6-3.2-2.1-3.2c-1.4,0-2.1,1.6-2.1,3.2c0,1.7,0.6,3.2,2.1,3.2C344,179.2,344.7,177.7,344.7,176z"/>
		<path class="st4" d="M347.8,180.1v-8.2h1.2v1.3c0.5-0.9,1.3-1.5,2.3-1.5v1.3c-0.1,0-0.3-0.1-0.4-0.1c-0.7,0-1.6,0.7-1.9,1.3v5.8
			L347.8,180.1L347.8,180.1z"/>
		<path class="st4" d="M352.3,176c0-2.4,1.3-4.3,3.3-4.3c2.2,0,3.2,1.9,3.2,4.3v0.4h-5.2c0.1,1.6,0.9,2.9,2.4,2.9c0.7,0,1.4-0.4,2-1
			l0.6,0.7c-0.7,0.8-1.6,1.3-2.7,1.3C353.6,180.3,352.3,178.5,352.3,176z M355.6,172.7c-1.4,0-2,1.6-2.1,2.8h4.1
			C357.7,174.2,357.1,172.7,355.6,172.7z"/>
		<path class="st4" d="M364.9,180.1v-0.9c-0.5,0.7-1.3,1.1-2.2,1.1c-1.3,0-2.5-1-2.5-2.7s1.1-2.7,2.5-2.7c0.8,0,1.6,0.3,2.2,1.1
			v-1.4c0-1.1-0.6-1.8-1.7-1.8c-0.8,0-1.4,0.3-2.1,1l-0.5-0.9c0.8-0.8,1.8-1.2,2.8-1.2c1.6,0,2.7,0.8,2.7,2.7v5.7L364.9,180.1
			L364.9,180.1z M364.9,178.4v-1.6c-0.4-0.7-1.1-1.1-1.8-1.1c-1,0-1.6,0.8-1.6,1.8s0.6,1.8,1.6,1.8
			C363.8,179.4,364.5,179.1,364.9,178.4z"/>
	</g>
	<g>
		<polygon class="st0" points="266.7,24 266.7,47 253,57.9 344.1,57.9 344.1,24 		"/>
		<g class="st2">
			<g>
				<path class="st3" d="M276.8,41.3c0-4.2,2.1-7.3,5.5-7.3c2.1,0,3.4,1.3,4.1,2.7l-1.4,0.7c-0.6-1.1-1.5-1.9-2.7-1.9
					c-2.3,0-3.7,2.4-3.7,5.8c0,3.3,1.5,5.8,3.7,5.8c1.3,0,2.2-0.9,2.7-2.1l1.4,0.7c-0.8,1.6-2,2.9-4.2,2.9
					C278.9,48.5,276.8,45.5,276.8,41.3z"/>
			</g>
			<g>
				<path class="st3" d="M293.7,48.3v-1.1c-0.7,0.9-1.6,1.3-2.7,1.3c-1.6,0-3.1-1.3-3.1-3.4c0-2.1,1.4-3.4,3.1-3.4
					c1,0,2,0.4,2.7,1.3v-1.8c0-1.4-0.8-2.2-2.1-2.2c-0.9,0-1.8,0.4-2.6,1.2l-0.7-1.1c1-1,2.2-1.5,3.5-1.5c2,0,3.4,1,3.4,3.3V48h-1.5
					L293.7,48.3L293.7,48.3z M293.7,46.1v-1.9c-0.5-0.9-1.3-1.3-2.2-1.3c-1.3,0-2,1-2,2.3s0.8,2.3,2,2.3
					C292.3,47.4,293.2,47,293.7,46.1z"/>
			</g>
			<g>
				<path class="st3" d="M303.4,48.3V41c0-1.3-0.6-1.8-1.6-1.8s-1.9,0.8-2.4,1.6v7.5h-1.5V38.1h1.5v1.5c0.6-0.9,1.7-1.7,3-1.7
					c1.7,0,2.6,0.9,2.6,2.8v7.7L303.4,48.3L303.4,48.3z"/>
			</g>
			<g>
				<path class="st3" d="M313,48.3v-1.1c-0.7,0.9-1.6,1.3-2.7,1.3c-1.6,0-3.1-1.3-3.1-3.4c0-2.1,1.4-3.4,3.1-3.4c1,0,2,0.4,2.7,1.3
					v-1.8c0-1.4-0.8-2.2-2.1-2.2c-0.9,0-1.8,0.4-2.6,1.2l-0.7-1.1c1-1,2.2-1.5,3.5-1.5c2,0,3.4,1,3.4,3.3V48H313V48.3L313,48.3z
					 M313,46.1v-1.9c-0.5-0.9-1.3-1.3-2.2-1.3c-1.3,0-2,1-2,2.3s0.8,2.3,2,2.3C311.7,47.4,312.5,47,313,46.1z"/>
			</g>
			<g>
				<path class="st3" d="M323.1,48.3v-1.5c-0.6,1-1.6,1.7-2.7,1.7c-2.3,0-3.6-2.1-3.6-5.3s1.3-5.4,3.6-5.4c1,0,2.1,0.6,2.7,1.7v-5.4
					h1.5v14.1L323.1,48.3L323.1,48.3z M323.1,45.5v-4.6c-0.4-0.9-1.3-1.7-2.3-1.7c-1.7,0-2.4,1.8-2.4,4s0.8,4,2.4,4
					C321.7,47.2,322.7,46.4,323.1,45.5z"/>
			</g>
			<g>
				<path class="st3" d="M332.6,48.3v-1.1c-0.7,0.9-1.6,1.3-2.7,1.3c-1.6,0-3.1-1.3-3.1-3.4c0-2.1,1.4-3.4,3.1-3.4
					c1,0,2,0.4,2.7,1.3v-1.8c0-1.4-0.8-2.2-2.1-2.2c-0.9,0-1.8,0.4-2.6,1.2l-0.7-1.1c1-1,2.2-1.5,3.5-1.5c2,0,3.4,1,3.4,3.3V48h-1.5
					L332.6,48.3L332.6,48.3z M332.6,46.1v-1.9c-0.5-0.9-1.3-1.3-2.2-1.3c-1.3,0-2,1-2,2.3s0.8,2.3,2,2.3
					C331.3,47.4,332.1,47,332.6,46.1z"/>
			</g>
		</g>
	</g>
</g>
</svg>
