<?xml version="1.0" encoding="utf-8"?>
<!-- Generator: Adobe Illustrator 21.1.0, SVG Export Plug-In . SVG Version: 6.00 Build 0)  -->
<svg version="1.1" id="Layer_1" xmlns="http://www.w3.org/2000/svg" xmlns:xlink="http://www.w3.org/1999/xlink" x="0px" y="0px"
	 viewBox="0 0 430 218.4" style="enable-background:new 0 0 430 218.4;" xml:space="preserve">
<style type="text/css">
	.st0{enable-background:new    ;}
	.st1{fill:#82786F;}
	.st2{fill:#86786F;}
	.st3{fill:#F5F5F5;}
	.st4{fill:#DCD2C9;}
	.st5{fill:#00ADEF;}
</style>
<g>
	<g class="st0">
		<path class="st1" d="M220.9,216.3v-5.9l-4.4-8.4h3.2l2.7,5.7l2.7-5.7h3.2l-4.4,8.4v5.9H220.9z"/>
		<path class="st1" d="M226.7,211.1c0-3,1.8-5.5,4.7-5.5s4.5,2.3,4.5,5.6v0.7h-6.5c0.1,1.4,1,2.5,2.5,2.5c0.7,0,1.7-0.4,2.2-1
			l1.2,1.5c-0.9,1-2.3,1.5-3.8,1.5C228.7,216.5,226.7,214.4,226.7,211.1z M231.4,207.7c-1.4,0-2,1.3-2,2.4h4
			C233.4,209.1,232.8,207.7,231.4,207.7z"/>
		<path class="st1" d="M243,216.3v-1.1c-0.5,0.8-1.7,1.3-2.7,1.3c-1.6,0-3.2-1.3-3.2-3.4c0-2.2,1.6-3.4,3.2-3.4
			c1.1,0,2.2,0.4,2.7,1.3v-1.3c0-1.1-0.7-1.8-1.9-1.8c-0.9,0-1.8,0.4-2.6,1.1l-1-1.8c1.1-1.1,2.7-1.5,4-1.5c2.2,0,4,1,4,3.7v7
			L243,216.3L243,216.3z M243,213.8v-1.3c-0.4-0.6-1.1-1-1.7-1c-1,0-1.6,0.7-1.6,1.7s0.6,1.6,1.6,1.6
			C242,214.8,242.6,214.5,243,213.8z"/>
		<path class="st1" d="M247.9,216.3v-10.4h2.6v1.4c0.5-0.9,1.7-1.7,2.9-1.7v2.5c-0.2,0-0.4-0.1-0.6-0.1c-0.8,0-1.8,0.5-2.2,1.3v6.9
			L247.9,216.3L247.9,216.3z"/>
	</g>
	<g>
		<g>
			<path class="st2" d="M76.1,140.4l1.2-1.1c0.7,1.2,1.6,1.9,3,1.9c1.6,0,2.6-1.4,2.6-3.1c0-2.1-1-3.1-2.4-3.1c-1,0-1.8,0.4-2.6,1.3
				l-1.3-0.4v-7.7H84v1.5h-5.6v5c0.5-0.7,1.5-1.3,2.7-1.3c2.1,0,3.8,1.6,3.8,4.7c0,2.7-1.8,4.7-4.3,4.7
				C78.2,142.7,77,141.8,76.1,140.4z"/>
			<path class="st2" d="M86.6,135.3c0-3.5,1.2-7.4,4.5-7.4s4.5,3.9,4.5,7.4c0,3.4-1.2,7.4-4.5,7.4S86.6,138.7,86.6,135.3z
				 M93.8,135.3c0-2.9-0.5-5.9-2.8-5.9c-2.2,0-2.7,3-2.7,5.9c0,2.8,0.5,5.9,2.7,5.9S93.8,138.1,93.8,135.3z"/>
		</g>
	</g>
	<g>
		<g>
			<path class="st2" d="M71.4,108.7V96.6l-2.2,2.3L68,97.8l3.4-3.6H73v14.3L71.4,108.7L71.4,108.7z"/>
			<path class="st2" d="M75.6,101.5c0-3.5,1.2-7.4,4.5-7.4s4.5,3.9,4.5,7.4c0,3.4-1.2,7.4-4.5,7.4S75.6,104.9,75.6,101.5z
				 M82.8,101.5c0-2.9-0.5-5.9-2.8-5.9c-2.2,0-2.7,3-2.7,5.9c0,2.8,0.5,5.9,2.7,5.9S82.8,104.3,82.8,101.5z"/>
			<path class="st2" d="M86.6,101.5c0-3.5,1.2-7.4,4.5-7.4s4.5,3.9,4.5,7.4c0,3.4-1.2,7.4-4.5,7.4S86.6,104.9,86.6,101.5z
				 M93.8,101.5c0-2.9-0.5-5.9-2.8-5.9c-2.2,0-2.7,3-2.7,5.9c0,2.8,0.5,5.9,2.7,5.9S93.8,104.3,93.8,101.5z"/>
		</g>
	</g>
	<g>
		<g>
			<path class="st2" d="M71.8,74.9V62.8l-2.2,2.3L68.5,64l3.4-3.6h1.5v14.3L71.8,74.9L71.8,74.9z"/>
			<path class="st2" d="M76.1,72.8l1.2-1.1c0.7,1.2,1.6,1.9,3,1.9c1.6,0,2.6-1.4,2.6-3.1c0-2.1-1-3.1-2.4-3.1c-1,0-1.8,0.4-2.6,1.3
				l-1.3-0.4v-7.7H84V62h-5.6v5c0.5-0.7,1.5-1.3,2.7-1.3c2.1,0,3.8,1.6,3.8,4.7c0,2.7-1.8,4.7-4.3,4.7C78.2,75.1,77,74.2,76.1,72.8z
				"/>
			<path class="st2" d="M86.6,67.7c0-3.5,1.2-7.4,4.5-7.4s4.5,3.9,4.5,7.4c0,3.4-1.2,7.4-4.5,7.4S86.6,71.1,86.6,67.7z M93.8,67.7
				c0-2.9-0.5-5.9-2.8-5.9c-2.2,0-2.7,3-2.7,5.9c0,2.8,0.5,5.9,2.7,5.9S93.8,70.5,93.8,67.7z"/>
		</g>
	</g>
	<g>
		<g>
			<path class="st2" d="M65.2,41.1v-1.4c4.7-5.4,6.3-7.2,6.3-9.2c0-1.5-1.1-2.4-2.3-2.4c-1.3,0-2.3,0.6-3,1.8L65,28.7
				c1-1.4,2.3-2.3,4.2-2.3c2.2,0,4,1.4,4,3.9c0,2.4-1.8,4.6-5.6,9.1h5.6V41L65.2,41.1L65.2,41.1z"/>
			<path class="st2" d="M75.6,33.9c0-3.5,1.2-7.4,4.5-7.4s4.5,3.9,4.5,7.4c0,3.4-1.2,7.4-4.5,7.4S75.6,37.3,75.6,33.9z M82.8,33.9
				c0-2.9-0.5-5.9-2.8-5.9c-2.2,0-2.7,3-2.7,5.9c0,2.8,0.5,5.9,2.7,5.9C82.2,39.8,82.8,36.7,82.8,33.9z"/>
			<path class="st2" d="M86.6,33.9c0-3.5,1.2-7.4,4.5-7.4s4.5,3.9,4.5,7.4c0,3.4-1.2,7.4-4.5,7.4C87.8,41.3,86.6,37.3,86.6,33.9z
				 M93.8,33.9c0-2.9-0.5-5.9-2.8-5.9c-2.2,0-2.7,3-2.7,5.9c0,2.8,0.5,5.9,2.7,5.9S93.8,36.7,93.8,33.9z"/>
		</g>
	</g>
	<g class="st0">
		<path class="st1" d="M106.6,182.9l-0.8-0.6c0.7-0.4,1.3-1.3,1.3-2c0,0-0.2,0-0.3,0c-0.5,0-1-0.4-1-1.1s0.4-1.1,1.1-1.1
			s1.3,0.5,1.3,1.6C108.3,181,107.6,182.2,106.6,182.9z"/>
		<path class="st1" d="M113.1,192.7v-12.1l-2.2,2.3l-1.1-1.1l3.4-3.6h1.5v14.3L113.1,192.7L113.1,192.7z"/>
		<path class="st1" d="M119.9,192.7v-12.1l-2.2,2.3l-1.1-1.1l3.4-3.6h1.5v14.3L119.9,192.7L119.9,192.7z"/>
	</g>
	<g class="st0">
		<path class="st1" d="M294.7,182.9l-0.8-0.6c0.7-0.4,1.3-1.3,1.3-2c0,0-0.2,0-0.3,0c-0.5,0-1-0.4-1-1.1s0.4-1.1,1.1-1.1
			s1.3,0.5,1.3,1.6C296.4,181,295.7,182.2,294.7,182.9z"/>
		<path class="st1" d="M301.3,192.7v-12.1l-2.2,2.3l-1.1-1.1l3.4-3.6h1.5v14.3L301.3,192.7L301.3,192.7z"/>
		<path class="st1" d="M305.6,190.6l1.2-1.1c0.7,1.2,1.6,1.9,3,1.9c1.6,0,2.6-1.4,2.6-3.1c0-2.1-1-3.1-2.4-3.1c-1,0-1.8,0.4-2.6,1.3
			l-1.3-0.4v-7.7h7.4v1.5h-5.6v5c0.5-0.7,1.5-1.3,2.7-1.3c2.1,0,3.8,1.6,3.8,4.7c0,2.7-1.8,4.7-4.3,4.7
			C307.7,192.9,306.5,192.1,305.6,190.6z"/>
	</g>
	<g class="st0">
		<path class="st1" d="M150.5,183.1l-0.8-0.6c0.7-0.4,1.3-1.3,1.3-2c0,0-0.2,0-0.3,0c-0.5,0-1-0.4-1-1.1c0-0.6,0.4-1.1,1.1-1.1
			c0.7,0,1.3,0.5,1.3,1.6C152.2,181.2,151.4,182.4,150.5,183.1z"/>
		<path class="st1" d="M157,192.9v-12.1l-2.2,2.3l-1.1-1.1l3.4-3.6h1.5v14.3L157,192.9L157,192.9z"/>
		<path class="st1" d="M161.4,192.9v-1.4c4.7-5.4,6.3-7.2,6.3-9.2c0-1.5-1.1-2.4-2.3-2.4c-1.3,0-2.3,0.6-3,1.8l-1.1-1.1
			c1-1.4,2.3-2.3,4.2-2.3c2.2,0,4,1.4,4,3.9c0,2.4-1.8,4.6-5.6,9.1h5.6v1.5L161.4,192.9L161.4,192.9z"/>
	</g>
	<g class="st0">
		<path class="st1" d="M343.3,183l-0.8-0.6c0.7-0.4,1.3-1.3,1.3-2c0,0-0.2,0-0.3,0c-0.5,0-1-0.4-1-1.1c0-0.6,0.4-1.1,1.1-1.1
			s1.3,0.5,1.3,1.6C345.1,181.1,344.3,182.3,343.3,183z"/>
		<path class="st1" d="M349.8,192.8v-12.1l-2.2,2.3l-1.1-1.1l3.4-3.6h1.5v14.3L349.8,192.8L349.8,192.8z"/>
		<path class="st1" d="M354.1,185.6c0-3.9,1.3-7.4,4.8-7.4c1.5,0,2.7,0.7,3.3,1.8l-1,1.2c-0.5-0.9-1.2-1.4-2.4-1.4
			c-2.2,0-3.1,3-3.1,5.7c0,0.2,0,0.3,0,0.4c0.5-1,1.7-2.2,3.1-2.2c2.1,0,3.8,1.5,3.8,4.6c0,2.4-1.5,4.7-4.1,4.7
			C355.1,193,354.1,189.5,354.1,185.6z M361,188.4c0-2.2-1.1-3.1-2.4-3.1c-1.2,0-2.2,1.1-2.7,2.2c0.1,1.6,0.6,4,2.7,4
			C360.2,191.5,361,189.9,361,188.4z"/>
	</g>
	<g class="st0">
		<path class="st1" d="M198.5,182.9l-0.8-0.6c0.7-0.4,1.3-1.3,1.3-2c0,0-0.2,0-0.3,0c-0.5,0-1-0.4-1-1.1s0.4-1.1,1.1-1.1
			c0.7,0,1.3,0.5,1.3,1.6C200.3,181,199.5,182.2,198.5,182.9z"/>
		<path class="st1" d="M205,192.7v-12.1l-2.2,2.3l-1.1-1.1l3.4-3.6h1.5v14.3L205,192.7L205,192.7z"/>
		<path class="st1" d="M208.9,190.5l1.1-1c0.6,1.1,1.7,1.9,3,1.9c1.7,0,2.6-1.1,2.6-2.7c0-2-1.3-2.6-2.7-2.6c-0.4,0-1,0-1.2,0v-1.5
			c0.2,0,0.7,0,1.1,0c1.4,0,2.6-0.8,2.6-2.4c0-1.7-1.1-2.5-2.5-2.5c-1.3,0-2.2,0.6-2.9,1.7l-1.1-1c0.9-1.3,2.3-2.2,4.1-2.2
			c2.3,0,4,1.3,4,3.8c0,1.8-1.3,3-2.6,3.3c1.3,0.2,2.8,1.5,2.8,3.6c0,2.4-1.5,4.1-4.3,4.1C211.1,192.9,209.6,191.9,208.9,190.5z"/>
	</g>
	<g class="st0">
		<path class="st1" d="M246.5,182.9l-0.8-0.6c0.7-0.4,1.3-1.3,1.3-2c0,0-0.2,0-0.3,0c-0.5,0-1-0.4-1-1.1s0.4-1.1,1.1-1.1
			c0.7,0,1.3,0.5,1.3,1.6C248.2,181,247.5,182.3,246.5,182.9z"/>
		<path class="st1" d="M253,192.7v-12.1l-2.2,2.3l-1.1-1.1l3.4-3.6h1.5v14.3L253,192.7L253,192.7z"/>
		<path class="st1" d="M262.3,192.7V189h-5.6v-1.5l5.2-9.1h2.2v9.1h1.6v1.5H264v3.7H262.3z M262.3,180.2l-4.1,7.4h4.1V180.2z"/>
	</g>
	<rect x="104.8" class="st3" width="260.2" height="169.2"/>
	<g>
		<rect x="104.8" y="134.8" class="st4" width="260.2" height="0.9"/>
	</g>
	<g>
		<rect x="104.8" y="67.2" class="st4" width="260.2" height="0.9"/>
	</g>
	<g>
		<rect x="104.8" y="101" class="st4" width="260.2" height="0.9"/>
	</g>
	<g>
		<rect x="104.8" y="33.4" class="st4" width="260.2" height="0.9"/>
	</g>
	<g>
		<path class="st5" d="M211.1,167.4l-94.3-1.4c-0.5,0-0.9-0.4-0.9-0.9c0-0.4,0.4-0.9,0.9-0.9l0,0l93.8,1.3l46.8-26.2l47.3-77.2
			l47.7-30.6c0.4-0.3,1-0.2,1.3,0.3c0.3,0.4,0.2,1-0.3,1.3l-47.3,30.3l-47.3,77.3L211.1,167.4z"/>
	</g>
</g>
</svg>
