<?xml version="1.0" encoding="utf-8"?>
<!-- Generator: Adobe Illustrator 21.1.0, SVG Export Plug-In . SVG Version: 6.00 Build 0)  -->
<svg version="1.1" id="Layer_1" xmlns="http://www.w3.org/2000/svg" xmlns:xlink="http://www.w3.org/1999/xlink" x="0px" y="0px"
	 viewBox="0 0 430 199.2" style="enable-background:new 0 0 430 199.2;" xml:space="preserve">
<style type="text/css">
	.st0{fill:#F5F5F5;}
	.st1{fill:#82786F;}
	.st2{fill:#00ADEF;}
	.st3{enable-background:new    ;}
	.st4{fill:#FFFFFF;}
	.st5{fill:#86786F;}
</style>
<g>
	<g>
		<g>
			<g>
				<g>
					<g>
						<path class="st0" d="M134.6,0L134.6,0L134.6,0L134.6,0z"/>
					</g>
				</g>
				<g>
					<g>
						<path class="st0" d="M133.8,88.8l-80.2,31.8c13,31.9,44.4,54.4,81,54.4c1.6,0,3.1,0,4.6-0.1L133.8,88.8z"/>
					</g>
				</g>
				<g>
					<g>
						<path class="st0" d="M133.7,86.9V0C85.9,0.5,47.1,39.5,47.1,87.5c0,11,2.1,21.6,5.8,31.3L133.7,86.9z"/>
					</g>
				</g>
				<g>
					<g>
						<path class="st0" d="M135.6,89.9l5.3,84.8c20.3-1.5,38.8-9.9,52.8-22.8L135.6,89.9z"/>
					</g>
				</g>
			</g>
			<g>
				<g>
					<g>
						<path class="st1" d="M134.6,0L134.6,0L134.6,0L134.6,0z"/>
					</g>
				</g>
				<g>
					<g>
						<path class="st2" d="M135.6,0v87.1l59.6,63.4c16.6-15.9,26.9-38.3,26.9-63.1C222.1,39.5,183.4,0.5,135.6,0z"/>
					</g>
				</g>
			</g>
			<g>
				<g class="st3">
					<g>
						<path class="st4" d="M156.4,55.7l1.1-1c0.7,1,1.7,1.8,3,1.8c1.7,0,2.5-1,2.5-2.7c0-1.9-1.2-2.5-2.7-2.5c-0.4,0-0.9,0-1.1,0
							v-1.5c0.2,0,0.7,0,1.1,0c1.4,0,2.5-0.8,2.5-2.4c0-1.7-1-2.5-2.4-2.5c-1.2,0-2.1,0.7-2.8,1.7l-1-0.9c0.8-1.3,2.2-2.2,4-2.2
							c2.3,0,4,1.2,4,3.7c0,1.7-1.2,3-2.5,3.3c1.2,0.2,2.7,1.4,2.7,3.5c0,2.3-1.5,4-4.2,4C158.5,58,157.1,57,156.4,55.7z"/>
					</g>
					<g>
						<path class="st4" d="M166.6,54.3c0-1.9,1.4-3.3,2.8-3.8c-1.3-0.5-2.6-1.6-2.6-3.4c0-2.4,1.9-3.6,3.9-3.6s4,1.1,4,3.6
							c0,1.8-1.3,3-2.6,3.4c1.4,0.5,2.8,1.9,2.8,3.8c0,2.3-1.7,3.7-4.2,3.7C168.3,58,166.6,56.6,166.6,54.3z M173.3,54.1
							c0-1.8-1.9-2.8-2.5-2.9c-0.6,0.1-2.5,1-2.5,2.9c0,1.5,1.1,2.4,2.5,2.4C172.1,56.5,173.3,55.7,173.3,54.1z M173.1,47.4
							c0-1.4-0.9-2.3-2.3-2.3c-1.4,0-2.3,0.9-2.3,2.3c0,1.7,1.7,2.4,2.3,2.6C171.3,49.8,173.1,49.1,173.1,47.4z"/>
					</g>
					<g>
						<path class="st4" d="M176.5,47c0-2,1.2-3.5,3-3.5s3,1.5,3,3.5s-1.2,3.4-3,3.4C177.7,50.5,176.5,49,176.5,47z M181.3,47
							c0-1.4-0.7-2.4-1.8-2.4s-1.8,1-1.8,2.4c0,1.3,0.7,2.4,1.8,2.4C180.6,49.5,181.3,48.4,181.3,47z M178.6,57.8l7.3-14h1l-7.4,14
							H178.6z M183,54.6c0-2,1.2-3.5,3-3.5s3,1.5,3,3.5s-1.2,3.4-3,3.4S183,56.6,183,54.6z M187.8,54.6c0-1.4-0.7-2.5-1.8-2.5
							s-1.8,1.1-1.8,2.5c0,1.3,0.7,2.4,1.8,2.4S187.8,56,187.8,54.6z"/>
					</g>
				</g>
			</g>
		</g>
		<g class="st3">
			<g>
				<g>
					<path class="st5" d="M87.4,61.2v-0.7c-0.4,0.6-1.1,0.9-1.8,0.9c-1.1,0-2.1-0.9-2.1-2.3c0-1.5,1-2.3,2.1-2.3
						c0.7,0,1.4,0.3,1.8,0.9v-1.2c0-1-0.5-1.5-1.4-1.5c-0.6,0-1.2,0.2-1.7,0.8l-0.5-0.7c0.7-0.7,1.5-1,2.4-1c1.4,0,2.3,0.7,2.3,2.3
						v4.9L87.4,61.2L87.4,61.2z M87.4,59.8v-1.4c-0.3-0.6-0.9-0.9-1.5-0.9c-0.9,0-1.4,0.7-1.4,1.5c0,0.9,0.5,1.6,1.4,1.6
						C86.5,60.6,87.1,60.3,87.4,59.8z"/>
				</g>
			</g>
		</g>
		<g class="st3">
			<g>
				<g>
					<path class="st5" d="M104.4,139.5v-9.6h1v3.7c0.4-0.8,1.1-1.2,1.8-1.2c1.6,0,2.5,1.5,2.5,3.7s-0.9,3.6-2.5,3.6
						c-0.7,0-1.4-0.5-1.8-1.2v1H104.4z M107,138.8c1.1,0,1.7-1.2,1.7-2.7s-0.5-2.7-1.7-2.7c-0.6,0-1.3,0.5-1.6,1.2v3.2
						C105.7,138.3,106.3,138.8,107,138.8z"/>
				</g>
			</g>
		</g>
		<g class="st3">
			<g>
				<g>
					<path class="st5" d="M146.2,148.1c0-2.8,1.3-5,3.6-5c2.3,0,3.6,2.2,3.6,5s-1.3,5-3.6,5C147.5,153,146.2,150.8,146.2,148.1z
						 M152.3,148.1c0-2.2-0.9-3.9-2.5-3.9s-2.4,1.7-2.4,3.9s0.9,3.9,2.4,3.9C151.4,152,152.3,150.2,152.3,148.1z"/>
				</g>
			</g>
			<g>
				<g>
					<path class="st5" d="M155.3,151.5v-4.7h-0.9v-0.9h0.9V144h1v1.9h1.2v0.9h-1.2v4.5c0,0.5,0.2,0.8,0.6,0.8c0.3,0,0.5-0.1,0.6-0.3
						l0.3,0.8c-0.2,0.2-0.6,0.4-1.1,0.4C155.7,153,155.3,152.5,155.3,151.5z"/>
				</g>
			</g>
			<g>
				<g>
					<path class="st5" d="M162.6,152.9v-5c0-0.9-0.4-1.2-1.1-1.2s-1.3,0.5-1.6,1.1v5.1h-1v-9.6h1v3.6c0.4-0.6,1.2-1.2,2-1.2
						c1.2,0,1.7,0.6,1.7,1.9v5.3L162.6,152.9L162.6,152.9z"/>
				</g>
			</g>
			<g>
				<g>
					<path class="st5" d="M165.2,149.4c0-2,1.1-3.6,2.8-3.6c1.8,0,2.8,1.6,2.8,3.7v0.3h-4.5c0,1.4,0.8,2.4,2,2.4
						c0.6,0,1.2-0.3,1.7-0.8l0.5,0.6c-0.6,0.7-1.4,1.1-2.3,1.1C166.3,153,165.2,151.5,165.2,149.4z M168,146.6
						c-1.2,0-1.7,1.3-1.7,2.4h3.5C169.7,147.9,169.3,146.6,168,146.6z"/>
				</g>
			</g>
			<g>
				<g>
					<path class="st5" d="M172.3,152.9v-7h1v1.1c0.4-0.7,1.1-1.3,2-1.3v1.1c-0.1,0-0.2,0-0.3,0c-0.6,0-1.3,0.6-1.6,1.1v4.9
						L172.3,152.9L172.3,152.9L172.3,152.9z"/>
				</g>
			</g>
			<g>
				<g>
					<path class="st5" d="M175.9,152l0.5-0.7c0.4,0.5,1.1,0.9,1.8,0.9c0.8,0,1.3-0.5,1.3-1.1c0-0.7-0.7-1-1.5-1.3
						c-1-0.4-2-0.8-2-2.1c0-1,0.8-1.9,2.2-1.9c0.9,0,1.6,0.4,2.1,0.9l-0.5,0.7c-0.3-0.5-0.9-0.8-1.6-0.8c-0.8,0-1.2,0.4-1.2,1
						s0.6,0.9,1.4,1.2c1,0.4,2.1,0.8,2.1,2.2c0,1.2-0.9,2-2.3,2C177.3,153,176.5,152.7,175.9,152z"/>
				</g>
			</g>
		</g>
		<g class="st3">
			<path class="st1" d="M240.7,99.5v-0.9c-0.5,0.7-1.3,1.1-2.1,1.1c-1.3,0-2.5-1-2.5-2.7s1.1-2.7,2.5-2.7c0.8,0,1.6,0.3,2.1,1v-1.4
				c0-1.1-0.6-1.7-1.7-1.7c-0.8,0-1.4,0.3-2,1l-0.5-0.9c0.8-0.8,1.7-1.2,2.8-1.2c1.6,0,2.7,0.8,2.7,2.7v5.7H240.7z M240.7,97.8v-1.6
				c-0.4-0.7-1-1-1.8-1c-1,0-1.6,0.8-1.6,1.8s0.6,1.8,1.6,1.8C239.7,98.8,240.4,98.5,240.7,97.8z"/>
			<path class="st1" d="M244.1,98.8c0-0.5,0.4-0.9,0.9-0.9s0.9,0.4,0.9,0.9s-0.4,0.9-0.9,0.9C244.5,99.7,244.1,99.3,244.1,98.8z"/>
			<path class="st1" d="M251,97.8l0.9-0.8c0.5,0.8,1.4,1.5,2.4,1.5c1.4,0,2-0.8,2-2.1c0-1.5-1-2-2.1-2c-0.4,0-0.7,0-0.9,0v-1.2
				c0.2,0,0.6,0,0.9,0c1.1,0,2-0.6,2-1.9s-0.8-2-1.9-2c-1,0-1.7,0.5-2.3,1.3l-0.8-0.8c0.7-1.1,1.8-1.8,3.2-1.8c1.8,0,3.2,1,3.2,3
				c0,1.4-1,2.4-2,2.6c1,0.2,2.2,1.2,2.2,2.8c0,1.9-1.2,3.2-3.3,3.2C252.8,99.7,251.6,98.9,251,97.8z"/>
			<path class="st1" d="M261.3,99.5V90l-1.7,1.9l-0.8-0.8l2.7-2.8h1.2v11.3L261.3,99.5L261.3,99.5z"/>
			<path class="st1" d="M264.4,90.9c0-1.6,0.9-2.8,2.4-2.8c1.4,0,2.4,1.2,2.4,2.8c0,1.6-0.9,2.8-2.4,2.8
				C265.3,93.6,264.4,92.4,264.4,90.9z M268.2,90.9c0-1.1-0.6-2-1.4-2c-0.9,0-1.4,0.8-1.4,2c0,1.1,0.6,1.9,1.4,1.9
				C267.6,92.8,268.2,91.9,268.2,90.9z M266,99.5l5.9-11.3h0.8l-5.9,11.3H266z M269.6,97c0-1.6,0.9-2.8,2.4-2.8
				c1.4,0,2.4,1.2,2.4,2.8c0,1.6-1,2.8-2.4,2.8C270.5,99.7,269.6,98.5,269.6,97z M273.4,97c0-1.1-0.6-2-1.4-2c-0.9,0-1.4,0.9-1.4,2
				s0.6,1.9,1.4,1.9C272.9,98.9,273.4,98,273.4,97z"/>
			<path class="st1" d="M279.3,93.9c0-3.4,1.7-5.8,4.4-5.8c1.7,0,2.7,1,3.3,2.2l-1.1,0.5c-0.5-0.9-1.2-1.5-2.2-1.5c-1.8,0-3,2-3,4.6
				c0,2.7,1.2,4.6,3,4.6c1,0,1.8-0.7,2.2-1.7l1.1,0.5c-0.6,1.3-1.6,2.4-3.3,2.4C281,99.7,279.3,97.3,279.3,93.9z"/>
			<path class="st1" d="M288.2,95.4c0-2.3,1.1-4.3,3.3-4.3s3.3,2,3.3,4.3s-1.1,4.3-3.3,4.3C289.4,99.7,288.2,97.7,288.2,95.4z
				 M293.6,95.4c0-1.6-0.6-3.2-2.1-3.2c-1.4,0-2,1.6-2,3.2c0,1.7,0.6,3.2,2,3.2C293,98.6,293.6,97.1,293.6,95.4z"/>
			<path class="st1" d="M305,99.5v-5.9c0-0.9-0.4-1.4-1.1-1.4s-1.5,0.6-1.8,1.3v6h-1.2v-5.9c0-0.9-0.4-1.4-1.2-1.4
				c-0.7,0-1.4,0.6-1.8,1.3v6h-1.2v-8.2h1.2v1.2c0.3-0.6,1.3-1.4,2.2-1.4c1,0,1.7,0.6,1.8,1.5c0.4-0.7,1.3-1.5,2.3-1.5
				c1.2,0,1.9,0.7,1.9,2.1v6.2H305V99.5z"/>
			<path class="st1" d="M309.6,98.3v4.3h-1.2V91.3h1.2v1.2c0.5-0.8,1.3-1.4,2.1-1.4c1.8,0,2.9,1.7,2.9,4.3c0,2.6-1.1,4.3-2.9,4.3
				C310.9,99.7,310.1,99.2,309.6,98.3z M313.4,95.4c0-1.8-0.6-3.2-2-3.2c-0.8,0-1.5,0.6-1.8,1.3v3.7c0.3,0.7,1.1,1.4,1.8,1.4
				C312.8,98.6,313.4,97.2,313.4,95.4z"/>
			<path class="st1" d="M320.9,99.5v-1.1c-0.5,0.7-1.4,1.3-2.4,1.3c-1.4,0-2-0.7-2-2.2v-6.2h1.2v5.8c0,1.1,0.5,1.5,1.3,1.5
				s1.6-0.6,1.9-1.3v-6h1.2v8.2C322.1,99.5,320.9,99.5,320.9,99.5z"/>
			<path class="st1" d="M324.6,97.9v-5.5h-1.1v-1.1h1.1v-2.2h1.2v2.2h1.4v1.1h-1.4v5.2c0,0.6,0.2,1,0.7,1c0.3,0,0.6-0.1,0.7-0.3
				l0.4,0.9c-0.3,0.3-0.7,0.5-1.3,0.5C325.1,99.7,324.6,99.1,324.6,97.9z"/>
			<path class="st1" d="M328.4,95.4c0-2.4,1.3-4.3,3.3-4.3c2.1,0,3.2,1.9,3.2,4.3v0.4h-5.3c0.1,1.6,0.9,2.9,2.4,2.9
				c0.7,0,1.4-0.4,1.9-1l0.6,0.7c-0.7,0.8-1.6,1.3-2.7,1.3C329.8,99.7,328.4,97.9,328.4,95.4z M331.8,92.2c-1.4,0-2,1.6-2,2.8h4.1
				C333.8,93.7,333.2,92.2,331.8,92.2z"/>
			<path class="st1" d="M336.8,99.5v-8.2h1.2v1.3c0.5-0.9,1.3-1.5,2.3-1.5v1.3c-0.1,0-0.3-0.1-0.4-0.1c-0.7,0-1.6,0.7-1.9,1.3v5.8
				L336.8,99.5L336.8,99.5z"/>
			<path class="st1" d="M340.9,101.6l-0.6-0.5c0.5-0.4,1-1,1.1-1.6h-0.2c-0.5,0-0.8-0.4-0.8-0.8c0-0.5,0.4-0.9,0.9-0.9s1,0.5,1,1.3
				C342.2,100.2,341.6,101.1,340.9,101.6z"/>
			<path class="st1" d="M355.8,99.5v-8.9l-3,8.9h-0.5l-3-8.9v8.9H348V88.2h1.9l2.7,8l2.7-8h1.8v11.3H355.8z"/>
			<path class="st1" d="M363.6,99.5v-0.9c-0.5,0.7-1.3,1.1-2.1,1.1c-1.3,0-2.5-1-2.5-2.7s1.1-2.7,2.5-2.7c0.8,0,1.6,0.3,2.1,1v-1.4
				c0-1.1-0.6-1.7-1.7-1.7c-0.8,0-1.4,0.3-2,1l-0.5-0.9c0.8-0.8,1.7-1.2,2.8-1.2c1.6,0,2.7,0.8,2.7,2.7v5.7H363.6z M363.6,97.8v-1.6
				c-0.4-0.7-1-1-1.8-1c-1,0-1.6,0.8-1.6,1.8s0.6,1.8,1.6,1.8C362.6,98.8,363.3,98.5,363.6,97.8z"/>
			<path class="st1" d="M367.3,97.9v-5.5h-1.1v-1.1h1.1v-2.2h1.2v2.2h1.4v1.1h-1.4v5.2c0,0.6,0.2,1,0.7,1c0.3,0,0.6-0.1,0.7-0.3
				l0.4,0.9c-0.3,0.3-0.7,0.5-1.3,0.5C367.8,99.7,367.3,99.1,367.3,97.9z"/>
			<path class="st1" d="M375.9,99.5v-5.8c0-1.1-0.5-1.5-1.3-1.5s-1.5,0.6-1.9,1.3v6h-1.2V88.2h1.2v4.3c0.5-0.7,1.4-1.4,2.4-1.4
				c1.4,0,2,0.7,2,2.2v6.2C377.1,99.5,375.9,99.5,375.9,99.5z"/>
			<path class="st1" d="M379.8,101.6l-0.6-0.5c0.5-0.4,1-1,1.1-1.6h-0.2c-0.5,0-0.8-0.4-0.8-0.8c0-0.5,0.4-0.9,0.9-0.9s1,0.5,1,1.3
				C381.2,100.2,380.6,101.1,379.8,101.6z"/>
		</g>
		<g class="st3">
			<path class="st1" d="M257,117.6v-0.9c-0.5,0.7-1.3,1.1-2.1,1.1c-1.3,0-2.5-1-2.5-2.7s1.1-2.7,2.5-2.7c0.8,0,1.6,0.3,2.1,1V112
				c0-1.1-0.6-1.7-1.7-1.7c-0.8,0-1.4,0.3-2,1l-0.5-0.9c0.8-0.8,1.7-1.2,2.8-1.2c1.6,0,2.7,0.8,2.7,2.7v5.7H257z M257,115.8v-1.6
				c-0.4-0.7-1-1-1.8-1c-1,0-1.6,0.8-1.6,1.8s0.6,1.8,1.6,1.8C255.9,116.9,256.6,116.5,257,115.8z"/>
			<path class="st1" d="M264.8,117.6v-5.8c0-1.1-0.5-1.5-1.3-1.5s-1.5,0.6-1.9,1.3v6h-1.2v-8.2h1.2v1.2c0.5-0.7,1.4-1.4,2.4-1.4
				c1.4,0,2.1,0.7,2.1,2.2v6.2C266.1,117.6,264.8,117.6,264.8,117.6z"/>
			<path class="st1" d="M272.9,117.6v-1.2c-0.5,0.8-1.3,1.4-2.1,1.4c-1.8,0-2.9-1.7-2.9-4.3c0-2.5,1.1-4.3,2.9-4.3
				c0.8,0,1.7,0.5,2.1,1.4v-4.3h1.2v11.3H272.9z M272.9,115.4v-3.8c-0.3-0.7-1.1-1.3-1.8-1.3c-1.3,0-2,1.4-2,3.2
				c0,1.8,0.6,3.2,2,3.2C271.9,116.7,272.6,116.1,272.9,115.4z"/>
			<path class="st1" d="M286.1,117.6l-4.6-8.4v8.4h-1.4v-11.3h1.4l4.6,8.2v-8.2h1.4v11.3H286.1z"/>
			<path class="st1" d="M293.9,117.6v-0.9c-0.5,0.7-1.3,1.1-2.1,1.1c-1.3,0-2.5-1-2.5-2.7s1.1-2.7,2.5-2.7c0.8,0,1.6,0.3,2.1,1V112
				c0-1.1-0.6-1.7-1.7-1.7c-0.8,0-1.4,0.3-2,1l-0.5-0.9c0.8-0.8,1.7-1.2,2.8-1.2c1.6,0,2.7,0.8,2.7,2.7v5.7H293.9z M293.9,115.8
				v-1.6c-0.4-0.7-1-1-1.8-1c-1,0-1.6,0.8-1.6,1.8s0.6,1.8,1.6,1.8C292.8,116.9,293.5,116.5,293.9,115.8z"/>
			<path class="st1" d="M297.6,115.9v-5.5h-1.1v-1.1h1.1v-2.2h1.2v2.2h1.4v1.1h-1.4v5.2c0,0.6,0.2,1,0.7,1c0.3,0,0.6-0.1,0.7-0.3
				l0.4,0.9c-0.3,0.3-0.7,0.5-1.3,0.5C298.1,117.8,297.6,117.1,297.6,115.9z"/>
			<path class="st1" d="M306.2,117.6v-1.1c-0.5,0.7-1.4,1.3-2.4,1.3c-1.4,0-2-0.7-2-2.2v-6.2h1.2v5.8c0,1.1,0.5,1.5,1.3,1.5
				s1.6-0.6,1.9-1.3v-6h1.2v8.2C307.5,117.6,306.2,117.6,306.2,117.6z"/>
			<path class="st1" d="M309.6,117.6v-8.2h1.2v1.3c0.5-0.9,1.3-1.5,2.3-1.5v1.3c-0.1,0-0.3-0.1-0.4-0.1c-0.7,0-1.6,0.7-1.9,1.3v5.8
				L309.6,117.6L309.6,117.6z"/>
			<path class="st1" d="M318.8,117.6v-0.9c-0.5,0.7-1.3,1.1-2.1,1.1c-1.3,0-2.5-1-2.5-2.7s1.1-2.7,2.5-2.7c0.8,0,1.6,0.3,2.1,1V112
				c0-1.1-0.6-1.7-1.7-1.7c-0.8,0-1.4,0.3-2,1l-0.5-0.9c0.8-0.8,1.7-1.2,2.8-1.2c1.6,0,2.7,0.8,2.7,2.7v5.7H318.8z M318.8,115.8
				v-1.6c-0.4-0.7-1-1-1.8-1c-1,0-1.6,0.8-1.6,1.8s0.6,1.8,1.6,1.8C317.8,116.9,318.4,116.5,318.8,115.8z"/>
			<path class="st1" d="M322.2,117.6v-11.3h1.2v11.3H322.2z"/>
			<path class="st1" d="M328.6,116.3l0.7-1c0.6,0.7,1.5,1.3,2.6,1.3c1.4,0,2.1-0.9,2.1-1.8c0-1.3-1.1-1.8-2.2-2.4
				c-1.4-0.6-2.9-1.3-2.9-3.3c0-1.7,1.4-3,3.2-3c1.3,0,2.3,0.4,3,1.2l-0.7,1c-0.6-0.7-1.4-1-2.3-1c-1,0-1.8,0.7-1.8,1.7
				c0,1.1,1,1.6,2.1,2.1c1.4,0.7,3,1.4,3,3.6c0,1.7-1.1,3.1-3.4,3.1C330.5,117.8,329.4,117.2,328.6,116.3z"/>
			<path class="st1" d="M336.8,113.5c0-2.4,1.3-4.3,3.4-4.3c1.1,0,1.8,0.5,2.3,1.1l-0.7,0.8c-0.4-0.6-0.9-0.8-1.6-0.8
				c-1.5,0-2.2,1.5-2.2,3.2s0.8,3.2,2.2,3.2c0.6,0,1.1-0.3,1.6-0.8l0.7,0.8c-0.5,0.6-1.2,1.1-2.3,1.1
				C338.1,117.8,336.8,115.9,336.8,113.5z"/>
			<path class="st1" d="M343.8,107.4c0-0.5,0.4-0.8,0.8-0.8c0.5,0,0.8,0.4,0.8,0.8c0,0.5-0.4,0.8-0.8,0.8
				C344.2,108.2,343.8,107.8,343.8,107.4z M344.1,117.6v-8.2h1.2v8.2H344.1z"/>
			<path class="st1" d="M347.1,113.5c0-2.4,1.3-4.3,3.3-4.3c2.1,0,3.2,1.9,3.2,4.3v0.4h-5.3c0.1,1.6,0.9,2.9,2.4,2.9
				c0.7,0,1.4-0.4,1.9-1l0.6,0.7c-0.7,0.8-1.6,1.3-2.7,1.3C348.4,117.8,347.1,116,347.1,113.5z M350.4,110.2c-1.4,0-2,1.6-2,2.8h4.1
				C352.4,111.7,351.9,110.2,350.4,110.2z"/>
			<path class="st1" d="M359.8,117.6v-5.8c0-1.1-0.5-1.5-1.3-1.5s-1.5,0.6-1.9,1.3v6h-1.2v-8.2h1.2v1.2c0.5-0.7,1.4-1.4,2.4-1.4
				c1.4,0,2.1,0.7,2.1,2.2v6.2C361.1,117.6,359.8,117.6,359.8,117.6z"/>
			<path class="st1" d="M362.9,113.5c0-2.4,1.3-4.3,3.4-4.3c1.1,0,1.8,0.5,2.3,1.1l-0.7,0.8c-0.4-0.6-0.9-0.8-1.6-0.8
				c-1.5,0-2.2,1.5-2.2,3.2s0.8,3.2,2.2,3.2c0.6,0,1.1-0.3,1.6-0.8l0.7,0.8c-0.5,0.6-1.2,1.1-2.3,1.1
				C364.1,117.8,362.9,115.9,362.9,113.5z"/>
			<path class="st1" d="M369.8,113.5c0-2.4,1.3-4.3,3.3-4.3c2.1,0,3.2,1.9,3.2,4.3v0.4H371c0.1,1.6,0.9,2.9,2.4,2.9
				c0.7,0,1.4-0.4,1.9-1l0.6,0.7c-0.7,0.8-1.6,1.3-2.7,1.3C371,117.8,369.8,116,369.8,113.5z M373,110.2c-1.4,0-2,1.6-2,2.8h4.1
				C375.1,111.7,374.5,110.2,373,110.2z"/>
			<path class="st1" d="M377.4,116.6l0.6-0.9c0.5,0.6,1.3,1,2.1,1c0.9,0,1.6-0.5,1.6-1.3c0-0.9-0.8-1.2-1.7-1.6
				c-1.1-0.4-2.4-0.9-2.4-2.5c0-1.2,1-2.2,2.6-2.2c1.1,0,1.9,0.4,2.5,1l-0.6,0.8c-0.4-0.5-1.1-0.9-1.9-0.9c-0.9,0-1.5,0.5-1.5,1.2
				c0,0.8,0.8,1.1,1.6,1.4c1.1,0.5,2.5,1,2.5,2.6c0,1.4-1,2.3-2.7,2.3C379,117.8,378.1,117.4,377.4,116.6z"/>
		</g>
		<g class="st3">
			<path class="st1" d="M236.5,137.8v-11.3h1.2v4.3c0.5-0.9,1.3-1.4,2.1-1.4c1.8,0,2.9,1.8,2.9,4.3c0,2.6-1.1,4.3-2.9,4.3
				c-0.9,0-1.7-0.5-2.1-1.4v1.2L236.5,137.8L236.5,137.8z M239.6,137c1.3,0,2-1.4,2-3.2s-0.6-3.2-2-3.2c-0.8,0-1.5,0.6-1.8,1.4v3.7
				C238.1,136.4,238.8,137,239.6,137z"/>
			<path class="st1" d="M244.5,137.1c0-0.5,0.4-0.9,0.9-0.9s0.9,0.4,0.9,0.9s-0.4,0.9-0.9,0.9S244.5,137.6,244.5,137.1z"/>
			<path class="st1" d="M251.8,137.8v-1.1c3.7-4.2,5-5.6,5-7.3c0-1.2-0.8-1.9-1.8-1.9c-1.1,0-1.8,0.5-2.4,1.4l-0.9-0.8
				c0.7-1.1,1.8-1.8,3.3-1.8c1.7,0,3.2,1.1,3.2,3.1c0,1.9-1.4,3.6-4.4,7.2h4.5v1.2L251.8,137.8L251.8,137.8z"/>
			<path class="st1" d="M260,132.2c0-2.7,0.9-5.8,3.5-5.8s3.5,3.1,3.5,5.8s-0.9,5.8-3.5,5.8S260,134.9,260,132.2z M265.7,132.2
				c0-2.2-0.4-4.6-2.2-4.6c-1.7,0-2.1,2.4-2.1,4.6s0.4,4.6,2.1,4.6C265.3,136.9,265.7,134.4,265.7,132.2z"/>
			<path class="st1" d="M268.3,129.2c0-1.6,0.9-2.8,2.4-2.8c1.4,0,2.4,1.2,2.4,2.8s-0.9,2.8-2.4,2.8
				C269.3,132,268.3,130.8,268.3,129.2z M272.2,129.2c0-1.1-0.6-2-1.4-2c-0.9,0-1.4,0.8-1.4,2c0,1.1,0.6,1.9,1.4,1.9
				C271.6,131.1,272.2,130.3,272.2,129.2z M270,137.8l5.9-11.3h0.8l-5.9,11.3H270z M273.6,135.3c0-1.6,0.9-2.8,2.4-2.8
				c1.4,0,2.4,1.2,2.4,2.8s-1,2.8-2.4,2.8C274.5,138.1,273.6,136.9,273.6,135.3z M277.4,135.3c0-1.1-0.6-2-1.4-2
				c-0.9,0-1.4,0.9-1.4,2s0.6,1.9,1.4,1.9S277.4,136.4,277.4,135.3z"/>
			<path class="st1" d="M283.7,137.8v-11.3h3.7c1.8,0,2.8,1.2,2.8,2.9c0,1.4-0.7,2.3-1.7,2.6c1.1,0.2,1.9,1.4,1.9,2.8
				c0,1.8-1,3-2.9,3H283.7z M288.8,129.6c0-1-0.5-1.9-1.7-1.9H285v3.7h2.1C288.3,131.5,288.8,130.7,288.8,129.6z M289,134.7
				c0-1.1-0.6-2-1.8-2H285v4h2.2C288.4,136.6,289,135.9,289,134.7z"/>
			<path class="st1" d="M296.8,137.8v-1.1c-0.5,0.7-1.4,1.3-2.4,1.3c-1.4,0-2-0.7-2-2.2v-6.2h1.2v5.8c0,1.1,0.5,1.5,1.3,1.5
				s1.6-0.6,1.9-1.3v-6h1.2v8.2H296.8z"/>
			<path class="st1" d="M299.5,136.9l0.6-0.9c0.5,0.6,1.3,1,2.1,1c0.9,0,1.6-0.5,1.6-1.3c0-0.9-0.8-1.2-1.7-1.6
				c-1.1-0.4-2.4-0.9-2.4-2.5c0-1.2,1-2.2,2.6-2.2c1.1,0,1.9,0.4,2.5,1l-0.6,0.8c-0.4-0.5-1.1-0.9-1.9-0.9c-0.9,0-1.5,0.5-1.5,1.2
				c0,0.8,0.8,1.1,1.6,1.4c1.1,0.5,2.5,1,2.5,2.6c0,1.4-1,2.3-2.7,2.3C301.1,138.1,300.2,137.7,299.5,136.9z"/>
			<path class="st1" d="M306.5,127.7c0-0.5,0.4-0.8,0.8-0.8c0.5,0,0.8,0.4,0.8,0.8c0,0.5-0.4,0.8-0.8,0.8S306.5,128.1,306.5,127.7z
				 M306.8,137.8v-8.2h1.2v8.2H306.8z"/>
			<path class="st1" d="M314.6,137.8V132c0-1.1-0.5-1.5-1.3-1.5s-1.5,0.6-1.9,1.3v6h-1.2v-8.2h1.2v1.2c0.5-0.7,1.4-1.4,2.4-1.4
				c1.4,0,2.1,0.7,2.1,2.2v6.2H314.6z"/>
			<path class="st1" d="M317.6,133.8c0-2.4,1.3-4.3,3.3-4.3c2.1,0,3.2,1.9,3.2,4.3v0.4h-5.3c0.1,1.6,0.9,2.9,2.4,2.9
				c0.7,0,1.4-0.4,1.9-1l0.6,0.7c-0.7,0.8-1.6,1.3-2.7,1.3C318.9,138.1,317.6,136.3,317.6,133.8z M320.9,130.5c-1.4,0-2,1.6-2,2.8
				h4.1C323,132,322.4,130.5,320.9,130.5z"/>
			<path class="st1" d="M325.3,136.9l0.6-0.9c0.5,0.6,1.3,1,2.1,1c0.9,0,1.6-0.5,1.6-1.3c0-0.9-0.8-1.2-1.7-1.6
				c-1.1-0.4-2.4-0.9-2.4-2.5c0-1.2,1-2.2,2.6-2.2c1.1,0,1.9,0.4,2.5,1l-0.6,0.8c-0.4-0.5-1.1-0.9-1.9-0.9c-0.9,0-1.5,0.5-1.5,1.2
				c0,0.8,0.8,1.1,1.6,1.4c1.1,0.5,2.5,1,2.5,2.6c0,1.4-1,2.3-2.7,2.3C326.9,138.1,326,137.7,325.3,136.9z"/>
			<path class="st1" d="M331.8,136.9l0.6-0.9c0.5,0.6,1.3,1,2.1,1c0.9,0,1.6-0.5,1.6-1.3c0-0.9-0.8-1.2-1.7-1.6
				c-1.1-0.4-2.4-0.9-2.4-2.5c0-1.2,1-2.2,2.6-2.2c1.1,0,1.9,0.4,2.5,1l-0.6,0.8c-0.4-0.5-1.1-0.9-1.9-0.9c-0.9,0-1.5,0.5-1.5,1.2
				c0,0.8,0.8,1.1,1.6,1.4c1.1,0.5,2.5,1,2.5,2.6c0,1.4-1,2.3-2.7,2.3C333.4,138.1,332.5,137.7,331.8,136.9z"/>
		</g>
	</g>
	<g>
		<polygon class="st2" points="249.7,23.9 249.7,46.9 236,57.8 360,57.8 360,23.9 		"/>
		<g>
			<g class="st3">
				<g>
					<path class="st4" d="M259.7,47.9v-14h7.2v1.5h-5.5V40h5.4v1.5h-5.4v4.9h5.5v1.5H259.7z"/>
				</g>
				<g>
					<path class="st4" d="M274.8,47.9v-7.2c0-1.3-0.6-1.8-1.6-1.8s-1.9,0.8-2.4,1.6v7.4h-1.5V37.7h1.5v1.4c0.6-0.9,1.7-1.7,2.9-1.7
						c1.7,0,2.6,0.9,2.6,2.8v7.6h-1.5V47.9z"/>
				</g>
				<g>
					<path class="st4" d="M279,50.7l0.7-1.2c0.7,0.8,1.5,1.2,2.6,1.2c1.4,0,2.5-0.8,2.5-2.8v-1.7c-0.6,1-1.6,1.7-2.7,1.7
						c-2.3,0-3.6-2.1-3.6-5.2c0-3.1,1.3-5.3,3.6-5.3c1,0,2,0.6,2.7,1.7v-1.5h1.5v10.1c0,3.1-1.9,4.1-4,4.1
						C281,52,279.9,51.7,279,50.7z M284.8,45v-4.5c-0.4-0.9-1.3-1.7-2.3-1.7c-1.7,0-2.4,1.7-2.4,3.9s0.8,3.9,2.4,3.9
						C283.5,46.7,284.5,45.9,284.8,45z"/>
				</g>
				<g>
					<path class="st4" d="M288.8,35.2c0-0.6,0.5-1,1-1c0.6,0,1,0.5,1,1s-0.5,1-1,1C289.3,36.3,288.8,35.8,288.8,35.2z M289.1,47.9
						V37.7h1.5v10.1L289.1,47.9L289.1,47.9z"/>
				</g>
				<g>
					<path class="st4" d="M298.8,47.9v-7.2c0-1.3-0.6-1.8-1.6-1.8s-1.9,0.8-2.4,1.6v7.4h-1.5V37.7h1.5v1.4c0.6-0.9,1.7-1.7,2.9-1.7
						c1.7,0,2.6,0.9,2.6,2.8v7.6h-1.5V47.9z"/>
				</g>
				<g>
					<path class="st4" d="M302.6,42.8c0-2.9,1.6-5.3,4.1-5.3c2.7,0,4,2.4,4,5.4v0.5h-6.5c0.1,2,1.1,3.6,2.9,3.6
						c0.9,0,1.8-0.4,2.4-1.2l0.8,0.9c-0.8,1-2,1.6-3.3,1.6C304.3,48.1,302.6,45.9,302.6,42.8z M306.8,38.8c-1.8,0-2.5,2-2.5,3.4h5.1
						C309.2,40.6,308.6,38.8,306.8,38.8z"/>
				</g>
				<g>
					<path class="st4" d="M312.5,42.8c0-2.9,1.6-5.3,4.1-5.3c2.7,0,4,2.4,4,5.4v0.5H314c0.1,2,1.1,3.6,2.9,3.6
						c0.9,0,1.8-0.4,2.4-1.2l0.8,0.9c-0.8,1-2,1.6-3.3,1.6C314.1,48.1,312.5,45.9,312.5,42.8z M316.5,38.8c-1.8,0-2.5,2-2.5,3.4h5.1
						C319.1,40.6,318.4,38.8,316.5,38.8z"/>
				</g>
				<g>
					<path class="st4" d="M322.8,47.9V37.7h1.5v1.6c0.7-1.1,1.6-1.8,2.9-1.8v1.6c-0.2,0-0.3-0.1-0.5-0.1c-0.9,0-2,0.8-2.4,1.7v7.2
						H322.8z"/>
				</g>
				<g>
					<path class="st4" d="M328.6,35.2c0-0.6,0.5-1,1-1c0.6,0,1,0.5,1,1s-0.5,1-1,1C329.1,36.3,328.6,35.8,328.6,35.2z M328.9,47.9
						V37.7h1.5v10.1L328.9,47.9L328.9,47.9z"/>
				</g>
				<g>
					<path class="st4" d="M338.6,47.9v-7.2c0-1.3-0.6-1.8-1.6-1.8s-1.9,0.8-2.4,1.6v7.4h-1.4V37.7h1.5v1.4c0.6-0.9,1.7-1.7,2.9-1.7
						c1.7,0,2.6,0.9,2.6,2.8v7.6h-1.6V47.9z"/>
				</g>
				<g>
					<path class="st4" d="M342.8,50.7l0.7-1.2c0.7,0.8,1.5,1.2,2.6,1.2c1.4,0,2.5-0.8,2.5-2.8v-1.7c-0.6,1-1.6,1.7-2.7,1.7
						c-2.3,0-3.6-2.1-3.6-5.2c0-3.1,1.3-5.3,3.6-5.3c1,0,2,0.6,2.7,1.7v-1.5h1.5v10.1c0,3.1-1.9,4.1-4,4.1
						C344.9,52,343.8,51.7,342.8,50.7z M348.8,45v-4.5c-0.4-0.9-1.3-1.7-2.3-1.7c-1.7,0-2.4,1.7-2.4,3.9s0.8,3.9,2.4,3.9
						C347.4,46.7,348.3,45.9,348.8,45z"/>
				</g>
			</g>
		</g>
	</g>
</g>
</svg>
