<?xml version="1.0" encoding="utf-8"?>
<!-- Generator: Adobe Illustrator 21.1.0, SVG Export Plug-In . SVG Version: 6.00 Build 0)  -->
<svg version="1.1" id="Layer_1" xmlns="http://www.w3.org/2000/svg" xmlns:xlink="http://www.w3.org/1999/xlink" x="0px" y="0px"
	 viewBox="0 0 280 210" style="enable-background:new 0 0 280 210;" xml:space="preserve">
<style type="text/css">
	.st0{fill:#F5F5F5;}
	.st1{fill:#00ADEF;}
	.st2{fill:#82786F;}
</style>
<g>
	<circle class="st0" cx="126.2" cy="89" r="73.8"/>
	<g>
		<path class="st1" d="M199.9,89c0-12-2.9-23.4-8-33.4c-2.1-3-5.2-5.9-7.8-6.8c-5.1-1.8-10.3-0.3-14.5,2.8
			c-6.3,4.5-5.1,7.8-8.9,14.3c-5.3,9.2-13.6,7.4-27.8,7.9c-10.5,0.4-27.7,4.4-33.5,13.4c-5,7.6-5.1,18.9,1.5,24.5
			c12.7,10.8,18-1.9,30.6,0.1c13.7,2.1,16.9,8.5,11.1,21.5c-4.1,9.2-0.6,20.2,0.8,27.5C175.8,153,199.9,123.8,199.9,89z"/>
		<path class="st1" d="M72.6,89.8c7.4-3.6,14.4-10.3,15.5-19c1.4-11.5-9.7-16.8-11-27.3c-0.3-2.7-0.1-6.7,1-10.3
			C62.3,46.7,52.4,66.7,52.4,89c0,1.8,0.1,3.5,0.2,5.3C59.9,94.6,70,91.1,72.6,89.8z"/>
	</g>
	<path class="st2" d="M176.9,1.2l-9.2,16C207.4,40.1,221,90.8,198,130.5c-22.9,39.7-73.7,53.3-113.4,30.4l-9.2,16
		c8,4.6,16.3,8,24.7,10.2l-10.9,21.8H163L152.1,187c25.2-6.7,47.8-23,61.9-47.3C242,91.2,225.4,29.2,176.9,1.2z"/>
</g>
</svg>
