<?xml version="1.0" encoding="utf-8"?>
<!-- Generator: Adobe Illustrator 21.1.0, SVG Export Plug-In . SVG Version: 6.00 Build 0)  -->
<svg version="1.1" id="Layer_1" xmlns="http://www.w3.org/2000/svg" xmlns:xlink="http://www.w3.org/1999/xlink" x="0px" y="0px"
	 viewBox="0 0 450 325" style="enable-background:new 0 0 450 325;" xml:space="preserve">
<style type="text/css">
	.st0{enable-background:new    ;}
	.st1{fill:#82786F;}
	.st2{fill:#86786F;}
	.st3{fill:#F5F5F5;}
	.st4{fill:#DCD2C9;}
	.st5{fill:#C7DFF4;}
	.st6{fill:#9FCDEE;}
	.st7{fill:#65BBE9;}
	.st8{fill:#00ADEF;}
	.st9{fill:#FFFFFF;}
</style>
<g>
	<g class="st0">
		<path class="st1" d="M7.1,236.9v-13.5L4.6,226l-1.1-1.1l3.8-4H9v16H7.1z"/>
		<path class="st1" d="M12.9,239.9l-0.9-0.7c0.8-0.5,1.4-1.5,1.5-2.2c0,0-0.2,0-0.3,0c-0.6,0-1.1-0.5-1.1-1.2s0.5-1.3,1.2-1.3
			c0.8,0,1.4,0.6,1.4,1.8C14.8,237.8,14,239.2,12.9,239.9z"/>
		<path class="st1" d="M16.7,228.9c0-3.9,1.3-8.3,5-8.3s5,4.4,5,8.3c0,3.8-1.3,8.3-5,8.3S16.7,232.8,16.7,228.9z M24.7,228.9
			c0-3.2-0.6-6.6-3.1-6.6c-2.4,0-3,3.4-3,6.6c0,3.1,0.6,6.6,3,6.6S24.7,232.1,24.7,228.9z"/>
		<path class="st1" d="M28.9,228.9c0-3.9,1.3-8.3,5-8.3s5,4.4,5,8.3c0,3.8-1.3,8.3-5,8.3S28.9,232.8,28.9,228.9z M37,228.9
			c0-3.2-0.6-6.6-3.1-6.6c-2.4,0-3,3.4-3,6.6c0,3.1,0.6,6.6,3,6.6S37,232.1,37,228.9z"/>
		<path class="st1" d="M41.2,228.9c0-3.9,1.3-8.3,5-8.3s5,4.4,5,8.3c0,3.8-1.3,8.3-5,8.3S41.2,232.8,41.2,228.9z M49.3,228.9
			c0-3.2-0.6-6.6-3.1-6.6c-2.4,0-3,3.4-3,6.6c0,3.1,0.6,6.6,3,6.6S49.3,232.1,49.3,228.9z"/>
	</g>
	<g class="st0">
		<path class="st1" d="M0.2,198.2v-1.6c5.2-6,7-8,7-10.3c0-1.7-1.2-2.7-2.6-2.7c-1.5,0-2.6,0.7-3.4,2l-1.1-1.1
			c1.1-1.6,2.6-2.6,4.7-2.6c2.4,0,4.5,1.6,4.5,4.4c0,2.7-2,5.1-6.3,10.2h6.3v1.7L0.2,198.2L0.2,198.2z"/>
		<path class="st1" d="M12.9,201.2l-0.9-0.7c0.8-0.5,1.4-1.5,1.5-2.2c0,0-0.2,0-0.3,0c-0.6,0-1.1-0.5-1.1-1.2s0.5-1.3,1.2-1.3
			c0.8,0,1.4,0.6,1.4,1.8C14.8,199.1,14,200.5,12.9,201.2z"/>
		<path class="st1" d="M16.7,190.2c0-3.9,1.3-8.3,5-8.3s5,4.4,5,8.3c0,3.8-1.3,8.3-5,8.3S16.7,194.1,16.7,190.2z M24.7,190.2
			c0-3.2-0.6-6.6-3.1-6.6c-2.4,0-3,3.4-3,6.6c0,3.1,0.6,6.6,3,6.6C24.1,196.8,24.7,193.4,24.7,190.2z"/>
		<path class="st1" d="M28.9,190.2c0-3.9,1.3-8.3,5-8.3s5,4.4,5,8.3c0,3.8-1.3,8.3-5,8.3S28.9,194.1,28.9,190.2z M37,190.2
			c0-3.2-0.6-6.6-3.1-6.6c-2.4,0-3,3.4-3,6.6c0,3.1,0.6,6.6,3,6.6C36.4,196.8,37,193.4,37,190.2z"/>
		<path class="st1" d="M41.2,190.2c0-3.9,1.3-8.3,5-8.3s5,4.4,5,8.3c0,3.8-1.3,8.3-5,8.3S41.2,194.1,41.2,190.2z M49.3,190.2
			c0-3.2-0.6-6.6-3.1-6.6c-2.4,0-3,3.4-3,6.6c0,3.1,0.6,6.6,3,6.6C48.7,196.8,49.3,193.4,49.3,190.2z"/>
	</g>
	<g class="st0">
		<path class="st1" d="M0,157.2l1.2-1.1c0.7,1.2,1.9,2.1,3.4,2.1c1.9,0,2.9-1.2,2.9-3c0-2.2-1.4-2.9-3-2.9c-0.5,0-1.1,0-1.3,0v-1.8
			c0.2,0,0.8,0,1.2,0c1.6,0,2.9-0.9,2.9-2.7c0-1.9-1.2-2.8-2.8-2.8c-1.4,0-2.4,0.7-3.2,1.9l-1.2-1.1c1-1.5,2.6-2.5,4.6-2.5
			c2.6,0,4.5,1.4,4.5,4.2c0,2-1.4,3.4-2.9,3.7c1.4,0.2,3.1,1.7,3.1,4c0,2.7-1.7,4.6-4.8,4.6C2.5,159.8,0.8,158.6,0,157.2z"/>
		<path class="st1" d="M12.9,162.6l-0.9-0.7c0.8-0.5,1.4-1.5,1.5-2.2c0,0-0.2,0-0.3,0c-0.6,0-1.1-0.5-1.1-1.2s0.5-1.3,1.2-1.3
			c0.8,0,1.4,0.6,1.4,1.8C14.8,160.4,14,161.8,12.9,162.6z"/>
		<path class="st1" d="M16.7,151.5c0-3.9,1.3-8.3,5-8.3s5,4.4,5,8.3c0,3.8-1.3,8.3-5,8.3S16.7,155.4,16.7,151.5z M24.7,151.5
			c0-3.2-0.6-6.6-3.1-6.6c-2.4,0-3,3.4-3,6.6c0,3.1,0.6,6.6,3,6.6S24.7,154.7,24.7,151.5z"/>
		<path class="st1" d="M28.9,151.5c0-3.9,1.3-8.3,5-8.3s5,4.4,5,8.3c0,3.8-1.3,8.3-5,8.3S28.9,155.4,28.9,151.5z M37,151.5
			c0-3.2-0.6-6.6-3.1-6.6c-2.4,0-3,3.4-3,6.6c0,3.1,0.6,6.6,3,6.6S37,154.7,37,151.5z"/>
		<path class="st1" d="M41.2,151.5c0-3.9,1.3-8.3,5-8.3s5,4.4,5,8.3c0,3.8-1.3,8.3-5,8.3S41.2,155.4,41.2,151.5z M49.3,151.5
			c0-3.2-0.6-6.6-3.1-6.6c-2.4,0-3,3.4-3,6.6c0,3.1,0.6,6.6,3,6.6S49.3,154.7,49.3,151.5z"/>
	</g>
	<g class="st0">
		<path class="st1" d="M6.5,120.8v-4.1H0.1V115l5.8-10.2h2.4V115h1.8v1.7H8.4v4.1H6.5z M6.5,106.9l-4.6,8.2h4.6V106.9z"/>
		<path class="st1" d="M12.9,123.9l-0.9-0.7c0.8-0.5,1.4-1.5,1.5-2.2c0,0-0.2,0-0.3,0c-0.6,0-1.1-0.5-1.1-1.2s0.5-1.3,1.2-1.3
			c0.8,0,1.4,0.6,1.4,1.8C14.8,121.7,14,123.1,12.9,123.9z"/>
		<path class="st1" d="M16.7,112.8c0-3.9,1.3-8.3,5-8.3s5,4.4,5,8.3c0,3.8-1.3,8.3-5,8.3S16.7,116.7,16.7,112.8z M24.7,112.8
			c0-3.2-0.6-6.6-3.1-6.6c-2.4,0-3,3.4-3,6.6c0,3.1,0.6,6.6,3,6.6C24,119.4,24.7,116,24.7,112.8z"/>
		<path class="st1" d="M28.9,112.8c0-3.9,1.3-8.3,5-8.3s5,4.4,5,8.3c0,3.8-1.3,8.3-5,8.3S28.9,116.7,28.9,112.8z M37,112.8
			c0-3.2-0.6-6.6-3.1-6.6c-2.4,0-3,3.4-3,6.6c0,3.1,0.6,6.6,3,6.6S37,116,37,112.8z"/>
		<path class="st1" d="M41.2,112.8c0-3.9,1.3-8.3,5-8.3s5,4.4,5,8.3c0,3.8-1.3,8.3-5,8.3S41.2,116.7,41.2,112.8z M49.3,112.8
			c0-3.2-0.6-6.6-3.1-6.6c-2.4,0-3,3.4-3,6.6c0,3.1,0.6,6.6,3,6.6S49.3,116,49.3,112.8z"/>
	</g>
	<g class="st0">
		<path class="st1" d="M0.1,79.8l1.3-1.2c0.8,1.3,1.8,2.1,3.4,2.1c1.8,0,2.9-1.6,2.9-3.5c0-2.3-1.1-3.5-2.7-3.5
			c-1.1,0-2,0.4-2.9,1.5l-1.4-0.5v-8.6h8.2v1.7H2.5v5.6c0.6-0.8,1.7-1.4,3-1.4c2.3,0,4.2,1.8,4.2,5.2c0,3-2,5.2-4.8,5.2
			C2.5,82.4,1.1,81.4,0.1,79.8z"/>
		<path class="st1" d="M12.9,85.2l-0.8-0.7c0.8-0.5,1.4-1.5,1.5-2.2c0,0-0.2,0-0.3,0c-0.6,0-1.1-0.5-1.1-1.2s0.5-1.3,1.2-1.3
			c0.8,0,1.4,0.6,1.4,1.8C14.8,83,14,84.4,12.9,85.2z"/>
		<path class="st1" d="M16.7,74.1c0-3.9,1.3-8.3,5-8.3s5,4.4,5,8.3c0,3.8-1.3,8.3-5,8.3S16.7,78,16.7,74.1z M24.7,74.1
			c0-3.2-0.6-6.6-3.1-6.6c-2.4,0-3,3.4-3,6.6c0,3.1,0.6,6.6,3,6.6S24.7,77.3,24.7,74.1z"/>
		<path class="st1" d="M28.9,74.1c0-3.9,1.3-8.3,5-8.3s5,4.4,5,8.3c0,3.8-1.3,8.3-5,8.3S28.9,78,28.9,74.1z M37,74.1
			c0-3.2-0.6-6.6-3.1-6.6c-2.4,0-3,3.4-3,6.6c0,3.1,0.6,6.6,3,6.6S37,77.3,37,74.1z"/>
		<path class="st1" d="M41.2,74.1c0-3.9,1.3-8.3,5-8.3s5,4.4,5,8.3c0,3.8-1.3,8.3-5,8.3S41.2,78,41.2,74.1z M49.3,74.1
			c0-3.2-0.6-6.6-3.1-6.6c-2.4,0-3,3.4-3,6.6c0,3.1,0.6,6.6,3,6.6S49.3,77.3,49.3,74.1z"/>
	</g>
	<g class="st0">
		<path class="st1" d="M0,35.4c0-4.3,1.5-8.3,5.4-8.3c1.7,0,3,0.8,3.7,2l-1,1.4c-0.6-1-1.3-1.6-2.7-1.6c-2.5,0-3.5,3.4-3.5,6.4
			c0,0.2,0,0.3,0,0.5c0.6-1.2,1.9-2.4,3.6-2.4c2.3,0,4.2,1.7,4.2,5.1c0,2.7-1.7,5.2-4.6,5.2C1.3,43.7,0,39.7,0,35.4z M7.7,38.6
			c0-2.5-1.2-3.5-2.7-3.5c-1.3,0-2.4,1.2-3,2.4C2.1,39.3,2.7,42,5,42C6.9,42,7.7,40.2,7.7,38.6z"/>
		<path class="st1" d="M12.9,46.5L12,45.8c0.8-0.5,1.4-1.5,1.5-2.2c0,0-0.2,0-0.3,0c-0.6,0-1.1-0.5-1.1-1.2s0.5-1.3,1.2-1.3
			c0.8,0,1.4,0.6,1.4,1.8C14.8,44.3,14,45.7,12.9,46.5z"/>
		<path class="st1" d="M16.7,35.4c0-3.9,1.3-8.3,5-8.3s5,4.4,5,8.3c0,3.8-1.3,8.3-5,8.3S16.7,39.3,16.7,35.4z M24.7,35.4
			c0-3.2-0.6-6.6-3.1-6.6c-2.4,0-3,3.4-3,6.6c0,3.1,0.6,6.6,3,6.6S24.7,38.6,24.7,35.4z"/>
		<path class="st1" d="M28.9,35.4c0-3.9,1.3-8.3,5-8.3s5,4.4,5,8.3c0,3.8-1.3,8.3-5,8.3S28.9,39.3,28.9,35.4z M37,35.4
			c0-3.2-0.6-6.6-3.1-6.6c-2.4,0-3,3.4-3,6.6c0,3.1,0.6,6.6,3,6.6S37,38.6,37,35.4z"/>
		<path class="st1" d="M41.2,35.4c0-3.9,1.3-8.3,5-8.3s5,4.4,5,8.3c0,3.8-1.3,8.3-5,8.3S41.2,39.3,41.2,35.4z M49.3,35.4
			c0-3.2-0.6-6.6-3.1-6.6c-2.4,0-3,3.4-3,6.6c0,3.1,0.6,6.6,3,6.6S49.3,38.6,49.3,35.4z"/>
	</g>
	<g>
		<g>
			<path class="st2" d="M388.1,313.8c-1.2-2-1.8-4.3-1.8-6.8s0.6-4.8,1.8-6.8l0.7,0.4c-0.8,1.9-1.3,3.8-1.3,6.4s0.5,4.4,1.3,6.4
				L388.1,313.8z"/>
			<path class="st2" d="M390.2,310.7v-10.2h3.1c1.9,0,2.8,1.4,2.8,3.1s-1,3.1-2.8,3.1h-1.9v4.1h-1.2V310.7z M394.9,303.5
				c0-1.2-0.6-2-1.7-2h-1.8v4h1.8C394.2,305.5,394.9,304.7,394.9,303.5z"/>
			<path class="st2" d="M397.6,310.7v-7.4h1.1v1.2c0.5-0.8,1.2-1.3,2.1-1.3v1.1c-0.1,0-0.2,0-0.4,0c-0.7,0-1.4,0.6-1.7,1.2v5.3h-1.1
				V310.7z"/>
			<path class="st2" d="M401.7,307c0-2.1,1-3.9,3-3.9s3,1.8,3,3.9s-1,3.9-3,3.9S401.7,309.1,401.7,307z M406.6,307
				c0-1.5-0.6-2.9-1.9-2.9s-1.9,1.4-1.9,2.9s0.6,2.9,1.9,2.9S406.6,308.5,406.6,307z"/>
			<path class="st2" d="M408,313.6l0.2-0.9c0.1,0,0.3,0.1,0.4,0.1c0.5,0,0.8-0.3,0.8-1v-8.4h1.1v8.4c0,1.3-0.6,2-1.8,2
				C408.4,313.7,408.2,313.7,408,313.6z M409.2,301.5c0-0.4,0.4-0.8,0.8-0.8s0.8,0.3,0.8,0.8c0,0.4-0.3,0.8-0.8,0.8
				C409.5,302.2,409.2,301.9,409.2,301.5z"/>
			<path class="st2" d="M412.1,307c0-2.1,1.1-3.9,3-3.9s2.9,1.7,2.9,3.9v0.3h-4.8c0,1.5,0.8,2.6,2.1,2.6c0.6,0,1.3-0.3,1.8-0.9
				l0.6,0.6c-0.6,0.7-1.4,1.2-2.4,1.2C413.3,310.9,412.1,309.3,412.1,307z M415.1,304c-1.3,0-1.8,1.4-1.9,2.5h3.7
				C417,305.4,416.5,304,415.1,304z"/>
			<path class="st2" d="M419.3,307c0-2.2,1.2-3.9,3.1-3.9c1,0,1.7,0.4,2.1,1l-0.6,0.8c-0.4-0.5-0.9-0.8-1.4-0.8c-1.3,0-2,1.3-2,2.9
				s0.7,2.9,2,2.9c0.6,0,1-0.2,1.4-0.8l0.6,0.8c-0.5,0.6-1.1,1-2.1,1C420.5,310.9,419.3,309.2,419.3,307z"/>
			<path class="st2" d="M426.1,309.2v-5h-1v-1h1v-2h1.1v2h1.3v1h-1.3v4.8c0,0.6,0.2,0.9,0.6,0.9c0.3,0,0.5-0.1,0.6-0.3l0.3,0.8
				c-0.3,0.3-0.6,0.4-1.2,0.4C426.6,310.9,426.1,310.3,426.1,309.2z"/>
			<path class="st2" d="M429.6,307c0-2.1,1.1-3.9,3-3.9s2.9,1.7,2.9,3.9v0.3h-4.8c0,1.5,0.8,2.6,2.1,2.6c0.6,0,1.3-0.3,1.8-0.9
				l0.6,0.6c-0.6,0.7-1.4,1.2-2.4,1.2C430.8,310.9,429.6,309.3,429.6,307z M432.6,304c-1.3,0-1.8,1.4-1.9,2.5h3.7
				C434.4,305.4,433.9,304,432.6,304z"/>
			<path class="st2" d="M441.4,310.7v-1.1c-0.4,0.8-1.2,1.2-1.9,1.2c-1.7,0-2.7-1.6-2.7-3.9s1-3.9,2.7-3.9c0.8,0,1.5,0.4,1.9,1.3
				v-3.8h1.1v10.2H441.4z M441.4,308.7v-3.4c-0.3-0.6-1-1.2-1.7-1.2c-1.2,0-1.8,1.3-1.8,2.9s0.6,2.9,1.8,2.9
				C440.4,309.9,441.1,309.4,441.4,308.7z"/>
			<path class="st2" d="M443.8,313.3c0.8-1.9,1.3-3.8,1.3-6.4s-0.5-4.4-1.3-6.4l0.7-0.4c1.2,2,1.8,4.3,1.8,6.8s-0.6,4.8-1.8,6.8
				L443.8,313.3z"/>
		</g>
		<g>
			<rect x="62.5" class="st3" width="375.9" height="268.7"/>
		</g>
		<g>
			<rect x="62.5" y="229.8" class="st4" width="375.9" height="1"/>
		</g>
		<g>
			<rect x="62.5" y="76.3" class="st4" width="375.9" height="1"/>
		</g>
		<g>
			<rect x="62.5" y="153.1" class="st4" width="375.9" height="1"/>
		</g>
		<g>
			<rect x="62.5" y="191.4" class="st4" width="375.9" height="1"/>
		</g>
		<g>
			<rect x="62.5" y="114.7" class="st4" width="375.9" height="1"/>
		</g>
		<g>
			<rect x="62.5" y="38" class="st4" width="375.9" height="1"/>
		</g>
		<g>
			<path class="st5" d="M360.9,42.6l-55.3-1.9l-55.3,9L195,62.6l-55.2,5.7L84.7,89.7v0.2l0,0v11.4l0,0l0,0v167.4h331.4V96.2v-0.1V51
				l0,0l0,0V35.3l0,0v-1.1L360.9,42.6z"/>
		</g>
		<g>
			<polygon class="st6" points="416.1,35.3 360.9,50.2 305.6,45.2 250.3,51.4 195.1,62.8 139.8,68.5 84.8,89.9 84.8,101.3 
				84.8,101.3 84.8,101.3 84.8,268.7 416.1,268.7 416.1,96.2 416.1,96.1 416.1,51 416.1,51 416.1,51 			"/>
		</g>
		<g>
			<path class="st7" d="M360.9,65.5l-55.3-5.3L250.3,64L195,75.4l-55.2,4.2l-55.1,21.7v167.4h331.4V96.2v-0.1V51L360.9,65.5z"/>
		</g>
		<g class="st0">
			<path class="st1" d="M76.7,284l-0.9-0.7c0.8-0.5,1.4-1.5,1.5-2.2c0,0-0.2,0-0.3,0c-0.6,0-1.1-0.5-1.1-1.2s0.5-1.2,1.2-1.2
				c0.8,0,1.4,0.6,1.4,1.8C78.6,281.9,77.8,283.2,76.7,284z"/>
			<path class="st1" d="M83.9,294.9v-13.5l-2.5,2.6l-1.2-1.2l3.8-4h1.7v16h-1.8V294.9z"/>
			<path class="st1" d="M91.5,294.9v-13.5L89,284l-1.2-1.2l3.8-4h1.7v16h-1.8V294.9z"/>
		</g>
		<g class="st0">
			<path class="st1" d="M294.9,284l-0.9-0.7c0.8-0.5,1.4-1.5,1.5-2.2c0,0-0.2,0-0.3,0c-0.6,0-1.1-0.5-1.1-1.2s0.5-1.2,1.2-1.2
				c0.8,0,1.4,0.6,1.4,1.8C296.8,281.9,296,283.2,294.9,284z"/>
			<path class="st1" d="M302.2,294.9v-13.5l-2.5,2.6l-1.2-1.2l3.8-4h1.7v16h-1.8V294.9z"/>
			<path class="st1" d="M307,292.6l1.3-1.2c0.8,1.3,1.8,2.1,3.4,2.1c1.8,0,2.9-1.6,2.9-3.5c0-2.3-1.1-3.5-2.7-3.5
				c-1.1,0-2,0.4-2.9,1.5l-1.4-0.5v-8.6h8.2v1.7h-6.3v5.6c0.6-0.8,1.7-1.4,3-1.4c2.3,0,4.2,1.8,4.2,5.2c0,3-2,5.2-4.8,5.2
				C309.4,295.2,308,294.2,307,292.6z"/>
		</g>
		<g class="st0">
			<path class="st1" d="M128.4,284l-0.9-0.7c0.8-0.5,1.4-1.5,1.5-2.2c0,0-0.2,0-0.3,0c-0.6,0-1.1-0.5-1.1-1.2s0.5-1.2,1.2-1.2
				c0.8,0,1.4,0.6,1.4,1.8C130.3,281.9,129.4,283.2,128.4,284z"/>
			<path class="st1" d="M135.6,294.9v-13.5l-2.5,2.6l-1.2-1.2l3.8-4h1.7v16h-1.8V294.9z"/>
			<path class="st1" d="M140.5,294.9v-1.6c5.2-6,7-8,7-10.3c0-1.7-1.2-2.7-2.6-2.7c-1.5,0-2.6,0.7-3.4,2l-1.2-1.2
				c1.1-1.6,2.6-2.6,4.7-2.6c2.4,0,4.5,1.6,4.5,4.4c0,2.7-2,5.1-6.3,10.2h6.3v1.7h-9V294.9z"/>
		</g>
		<g class="st0">
			<path class="st1" d="M350.8,284l-0.9-0.7c0.8-0.5,1.4-1.5,1.5-2.2c0,0-0.2,0-0.3,0c-0.6,0-1.1-0.5-1.1-1.2s0.5-1.2,1.2-1.2
				c0.8,0,1.4,0.6,1.4,1.8C352.8,281.9,351.9,283.2,350.8,284z"/>
			<path class="st1" d="M358.1,294.9v-13.5l-2.5,2.6l-1.2-1.2l3.8-4h1.7v16h-1.8V294.9z"/>
			<path class="st1" d="M362.8,286.9c0-4.3,1.5-8.3,5.4-8.3c1.7,0,3,0.8,3.7,2l-1.1,1.3c-0.6-1-1.3-1.6-2.7-1.6
				c-2.5,0-3.5,3.4-3.5,6.4c0,0.2,0,0.3,0,0.5c0.6-1.1,1.9-2.4,3.5-2.4c2.3,0,4.2,1.7,4.2,5.1c0,2.7-1.7,5.2-4.6,5.2
				C364,295.2,362.8,291.2,362.8,286.9z M370.5,290c0-2.5-1.2-3.5-2.7-3.5c-1.3,0-2.4,1.2-3,2.4c0.1,1.8,0.7,4.5,3,4.5
				C369.7,293.5,370.5,291.7,370.5,290z"/>
		</g>
		<g class="st0">
			<path class="st1" d="M404.7,284l-0.9-0.7c0.8-0.5,1.4-1.5,1.5-2.2c0,0-0.2,0-0.3,0c-0.6,0-1.1-0.5-1.1-1.2s0.5-1.2,1.2-1.2
				c0.8,0,1.4,0.6,1.4,1.8C406.7,281.9,405.8,283.2,404.7,284z"/>
			<path class="st1" d="M412,294.9v-13.5l-2.5,2.6l-1.2-1.2l3.8-4h1.7v16H412V294.9z"/>
			<path class="st1" d="M417.9,294.9l5-14.3h-6.8v-1.7h8.9v1.3l-5.1,14.7H417.9z"/>
		</g>
		<g class="st0">
			<path class="st1" d="M184.2,284l-0.9-0.7c0.8-0.5,1.4-1.5,1.5-2.2c0,0-0.2,0-0.3,0c-0.6,0-1.1-0.5-1.1-1.2s0.5-1.2,1.2-1.2
				c0.8,0,1.4,0.6,1.4,1.8C186.2,281.9,185.3,283.2,184.2,284z"/>
			<path class="st1" d="M191.5,294.9v-13.5L189,284l-1.2-1.2l3.8-4h1.7v16h-1.8V294.9z"/>
			<path class="st1" d="M195.8,292.5l1.2-1.1c0.7,1.2,1.9,2.1,3.4,2.1c1.9,0,2.9-1.2,2.9-3c0-2.2-1.4-2.9-3-2.9c-0.5,0-1.1,0-1.3,0
				v-1.7c0.2,0,0.8,0,1.2,0c1.6,0,2.9-0.9,2.9-2.7c0-1.9-1.2-2.8-2.8-2.8c-1.4,0-2.4,0.7-3.2,1.9l-1.2-1.1c1-1.5,2.6-2.5,4.6-2.5
				c2.6,0,4.5,1.4,4.5,4.2c0,2-1.4,3.4-2.9,3.7c1.4,0.2,3.1,1.7,3.1,4c0,2.7-1.7,4.6-4.8,4.6C198.2,295.2,196.6,294,195.8,292.5z"/>
		</g>
		<g class="st0">
			<path class="st1" d="M239.7,284l-0.9-0.7c0.8-0.5,1.4-1.5,1.5-2.2c0,0-0.2,0-0.3,0c-0.6,0-1.1-0.5-1.1-1.2s0.5-1.2,1.2-1.2
				c0.8,0,1.4,0.6,1.4,1.8C241.6,281.9,240.8,283.3,239.7,284z"/>
			<path class="st1" d="M247,294.9v-13.5l-2.5,2.6l-1.2-1.2l3.8-4h1.7v16H247V294.9z"/>
			<path class="st1" d="M257.4,294.9v-4.1h-6.3v-1.7l5.8-10.2h2.4v10.2h1.8v1.7h-1.8v4.1H257.4z M257.4,281l-4.6,8.2h4.6V281z"/>
		</g>
		<g class="st0">
			<path class="st1" d="M244.4,24.7c0-4.6,2.2-8.3,6-8.3c3.9,0,6.1,3.6,6.1,8.3c0,4.6-2.2,8.3-6.1,8.3
				C246.5,33,244.4,29.4,244.4,24.7z M254.5,24.7c0-3.7-1.4-6.6-4.1-6.6c-2.6,0-4.1,2.9-4.1,6.6c0,3.6,1.4,6.6,4.1,6.6
				S254.5,28.4,254.5,24.7z"/>
			<path class="st1" d="M265.5,32.7v-1.6c-0.7,1-1.9,1.9-3.4,1.9c-2,0-2.9-1-2.9-3.1v-8.8h1.7v8.3c0,1.5,0.7,2.1,1.8,2.1
				c1.2,0,2.2-0.8,2.7-1.8v-8.5h1.7v11.6h-1.6L265.5,32.7L265.5,32.7z"/>
			<path class="st1" d="M270.7,30.4v-7.8h-1.5v-1.5h1.5v-3.2h1.7v3.2h2v1.5h-2V30c0,0.9,0.3,1.4,0.9,1.4c0.4,0,0.8-0.2,1-0.5
				l0.5,1.3c-0.4,0.4-1,0.7-1.9,0.7C271.4,33,270.7,32.1,270.7,30.4z"/>
			<path class="st1" d="M276.7,32.7v-16h1.7v6.1c0.7-1.3,1.9-2,3-2c2.6,0,4.2,2.5,4.2,6.1s-1.5,6.1-4.2,6.1c-1.2,0-2.4-0.8-3-1.9
				v1.7L276.7,32.7L276.7,32.7z M281,31.5c1.9,0,2.8-2,2.8-4.5s-0.9-4.6-2.8-4.6c-1.1,0-2.2,0.9-2.6,1.9v5.3
				C278.8,30.6,279.9,31.5,281,31.5z"/>
			<path class="st1" d="M287.6,26.9c0-3.3,1.6-6.1,4.7-6.1s4.7,2.8,4.7,6.1s-1.6,6.1-4.7,6.1S287.6,30.2,287.6,26.9z M295.2,26.9
				c0-2.3-0.9-4.5-2.9-4.5s-2.9,2.2-2.9,4.5c0,2.4,0.9,4.6,2.9,4.6S295.2,29.3,295.2,26.9z"/>
			<path class="st1" d="M305.9,32.7v-1.6c-0.7,1-1.9,1.9-3.4,1.9c-2,0-2.9-1-2.9-3.1v-8.8h1.7v8.3c0,1.5,0.7,2.1,1.8,2.1
				c1.2,0,2.2-0.8,2.7-1.8v-8.5h1.7v11.6h-1.6L305.9,32.7L305.9,32.7z"/>
			<path class="st1" d="M317,32.7v-8.2c0-1.5-0.7-2.1-1.8-2.1s-2.2,0.9-2.7,1.8v8.5h-1.7V21.1h1.7v1.7c0.7-1,2-1.9,3.4-1.9
				c2,0,2.9,1.1,2.9,3.1v8.7C318.8,32.7,317,32.7,317,32.7z"/>
			<path class="st1" d="M328.6,32.7V31c-0.7,1.2-1.8,1.9-3,1.9c-2.6,0-4.2-2.4-4.2-6.1c0-3.6,1.5-6.1,4.2-6.1c1.2,0,2.4,0.7,3,2
				v-6.1h1.7v16L328.6,32.7L328.6,32.7z M328.6,29.6v-5.3c-0.4-1-1.5-1.9-2.6-1.9c-1.9,0-2.8,2-2.8,4.6c0,2.5,0.9,4.5,2.8,4.5
				C327.1,31.5,328.1,30.6,328.6,29.6z"/>
		</g>
		<g class="st0">
			<path class="st1" d="M350.9,20.4l1.1-1.5c0.8,1,2.2,1.8,3.7,1.8c2,0,2.9-1.2,2.9-2.6c0-1.8-1.5-2.6-3.2-3.4
				c-1.9-0.9-4.1-1.9-4.1-4.7c0-2.4,1.9-4.2,4.6-4.2c1.8,0,3.2,0.6,4.3,1.7l-1,1.4c-0.9-1-2-1.4-3.3-1.4c-1.5,0-2.6,1-2.6,2.4
				c0,1.5,1.4,2.2,3,3c2,1,4.2,2,4.2,5c0,2.4-1.6,4.4-4.9,4.4C353.6,22.4,352,21.6,350.9,20.4z"/>
			<path class="st1" d="M364.8,20.4v6.1h-1.7v-16h1.7v1.7c0.7-1.2,1.8-1.9,3-1.9c2.6,0,4.2,2.4,4.2,6.1c0,3.6-1.5,6.1-4.2,6.1
				C366.7,22.4,365.5,21.7,364.8,20.4z M370.2,16.3c0-2.5-0.9-4.5-2.8-4.5c-1.1,0-2.2,0.9-2.6,1.9V19c0.5,1,1.5,1.9,2.6,1.9
				C369.3,20.9,370.2,18.8,370.2,16.3z"/>
			<path class="st1" d="M374,16.3c0-3.4,1.8-6.1,4.7-6.1c3,0,4.6,2.7,4.6,6.1v0.5h-7.5c0.1,2.3,1.3,4.1,3.3,4.1c1,0,2-0.5,2.8-1.4
				l0.9,1c-0.9,1.2-2.3,1.8-3.8,1.8C375.8,22.4,374,19.8,374,16.3z M378.7,11.7c-2,0-2.9,2.2-2.9,3.9h5.8
				C381.5,13.8,380.8,11.7,378.7,11.7z"/>
			<path class="st1" d="M385.2,16.3c0-3.4,1.8-6.1,4.8-6.1c1.6,0,2.6,0.6,3.3,1.5l-0.9,1.2c-0.6-0.8-1.3-1.2-2.2-1.2
				c-2.1,0-3.1,2.1-3.1,4.5c0,2.5,1.1,4.6,3.1,4.6c0.9,0,1.6-0.4,2.2-1.2l0.9,1.2c-0.7,0.9-1.7,1.5-3.3,1.5
				C387,22.4,385.2,19.7,385.2,16.3z"/>
			<path class="st1" d="M395.2,7.7c0-0.6,0.6-1.2,1.2-1.2s1.2,0.5,1.2,1.2s-0.5,1.2-1.2,1.2C395.7,8.8,395.2,8.3,395.2,7.7z
				 M395.5,22.1V10.5h1.7v11.6H395.5z"/>
			<path class="st1" d="M406.4,22.1v-1.2c-0.7,1.1-1.9,1.5-3,1.5c-1.9,0-3.5-1.4-3.5-3.9c0-2.4,1.6-3.8,3.5-3.8c1.2,0,2.3,0.5,3,1.5
				v-2c0-1.6-0.9-2.5-2.4-2.5c-1.1,0-2,0.4-2.9,1.4l-0.8-1.2c1.1-1.2,2.5-1.7,3.9-1.7c2.3,0,3.8,1.1,3.8,3.8v8.1H406.4z M406.4,19.7
				v-2.2c-0.5-1-1.5-1.5-2.5-1.5c-1.4,0-2.3,1.1-2.3,2.6c0,1.4,0.9,2.6,2.3,2.6C404.9,21.1,405.8,20.6,406.4,19.7z"/>
			<path class="st1" d="M411.2,22.1v-16h1.7v16H411.2z"/>
			<path class="st1" d="M416.4,19.8V12h-1.5v-1.5h1.5V7.3h1.7v3.2h2V12h-2v7.5c0,0.9,0.3,1.4,0.9,1.4c0.4,0,0.8-0.2,1-0.5l0.5,1.3
				c-0.4,0.4-1,0.7-1.9,0.7C417.2,22.4,416.4,21.5,416.4,19.8z"/>
			<path class="st1" d="M422.1,25.1c0.2,0.1,0.6,0.2,0.8,0.2c0.7,0,1.1-0.3,1.4-1.2l0.6-1.8L421,10.5h1.9l2.9,9.5l2.9-9.5h1.8
				l-4.6,14c-0.6,1.7-1.5,2.3-2.9,2.3c-0.4,0-0.9-0.1-1.2-0.2L422.1,25.1z"/>
		</g>
		<g>
			<rect x="306.1" y="35.3" class="st1" width="1" height="9.9"/>
		</g>
		<g class="st0">
			<path class="st1" d="M233.5,321v-6.6l-4.9-9.4h3.6l3,6.4l3-6.4h3.6l-4.9,9.4v6.6H233.5z"/>
			<path class="st1" d="M240,315.2c0-3.4,2-6.1,5.2-6.1s5,2.6,5,6.2v0.8h-7.3c0.1,1.6,1.1,2.8,2.8,2.8c0.8,0,1.9-0.4,2.5-1.1
				l1.3,1.7c-1,1.1-2.6,1.7-4.2,1.7C242.2,321.3,240,318.9,240,315.2z M245.2,311.5c-1.6,0-2.2,1.5-2.2,2.7h4.5
				C247.4,313,246.8,311.5,245.2,311.5z"/>
			<path class="st1" d="M258.1,321v-1.2c-0.6,0.9-1.9,1.4-3,1.4c-1.8,0-3.6-1.4-3.6-3.8c0-2.5,1.8-3.8,3.6-3.8c1.2,0,2.4,0.5,3,1.4
				v-1.5c0-1.2-0.8-2-2.1-2c-1,0-2,0.4-2.9,1.2l-1.1-2c1.2-1.2,3-1.7,4.5-1.7c2.5,0,4.5,1.1,4.5,4.1v7.8h-2.9V321z M258.1,318.3
				v-1.5c-0.4-0.7-1.2-1.1-1.9-1.1c-1.1,0-1.8,0.8-1.8,1.9s0.7,1.8,1.8,1.8C257,319.4,257.7,319,258.1,318.3z"/>
			<path class="st1" d="M263.6,321v-11.6h2.9v1.6c0.6-1,1.9-1.9,3.2-1.9v2.8c-0.2,0-0.4-0.1-0.7-0.1c-0.9,0-2,0.6-2.5,1.4v7.7h-2.9
				V321z"/>
		</g>
		<g>
			<polygon class="st8" points="416.1,268.7 84.8,268.7 84.8,115.3 139.8,103.6 195.1,98.7 250.3,89.1 305.6,91.1 360.9,96.1 
				416.1,96.1 			"/>
		</g>
		<g class="st0">
			<path class="st9" d="M323.6,258.7v-14.3h-3.8v-1.7h9.5v1.7h-3.8v14.3H323.6z"/>
			<path class="st9" d="M330.1,258.7v-11.6h1.7v1.8c0.7-1.2,1.9-2.1,3.3-2.1v1.8c-0.2,0-0.4-0.1-0.6-0.1c-1.1,0-2.2,0.9-2.7,1.9v8.2
				h-1.7L330.1,258.7L330.1,258.7z"/>
			<path class="st9" d="M343,258.7v-1.2c-0.7,1.1-1.9,1.5-3,1.5c-1.9,0-3.5-1.4-3.5-3.9c0-2.4,1.6-3.8,3.5-3.8c1.2,0,2.3,0.5,3,1.5
				v-2c0-1.6-0.9-2.5-2.4-2.5c-1.1,0-2,0.4-2.9,1.4l-0.7-1.2c1.1-1.2,2.5-1.7,3.9-1.7c2.3,0,3.8,1.1,3.8,3.8v8.1L343,258.7
				L343,258.7z M343,256.2V254c-0.5-1-1.5-1.5-2.5-1.5c-1.4,0-2.3,1.1-2.3,2.6c0,1.4,0.9,2.6,2.3,2.6
				C341.5,257.7,342.5,257.2,343,256.2z"/>
			<path class="st9" d="M347.6,244.2c0-0.6,0.6-1.2,1.2-1.2s1.2,0.5,1.2,1.2s-0.5,1.2-1.2,1.2C348.1,245.4,347.6,244.9,347.6,244.2z
				 M347.9,258.7v-11.6h1.7v11.6H347.9z"/>
			<path class="st9" d="M359,258.7v-8.3c0-1.5-0.7-2.1-1.8-2.1c-1.1,0-2.2,0.9-2.7,1.8v8.5h-1.7V247h1.7v1.7c0.7-1,2-1.9,3.4-1.9
				c2,0,2.9,1.1,2.9,3.1v8.7L359,258.7L359,258.7z"/>
			<path class="st9" d="M369.2,253.5v-10.8h1.9v10.8c0,2.5,1.2,3.7,3.2,3.7c2.1,0,3.2-1.3,3.2-3.7v-10.8h1.9v10.8
				c0,3.5-1.9,5.5-5.1,5.5C371.1,258.9,369.2,257,369.2,253.5z"/>
			<path class="st9" d="M381.8,256.9l1.1-1.5c0.8,1,2.2,1.8,3.7,1.8c2,0,2.9-1.2,2.9-2.6c0-1.8-1.5-2.6-3.2-3.4
				c-1.9-0.9-4.1-1.9-4.1-4.7c0-2.4,1.9-4.2,4.6-4.2c1.8,0,3.2,0.6,4.3,1.7l-1,1.4c-0.9-1-2-1.4-3.3-1.4c-1.5,0-2.6,1-2.6,2.4
				c0,1.5,1.4,2.2,3,3c2,1,4.2,2,4.2,5c0,2.4-1.6,4.4-4.9,4.4C384.5,258.9,382.9,258.2,381.8,256.9z"/>
			<path class="st9" d="M402.4,258.7l-1-3.6h-5.7l-1,3.6h-2.1l4.8-16h2.3l4.8,16H402.4z M398.6,244.8l-2.4,8.6h4.9L398.6,244.8z"/>
		</g>
		<g class="st0">
			<path class="st9" d="M278.8,76.4c0-4.6,2.2-8.3,6-8.3s6.1,3.6,6.1,8.3c0,4.6-2.2,8.3-6.1,8.3C280.9,84.7,278.8,81,278.8,76.4z
				 M288.9,76.4c0-3.7-1.4-6.6-4.1-6.6c-2.6,0-4.1,2.9-4.1,6.6c0,3.6,1.4,6.6,4.1,6.6C287.5,82.9,288.9,80,288.9,76.4z"/>
			<path class="st9" d="M294,82v-7.8h-1.5v-1.5h1.5v-3.2h1.7v3.2h2v1.5h-2v7.4c0,0.9,0.3,1.4,0.9,1.4c0.4,0,0.8-0.2,1-0.5l0.5,1.3
				c-0.4,0.4-1,0.7-1.9,0.7C294.7,84.6,294,83.7,294,82z"/>
			<path class="st9" d="M306.2,84.3V76c0-1.5-0.7-2.1-1.9-2.1c-1.1,0-2.2,0.9-2.7,1.8v8.5h-1.7v-16h1.7v6.1c0.7-1,2-1.9,3.4-1.9
				c2,0,2.9,1,2.9,3.1v8.8H306.2z"/>
			<path class="st9" d="M310.5,78.5c0-3.4,1.8-6.1,4.7-6.1c3,0,4.6,2.7,4.6,6.1V79h-7.5c0.1,2.3,1.3,4.1,3.3,4.1c1,0,2-0.5,2.8-1.4
				l0.9,1c-0.9,1.2-2.3,1.8-3.8,1.8C312.4,84.6,310.5,82.1,310.5,78.5z M315.2,73.9c-2,0-2.9,2.2-2.9,3.9h5.8
				C318.1,76.1,317.3,73.9,315.2,73.9z"/>
			<path class="st9" d="M322.3,84.3V72.8h1.7v1.8c0.7-1.2,1.9-2.1,3.3-2.1v1.8c-0.2,0-0.4-0.1-0.6-0.1c-1.1,0-2.2,0.9-2.7,1.9v8.2
				C324,84.3,322.3,84.3,322.3,84.3z"/>
			<path class="st9" d="M334.6,84.3v-16h1.9v16H334.6z"/>
			<path class="st9" d="M346,84.3V76c0-1.5-0.7-2.1-1.8-2.1c-1.1,0-2.2,0.9-2.7,1.8v8.5h-1.7V72.8h1.7v1.7c0.7-1,2-1.9,3.4-1.9
				c2,0,2.9,1.1,2.9,3.1v8.7L346,84.3L346,84.3z"/>
			<path class="st9" d="M350.9,84.3v-16h1.7v6.1c0.7-1.3,1.9-2,3-2c2.6,0,4.2,2.5,4.2,6.1s-1.5,6.1-4.2,6.1c-1.2,0-2.4-0.8-3-1.9
				v1.7L350.9,84.3L350.9,84.3z M355.2,83.1c1.9,0,2.8-2,2.8-4.5s-0.9-4.6-2.8-4.6c-1.1,0-2.2,0.9-2.6,1.9v5.3
				C353.1,82.2,354.2,83.1,355.2,83.1z"/>
			<path class="st9" d="M361.9,78.5c0-3.3,1.6-6.1,4.7-6.1s4.7,2.8,4.7,6.1s-1.6,6.1-4.7,6.1S361.9,81.8,361.9,78.5z M369.5,78.5
				c0-2.3-0.9-4.5-2.9-4.5s-2.9,2.2-2.9,4.5c0,2.4,0.9,4.6,2.9,4.6S369.5,80.9,369.5,78.5z"/>
			<path class="st9" d="M380.1,84.3v-1.6c-0.7,1-1.9,1.9-3.4,1.9c-2,0-2.9-1-2.9-3.1v-8.8h1.7V81c0,1.5,0.7,2.1,1.8,2.1
				c1.2,0,2.2-0.8,2.7-1.8v-8.5h1.7v11.6L380.1,84.3L380.1,84.3z"/>
			<path class="st9" d="M391.3,84.3V76c0-1.5-0.7-2.1-1.8-2.1c-1.1,0-2.2,0.9-2.7,1.8v8.5H385V72.8h1.7v1.7c0.7-1,2-1.9,3.4-1.9
				c2,0,2.9,1.1,2.9,3.1v8.7L391.3,84.3L391.3,84.3z"/>
			<path class="st9" d="M402.8,84.3v-1.7c-0.7,1.2-1.8,1.9-3,1.9c-2.6,0-4.2-2.4-4.2-6.1c0-3.6,1.5-6.1,4.2-6.1c1.2,0,2.4,0.7,3,2
				v-6.1h1.7v16L402.8,84.3L402.8,84.3z M402.8,81.2v-5.3c-0.4-1-1.5-1.9-2.6-1.9c-1.9,0-2.8,2-2.8,4.6c0,2.5,0.9,4.5,2.8,4.5
				C401.3,83.1,402.4,82.2,402.8,81.2z"/>
		</g>
		<g>
			<rect x="411.5" y="24.8" class="st1" width="1" height="9.9"/>
		</g>
	</g>
</g>
</svg>
