<?xml version="1.0" encoding="utf-8"?>
<!-- Generator: Adobe Illustrator 21.1.0, SVG Export Plug-In . SVG Version: 6.00 Build 0)  -->
<svg version="1.1" id="Layer_1" xmlns="http://www.w3.org/2000/svg" xmlns:xlink="http://www.w3.org/1999/xlink" x="0px" y="0px"
	 viewBox="0 0 430 150" style="enable-background:new 0 0 430 150;" xml:space="preserve">
<style type="text/css">
	.st0{fill:#F5F5F5;}
	.st1{fill:#00ADEF;}
</style>
<g>
	<path class="st0" d="M270.4,94.6V78.5h-32.2v16.1c0,8.9,7.2,16.1,16.1,16.1C263.2,110.7,270.4,103.5,270.4,94.6"/>
	<path class="st0" d="M270.4,133.9v-16.1h-32.2v16.1c0,8.9,7.2,16.1,16.1,16.1C263.2,150,270.4,142.8,270.4,133.9"/>
	<path class="st0" d="M270.4,55.4V39.3h-32.2v16.1c0,8.9,7.2,16.1,16.1,16.1C263.2,71.5,270.4,64.3,270.4,55.4"/>
	<path class="st0" d="M270.4,16.1V0h-32.2v16.1c0,8.9,7.2,16.1,16.1,16.1C263.2,32.2,270.4,25,270.4,16.1"/>
	<path class="st0" d="M231.1,94.6V78.5h-32.2v16.1c0,8.9,7.2,16.1,16.1,16.1S231.1,103.5,231.1,94.6"/>
	<path class="st0" d="M231.1,133.9v-16.1h-32.2v16.1c0,8.9,7.2,16.1,16.1,16.1S231.1,142.8,231.1,133.9"/>
	<path class="st0" d="M191.9,16.1V0h-32.2v16.1c0,8.9,7.2,16.1,16.1,16.1S191.9,25,191.9,16.1"/>
	<path class="st0" d="M231.1,55.4V39.3h-32.2v16.1c0,8.9,7.2,16.1,16.1,16.1S231.1,64.3,231.1,55.4"/>
	<path class="st0" d="M231.1,16.1V0h-32.2v16.1c0,8.9,7.2,16.1,16.1,16.1S231.1,25,231.1,16.1"/>
	<path class="st0" d="M309.6,94.6V78.5h-32.2v16.1c0,8.9,7.2,16.1,16.1,16.1S309.6,103.5,309.6,94.6"/>
	<path class="st0" d="M309.6,133.9v-16.1h-32.2v16.1c0,8.9,7.2,16.1,16.1,16.1S309.6,142.8,309.6,133.9"/>
	<path class="st0" d="M309.6,55.4V39.3h-32.2v16.1c0,8.9,7.2,16.1,16.1,16.1S309.6,64.3,309.6,55.4"/>
	<path class="st0" d="M309.6,16.1V0h-32.2v16.1c0,8.9,7.2,16.1,16.1,16.1S309.6,25,309.6,16.1"/>
	<path class="st1" d="M152.6,150v-16.1c0-8.9-7.2-16.1-16.1-16.1s-16.1,7.2-16.1,16.1V150H152.6z"/>
	<path class="st1" d="M152.6,71.5V55.4c0-8.9-7.2-16.1-16.1-16.1s-16.1,7.2-16.1,16.1v16.1H152.6z"/>
	<path class="st1" d="M191.9,71.5V55.4c0-8.9-7.2-16.1-16.1-16.1s-16.1,7.2-16.1,16.1v16.1H191.9z"/>
	<path class="st1" d="M152.6,110.7V94.6c0-8.9-7.2-16.1-16.1-16.1s-16.1,7.2-16.1,16.1v16.1H152.6z"/>
	<path class="st1" d="M152.6,32.2V16.1c0-8.9-7.2-16.1-16.1-16.1s-16.1,7.2-16.1,16.1v16.1H152.6z"/>
	<path class="st1" d="M191.9,110.7V94.6c0-8.9-7.2-16.1-16.1-16.1s-16.1,7.2-16.1,16.1v16.1H191.9z"/>
	<path class="st1" d="M191.9,150v-16.1c0-8.9-7.2-16.1-16.1-16.1s-16.1,7.2-16.1,16.1V150H191.9z"/>
</g>
</svg>
