<?xml version="1.0" encoding="utf-8"?>
<!-- Generator: Adobe Illustrator 21.1.0, SVG Export Plug-In . SVG Version: 6.00 Build 0)  -->
<svg version="1.1" id="Layer_1" xmlns="http://www.w3.org/2000/svg" xmlns:xlink="http://www.w3.org/1999/xlink" x="0px" y="0px"
	 viewBox="0 0 450 325" style="enable-background:new 0 0 450 325;" xml:space="preserve">
<style type="text/css">
	.st0{fill:#F5F5F5;}
	.st1{fill:#DCD2C9;}
	.st2{fill:#C7DFF4;}
	.st3{fill:#9FCDEE;}
	.st4{fill:#65BBE9;}
	.st5{enable-background:new    ;}
	.st6{fill:#82786F;}
	.st7{fill:#FFFFFF;}
	.st8{fill:#00ADEF;}
	.st9{fill:#86786F;}
</style>
<g>
	<g>
		<g>
			<rect x="56.7" class="st0" width="375.9" height="268.7"/>
		</g>
		<g>
			<rect x="56.7" y="134" class="st1" width="375.8" height="1"/>
		</g>
		<g>
			<rect x="56.7" y="201.2" class="st1" width="375.8" height="1"/>
		</g>
		<g>
			<rect x="56.7" y="66.8" class="st1" width="375.8" height="1"/>
		</g>
		<g>
			<polygon class="st2" points="355,41.6 299.8,47.6 244.5,59 189.2,65 134,82.1 78.9,123 78.9,127 78.9,161.4 78.9,161.4 
				78.9,268.7 410.3,268.7 410.3,99.7 410.3,82.1 410.3,57 410.3,21 			"/>
		</g>
		<g>
			<path class="st3" d="M355,69.7l-55.3,0.7l-55.3-0.7l-55.3,0.7l-55.2,17.4l-55.1,39.3v34.4l0,0v107.4h331.4v-169V82.1V57L355,69.7
				z"/>
		</g>
		<g>
			<path class="st4" d="M355,107.8h-55.3l-55.3-1.3h-55.3l-55.2,17.4l-55.1,37.5l0,0l0,0v107.4h331.4V166.5v-5.1V99.8L355,107.8z
				 M244.5,161.4L244.5,161.4L244.5,161.4L244.5,161.4z"/>
		</g>
		<g class="st5">
			<path class="st6" d="M70.8,284l-0.9-0.7c0.8-0.5,1.4-1.5,1.5-2.2c0,0-0.2,0-0.3,0c-0.6,0-1.1-0.5-1.1-1.2s0.5-1.2,1.2-1.2
				c0.8,0,1.4,0.6,1.4,1.8C72.8,281.9,71.9,283.2,70.8,284z"/>
			<path class="st6" d="M78.1,294.9v-13.5l-2.5,2.6l-1.2-1.2l3.8-4h1.7v16h-1.8V294.9z"/>
			<path class="st6" d="M85.6,294.9v-13.5l-2.5,2.6l-1.2-1.2l3.8-4h1.7v16h-1.8V294.9z"/>
		</g>
		<g class="st5">
			<path class="st6" d="M289.1,284l-0.9-0.7c0.8-0.5,1.4-1.5,1.5-2.2c0,0-0.2,0-0.3,0c-0.6,0-1.1-0.5-1.1-1.2s0.5-1.2,1.2-1.2
				c0.8,0,1.4,0.6,1.4,1.8C291,281.9,290.2,283.2,289.1,284z"/>
			<path class="st6" d="M296.3,294.9v-13.5l-2.5,2.6l-1.2-1.2l3.8-4h1.7v16h-1.8V294.9z"/>
			<path class="st6" d="M301.2,292.6l1.3-1.2c0.8,1.3,1.8,2.1,3.4,2.1c1.8,0,2.9-1.6,2.9-3.5c0-2.3-1.1-3.5-2.7-3.5
				c-1.1,0-2,0.4-2.9,1.5l-1.6-0.5v-8.6h8.2v1.7h-6.3v5.6c0.6-0.8,1.7-1.4,3-1.4c2.3,0,4.2,1.8,4.2,5.2c0,3-2,5.2-4.8,5.2
				C303.5,295.2,302.1,294.2,301.2,292.6z"/>
		</g>
		<g class="st5">
			<path class="st6" d="M122.5,284l-0.9-0.7c0.8-0.5,1.4-1.5,1.5-2.2c0,0-0.2,0-0.3,0c-0.6,0-1.1-0.5-1.1-1.2s0.5-1.2,1.2-1.2
				c0.8,0,1.4,0.6,1.4,1.8C124.4,281.9,123.6,283.2,122.5,284z"/>
			<path class="st6" d="M129.8,294.9v-13.5l-2.5,2.6l-1.2-1.2l3.8-4h1.7v16h-1.8V294.9z"/>
			<path class="st6" d="M134.6,294.9v-1.6c5.2-6,7-8,7-10.3c0-1.7-1.2-2.7-2.6-2.7c-1.5,0-2.6,0.7-3.4,2l-1.2-1.2
				c1.1-1.6,2.6-2.6,4.7-2.6c2.4,0,4.5,1.6,4.5,4.4c0,2.7-2,5.1-6.3,10.2h6.3v1.7h-9V294.9z"/>
		</g>
		<g class="st5">
			<path class="st6" d="M345,284l-0.9-0.7c0.8-0.5,1.4-1.5,1.5-2.2c0,0-0.2,0-0.3,0c-0.6,0-1.1-0.5-1.1-1.2s0.5-1.2,1.2-1.2
				c0.8,0,1.4,0.6,1.4,1.8C346.9,281.9,346.1,283.2,345,284z"/>
			<path class="st6" d="M352.3,294.9v-13.5l-2.5,2.6l-1.2-1.2l3.8-4h1.7v16h-1.8V294.9z"/>
			<path class="st6" d="M357,286.9c0-4.3,1.5-8.3,5.4-8.3c1.7,0,3,0.8,3.7,2l-1.1,1.3c-0.6-1-1.3-1.6-2.7-1.6
				c-2.5,0-3.5,3.4-3.5,6.4c0,0.2,0,0.3,0,0.5c0.6-1.1,1.9-2.4,3.5-2.4c2.3,0,4.2,1.7,4.2,5.1c0,2.7-1.7,5.2-4.6,5.2
				C358.2,295.2,357,291.2,357,286.9z M364.7,290c0-2.5-1.2-3.5-2.7-3.5c-1.3,0-2.4,1.2-3,2.4c0.1,1.8,0.7,4.5,3,4.5
				C363.8,293.5,364.7,291.7,364.7,290z"/>
		</g>
		<g class="st5">
			<path class="st6" d="M398.9,284l-0.9-0.7c0.8-0.5,1.4-1.5,1.5-2.2c0,0-0.2,0-0.3,0c-0.6,0-1.1-0.5-1.1-1.2s0.5-1.2,1.2-1.2
				c0.8,0,1.4,0.6,1.4,1.8C400.8,281.9,400,283.2,398.9,284z"/>
			<path class="st6" d="M406.2,294.9v-13.5l-2.5,2.6l-1.2-1.2l3.8-4h1.7v16h-1.8V294.9z"/>
			<path class="st6" d="M412.1,294.9l5-14.3h-6.8v-1.7h8.9v1.3l-5.1,14.7H412.1z"/>
		</g>
		<g class="st5">
			<path class="st6" d="M178.4,284l-0.9-0.7c0.8-0.5,1.4-1.5,1.5-2.2c0,0-0.2,0-0.3,0c-0.6,0-1.1-0.5-1.1-1.2s0.5-1.2,1.2-1.2
				c0.8,0,1.4,0.6,1.4,1.8C180.3,281.9,179.5,283.2,178.4,284z"/>
			<path class="st6" d="M185.6,294.9v-13.5l-2.5,2.6l-1.2-1.2l3.8-4h1.7v16h-1.8V294.9z"/>
			<path class="st6" d="M189.9,292.5l1.2-1.1c0.7,1.2,1.9,2.1,3.4,2.1c1.9,0,2.9-1.2,2.9-3c0-2.2-1.4-2.9-3-2.9c-0.5,0-1.1,0-1.3,0
				v-1.7c0.2,0,0.8,0,1.2,0c1.6,0,2.9-0.9,2.9-2.7c0-1.9-1.2-2.8-2.8-2.8c-1.4,0-2.4,0.7-3.2,1.9l-1.2-1.1c1-1.5,2.6-2.5,4.6-2.5
				c2.6,0,4.5,1.4,4.5,4.2c0,2-1.4,3.4-2.9,3.7c1.4,0.2,3.1,1.7,3.1,4c0,2.7-1.7,4.6-4.8,4.6C192.4,295.2,190.7,294,189.9,292.5z"/>
		</g>
		<g class="st5">
			<path class="st6" d="M233.9,284l-0.9-0.7c0.8-0.5,1.4-1.5,1.5-2.2c0,0-0.2,0-0.3,0c-0.6,0-1.1-0.5-1.1-1.2s0.5-1.2,1.2-1.2
				c0.8,0,1.4,0.6,1.4,1.8C235.8,281.9,235,283.2,233.9,284z"/>
			<path class="st6" d="M241.1,294.9v-13.5l-2.5,2.6l-1.2-1.2l3.8-4h1.7v16h-1.8V294.9z"/>
			<path class="st6" d="M251.6,294.9v-4.1h-6.3v-1.7l5.8-10.2h2.4v10.2h1.8v1.7h-1.8v4.1H251.6z M251.6,281l-4.6,8.2h4.6V281z"/>
		</g>
		<g class="st5">
			<path class="st7" d="M273,145.8c0-4.6,2.2-8.3,6-8.3s6.1,3.6,6.1,8.3c0,4.6-2.2,8.3-6.1,8.3S273,150.4,273,145.8z M283.1,145.8
				c0-3.7-1.4-6.6-4.1-6.6c-2.6,0-4.1,2.9-4.1,6.6c0,3.6,1.4,6.6,4.1,6.6C281.7,152.4,283.1,149.4,283.1,145.8z"/>
			<path class="st7" d="M288.1,151.5v-7.8h-1.5v-1.5h1.5V139h1.7v3.2h2v1.5h-2v7.4c0,0.9,0.3,1.4,0.9,1.4c0.4,0,0.8-0.2,1-0.5
				l0.5,1.3c-0.4,0.4-1,0.7-1.9,0.7C288.9,154.1,288.1,153.2,288.1,151.5z"/>
			<path class="st7" d="M300.4,153.8v-8.3c0-1.5-0.7-2.1-1.9-2.1c-1.1,0-2.2,0.9-2.7,1.8v8.5h-1.7v-16h1.7v6.1c0.7-1,2-1.9,3.4-1.9
				c2,0,2.9,1,2.9,3.1v8.8L300.4,153.8L300.4,153.8z"/>
			<path class="st7" d="M304.7,148c0-3.4,1.8-6.1,4.7-6.1c3,0,4.6,2.7,4.6,6.1v0.5h-7.5c0.1,2.3,1.3,4.1,3.3,4.1c1,0,2-0.5,2.8-1.4
				l0.9,1c-0.9,1.2-2.3,1.8-3.8,1.8C306.6,154.1,304.7,151.5,304.7,148z M309.4,143.3c-2,0-2.9,2.2-2.9,3.9h5.8
				C312.3,145.5,311.5,143.3,309.4,143.3z"/>
			<path class="st7" d="M316.5,153.8v-11.6h1.7v1.8c0.7-1.2,1.9-2.1,3.3-2.1v1.8c-0.2,0-0.4-0.1-0.6-0.1c-1.1,0-2.2,0.9-2.7,1.9v8.2
				h-1.7L316.5,153.8L316.5,153.8z"/>
			<path class="st7" d="M328.7,153.8v-16h1.9v16H328.7z"/>
			<path class="st7" d="M340.2,153.8v-8.3c0-1.5-0.7-2.1-1.8-2.1c-1.1,0-2.2,0.9-2.7,1.8v8.5H334v-11.6h1.7v1.7c0.7-1,2-1.9,3.4-1.9
				c2,0,2.9,1.1,2.9,3.1v8.7h-1.8V153.8z"/>
			<path class="st7" d="M345.1,153.8v-16h1.7v6.1c0.7-1.3,1.9-2,3-2c2.6,0,4.2,2.5,4.2,6.1s-1.5,6.1-4.2,6.1c-1.2,0-2.4-0.8-3-1.9
				v1.7h-1.7V153.8z M349.4,152.5c1.9,0,2.8-2,2.8-4.5s-0.9-4.6-2.8-4.6c-1.1,0-2.2,0.9-2.6,1.9v5.3
				C347.2,151.7,348.3,152.5,349.4,152.5z"/>
			<path class="st7" d="M356,148c0-3.3,1.6-6.1,4.7-6.1s4.7,2.8,4.7,6.1s-1.6,6.1-4.7,6.1C357.7,154.1,356,151.2,356,148z
				 M363.7,148c0-2.3-0.9-4.5-2.9-4.5s-2.9,2.2-2.9,4.5c0,2.4,0.9,4.6,2.9,4.6C362.8,152.5,363.7,150.3,363.7,148z"/>
			<path class="st7" d="M374.3,153.8v-1.6c-0.7,1-1.9,1.9-3.4,1.9c-2,0-2.9-1-2.9-3.1v-8.8h1.7v8.3c0,1.5,0.7,2.1,1.8,2.1
				c1.2,0,2.2-0.8,2.7-1.8v-8.5h1.7v11.6L374.3,153.8L374.3,153.8z"/>
			<path class="st7" d="M385.5,153.8v-8.3c0-1.5-0.7-2.1-1.8-2.1c-1.1,0-2.2,0.9-2.7,1.8v8.5h-1.7v-11.6h1.7v1.7
				c0.7-1,2-1.9,3.4-1.9c2,0,2.9,1.1,2.9,3.1v8.7h-1.8V153.8z"/>
			<path class="st7" d="M397,153.8v-1.7c-0.7,1.2-1.8,1.9-3,1.9c-2.6,0-4.2-2.4-4.2-6.1c0-3.6,1.5-6.1,4.2-6.1c1.2,0,2.4,0.7,3,2
				v-6.1h1.7v16H397V153.8z M397,150.7v-5.3c-0.4-1-1.5-1.9-2.6-1.9c-1.9,0-2.8,2-2.8,4.6c0,2.5,0.9,4.5,2.8,4.5
				C395.5,152.5,396.6,151.7,397,150.7z"/>
		</g>
		<g class="st5">
			<path class="st7" d="M213.4,86.4c0-4.6,2.2-8.3,6-8.3c3.9,0,6.1,3.6,6.1,8.3c0,4.6-2.2,8.3-6.1,8.3
				C215.6,94.6,213.4,91,213.4,86.4z M223.6,86.4c0-3.7-1.4-6.6-4.1-6.6c-2.6,0-4.1,2.9-4.1,6.6c0,3.6,1.4,6.6,4.1,6.6
				C222.1,92.9,223.6,90,223.6,86.4z"/>
			<path class="st7" d="M234.5,94.4v-1.6c-0.7,1-1.9,1.9-3.4,1.9c-2,0-2.9-1-2.9-3.1v-8.8h1.7v8.3c0,1.5,0.7,2.1,1.8,2.1
				c1.2,0,2.2-0.8,2.7-1.8v-8.5h1.7v11.6L234.5,94.4L234.5,94.4z"/>
			<path class="st7" d="M239.7,92v-7.8h-1.5v-1.5h1.5v-3.2h1.7v3.2h2v1.5h-2v7.4c0,0.9,0.3,1.4,0.9,1.4c0.4,0,0.8-0.2,1-0.5l0.5,1.3
				c-0.4,0.4-1,0.7-1.9,0.7C240.5,94.6,239.7,93.8,239.7,92z"/>
			<path class="st7" d="M245.7,94.4v-16h1.7v6.1c0.7-1.3,1.9-2,3-2c2.6,0,4.2,2.5,4.2,6.1s-1.5,6.1-4.2,6.1c-1.2,0-2.4-0.8-3-1.9
				v1.7L245.7,94.4L245.7,94.4z M250,93.1c1.9,0,2.8-2,2.8-4.5S251.9,84,250,84c-1.1,0-2.2,0.9-2.6,1.9v5.3
				C247.9,92.2,249,93.1,250,93.1z"/>
			<path class="st7" d="M256.7,88.5c0-3.3,1.6-6.1,4.7-6.1c3.1,0,4.7,2.8,4.7,6.1s-1.6,6.1-4.7,6.1
				C258.3,94.6,256.7,91.8,256.7,88.5z M264.3,88.5c0-2.3-0.9-4.5-2.9-4.5s-2.9,2.2-2.9,4.5c0,2.4,0.9,4.6,2.9,4.6
				S264.3,90.9,264.3,88.5z"/>
			<path class="st7" d="M275,94.4v-1.6c-0.7,1-1.9,1.9-3.4,1.9c-2,0-2.9-1-2.9-3.1v-8.8h1.7v8.3c0,1.5,0.7,2.1,1.8,2.1
				c1.2,0,2.2-0.8,2.7-1.8v-8.5h1.7v11.6L275,94.4L275,94.4z"/>
			<path class="st7" d="M286.1,94.4v-8.3c0-1.5-0.7-2.1-1.8-2.1s-2.2,0.9-2.7,1.8v8.5h-1.7V82.8h1.7v1.7c0.7-1,2-1.9,3.4-1.9
				c2,0,2.9,1.1,2.9,3.1v8.7C287.9,94.4,286.1,94.4,286.1,94.4z"/>
			<path class="st7" d="M297.6,94.4v-1.7c-0.7,1.2-1.8,1.9-3,1.9c-2.6,0-4.2-2.4-4.2-6.1c0-3.6,1.5-6.1,4.2-6.1c1.2,0,2.4,0.7,3,2
				v-6.1h1.7v16L297.6,94.4L297.6,94.4z M297.6,91.2v-5.3c-0.4-1-1.5-1.9-2.6-1.9c-1.9,0-2.8,2-2.8,4.6c0,2.5,0.9,4.5,2.8,4.5
				C296.1,93.1,297.2,92.2,297.6,91.2z"/>
			<path class="st7" d="M300.9,94.8l4.6-17h1.3l-4.6,17H300.9z"/>
			<path class="st7" d="M315.9,94.4l-3.1-6.4h-2.3v6.4h-1.9v-16h4.9c2.6,0,4.4,1.8,4.4,4.8c0,2.9-1.6,4.2-3.2,4.5l3.4,6.7H315.9z
				 M315.9,83.1c0-1.8-1-3.1-2.6-3.1h-2.8v6.2h2.8C314.9,86.3,315.9,85,315.9,83.1z"/>
			<path class="st7" d="M319.5,88.5c0-3.4,1.8-6.1,4.7-6.1c3,0,4.6,2.7,4.6,6.1V89h-7.5c0.1,2.3,1.3,4.1,3.3,4.1c1,0,2-0.5,2.8-1.4
				l0.9,1c-0.9,1.2-2.3,1.8-3.8,1.8C321.4,94.6,319.5,92.1,319.5,88.5z M324.2,83.9c-2,0-2.9,2.2-2.9,3.9h5.8
				C327.1,86.1,326.3,83.9,324.2,83.9z"/>
			<path class="st7" d="M330.8,88.5c0-3.4,1.8-6.1,4.8-6.1c1.6,0,2.6,0.6,3.3,1.5l-0.9,1.2c-0.6-0.8-1.3-1.2-2.2-1.2
				c-2.1,0-3.1,2.1-3.1,4.5c0,2.5,1.1,4.6,3.1,4.6c0.9,0,1.6-0.4,2.2-1.2l0.9,1.2c-0.7,0.9-1.7,1.5-3.3,1.5
				C332.6,94.6,330.8,92,330.8,88.5z"/>
			<path class="st7" d="M340.7,79.9c0-0.6,0.6-1.2,1.2-1.2s1.2,0.5,1.2,1.2s-0.5,1.2-1.2,1.2C341.3,81.1,340.7,80.6,340.7,79.9z
				 M341.1,94.4V82.8h1.7v11.6H341.1z"/>
			<path class="st7" d="M347.7,92.7v6.1H346v-16h1.7v1.7c0.7-1.2,1.8-1.9,3-1.9c2.6,0,4.2,2.4,4.2,6.1c0,3.6-1.5,6.1-4.2,6.1
				C349.5,94.6,348.4,94,347.7,92.7z M353.1,88.5c0-2.5-0.9-4.5-2.8-4.5c-1.1,0-2.2,0.9-2.6,1.9v5.3c0.5,1,1.5,1.9,2.6,1.9
				C352.2,93.1,353.1,91.1,353.1,88.5z"/>
			<path class="st7" d="M357.4,94.4V82.8h1.7v1.8c0.7-1.2,1.9-2.1,3.3-2.1v1.8c-0.2,0-0.4-0.1-0.6-0.1c-1.1,0-2.2,0.9-2.7,1.9v8.2
				L357.4,94.4L357.4,94.4z"/>
			<path class="st7" d="M363.8,88.5c0-3.3,1.6-6.1,4.7-6.1s4.7,2.8,4.7,6.1s-1.6,6.1-4.7,6.1C365.5,94.6,363.8,91.8,363.8,88.5z
				 M371.5,88.5c0-2.3-0.9-4.5-2.9-4.5s-2.9,2.2-2.9,4.5c0,2.4,0.9,4.6,2.9,4.6S371.5,90.9,371.5,88.5z"/>
			<path class="st7" d="M375.3,88.5c0-3.4,1.8-6.1,4.8-6.1c1.6,0,2.6,0.6,3.3,1.5l-0.9,1.2c-0.6-0.8-1.3-1.2-2.2-1.2
				c-2.1,0-3.1,2.1-3.1,4.5c0,2.5,1.1,4.6,3.1,4.6c0.9,0,1.6-0.4,2.2-1.2l0.9,1.2c-0.7,0.9-1.7,1.5-3.3,1.5
				C377.1,94.6,375.3,92,375.3,88.5z"/>
			<path class="st7" d="M391.5,94.4v-1.2c-0.7,1.1-1.9,1.5-3,1.5c-1.9,0-3.5-1.4-3.5-3.9c0-2.4,1.6-3.8,3.5-3.8c1.2,0,2.3,0.5,3,1.5
				v-2c0-1.6-0.9-2.5-2.4-2.5c-1.1,0-2,0.4-2.9,1.4l-0.8-1.2c1.1-1.2,2.5-1.7,3.9-1.7c2.3,0,3.8,1.1,3.8,3.8v8.1
				C393.1,94.4,391.5,94.4,391.5,94.4z M391.5,91.9v-2.2c-0.5-1-1.5-1.5-2.5-1.5c-1.4,0-2.3,1.1-2.3,2.6c0,1.4,0.9,2.6,2.3,2.6
				C390.1,93.4,391,92.9,391.5,91.9z"/>
			<path class="st7" d="M396.4,94.4v-16h1.7v16H396.4z"/>
		</g>
		<g class="st5">
			<path class="st6" d="M286.2,54V38h4.9c2.9,0,4.4,2.2,4.4,4.8s-1.5,4.8-4.4,4.8h-3V54H286.2z M293.6,42.8c0-1.8-1-3.1-2.6-3.1
				h-2.8v6.2h2.8C292.6,45.9,293.6,44.6,293.6,42.8z"/>
			<path class="st6" d="M297.8,54V42.4h1.7v1.8c0.7-1.2,1.9-2.1,3.3-2.1v1.8c-0.2,0-0.4-0.1-0.6-0.1c-1.1,0-2.2,0.9-2.7,1.9v8.2
				L297.8,54L297.8,54z"/>
			<path class="st6" d="M304.2,48.2c0-3.3,1.6-6.1,4.7-6.1s4.7,2.8,4.7,6.1s-1.6,6.1-4.7,6.1C305.9,54.3,304.2,51.5,304.2,48.2z
				 M311.9,48.2c0-2.3-0.9-4.5-2.9-4.5s-2.9,2.2-2.9,4.5c0,2.4,0.9,4.6,2.9,4.6S311.9,50.6,311.9,48.2z"/>
			<path class="st6" d="M316.2,57.3L317,56c0.8,0.9,1.8,1.3,3,1.3c1.6,0,2.9-0.9,2.9-3.1v-1.9c-0.7,1.2-1.8,2-3,2
				c-2.6,0-4.2-2.4-4.2-6s1.5-6,4.2-6c1.2,0,2.3,0.7,3,2v-1.7h1.7v11.6c0,3.6-2.2,4.7-4.6,4.7C318.5,58.7,317.3,58.4,316.2,57.3z
				 M322.9,50.7v-5.1c-0.4-1-1.5-1.9-2.6-1.9c-1.9,0-2.8,2-2.8,4.5s0.9,4.5,2.8,4.5C321.4,52.6,322.5,51.7,322.9,50.7z"/>
			<path class="st6" d="M327.8,54V42.4h1.7v1.8c0.7-1.2,1.9-2.1,3.3-2.1v1.8c-0.2,0-0.4-0.1-0.6-0.1c-1.1,0-2.2,0.9-2.7,1.9v8.2
				L327.8,54L327.8,54z"/>
			<path class="st6" d="M340.7,54v-1.2c-0.7,1.1-1.9,1.5-3,1.5c-1.9,0-3.5-1.4-3.5-3.9c0-2.4,1.6-3.8,3.5-3.8c1.2,0,2.3,0.5,3,1.5
				v-2c0-1.6-0.9-2.5-2.4-2.5c-1.1,0-2,0.4-2.9,1.4l-0.8-1.2c1.1-1.2,2.5-1.7,3.9-1.7c2.3,0,3.8,1.1,3.8,3.8V54H340.7z M340.7,51.6
				v-2.2c-0.5-1-1.5-1.5-2.5-1.5c-1.4,0-2.3,1.1-2.3,2.6c0,1.4,0.9,2.6,2.3,2.6C339.2,53.1,340.2,52.6,340.7,51.6z"/>
			<path class="st6" d="M357.3,54v-8.4c0-1.2-0.5-1.9-1.6-1.9c-1,0-2.1,0.9-2.5,1.8V54h-1.7v-8.4c0-1.2-0.5-1.9-1.6-1.9
				c-1,0-2,0.9-2.5,1.8V54h-1.8V42.4h1.7v1.7c0.5-0.9,1.8-1.9,3.2-1.9c1.5,0,2.4,0.8,2.6,2.1c0.6-1.1,1.9-2.1,3.3-2.1
				c1.7,0,2.7,0.9,2.7,3v8.9L357.3,54L357.3,54z"/>
			<path class="st6" d="M367.4,54V38h4.3c4.2,0,6.4,3.4,6.4,8s-2.3,8-6.4,8H367.4z M376.2,46c0-3.6-1.5-6.3-4.5-6.3h-2.4v12.6h2.4
				C374.6,52.3,376.2,49.6,376.2,46z"/>
			<path class="st6" d="M380.3,48.2c0-3.4,1.8-6.1,4.7-6.1c3,0,4.6,2.7,4.6,6.1v0.5h-7.5c0.1,2.3,1.3,4.1,3.3,4.1c1,0,2-0.5,2.8-1.4
				l0.9,1c-0.9,1.2-2.3,1.8-3.8,1.8C382.2,54.3,380.3,51.8,380.3,48.2z M385,43.6c-2,0-2.9,2.2-2.9,3.9h5.8
				C387.8,45.7,387.1,43.6,385,43.6z"/>
			<path class="st6" d="M394.4,54l-3.8-11.6h1.9l2.9,9.6l2.9-9.6h1.8L396.3,54H394.4z"/>
		</g>
		<g>
			<polygon class="st8" points="410.3,268.7 78.9,268.7 78.9,181.5 134,177.4 189.2,164 244.5,161.4 299.8,162.7 355,166.7 
				410.3,166.4 			"/>
		</g>
		<g class="st5">
			<path class="st6" d="M227.7,321v-6.6l-4.9-9.4h3.6l3,6.4l3-6.4h3.6l-4.9,9.4v6.6H227.7z"/>
			<path class="st6" d="M234.2,315.2c0-3.4,2-6.1,5.2-6.1s5,2.6,5,6.2v0.8h-7.3c0.1,1.6,1.1,2.8,2.8,2.8c0.8,0,1.9-0.4,2.5-1.1
				l1.3,1.7c-1,1.1-2.6,1.7-4.2,1.7C236.3,321.3,234.2,318.9,234.2,315.2z M239.3,311.5c-1.6,0-2.2,1.5-2.2,2.7h4.5
				C241.5,313,241,311.5,239.3,311.5z"/>
			<path class="st6" d="M252.3,321v-1.2c-0.6,0.9-1.9,1.4-3,1.4c-1.8,0-3.6-1.4-3.6-3.8c0-2.5,1.8-3.8,3.6-3.8c1.2,0,2.4,0.5,3,1.4
				v-1.5c0-1.2-0.8-2-2.1-2c-1,0-2,0.4-2.9,1.2l-1.1-2c1.2-1.2,3-1.7,4.5-1.7c2.5,0,4.5,1.1,4.5,4.1v7.8h-2.9V321z M252.3,318.3
				v-1.5c-0.4-0.7-1.2-1.1-1.9-1.1c-1.1,0-1.8,0.8-1.8,1.9s0.7,1.8,1.8,1.8C251.1,319.4,251.9,319,252.3,318.3z"/>
			<path class="st6" d="M257.8,321v-11.6h2.9v1.6c0.6-1,1.9-1.9,3.2-1.9v2.8c-0.2,0-0.4-0.1-0.7-0.1c-0.9,0-2,0.6-2.5,1.4v7.7h-2.9
				V321z"/>
		</g>
		<g class="st5">
			<path class="st7" d="M317.8,258.7v-14.3H314v-1.7h9.5v1.7h-3.8v14.3H317.8z"/>
			<path class="st7" d="M324.2,258.7v-11.6h1.7v1.8c0.7-1.2,1.9-2.1,3.3-2.1v1.8c-0.2,0-0.4-0.1-0.6-0.1c-1.1,0-2.2,0.9-2.7,1.9v8.2
				h-1.7L324.2,258.7L324.2,258.7z"/>
			<path class="st7" d="M337.2,258.7v-1.2c-0.7,1.1-1.9,1.5-3,1.5c-1.9,0-3.5-1.4-3.5-3.9c0-2.4,1.6-3.8,3.5-3.8
				c1.2,0,2.3,0.5,3,1.5v-2c0-1.6-0.9-2.5-2.4-2.5c-1.1,0-2,0.4-2.9,1.4l-0.8-1.2c1.1-1.2,2.5-1.7,3.9-1.7c2.3,0,3.8,1.1,3.8,3.8
				v8.1H337.2L337.2,258.7z M337.2,256.3v-2.2c-0.5-1-1.5-1.5-2.5-1.5c-1.4,0-2.3,1.1-2.3,2.6c0,1.4,0.9,2.6,2.3,2.6
				C335.7,257.8,336.7,257.3,337.2,256.3z"/>
			<path class="st7" d="M341.7,244.3c0-0.6,0.6-1.2,1.2-1.2s1.2,0.5,1.2,1.2s-0.5,1.2-1.2,1.2C342.3,245.5,341.7,244.9,341.7,244.3z
				 M342.1,258.7v-11.6h1.7v11.6H342.1z"/>
			<path class="st7" d="M353.2,258.7v-8.2c0-1.5-0.7-2.1-1.8-2.1c-1.1,0-2.2,0.9-2.7,1.8v8.5H347v-11.6h1.7v1.7c0.7-1,2-1.9,3.4-1.9
				c2,0,2.9,1.1,2.9,3.1v8.7H353.2z"/>
			<path class="st7" d="M363.3,253.6v-10.8h1.9v10.8c0,2.5,1.2,3.7,3.2,3.7c2.1,0,3.2-1.3,3.2-3.7v-10.8h1.9v10.8
				c0,3.5-1.9,5.5-5.1,5.5C365.3,259,363.3,257.1,363.3,253.6z"/>
			<path class="st7" d="M376,257l1.1-1.5c0.8,1,2.2,1.8,3.7,1.8c2,0,2.9-1.2,2.9-2.6c0-1.8-1.5-2.6-3.2-3.4
				c-1.9-0.9-4.1-1.9-4.1-4.7c0-2.4,1.9-4.2,4.6-4.2c1.8,0,3.2,0.6,4.3,1.7l-1,1.4c-0.9-1-2-1.4-3.3-1.4c-1.5,0-2.6,1-2.6,2.4
				c0,1.5,1.4,2.2,3,3c2,1,4.2,2,4.2,5c0,2.4-1.6,4.4-4.9,4.4C378.7,259,377.1,258.2,376,257z"/>
			<path class="st7" d="M396.6,258.7l-1-3.6h-5.7l-1,3.6h-2.1l4.8-16h2.3l4.8,16H396.6z M392.7,244.8l-2.4,8.6h4.9L392.7,244.8z"/>
		</g>
		<g>
			<path class="st9" d="M382.1,313.5c-1.2-2-1.8-4.3-1.8-6.8s0.6-4.8,1.8-6.8l0.7,0.4c-0.8,1.9-1.3,3.8-1.3,6.4s0.5,4.4,1.3,6.4
				L382.1,313.5z"/>
			<path class="st9" d="M384.2,310.4v-10.2h3.1c1.9,0,2.8,1.4,2.8,3.1s-1,3.1-2.8,3.1h-1.9v4.1h-1.2V310.4z M388.9,303.2
				c0-1.2-0.6-2-1.7-2h-1.8v4h1.8C388.2,305.2,388.9,304.4,388.9,303.2z"/>
			<path class="st9" d="M391.6,310.4V303h1.1v1.2c0.5-0.8,1.2-1.3,2.1-1.3v1.1c-0.1,0-0.2,0-0.4,0c-0.7,0-1.4,0.6-1.7,1.2v5.3h-1.1
				V310.4z"/>
			<path class="st9" d="M395.7,306.7c0-2.1,1-3.9,3-3.9s3,1.8,3,3.9s-1,3.9-3,3.9C396.8,310.6,395.7,308.8,395.7,306.7z
				 M400.6,306.7c0-1.5-0.6-2.9-1.9-2.9s-1.9,1.4-1.9,2.9s0.6,2.9,1.9,2.9S400.6,308.2,400.6,306.7z"/>
			<path class="st9" d="M402,313.3l0.2-0.9c0.1,0,0.3,0.1,0.4,0.1c0.5,0,0.8-0.3,0.8-1v-8.4h1.1v8.4c0,1.3-0.6,2-1.8,2
				C402.4,313.4,402.2,313.4,402,313.3z M403.2,301.2c0-0.4,0.4-0.8,0.8-0.8s0.8,0.3,0.8,0.8c0,0.4-0.3,0.8-0.8,0.8
				C403.5,301.9,403.2,301.6,403.2,301.2z"/>
			<path class="st9" d="M406.1,306.7c0-2.1,1.1-3.9,3-3.9s2.9,1.7,2.9,3.9v0.3h-4.8c0,1.5,0.8,2.6,2.1,2.6c0.6,0,1.3-0.3,1.8-0.9
				l0.6,0.6c-0.6,0.7-1.4,1.2-2.4,1.2C407.3,310.6,406.1,309,406.1,306.7z M409.1,303.7c-1.3,0-1.8,1.4-1.9,2.5h3.7
				C411,305.1,410.5,303.7,409.1,303.7z"/>
			<path class="st9" d="M413.3,306.7c0-2.2,1.2-3.9,3.1-3.9c1,0,1.7,0.4,2.1,1l-0.6,0.8c-0.4-0.5-0.9-0.8-1.4-0.8
				c-1.3,0-2,1.3-2,2.9s0.7,2.9,2,2.9c0.6,0,1-0.2,1.4-0.8l0.6,0.8c-0.5,0.6-1.1,1-2.1,1C414.5,310.6,413.3,308.9,413.3,306.7z"/>
			<path class="st9" d="M420.1,308.9v-5h-1v-1h1v-2h1.1v2h1.3v1h-1.3v4.8c0,0.6,0.2,0.9,0.6,0.9c0.3,0,0.5-0.1,0.6-0.3l0.3,0.8
				c-0.3,0.3-0.6,0.4-1.2,0.4C420.6,310.6,420.1,310,420.1,308.9z"/>
			<path class="st9" d="M423.6,306.7c0-2.1,1.1-3.9,3-3.9s2.9,1.7,2.9,3.9v0.3h-4.8c0,1.5,0.8,2.6,2.1,2.6c0.6,0,1.3-0.3,1.8-0.9
				l0.6,0.6c-0.6,0.7-1.4,1.2-2.4,1.2C424.8,310.6,423.6,309,423.6,306.7z M426.6,303.7c-1.3,0-1.8,1.4-1.9,2.5h3.7
				C428.4,305.1,427.9,303.7,426.6,303.7z"/>
			<path class="st9" d="M435.4,310.4v-1.1c-0.4,0.8-1.2,1.2-1.9,1.2c-1.7,0-2.7-1.6-2.7-3.9s1-3.9,2.7-3.9c0.8,0,1.5,0.4,1.9,1.3
				v-3.9h1.1v10.2L435.4,310.4L435.4,310.4z M435.4,308.4V305c-0.3-0.6-1-1.2-1.7-1.2c-1.2,0-1.8,1.3-1.8,2.9s0.6,2.9,1.8,2.9
				C434.4,309.6,435.1,309.1,435.4,308.4z"/>
			<path class="st9" d="M437.8,313c0.8-1.9,1.3-3.8,1.3-6.4s-0.5-4.4-1.3-6.4l0.7-0.4c1.2,2,1.8,4.3,1.8,6.8s-0.6,4.8-1.8,6.8
				L437.8,313z"/>
		</g>
	</g>
	<g>
		<g>
			<g class="st5">
				<path class="st6" d="M12.2,208.5c-1.9-0.1-3.4-0.8-4.4-2l1.1-1.5c0.7,0.9,1.9,1.6,3.3,1.8v-6c-1.9-0.9-3.9-1.9-3.9-4.6
					c0-2.2,1.6-3.9,3.9-4.2v-2.2h1.4v2.2c1.4,0.1,2.6,0.7,3.6,1.6l-1,1.4c-0.7-0.8-1.6-1.2-2.5-1.3v5.5c1.9,0.9,3.9,2.1,3.9,4.9
					c0,2.1-1.2,4-3.9,4.4v2.2h-1.4L12.2,208.5L12.2,208.5z M12.2,198.5v-4.8c-1.2,0.2-1.9,1.1-1.9,2.3
					C10.2,197.2,11.1,197.9,12.2,198.5z M13.6,201.5v5.2c1.3-0.3,1.9-1.4,1.9-2.5C15.5,202.9,14.7,202.1,13.6,201.5z"/>
				<path class="st6" d="M19.5,205.9l1.3-1.2c0.8,1.3,1.8,2.1,3.4,2.1c1.8,0,2.9-1.6,2.9-3.5c0-2.3-1.1-3.5-2.7-3.5
					c-1.1,0-2,0.4-2.9,1.5l-1.4-0.5v-8.6h8.2v1.7H22v5.6c0.6-0.8,1.7-1.4,3-1.4c2.3,0,4.2,1.8,4.2,5.2c0,3-2,5.2-4.8,5.2
					C21.9,208.5,20.5,207.5,19.5,205.9z"/>
			</g>
			<g class="st5">
				<path class="st6" d="M4.4,141.3c-1.9-0.1-3.4-0.8-4.4-2l1.1-1.5c0.7,0.9,1.9,1.6,3.3,1.8v-6c-1.9-0.9-3.9-1.9-3.9-4.6
					c0-2.2,1.6-3.9,3.9-4.2v-2.2h1.4v2.2c1.4,0.1,2.6,0.7,3.6,1.6l-1,1.4c-0.7-0.8-1.6-1.2-2.5-1.3v5.5c1.9,0.9,3.9,2.1,3.9,4.9
					c0,2.1-1.2,4-3.9,4.4v2.2H4.4V141.3z M4.4,131.3v-4.8c-1.2,0.2-1.9,1.1-1.9,2.3C2.5,130,3.3,130.7,4.4,131.3z M5.8,134.3v5.2
					c1.3-0.3,1.9-1.4,1.9-2.5C7.7,135.7,6.9,134.9,5.8,134.3z"/>
				<path class="st6" d="M14.5,141v-13.5l-2.5,2.6l-1.2-1.2l3.8-4h1.7v16L14.5,141L14.5,141z"/>
				<path class="st6" d="M19.2,133c0-3.9,1.3-8.3,5-8.3s5,4.4,5,8.3c0,3.8-1.3,8.3-5,8.3S19.2,136.9,19.2,133z M27.3,133
					c0-3.2-0.6-6.6-3.1-6.6c-2.4,0-3,3.4-3,6.6c0,3.1,0.6,6.6,3,6.6S27.3,136.2,27.3,133z"/>
			</g>
			<g class="st5">
				<path class="st6" d="M4.7,74.1c-1.9-0.1-3.4-0.8-4.4-2l1.1-1.5c0.7,0.9,1.9,1.6,3.3,1.8v-6c-1.9-0.9-3.9-1.9-3.9-4.6
					c0-2.2,1.6-3.9,3.9-4.2v-2.2h1.4v2.2c1.4,0.1,2.6,0.7,3.6,1.6l-1,1.4c-0.7-0.7-1.6-1.1-2.6-1.3v5.5C8,65.7,10,66.9,10,69.7
					c0,2.1-1.2,4-3.9,4.4v2.2H4.7V74.1z M4.7,64.1v-4.8c-1.2,0.2-1.9,1.1-1.9,2.3S3.6,63.5,4.7,64.1z M6.1,67.1v5.2
					c1.4-0.3,2-1.4,2-2.5C8.1,68.5,7.2,67.7,6.1,67.1z"/>
				<path class="st6" d="M14.8,73.8V60.4L12.3,63l-1.2-1.2l3.8-4h1.7v16H14.8z"/>
				<path class="st6" d="M19.6,71.5l1.3-1.2c0.8,1.3,1.8,2.1,3.4,2.1c1.8,0,2.9-1.6,2.9-3.5c0-2.3-1.1-3.5-2.7-3.5
					c-1.1,0-2,0.4-2.9,1.5l-1.5-0.5v-8.6h8.2v1.7H22v5.6c0.6-0.8,1.7-1.4,3-1.4c2.3,0,4.2,1.8,4.2,5.2c0,3-2,5.2-4.8,5.2
					C22,74.1,20.6,73.1,19.6,71.5z"/>
			</g>
		</g>
		<g>
			<path class="st6" d="M44.6,73.8V61.2l-4.3,12.6h-0.7l-4.2-12.6v12.6h-1.9v-16h2.7L40,69.2l3.9-11.4h2.6v16H44.6z"/>
		</g>
		<g>
			<path class="st6" d="M44.6,141v-12.6L40.4,141h-0.7l-4.2-12.6V141h-1.9v-16h2.7l3.9,11.4l3.9-11.4h2.6v16H44.6z"/>
		</g>
		<g>
			<path class="st6" d="M44.6,208.2v-12.6l-4.3,12.6h-0.7l-4.2-12.6v12.6h-1.9v-16h2.7l3.9,11.4l3.9-11.4h2.6v16H44.6z"/>
		</g>
	</g>
</g>
</svg>
