<?xml version="1.0" encoding="utf-8"?>
<!-- Generator: Adobe Illustrator 21.1.0, SVG Export Plug-In . SVG Version: 6.00 Build 0)  -->
<svg version="1.1" id="Layer_1" xmlns="http://www.w3.org/2000/svg" xmlns:xlink="http://www.w3.org/1999/xlink" x="0px" y="0px"
	 viewBox="0 0 920 330" style="enable-background:new 0 0 920 330;" xml:space="preserve">
<style type="text/css">
	.st0{fill:#F5F5F5;}
	.st1{fill:#00ADEF;}
	.st2{fill:#82786F;}
</style>
<g>
	<rect x="64.9" class="st0" width="790.2" height="277.3"/>
	<g>
		<rect x="797.9" y="24.8" class="st1" width="20.2" height="20.2"/>
		<rect x="797.9" y="65.2" class="st2" width="20.2" height="20.2"/>
		<path class="st1" d="M644.8,35.6c0-4.4,2.2-7.7,5.7-7.7c2.2,0,3.5,1.4,4.3,2.9l-1.5,0.6c-0.6-1.2-1.6-2-2.9-2c-2.4,0-4,2.6-4,6.1
			s1.6,6.1,4,6.1c1.4,0,2.3-0.9,2.9-2.2l1.5,0.6c-0.8,1.7-2.1,3-4.3,3C647.1,43.2,644.8,40,644.8,35.6z"/>
		<path class="st1" d="M656.5,37.6c0-3,1.5-5.6,4.3-5.6c2.9,0,4.3,2.6,4.3,5.6s-1.5,5.6-4.3,5.6C658.1,43.2,656.5,40.7,656.5,37.6z
			 M663.6,37.6c0-2.1-0.8-4.2-2.7-4.2s-2.7,2-2.7,4.2s0.8,4.2,2.7,4.2S663.6,39.7,663.6,37.6z"/>
		<path class="st1" d="M678.5,43v-7.8c0-1.1-0.5-1.8-1.5-1.8c-0.9,0-1.9,0.8-2.3,1.8v7.9h-1.6v-7.8c0-1.1-0.5-1.8-1.5-1.8
			c-0.9,0-1.8,0.8-2.3,1.8v7.9h-1.6v-11h1.6v1.6c0.5-0.8,1.7-1.8,3-1.8c1.4,0,2.2,0.7,2.4,1.9c0.6-1,1.8-1.9,3-1.9
			c1.6,0,2.5,0.8,2.5,2.8V43H678.5L678.5,43z"/>
		<path class="st1" d="M682.7,29.6c0-0.6,0.6-1.1,1.1-1.1c0.6,0,1.1,0.5,1.1,1.1s-0.5,1.1-1.1,1.1C683.3,30.7,682.7,30.2,682.7,29.6
			z M683,43V32.2h1.6V43H683z"/>
		<path class="st1" d="M693.4,43v-7.7c0-1.4-0.6-1.9-1.8-1.9c-1,0-2,0.8-2.5,1.8V43h-1.6V32.2h1.6v1.6c0.6-0.9,1.8-1.8,3.1-1.8
			c1.8,0,2.7,1,2.7,3v8.1L693.4,43L693.4,43z"/>
		<path class="st1" d="M697.8,46l0.7-1.2c0.7,0.8,1.7,1.2,2.8,1.2c1.5,0,2.7-0.8,2.7-3v-1.8c-0.6,1.1-1.7,1.8-2.9,1.8
			c-2.4,0-3.9-2.2-3.9-5.5s1.4-5.5,3.9-5.5c1.1,0,2.1,0.6,2.9,1.8v-1.6h1.6v10.7c0,3.3-2,4.3-4.2,4.3C699.9,47.3,698.8,47,697.8,46z
			 M704,39.9v-4.8c-0.4-0.9-1.4-1.8-2.4-1.8c-1.8,0-2.6,1.8-2.6,4.2s0.8,4.2,2.6,4.2C702.6,41.7,703.6,40.8,704,39.9z"/>
		<path class="st1" d="M715.9,43V29.8h-3.5v-1.6h8.8v1.6h-3.5v13.3L715.9,43L715.9,43z"/>
		<path class="st1" d="M720.8,37.6c0-3,1.5-5.6,4.3-5.6c2.9,0,4.3,2.6,4.3,5.6s-1.5,5.6-4.3,5.6C722.4,43.2,720.8,40.7,720.8,37.6z
			 M727.9,37.6c0-2.1-0.8-4.2-2.7-4.2s-2.7,2-2.7,4.2s0.8,4.2,2.7,4.2S727.9,39.7,727.9,37.6z"/>
		<path class="st1" d="M739.4,43V29.8h-3.5v-1.6h8.8v1.6h-3.5v13.3L739.4,43L739.4,43z"/>
		<path class="st1" d="M752.5,43v-7.7c0-1.4-0.6-1.9-1.8-1.9c-1,0-2,0.8-2.5,1.8V43h-1.6V28.2h1.6v5.6c0.6-0.9,1.8-1.8,3.1-1.8
			c1.8,0,2.7,0.9,2.7,2.9V43H752.5L752.5,43z"/>
		<path class="st1" d="M756.5,37.6c0-3.1,1.7-5.6,4.3-5.6c2.9,0,4.2,2.5,4.2,5.6v0.5h-6.9c0.1,2.1,1.2,3.8,3,3.8
			c0.9,0,1.8-0.5,2.6-1.3l0.8,0.9c-0.8,1.1-2.1,1.8-3.5,1.8C758.2,43.2,756.5,40.8,756.5,37.6z M760.8,33.3c-1.8,0-2.7,2-2.7,3.6
			h5.4C763.5,35.3,762.7,33.3,760.8,33.3z"/>
		<path class="st1" d="M772.3,38.2v-10h1.8v10.1c0,2.3,1.1,3.5,3,3.5s3-1.2,3-3.5V28.2h1.8v10c0,3.2-1.8,5.1-4.7,5.1
			C774,43.2,772.3,41.4,772.3,38.2z"/>
		<path class="st1" d="M784,41.4l1-1.4c0.7,0.9,2,1.7,3.4,1.7c1.8,0,2.7-1.2,2.7-2.4c0-1.7-1.4-2.4-3-3.1c-1.8-0.8-3.8-1.8-3.8-4.3
			c0-2.3,1.8-3.9,4.2-3.9c1.7,0,3,0.6,4,1.6l-0.9,1.3c-0.8-0.9-1.8-1.3-3-1.3c-1.4,0-2.4,0.9-2.4,2.2c0,1.4,1.3,2,2.8,2.8
			c1.8,0.9,3.9,1.8,3.9,4.7c0,2.2-1.5,4.1-4.5,4.1C786.5,43.2,785,42.5,784,41.4z"/>
		<path class="st2" d="M621,75.9c0-4.4,2.2-7.7,5.7-7.7c2.2,0,3.5,1.4,4.3,2.9l-1.5,0.6c-0.6-1.2-1.6-2-2.9-2c-2.4,0-4,2.6-4,6.1
			s1.6,6.1,4,6.1c1.4,0,2.3-0.9,2.9-2.2l1.5,0.6c-0.8,1.7-2.1,3-4.3,3C623.2,83.6,621,80.3,621,75.9z"/>
		<path class="st2" d="M632.7,77.9c0-3,1.5-5.6,4.3-5.6c2.9,0,4.3,2.6,4.3,5.6s-1.5,5.6-4.3,5.6C634.2,83.6,632.7,80.9,632.7,77.9z
			 M639.8,77.9c0-2.1-0.8-4.2-2.7-4.2s-2.7,2-2.7,4.2s0.8,4.2,2.7,4.2S639.8,80.1,639.8,77.9z"/>
		<path class="st2" d="M654.7,83.3v-7.8c0-1.2-0.5-1.8-1.5-1.8c-0.9,0-1.9,0.8-2.3,1.8v7.9h-1.5v-7.8c0-1.2-0.5-1.8-1.5-1.8
			c-0.9,0-1.8,0.8-2.3,1.8v7.9h-1.8V72.6h1.6v1.6c0.5-0.8,1.7-1.8,3-1.8c1.4,0,2.2,0.7,2.4,1.9c0.6-1,1.8-1.9,3-1.9
			c1.6,0,2.5,0.8,2.5,2.8v8.2L654.7,83.3L654.7,83.3z"/>
		<path class="st2" d="M658.9,69.9c0-0.6,0.6-1.1,1.1-1.1c0.6,0,1.1,0.5,1.1,1.1S660.6,71,660,71S658.9,70.5,658.9,69.9z
			 M659.3,83.3V72.6h1.6v10.7C660.9,83.3,659.3,83.3,659.3,83.3z"/>
		<path class="st2" d="M669.5,83.3v-7.7c0-1.4-0.6-1.9-1.8-1.9c-1,0-2,0.8-2.5,1.8v7.9h-1.6V72.6h1.6v1.6c0.6-0.9,1.8-1.8,3.1-1.8
			c1.8,0,2.7,1,2.7,3v8.1h-1.6L669.5,83.3L669.5,83.3z"/>
		<path class="st2" d="M674,86.3l0.7-1.2c0.7,0.8,1.7,1.2,2.8,1.2c1.5,0,2.7-0.8,2.7-3v-1.8c-0.6,1.1-1.7,1.8-2.9,1.8
			c-2.4,0-3.9-2.2-3.9-5.5s1.4-5.5,3.9-5.5c1.1,0,2.1,0.6,2.9,1.8v-1.6h1.6v10.7c0,3.3-2,4.3-4.2,4.3
			C676.2,87.7,675.1,87.3,674,86.3z M680.2,80.2v-4.7c-0.4-0.9-1.4-1.8-2.4-1.8c-1.8,0-2.6,1.8-2.6,4.2s0.8,4.2,2.6,4.2
			C678.9,82,679.8,81.2,680.2,80.2z"/>
		<path class="st2" d="M689.6,83.3V68.6h7.6v1.6h-5.8V75h5.7v1.6h-5.7v6.8L689.6,83.3L689.6,83.3z"/>
		<path class="st2" d="M699.5,83.3V72.6h1.6v1.8c0.6-1.1,1.8-1.9,3-1.9v1.7c-0.2,0-0.4-0.1-0.6-0.1c-1,0-2,0.8-2.5,1.8v7.6
			C701.1,83.3,699.5,83.3,699.5,83.3z"/>
		<path class="st2" d="M705.5,77.9c0-3,1.5-5.6,4.3-5.6c2.9,0,4.3,2.6,4.3,5.6s-1.5,5.6-4.3,5.6C706.9,83.6,705.5,80.9,705.5,77.9z
			 M712.5,77.9c0-2.1-0.8-4.2-2.7-4.2c-1.8,0-2.7,2-2.7,4.2s0.8,4.2,2.7,4.2S712.5,80.1,712.5,77.9z"/>
		<path class="st2" d="M727.4,83.3v-7.8c0-1.2-0.5-1.8-1.5-1.8c-0.9,0-1.9,0.8-2.3,1.8v7.9H722v-7.8c0-1.2-0.5-1.8-1.5-1.8
			c-0.9,0-1.8,0.8-2.3,1.8v7.9h-1.6V72.6h1.6v1.6c0.5-0.8,1.7-1.8,3-1.8c1.4,0,2.2,0.7,2.4,1.9c0.6-1,1.8-1.9,3-1.9
			c1.6,0,2.5,0.8,2.5,2.8v8.2L727.4,83.3L727.4,83.3z"/>
		<path class="st2" d="M739.4,83.3V70h-3.5v-1.6h8.8V70h-3.5v13.3C741.1,83.3,739.4,83.3,739.4,83.3z"/>
		<path class="st2" d="M752.5,83.3v-7.7c0-1.4-0.6-1.9-1.8-1.9c-1,0-2,0.8-2.5,1.8v7.9h-1.6V68.6h1.6v5.6c0.6-0.9,1.8-1.8,3.1-1.8
			c1.8,0,2.7,0.9,2.7,2.9v8.1L752.5,83.3L752.5,83.3z"/>
		<path class="st2" d="M756.5,77.9c0-3.1,1.7-5.6,4.3-5.6c2.9,0,4.2,2.5,4.2,5.6v0.5h-6.9c0.1,2.1,1.2,3.8,3,3.8
			c0.9,0,1.8-0.5,2.6-1.3l0.8,0.9c-0.8,1.1-2.1,1.8-3.5,1.8C758.2,83.6,756.5,81.2,756.5,77.9z M760.8,73.6c-1.8,0-2.7,2-2.7,3.6
			h5.4C763.5,75.7,762.7,73.6,760.8,73.6z"/>
		<path class="st2" d="M772.3,78.5v-10h1.8v10.1c0,2.3,1.1,3.5,3,3.5s3-1.2,3-3.5V68.5h1.8v10.1c0,3.2-1.8,5.1-4.7,5.1
			C774,83.6,772.3,81.8,772.3,78.5z"/>
		<path class="st2" d="M784,81.7l1-1.4c0.7,0.9,2,1.7,3.4,1.7c1.8,0,2.7-1.2,2.7-2.4c0-1.7-1.4-2.4-3-3.1c-1.8-0.8-3.8-1.8-3.8-4.3
			c0-2.3,1.8-3.9,4.2-3.9c1.7,0,3,0.6,4,1.6l-0.9,1.3c-0.8-0.9-1.8-1.3-3-1.3c-1.4,0-2.4,0.9-2.4,2.2c0,1.4,1.3,2,2.8,2.8
			c1.8,0.9,3.9,1.8,3.9,4.7c0,2.2-1.5,4.1-4.5,4.1C786.5,83.6,785,82.9,784,81.7z"/>
	</g>
	<g>
		<g>
			<path class="st2" d="M255.2,305.9l-6.1-11.1v11.1h-1.8v-14.8h1.8l6,10.8V291h1.8v14.8L255.2,305.9L255.2,305.9L255.2,305.9z"/>
			<path class="st2" d="M259.3,300.5c0-3,1.5-5.6,4.3-5.6c2.9,0,4.3,2.6,4.3,5.6s-1.5,5.6-4.3,5.6
				C260.9,306.2,259.3,303.5,259.3,300.5z M266.4,300.5c0-2.1-0.8-4.2-2.7-4.2c-1.8,0-2.7,2-2.7,4.2s0.8,4.3,2.7,4.3
				C265.6,304.7,266.4,302.7,266.4,300.5z"/>
			<path class="st2" d="M270.5,305.9v-10.7h1.6v1.8c0.6-1.1,1.8-1.9,3-1.9v1.7c-0.2,0-0.4-0.1-0.6-0.1c-1,0-2,0.8-2.5,1.8v7.6
				L270.5,305.9L270.5,305.9z"/>
			<path class="st2" d="M277.2,303.7v-7.1h-1.4v-1.4h1.4v-3h1.6v3h1.8v1.4h-1.8v6.9c0,0.8,0.3,1.3,0.8,1.3c0.4,0,0.7-0.2,0.9-0.5
				l0.5,1.2c-0.4,0.4-0.9,0.6-1.8,0.6C277.9,306.2,277.2,305.4,277.2,303.7z"/>
			<path class="st2" d="M288.6,305.9v-7.7c0-1.4-0.6-1.9-1.8-1.9c-1,0-2,0.8-2.5,1.8v7.9h-1.6v-14.8h1.6v5.6
				c0.6-0.9,1.8-1.8,3.1-1.8c1.8,0,2.7,0.9,2.7,2.9v8.1L288.6,305.9L288.6,305.9L288.6,305.9z"/>
			<path class="st2" d="M244.4,328.1l-0.9-3.3h-5.3l-0.9,3.3h-1.9l4.4-14.8h2.1l4.4,14.8H244.4z M240.7,315.2l-2.2,7.9h4.5
				L240.7,315.2z"/>
			<path class="st2" d="M258.8,328.1v-7.8c0-1.1-0.5-1.8-1.5-1.8c-0.9,0-1.9,0.8-2.3,1.8v7.9h-1.6v-7.8c0-1.1-0.5-1.8-1.5-1.8
				c-0.9,0-1.8,0.8-2.3,1.8v7.9H248v-10.7h1.6v1.6c0.5-0.8,1.7-1.8,3-1.8c1.4,0,2.2,0.7,2.4,1.9c0.6-1,1.8-1.9,3-1.9
				c1.6,0,2.5,0.8,2.5,2.8v8.2h-1.8L258.8,328.1L258.8,328.1L258.8,328.1z"/>
			<path class="st2" d="M262.7,322.7c0-3.1,1.7-5.6,4.3-5.6c2.9,0,4.2,2.5,4.2,5.6v0.5h-6.9c0.1,2.1,1.2,3.8,3,3.8
				c0.9,0,1.8-0.5,2.6-1.3l0.8,0.9c-0.8,1.1-2.1,1.8-3.5,1.8C264.5,328.4,262.7,326,262.7,322.7z M267.1,318.5c-1.8,0-2.7,2-2.7,3.6
				h5.4C269.8,320.4,269,318.5,267.1,318.5z"/>
			<path class="st2" d="M273.7,328.1v-10.7h1.6v1.8c0.6-1.1,1.8-1.9,3-1.9v1.7c-0.2,0-0.4-0.1-0.6-0.1c-1,0-2,0.8-2.5,1.8v7.6h-1.5
				V328.1z"/>
			<path class="st2" d="M279.8,314.7c0-0.6,0.6-1.1,1.1-1.1c0.6,0,1.1,0.5,1.1,1.1s-0.5,1.1-1.1,1.1
				C280.4,315.8,279.8,315.3,279.8,314.7z M280.2,328.1v-10.7h1.6v10.7H280.2z"/>
			<path class="st2" d="M284.2,322.7c0-3.1,1.7-5.6,4.4-5.6c1.5,0,2.4,0.6,3,1.4l-0.8,1.1c-0.6-0.7-1.2-1.1-2-1.1
				c-1.9,0-3,1.9-3,4.2c0,2.2,1,4.2,3,4.2c0.8,0,1.5-0.4,2-1.1l0.8,1.1c-0.6,0.8-1.6,1.4-3,1.4C285.8,328.4,284.2,325.9,284.2,322.7
				z"/>
			<path class="st2" d="M299.2,328.1V327c-0.6,1-1.8,1.4-2.9,1.4c-1.8,0-3.2-1.3-3.2-3.6s1.5-3.5,3.2-3.5c1.1,0,2.1,0.5,2.9,1.4
				v-1.8c0-1.5-0.8-2.3-2.2-2.3c-1,0-1.8,0.4-2.7,1.3l-0.7-1.1c1-1.1,2.3-1.6,3.6-1.6c2.1,0,3.5,1,3.5,3.5v7.5L299.2,328.1
				L299.2,328.1z M299.2,325.9v-2c-0.5-0.9-1.4-1.4-2.3-1.4c-1.3,0-2.1,1-2.1,2.4c0,1.3,0.8,2.4,2.1,2.4
				C297.8,327.2,298.7,326.8,299.2,325.9z"/>
			<path class="st1" d="M233.1,114.5l1.2-1c0.6,1.1,1.8,1.9,3.1,1.9c1.8,0,2.7-1.1,2.7-2.9c0-2-1.3-2.7-2.9-2.7c-0.5,0-1,0-1.2,0
				v-1.6c0.2,0,0.7,0,1.1,0c1.5,0,2.7-0.8,2.7-2.5c0-1.8-1.1-2.6-2.6-2.6c-1.3,0-2.2,0.6-3,1.8l-1.1-1c0.9-1.4,2.4-2.3,4.2-2.3
				c2.4,0,4.2,1.3,4.2,4c0,1.8-1.3,3.1-2.7,3.4c1.3,0.2,2.9,1.6,2.9,3.7c0,2.5-1.6,4.2-4.4,4.2C235.3,117,233.8,115.9,233.1,114.5z"
				/>
			<path class="st1" d="M243.9,116.7v-1.5c4.8-5.5,6.5-7.4,6.5-9.5c0-1.6-1.1-2.5-2.4-2.5c-1.4,0-2.4,0.6-3.1,1.8l-1.1-1.1
				c1-1.5,2.4-2.4,4.3-2.4c2.3,0,4.2,1.5,4.2,4.1c0,2.5-1.8,4.7-5.8,9.4h5.8v1.6L243.9,116.7L243.9,116.7z"/>
			<path class="st1" d="M254.1,105.3c0-2.1,1.2-3.7,3.1-3.7c1.9,0,3.1,1.6,3.1,3.7c0,2-1.2,3.6-3.1,3.6
				C255.3,108.9,254.1,107.4,254.1,105.3z M259,105.3c0-1.5-0.7-2.6-1.8-2.6c-1.2,0-1.8,1.1-1.8,2.6c0,1.4,0.7,2.6,1.8,2.6
				C258.3,107.8,259,106.7,259,105.3z M256.2,116.7l7.8-14.8h1.1l-7.8,14.8H256.2z M260.9,113.4c0-2.1,1.2-3.7,3.1-3.7
				c1.8,0,3.1,1.6,3.1,3.7c0,2-1.3,3.6-3.1,3.6C262.1,117,260.9,115.4,260.9,113.4z M265.9,113.4c0-1.5-0.7-2.6-1.8-2.6
				s-1.8,1.1-1.8,2.6c0,1.4,0.7,2.5,1.8,2.5C265.1,115.9,265.9,114.8,265.9,113.4z"/>
			<path class="st2" d="M280.3,267.4v-12.5l-2.3,2.4l-1.1-1.1l3.5-3.7h1.6v14.8L280.3,267.4L280.3,267.4L280.3,267.4z"/>
			<path class="st2" d="M284.1,256c0-2.1,1.2-3.7,3.1-3.7s3.1,1.6,3.1,3.7c0,2-1.2,3.6-3.1,3.6S284.1,258,284.1,256z M289.1,256
				c0-1.5-0.7-2.6-1.8-2.6c-1.2,0-1.8,1.1-1.8,2.6c0,1.4,0.7,2.6,1.8,2.6C288.3,258.6,289.1,257.4,289.1,256z M286.2,267.4l7.8-14.8
				h1.1l-7.8,14.8H286.2z M290.9,264.1c0-2.1,1.2-3.7,3.1-3.7c1.8,0,3.1,1.6,3.1,3.7c0,2-1.3,3.6-3.1,3.6
				C292.1,267.7,290.9,266.1,290.9,264.1z M295.9,264.1c0-1.5-0.7-2.6-1.8-2.6s-1.8,1.1-1.8,2.6c0,1.4,0.7,2.5,1.8,2.5
				S295.9,265.4,295.9,264.1z"/>
			<rect x="268.6" y="272.5" class="st2" width="37.1" height="4.9"/>
			<rect x="231.5" y="121.8" class="st1" width="37.1" height="155.6"/>
		</g>
		<g>
			<path class="st2" d="M390.4,305.9l-0.9-3.3h-5.3l-0.9,3.3h-1.9l4.4-14.8h2.1l4.4,14.8H390.4z M386.7,293l-2.2,7.9h4.5L386.7,293z
				"/>
			<path class="st2" d="M393,304.6l0.8-1.1c0.6,0.7,1.7,1.4,2.8,1.4c1.2,0,2-0.7,2-1.8c0-1.1-1.1-1.6-2.2-2
				c-1.5-0.6-3.1-1.2-3.1-3.3c0-1.6,1.3-2.9,3.4-2.9c1.4,0,2.5,0.6,3.2,1.4l-0.7,1.1c-0.6-0.7-1.5-1.2-2.5-1.2
				c-1.2,0-1.9,0.6-1.9,1.6s1,1.4,2.1,1.8c1.5,0.6,3.2,1.3,3.2,3.5c0,1.8-1.4,3-3.6,3C395.2,306.2,394,305.6,393,304.6z"/>
			<path class="st2" d="M402.2,292.5c0-0.6,0.6-1.1,1.1-1.1s1.1,0.5,1.1,1.1s-0.5,1.1-1.1,1.1S402.2,293.1,402.2,292.5z
				 M402.5,305.9v-10.7h1.6v10.7H402.5z"/>
			<path class="st2" d="M412.5,305.9v-1.1c-0.6,1-1.8,1.4-2.9,1.4c-1.8,0-3.2-1.3-3.2-3.6s1.5-3.5,3.2-3.5c1.1,0,2.1,0.5,2.9,1.4
				v-1.8c0-1.5-0.8-2.3-2.2-2.3c-1,0-1.8,0.4-2.7,1.3l-0.7-1.1c1-1.1,2.3-1.6,3.6-1.6c2.1,0,3.5,1,3.5,3.5v7.5L412.5,305.9
				L412.5,305.9z M412.5,303.6v-2c-0.5-0.9-1.4-1.4-2.3-1.4c-1.3,0-2.1,1-2.1,2.4c0,1.3,0.8,2.4,2.1,2.4
				C411.1,305,412.1,304.5,412.5,303.6z"/>
			<path class="st1" d="M363.8,141v-1.5c4.8-5.5,6.5-7.4,6.5-9.5c0-1.6-1.1-2.5-2.4-2.5c-1.4,0-2.4,0.6-3.1,1.8l-1.1-1.1
				c1-1.5,2.4-2.4,4.3-2.4c2.3,0,4.2,1.5,4.2,4.1c0,2.5-1.8,4.7-5.8,9.4h5.8v1.6L363.8,141L363.8,141z"/>
			<path class="st1" d="M375.5,141l4.6-13.3h-6.3v-1.6h8.2v1.2l-4.7,13.6L375.5,141L375.5,141z"/>
			<path class="st1" d="M383.1,129.6c0-2.1,1.2-3.7,3.1-3.7c1.8,0,3.1,1.6,3.1,3.7c0,2-1.2,3.6-3.1,3.6
				C384.3,133.2,383.1,131.7,383.1,129.6z M388.1,129.6c0-1.5-0.7-2.6-1.8-2.6c-1.2,0-1.8,1.1-1.8,2.6c0,1.4,0.7,2.6,1.8,2.6
				S388.1,131,388.1,129.6z M385.3,141l7.8-14.8h1.1l-7.8,14.8H385.3z M390,137.7c0-2.1,1.2-3.7,3.1-3.7c1.8,0,3.1,1.6,3.1,3.7
				c0,2-1.3,3.6-3.1,3.6S390,139.7,390,137.7z M395,137.7c0-1.5-0.7-2.6-1.8-2.6s-1.8,1.1-1.8,2.6c0,1.4,0.7,2.5,1.8,2.5
				S395,139,395,137.7z"/>
			<path class="st2" d="M405.8,226.9l1-1.2c0.6,0.9,1.2,1.5,2.5,1.5c2.4,0,3.2-3.1,3.2-5.9c0-0.2,0-0.3,0-0.5
				c-0.6,1.1-1.8,2.2-3.2,2.2c-2.1,0-3.9-1.6-3.9-4.7c0-2.5,1.6-4.8,4.3-4.8c3.5,0,4.7,3.7,4.7,7.7s-1.5,7.7-5,7.7
				C407.6,228.8,406.5,228,405.8,226.9z M412.3,219.2c-0.1-1.7-0.6-4.2-2.8-4.2c-1.8,0-2.6,1.7-2.6,3.2c0,2.3,1.1,3.2,2.5,3.2
				C410.9,221.5,411.9,220.4,412.3,219.2z"/>
			<path class="st2" d="M415.8,217.1c0-2.1,1.2-3.7,3.1-3.7c1.8,0,3.1,1.6,3.1,3.7c0,2-1.2,3.6-3.1,3.6
				C417,220.7,415.8,219.2,415.8,217.1z M420.7,217.1c0-1.5-0.7-2.6-1.8-2.6c-1.2,0-1.8,1.1-1.8,2.6c0,1.4,0.7,2.6,1.8,2.6
				S420.7,218.5,420.7,217.1z M417.9,228.5l7.8-14.8h1.1l-7.8,14.8H417.9z M422.6,225.2c0-2.1,1.2-3.7,3.1-3.7
				c1.8,0,3.1,1.6,3.1,3.7c0,2-1.3,3.6-3.1,3.6C423.8,228.8,422.6,227.2,422.6,225.2z M427.6,225.2c0-1.5-0.7-2.6-1.8-2.6
				c-1.1,0-1.8,1.1-1.8,2.6c0,1.4,0.7,2.5,1.8,2.5C426.8,227.7,427.6,226.5,427.6,225.2z"/>
			<rect x="398.4" y="233.6" class="st2" width="37.1" height="43.8"/>
			<rect x="361.2" y="146.1" class="st1" width="37.1" height="131.3"/>
		</g>
		<g>
			<path class="st2" d="M505,304.2l1-1.4c0.7,0.9,2,1.7,3.4,1.7c1.8,0,2.7-1.1,2.7-2.4c0-1.7-1.4-2.4-3-3.1
				c-1.8-0.8-3.8-1.8-3.8-4.3c0-2.3,1.8-3.9,4.3-3.9c1.7,0,3,0.6,4,1.6l-0.9,1.3c-0.8-0.9-1.8-1.3-3-1.3c-1.4,0-2.4,0.9-2.4,2.2
				c0,1.4,1.3,2,2.8,2.8c1.8,0.9,3.9,1.8,3.9,4.6c0,2.2-1.5,4.1-4.5,4.1C507.5,306.2,506.1,305.4,505,304.2z"/>
			<path class="st2" d="M515.8,300.5c0-3,1.5-5.6,4.3-5.6c2.9,0,4.3,2.6,4.3,5.6s-1.5,5.6-4.3,5.6S515.8,303.5,515.8,300.5z
				 M522.8,300.5c0-2.1-0.8-4.2-2.7-4.2c-1.8,0-2.7,2-2.7,4.2s0.8,4.3,2.7,4.3C521.9,304.7,522.8,302.7,522.8,300.5z"/>
			<path class="st2" d="M532.7,305.9v-1.5c-0.6,0.9-1.8,1.8-3.1,1.8c-1.8,0-2.7-0.9-2.7-2.9v-8.1h1.6v7.7c0,1.4,0.6,1.9,1.8,1.9
				s2-0.7,2.5-1.7v-7.9h1.6v10.7H532.7z"/>
			<path class="st2" d="M537.6,303.7v-7.1h-1.4v-1.4h1.4v-3h1.6v3h1.8v1.4h-1.8v6.9c0,0.8,0.3,1.3,0.8,1.3c0.4,0,0.7-0.2,0.9-0.5
				l0.5,1.2c-0.4,0.4-0.9,0.6-1.8,0.6C538.2,306.2,537.6,305.4,537.6,303.7z"/>
			<path class="st2" d="M548.8,305.9v-7.7c0-1.4-0.6-1.9-1.8-1.9c-1,0-2,0.8-2.5,1.8v7.9h-1.6v-14.8h1.6v5.6
				c0.6-0.9,1.8-1.8,3.1-1.8c1.8,0,2.7,0.9,2.7,2.9v8.1L548.8,305.9L548.8,305.9z"/>
			<path class="st2" d="M503.8,328.1l-0.9-3.3h-5.3l-0.9,3.3h-1.9l4.4-14.8h2.1l4.4,14.8H503.8z M500.2,315.2l-2.2,7.9h4.5
				L500.2,315.2z"/>
			<path class="st2" d="M518.3,328.1v-7.8c0-1.1-0.5-1.8-1.5-1.8c-0.9,0-1.9,0.8-2.3,1.8v7.9h-1.6v-7.8c0-1.1-0.5-1.8-1.5-1.8
				c-0.9,0-1.8,0.8-2.3,1.8v7.9h-1.6v-10.7h1.6v1.6c0.5-0.8,1.7-1.8,3-1.8c1.4,0,2.2,0.7,2.4,1.9c0.6-1,1.8-1.9,3-1.9
				c1.6,0,2.5,0.8,2.5,2.8v8.2h-1.8L518.3,328.1L518.3,328.1z"/>
			<path class="st2" d="M522.2,322.7c0-3.1,1.7-5.6,4.3-5.6c2.9,0,4.2,2.5,4.2,5.6v0.5h-6.8c0.1,2.1,1.2,3.8,3,3.8
				c0.9,0,1.8-0.5,2.6-1.3l0.8,0.9c-0.8,1.1-2.1,1.8-3.5,1.8C524,328.4,522.2,326,522.2,322.7z M526.6,318.5c-1.8,0-2.7,2-2.7,3.6
				h5.4C529.2,320.4,528.5,318.5,526.6,318.5z"/>
			<path class="st2" d="M533.1,328.1v-10.7h1.6v1.8c0.6-1.1,1.8-1.9,3-1.9v1.7c-0.2,0-0.4-0.1-0.6-0.1c-1,0-2,0.8-2.5,1.8v7.6h-1.5
				V328.1z"/>
			<path class="st2" d="M539.3,314.7c0-0.6,0.6-1.1,1.1-1.1c0.6,0,1.1,0.5,1.1,1.1s-0.5,1.1-1.1,1.1
				C539.9,315.8,539.3,315.3,539.3,314.7z M539.6,328.1v-10.7h1.6v10.7H539.6z"/>
			<path class="st2" d="M543.6,322.7c0-3.1,1.7-5.6,4.4-5.6c1.5,0,2.4,0.6,3,1.4l-0.8,1.1c-0.6-0.7-1.2-1.1-2-1.1
				c-1.9,0-3,1.9-3,4.2c0,2.2,1,4.2,3,4.2c0.8,0,1.5-0.4,2-1.1l0.8,1.1c-0.6,0.8-1.6,1.4-3,1.4C545.3,328.4,543.6,325.9,543.6,322.7
				z"/>
			<path class="st2" d="M558.6,328.1V327c-0.6,1-1.8,1.4-2.9,1.4c-1.8,0-3.2-1.3-3.2-3.6s1.5-3.5,3.2-3.5c1.1,0,2.1,0.5,2.9,1.4
				v-1.8c0-1.5-0.8-2.3-2.2-2.3c-1,0-1.8,0.4-2.7,1.3l-0.7-1.1c1-1.1,2.3-1.6,3.6-1.6c2.1,0,3.5,1,3.5,3.5v7.5L558.6,328.1
				L558.6,328.1z M558.6,325.9v-2c-0.5-0.9-1.4-1.4-2.3-1.4c-1.3,0-2.1,1-2.1,2.4c0,1.3,0.8,2.4,2.1,2.4
				C557.3,327.2,558.2,326.8,558.6,325.9z"/>
			<path class="st1" d="M497.9,255.5l1.2-1c0.6,1.1,1.8,1.9,3.1,1.9c1.8,0,2.7-1.1,2.7-2.9c0-2-1.3-2.7-2.9-2.7c-0.5,0-1,0-1.2,0
				v-1.6c0.2,0,0.7,0,1.1,0c1.5,0,2.7-0.8,2.7-2.5c0-1.8-1.1-2.6-2.6-2.6c-1.3,0-2.2,0.6-3,1.8l-1.1-1c0.9-1.4,2.4-2.3,4.2-2.3
				c2.4,0,4.2,1.3,4.2,4c0,1.8-1.3,3.1-2.7,3.4c1.3,0.2,2.9,1.6,2.9,3.7c0,2.5-1.6,4.3-4.4,4.3C500.1,258,498.7,256.8,497.9,255.5z"
				/>
			<path class="st1" d="M508.2,246.3c0-2.1,1.2-3.7,3.1-3.7s3.1,1.6,3.1,3.7c0,2-1.2,3.6-3.1,3.6
				C509.4,249.9,508.2,248.3,508.2,246.3z M513.2,246.3c0-1.5-0.7-2.6-1.8-2.6c-1.2,0-1.8,1.1-1.8,2.6c0,1.4,0.7,2.6,1.8,2.6
				C512.4,248.8,513.2,247.7,513.2,246.3z M510.4,257.7l7.8-14.8h1.1l-7.8,14.8H510.4z M515.1,254.4c0-2.1,1.2-3.7,3.1-3.7
				c1.8,0,3.1,1.6,3.1,3.7c0,2-1.3,3.6-3.1,3.6C516.3,258,515.1,256.4,515.1,254.4z M520.1,254.4c0-1.5-0.7-2.6-1.8-2.6
				s-1.8,1.1-1.8,2.6c0,1.4,0.7,2.5,1.8,2.5S520.1,255.7,520.1,254.4z"/>
			<path class="st2" d="M535.2,235.7c0-4,1.4-7.7,5-7.7c1.6,0,2.8,0.7,3.5,1.8l-1,1.2c-0.6-0.9-1.2-1.5-2.5-1.5
				c-2.3,0-3.2,3.1-3.2,5.9c0,0.2,0,0.3,0,0.5c0.6-1,1.8-2.2,3.2-2.2c2.1,0,3.9,1.6,3.9,4.7c0,2.5-1.6,4.8-4.2,4.8
				C536.4,243.4,535.2,239.7,535.2,235.7z M542.3,238.6c0-2.3-1.1-3.2-2.5-3.2c-1.2,0-2.2,1.1-2.8,2.3c0.1,1.7,0.6,4.2,2.8,4.2
				C541.5,241.8,542.3,240.1,542.3,238.6z"/>
			<path class="st2" d="M545.5,231.7c0-2.1,1.2-3.7,3.1-3.7s3.1,1.6,3.1,3.7c0,2-1.2,3.6-3.1,3.6S545.5,233.8,545.5,231.7z
				 M550.5,231.7c0-1.5-0.7-2.6-1.8-2.6c-1.2,0-1.8,1.1-1.8,2.6c0,1.4,0.7,2.6,1.8,2.6S550.5,233.1,550.5,231.7z M547.6,243.1
				l7.8-14.8h1.1l-7.8,14.8H547.6z M552.3,239.8c0-2.1,1.2-3.7,3.1-3.7c1.8,0,3.1,1.6,3.1,3.7c0,2-1.3,3.6-3.1,3.6
				S552.3,241.8,552.3,239.8z M557.4,239.8c0-1.5-0.7-2.6-1.8-2.6s-1.8,1.1-1.8,2.6c0,1.4,0.7,2.5,1.8,2.5S557.4,241.1,557.4,239.8z
				"/>
			<rect x="491" y="262.8" class="st1" width="37.1" height="14.6"/>
			<rect x="528.1" y="248.2" class="st2" width="37.1" height="29.2"/>
		</g>
		<g>
			<path class="st2" d="M111.2,305.9v-14.8h7.6v1.6H113v4.9h5.7v1.6H113v5.3h5.8v1.6L111.2,305.9C111.2,306,111.2,305.9,111.2,305.9
				z"/>
			<path class="st2" d="M127.2,305.9v-1.5c-0.6,0.9-1.8,1.8-3.1,1.8c-1.8,0-2.7-0.9-2.7-2.9v-8.1h1.6v7.7c0,1.4,0.6,1.9,1.8,1.9
				c1.2,0,2-0.7,2.5-1.7v-7.9h1.6v10.7H127.2z"/>
			<path class="st2" d="M131.7,305.9v-10.7h1.6v1.8c0.6-1.1,1.8-1.9,3-1.9v1.7c-0.2,0-0.4-0.1-0.6-0.1c-1,0-2,0.8-2.5,1.8v7.6
				L131.7,305.9L131.7,305.9z"/>
			<path class="st2" d="M137.6,300.5c0-3,1.5-5.6,4.3-5.6c2.9,0,4.3,2.6,4.3,5.6s-1.5,5.6-4.3,5.6
				C139.1,306.2,137.6,303.5,137.6,300.5z M144.7,300.5c0-2.1-0.8-4.2-2.7-4.2c-1.8,0-2.7,2-2.7,4.2s0.8,4.3,2.7,4.3
				C143.9,304.7,144.7,302.7,144.7,300.5z"/>
			<path class="st2" d="M150.4,304.3v5.6h-1.6v-14.8h1.6v1.6c0.6-1.1,1.7-1.8,2.9-1.8c2.4,0,3.9,2.2,3.9,5.6c0,3.3-1.4,5.6-3.9,5.6
				C152,306.2,151,305.5,150.4,304.3z M155.4,300.5c0-2.3-0.8-4.2-2.6-4.2c-1,0-2,0.8-2.4,1.8v4.9c0.5,0.9,1.4,1.8,2.4,1.8
				C154.5,304.7,155.4,302.9,155.4,300.5z"/>
			<path class="st2" d="M158.9,300.5c0-3.1,1.7-5.6,4.3-5.6c2.9,0,4.3,2.5,4.3,5.6v0.5h-7c0.1,2.1,1.2,3.8,3,3.8
				c0.9,0,1.8-0.5,2.6-1.3l0.8,0.9c-0.8,1.1-2.1,1.8-3.5,1.8C160.5,306.2,158.9,303.8,158.9,300.5z M163.2,296.2
				c-1.8,0-2.7,2-2.7,3.6h5.4C165.8,298.2,165.1,296.2,163.2,296.2z"/>
			<path class="st1" d="M103.2,99.9l1.2-1c0.6,1.1,1.8,1.9,3.1,1.9c1.8,0,2.7-1.1,2.7-2.9c0-2-1.3-2.7-2.9-2.7c-0.5,0-1,0-1.2,0
				v-1.6c0.2,0,0.7,0,1.1,0c1.5,0,2.7-0.8,2.7-2.5c0-1.8-1.1-2.6-2.6-2.6c-1.3,0-2.2,0.6-3,1.8l-1.1-1c0.9-1.4,2.4-2.3,4.2-2.3
				c2.4,0,4.2,1.3,4.2,4c0,1.8-1.3,3.1-2.7,3.4c1.3,0.2,2.9,1.6,2.9,3.7c0,2.5-1.6,4.2-4.4,4.2C105.6,102.4,104,101.3,103.2,99.9z"
				/>
			<path class="st1" d="M114.1,100l1.2-1.1c0.7,1.2,1.7,1.9,3.1,1.9c1.7,0,2.7-1.5,2.7-3.2c0-2.1-1-3.2-2.5-3.2
				c-1,0-1.8,0.4-2.7,1.4l-1.3-0.5v-7.9h7.6V89h-5.8v5.2c0.6-0.7,1.6-1.3,2.8-1.3c2.1,0,3.9,1.7,3.9,4.8c0,2.8-1.8,4.8-4.4,4.8
				C116.2,102.4,115,101.4,114.1,100z"/>
			<path class="st1" d="M123.7,90.7c0-2.1,1.2-3.7,3.1-3.7s3.1,1.6,3.1,3.7c0,2-1.2,3.6-3.1,3.6C124.9,94.3,123.7,92.8,123.7,90.7z
				 M128.7,90.7c0-1.5-0.7-2.6-1.8-2.6c-1.2,0-1.8,1.1-1.8,2.6c0,1.4,0.7,2.6,1.8,2.6S128.7,92.1,128.7,90.7z M125.9,102.1l7.8-14.8
				h1.1l-7.8,14.8H125.9z M130.6,98.8c0-2.1,1.2-3.7,3.1-3.7c1.8,0,3.1,1.6,3.1,3.7c0,2-1.3,3.6-3.1,3.6
				C131.8,102.4,130.6,100.8,130.6,98.8z M135.6,98.8c0-1.5-0.7-2.6-1.8-2.6s-1.8,1.1-1.8,2.6c0,1.4,0.7,2.5,1.8,2.5
				S135.6,100.2,135.6,98.8z"/>
			<path class="st2" d="M141,35c0-1.9,1.5-3.4,3-4c-1.4-0.5-2.8-1.8-2.8-3.6c0-2.6,2-3.8,4.2-3.8s4.2,1.2,4.2,3.8
				c0,1.8-1.4,3.1-2.8,3.6c1.5,0.6,3,2,3,4c0,2.4-1.8,4-4.4,4S141,37.5,141,35z M148.1,34.9c0-1.9-2-3-2.6-3c-0.6,0.1-2.6,1.1-2.6,3
				c0,1.6,1.2,2.5,2.6,2.5C146.9,37.4,148.1,36.5,148.1,34.9z M147.8,27.6c0-1.5-1-2.4-2.4-2.4s-2.4,0.9-2.4,2.4
				c0,1.8,1.8,2.6,2.4,2.8C145.9,30.2,147.8,29.5,147.8,27.6z"/>
			<path class="st2" d="M156.9,38.8V35h-5.8v-1.6l5.4-9.5h2.3v9.5h1.7V35h-1.7v3.8H156.9z M156.9,25.8l-4.2,7.6h4.2V25.8z"/>
			<path class="st2" d="M161.3,27.4c0-2.1,1.2-3.7,3.1-3.7c1.8,0,3.1,1.6,3.1,3.7c0,2-1.2,3.6-3.1,3.6
				C162.6,31,161.3,29.4,161.3,27.4z M166.3,27.4c0-1.5-0.7-2.6-1.8-2.6c-1.2,0-1.8,1.1-1.8,2.6c0,1.4,0.7,2.6,1.8,2.6
				C165.5,29.9,166.3,28.8,166.3,27.4z M163.5,38.8l7.8-14.8h1.1l-7.8,14.8H163.5z M168.1,35.4c0-2.1,1.2-3.7,3.1-3.7
				c1.8,0,3.1,1.6,3.1,3.7c0,2-1.3,3.6-3.1,3.6C169.4,39,168.1,37.4,168.1,35.4z M173.2,35.4c0-1.5-0.7-2.6-1.8-2.6
				s-1.8,1.1-1.8,2.6c0,1.4,0.7,2.5,1.8,2.5C172.4,37.9,173.2,36.8,173.2,35.4z"/>
			<rect x="101.9" y="107.2" class="st1" width="37.1" height="170.2"/>
			<polygon class="st2" points="139,277.3 139,86.2 157.6,75.5 176,86.2 176,86.2 176,86.2 176,277.3 			"/>
			<polygon class="st2" points="139,81.4 139,43.8 176,43.8 176,81.4 157.6,70.7 			"/>
		</g>
		<g>
			<path class="st2" d="M643.7,305.9l-0.9-3.3h-5.3l-0.9,3.3h-1.9l4.4-14.8h2.1l4.4,14.8H643.7z M640,293l-2.2,7.9h4.5L640,293z"/>
			<path class="st2" d="M647.4,305.9v-9.3H646v-1.4h1.4v-1.4c0-1.8,1.1-3,2.6-3c0.6,0,1,0.1,1.4,0.3l-0.4,1.2
				c-0.2-0.1-0.5-0.2-0.7-0.2c-0.8,0-1.3,0.6-1.3,1.7v1.3h1.8v1.4H649v9.3L647.4,305.9L647.4,305.9L647.4,305.9z"/>
			<path class="st2" d="M652.7,305.9v-10.7h1.6v1.8c0.6-1.1,1.8-1.9,3-1.9v1.7c-0.2,0-0.4-0.1-0.6-0.1c-1,0-2,0.8-2.5,1.8v7.6
				L652.7,305.9L652.7,305.9z"/>
			<path class="st2" d="M658.9,292.5c0-0.6,0.6-1.1,1.1-1.1c0.6,0,1.1,0.5,1.1,1.1s-0.5,1.1-1.1,1.1S658.9,293.1,658.9,292.5z
				 M659.2,305.9v-10.7h1.6v10.7H659.2z"/>
			<path class="st2" d="M663.1,300.5c0-3.1,1.7-5.6,4.4-5.6c1.5,0,2.4,0.6,3,1.4l-0.8,1.1c-0.6-0.7-1.2-1.1-2-1.1
				c-1.9,0-3,1.9-3,4.2c0,2.2,1,4.2,3,4.2c0.8,0,1.5-0.4,2-1.1l0.8,1.1c-0.6,0.8-1.6,1.4-3,1.4C664.9,306.2,663.1,303.7,663.1,300.5
				z"/>
			<path class="st2" d="M678.2,305.9v-1.1c-0.6,1-1.8,1.4-2.9,1.4c-1.8,0-3.2-1.3-3.2-3.6s1.5-3.5,3.2-3.5c1.1,0,2.1,0.5,2.9,1.4
				v-1.8c0-1.5-0.8-2.3-2.2-2.3c-1,0-1.8,0.4-2.7,1.3l-0.7-1.1c1-1.1,2.3-1.6,3.6-1.6c2.1,0,3.5,1,3.5,3.5v7.5L678.2,305.9
				L678.2,305.9z M678.2,303.6v-2c-0.5-0.9-1.4-1.4-2.3-1.4c-1.3,0-2.1,1-2.1,2.4c0,1.3,0.8,2.4,2.1,2.4
				C676.9,305,677.7,304.5,678.2,303.6z"/>
			<path class="st1" d="M627.9,262.5V261c4.8-5.5,6.5-7.4,6.5-9.5c0-1.6-1.1-2.5-2.4-2.5c-1.4,0-2.4,0.6-3.1,1.8l-1.1-1.1
				c1-1.5,2.4-2.4,4.3-2.4c2.3,0,4.2,1.5,4.2,4.1c0,2.5-1.8,4.7-5.8,9.4h5.8v1.6L627.9,262.5L627.9,262.5z"/>
			<path class="st1" d="M638,251.1c0-2.1,1.2-3.7,3.1-3.7s3.1,1.6,3.1,3.7c0,2-1.2,3.6-3.1,3.6S638,253.2,638,251.1z M643,251.1
				c0-1.5-0.7-2.6-1.8-2.6c-1.2,0-1.8,1.1-1.8,2.6c0,1.4,0.7,2.6,1.8,2.6C642.3,253.7,643,252.6,643,251.1z M640.2,262.5l7.8-14.8
				h1.1l-7.8,14.8H640.2z M644.9,259.2c0-2.1,1.2-3.7,3.1-3.7c1.8,0,3.1,1.6,3.1,3.7c0,2-1.3,3.6-3.1,3.6
				C646.1,262.8,644.9,261.3,644.9,259.2z M649.9,259.2c0-1.5-0.7-2.6-1.8-2.6s-1.8,1.1-1.8,2.6c0,1.4,0.7,2.5,1.8,2.5
				S649.9,260.6,649.9,259.2z"/>
			<path class="st2" d="M664.6,265.1c0-3.6,1.2-7.7,4.6-7.7c3.4,0,4.6,4.1,4.6,7.7c0,3.5-1.2,7.7-4.6,7.7
				C665.8,272.7,664.6,268.6,664.6,265.1z M672.1,265.1c0-3-0.6-6.1-2.9-6.1c-2.3,0-2.9,3.1-2.9,6.1s0.6,6.1,2.9,6.1
				C671.6,271.2,672.1,267.9,672.1,265.1z"/>
			<path class="st2" d="M675.4,261.1c0-2.1,1.2-3.7,3.1-3.7s3.1,1.6,3.1,3.7c0,2-1.2,3.6-3.1,3.6S675.4,263.1,675.4,261.1z
				 M680.4,261.1c0-1.5-0.7-2.6-1.8-2.6c-1.2,0-1.8,1.1-1.8,2.6c0,1.4,0.7,2.6,1.8,2.6C679.7,263.6,680.4,262.5,680.4,261.1z
				 M677.6,272.5l7.8-14.8h1.1l-7.8,14.8H677.6z M682.3,269c0-2.1,1.2-3.7,3.1-3.7c1.8,0,3.1,1.6,3.1,3.7c0,2-1.3,3.6-3.1,3.6
				C683.5,272.7,682.3,271.2,682.3,269z M687.3,269c0-1.5-0.7-2.6-1.8-2.6s-1.8,1.1-1.8,2.6c0,1.4,0.7,2.5,1.8,2.5
				S687.3,270.5,687.3,269z"/>
			<rect x="620.7" y="267.6" class="st1" width="37.1" height="9.7"/>
		</g>
		<g>
			<g>
				<path class="st2" d="M745,298.5c0-4.2,2-7.7,5.6-7.7s5.6,3.4,5.6,7.7c0,4.2-2,7.7-5.6,7.7S745,302.8,745,298.5z M754.5,298.5
					c0-3.4-1.3-6.1-3.8-6.1c-2.4,0-3.8,2.7-3.8,6.1s1.3,6.1,3.8,6.1S754.5,301.8,754.5,298.5z"/>
				<path class="st2" d="M758.2,300.5c0-3.1,1.7-5.6,4.4-5.6c1.5,0,2.4,0.6,3,1.4l-0.8,1.1c-0.6-0.7-1.2-1.1-2-1.1
					c-1.9,0-3,1.9-3,4.2c0,2.2,1,4.2,3,4.2c0.8,0,1.5-0.4,2-1.1l0.8,1.1c-0.6,0.8-1.6,1.4-3,1.4C760,306.2,758.2,303.7,758.2,300.5z
					"/>
				<path class="st2" d="M767.3,300.5c0-3.1,1.7-5.6,4.3-5.6c2.9,0,4.2,2.5,4.2,5.6v0.5h-6.9c0.1,2.1,1.2,3.8,3,3.8
					c0.9,0,1.8-0.5,2.6-1.3l0.8,0.9c-0.8,1.1-2.1,1.8-3.5,1.8C769.1,306.2,767.3,303.8,767.3,300.5z M771.6,296.2
					c-1.8,0-2.7,2-2.7,3.6h5.4C774.3,298.2,773.6,296.2,771.6,296.2z"/>
				<path class="st2" d="M783.7,305.9v-1.1c-0.6,1-1.8,1.4-2.9,1.4c-1.8,0-3.2-1.3-3.2-3.6s1.5-3.5,3.2-3.5c1.1,0,2.1,0.5,2.9,1.4
					v-1.8c0-1.5-0.8-2.3-2.2-2.3c-1,0-1.8,0.4-2.7,1.3l-0.7-1.1c1-1.1,2.3-1.6,3.6-1.6c2.1,0,3.5,1,3.5,3.5v7.5L783.7,305.9
					L783.7,305.9z M783.7,303.6v-2c-0.5-0.9-1.4-1.4-2.3-1.4c-1.3,0-2.1,1-2.1,2.4c0,1.3,0.8,2.4,2.1,2.4
					C782.4,305,783.3,304.5,783.7,303.6z"/>
				<path class="st2" d="M794,305.9v-7.7c0-1.4-0.6-1.9-1.8-1.9c-1,0-2,0.8-2.5,1.8v7.9h-1.6v-10.7h1.6v1.6c0.6-0.9,1.8-1.8,3.1-1.8
					c1.8,0,2.7,1,2.7,3v8.1h-1.6L794,305.9L794,305.9z"/>
				<path class="st2" d="M798.2,292.5c0-0.6,0.6-1.1,1.1-1.1c0.6,0,1.1,0.5,1.1,1.1s-0.5,1.1-1.1,1.1
					C798.8,293.6,798.2,293.1,798.2,292.5z M798.5,305.9v-10.7h1.6v10.7H798.5z"/>
				<path class="st2" d="M808.6,305.9v-1.1c-0.6,1-1.8,1.4-2.9,1.4c-1.8,0-3.2-1.3-3.2-3.6s1.5-3.5,3.2-3.5c1.1,0,2.1,0.5,2.9,1.4
					v-1.8c0-1.5-0.8-2.3-2.2-2.3c-1,0-1.8,0.4-2.7,1.3l-0.7-1.1c1-1.1,2.3-1.6,3.6-1.6c2.1,0,3.5,1,3.5,3.5v7.5L808.6,305.9
					L808.6,305.9z M808.6,303.6v-2c-0.5-0.9-1.4-1.4-2.3-1.4c-1.3,0-2.1,1-2.1,2.4c0,1.3,0.8,2.4,2.1,2.4
					C807.2,305,808.1,304.5,808.6,303.6z"/>
			</g>
			<path class="st1" d="M755.6,267.4v-12.5l-2.3,2.4l-1.1-1.1l3.5-3.7h1.6v14.8L755.6,267.4L755.6,267.4z"/>
			<path class="st1" d="M759.4,256c0-2.1,1.2-3.7,3.1-3.7s3.1,1.6,3.1,3.7c0,2-1.2,3.6-3.1,3.6S759.4,258,759.4,256z M764.4,256
				c0-1.5-0.7-2.6-1.8-2.6c-1.2,0-1.8,1.1-1.8,2.6c0,1.4,0.7,2.6,1.8,2.6S764.4,257.4,764.4,256z M761.5,267.4l7.8-14.8h1.1
				l-7.8,14.8H761.5z M766.3,264.1c0-2.1,1.2-3.7,3.1-3.7c1.8,0,3.1,1.6,3.1,3.7c0,2-1.3,3.6-3.1,3.6
				C767.5,267.7,766.3,266.1,766.3,264.1z M771.2,264.1c0-1.5-0.7-2.6-1.8-2.6s-1.8,1.1-1.8,2.6c0,1.4,0.7,2.5,1.8,2.5
				S771.2,265.4,771.2,264.1z"/>
			<path class="st2" d="M788,265.1c0-3.6,1.2-7.7,4.6-7.7c3.4,0,4.6,4.1,4.6,7.7c0,3.5-1.2,7.7-4.6,7.7
				C789.2,272.7,788,268.6,788,265.1z M795.5,265.1c0-3-0.6-6.1-2.9-6.1c-2.3,0-2.9,3.1-2.9,6.1s0.6,6.1,2.9,6.1
				S795.5,267.9,795.5,265.1z"/>
			<path class="st2" d="M798.7,261.1c0-2.1,1.2-3.7,3.1-3.7s3.1,1.6,3.1,3.7c0,2-1.2,3.6-3.1,3.6S798.7,263.1,798.7,261.1z
				 M803.7,261.1c0-1.5-0.7-2.6-1.8-2.6c-1.2,0-1.8,1.1-1.8,2.6c0,1.4,0.7,2.6,1.8,2.6C802.9,263.6,803.7,262.5,803.7,261.1z
				 M800.9,272.5l7.8-14.8h1.1l-7.8,14.8H800.9z M805.5,269c0-2.1,1.2-3.7,3.1-3.7c1.8,0,3.1,1.6,3.1,3.7c0,2-1.3,3.6-3.1,3.6
				C806.8,272.7,805.5,271.2,805.5,269z M810.6,269c0-1.5-0.7-2.6-1.8-2.6s-1.8,1.1-1.8,2.6c0,1.4,0.7,2.5,1.8,2.5
				S810.6,270.5,810.6,269z"/>
			<rect x="744" y="272.5" class="st1" width="37.1" height="4.9"/>
		</g>
	</g>
</g>
</svg>
