<?xml version="1.0" encoding="utf-8"?>
<!-- Generator: Adobe Illustrator 21.1.0, SVG Export Plug-In . SVG Version: 6.00 Build 0)  -->
<svg version="1.1" id="Layer_1" xmlns="http://www.w3.org/2000/svg" xmlns:xlink="http://www.w3.org/1999/xlink" x="0px" y="0px"
	 viewBox="0 0 280 210" style="enable-background:new 0 0 280 210;" xml:space="preserve">
<style type="text/css">
	.st0{fill:#00ADEF;}
	.st1{fill:#82786F;}
	.st2{fill:#F5F5F5;}
</style>
<g>
	<path class="st0" d="M57,34.7v32.7v32.7c20.7-7.2,60.9-2.1,83,5.4V72.9V40.2C117.9,32.6,77.8,27.5,57,34.7z"/>
	<g>
		<path class="st1" d="M140,72.9v32.7c22.1,7.5,62.2,12.5,83,0V72.9C202.2,85.4,162.1,80.4,140,72.9z"/>
		<path class="st1" d="M140,138.4c-22.1-7.6-62.2-12.7-83-5.4v32.7c20.7-7.2,60.9-2.1,83,5.4s62.2,12.5,83,0v-32.7
			C202.2,150.9,162.1,145.9,140,138.4z"/>
	</g>
	<g>
		<path class="st2" d="M140,40.2v32.7c22.1,7.5,62.2,12.5,83,0V40.2C202.2,52.7,162.1,47.7,140,40.2z"/>
		<path class="st2" d="M140,105.6c-22.1-7.5-62.2-12.6-83-5.4v32.7c20.7-7.2,60.9-2.1,83,5.4s62.2,12.5,83,0v-32.7
			C202.2,118.2,162.1,113.2,140,105.6z"/>
	</g>
</g>
</svg>
