<?xml version="1.0" encoding="utf-8"?>
<!-- Generator: Adobe Illustrator 21.1.0, SVG Export Plug-In . SVG Version: 6.00 Build 0)  -->
<svg version="1.1" id="Layer_1" xmlns="http://www.w3.org/2000/svg" xmlns:xlink="http://www.w3.org/1999/xlink" x="0px" y="0px"
	 viewBox="0 0 430 167" style="enable-background:new 0 0 430 167;" xml:space="preserve">
<style type="text/css">
	.st0{fill:#F5F5F5;}
	.st1{fill:#82786F;}
	.st2{fill:#00ADEF;}
</style>
<g>
	<circle class="st0" cx="214.9" cy="92.8" r="74.2"/>
	<circle class="st1" cx="174.2" cy="77.9" r="7.4"/>
	<circle class="st1" cx="255.9" cy="77.9" r="7.4"/>
	<path class="st1" d="M227.6,138.7c-0.8-1.9-3-2.8-4.9-2c-5.2,2.2-10.8,2-15.6,0c-1.9-0.8-4.1,0.1-4.9,2s0.1,4.1,2,4.9
		c6.6,2.7,14.2,2.9,21.3,0C227.6,142.8,228.4,140.6,227.6,138.7z"/>
	<path class="st2" d="M229.9,100.2h-7.4v-7.4V77.9c0-4.1-3.3-7.4-7.4-7.4h-14.9c-4.1,0-7.4,3.3-7.4,7.4s3.3,7.4,7.4,7.4h7.4v7.4v7.4
		h-7.4c-4.1,0-7.4,3.3-7.4,7.4s3.3,7.4,7.4,7.4H215h14.9c4.1,0,7.4-3.3,7.4-7.4C237.2,103.5,233.9,100.2,229.9,100.2z"/>
	<path class="st2" d="M229.9,7.4L229.9,7.4c0-4.1-3.3-7.4-7.4-7.4S215,3.3,215,7.4v11.1v0.4v3.3v14.9c0,2.1-1.7,3.7-3.7,3.7
		s-3.7-1.7-3.7-3.7c0-4.1-3.3-7.4-7.4-7.4c-3.8,0-7,2.9-7.4,6.7c0,0.3,0,0.5,0,0.8s0,0.5,0,0.8c0.4,9.9,8.5,17.8,18.5,17.8
		c10.3,0,18.6-8.3,18.6-18.6V18.6l0,0L229.9,7.4L229.9,7.4z"/>
</g>
</svg>
